%TF.GenerationSoftware,KiCad,Pcbnew,7.0.5*%
%TF.CreationDate,2023-06-12T13:55:42-04:00*%
%TF.ProjectId,Untitled,556e7469-746c-4656-942e-6b696361645f,rev?*%
%TF.SameCoordinates,Original*%
%TF.FileFunction,AssemblyDrawing,Top*%
%FSLAX46Y46*%
G04 Gerber Fmt 4.6, Leading zero omitted, Abs format (unit mm)*
G04 Created by KiCad (PCBNEW 7.0.5) date 2023-06-12 13:55:42*
%MOMM*%
%LPD*%
G01*
G04 APERTURE LIST*
%ADD10C,0.150000*%
%ADD11C,0.100000*%
%ADD12C,0.200000*%
%ADD13C,0.127000*%
G04 APERTURE END LIST*
D10*
%TO.C,J4*%
X98171904Y-64922200D02*
X98314761Y-64969819D01*
X98314761Y-64969819D02*
X98552856Y-64969819D01*
X98552856Y-64969819D02*
X98648094Y-64922200D01*
X98648094Y-64922200D02*
X98695713Y-64874580D01*
X98695713Y-64874580D02*
X98743332Y-64779342D01*
X98743332Y-64779342D02*
X98743332Y-64684104D01*
X98743332Y-64684104D02*
X98695713Y-64588866D01*
X98695713Y-64588866D02*
X98648094Y-64541247D01*
X98648094Y-64541247D02*
X98552856Y-64493628D01*
X98552856Y-64493628D02*
X98362380Y-64446009D01*
X98362380Y-64446009D02*
X98267142Y-64398390D01*
X98267142Y-64398390D02*
X98219523Y-64350771D01*
X98219523Y-64350771D02*
X98171904Y-64255533D01*
X98171904Y-64255533D02*
X98171904Y-64160295D01*
X98171904Y-64160295D02*
X98219523Y-64065057D01*
X98219523Y-64065057D02*
X98267142Y-64017438D01*
X98267142Y-64017438D02*
X98362380Y-63969819D01*
X98362380Y-63969819D02*
X98600475Y-63969819D01*
X98600475Y-63969819D02*
X98743332Y-64017438D01*
X99600475Y-64922200D02*
X99505237Y-64969819D01*
X99505237Y-64969819D02*
X99314761Y-64969819D01*
X99314761Y-64969819D02*
X99219523Y-64922200D01*
X99219523Y-64922200D02*
X99171904Y-64874580D01*
X99171904Y-64874580D02*
X99124285Y-64779342D01*
X99124285Y-64779342D02*
X99124285Y-64493628D01*
X99124285Y-64493628D02*
X99171904Y-64398390D01*
X99171904Y-64398390D02*
X99219523Y-64350771D01*
X99219523Y-64350771D02*
X99314761Y-64303152D01*
X99314761Y-64303152D02*
X99505237Y-64303152D01*
X99505237Y-64303152D02*
X99600475Y-64350771D01*
X100029047Y-64969819D02*
X100029047Y-64303152D01*
X100029047Y-64493628D02*
X100076666Y-64398390D01*
X100076666Y-64398390D02*
X100124285Y-64350771D01*
X100124285Y-64350771D02*
X100219523Y-64303152D01*
X100219523Y-64303152D02*
X100314761Y-64303152D01*
X101029047Y-64922200D02*
X100933809Y-64969819D01*
X100933809Y-64969819D02*
X100743333Y-64969819D01*
X100743333Y-64969819D02*
X100648095Y-64922200D01*
X100648095Y-64922200D02*
X100600476Y-64826961D01*
X100600476Y-64826961D02*
X100600476Y-64446009D01*
X100600476Y-64446009D02*
X100648095Y-64350771D01*
X100648095Y-64350771D02*
X100743333Y-64303152D01*
X100743333Y-64303152D02*
X100933809Y-64303152D01*
X100933809Y-64303152D02*
X101029047Y-64350771D01*
X101029047Y-64350771D02*
X101076666Y-64446009D01*
X101076666Y-64446009D02*
X101076666Y-64541247D01*
X101076666Y-64541247D02*
X100600476Y-64636485D01*
X101410000Y-64303152D02*
X101600476Y-64969819D01*
X101600476Y-64969819D02*
X101790952Y-64493628D01*
X101790952Y-64493628D02*
X101981428Y-64969819D01*
X101981428Y-64969819D02*
X102171904Y-64303152D01*
X102314762Y-65065057D02*
X103076666Y-65065057D01*
X103171905Y-63969819D02*
X103743333Y-63969819D01*
X103457619Y-64969819D02*
X103457619Y-63969819D01*
X104457619Y-64922200D02*
X104362381Y-64969819D01*
X104362381Y-64969819D02*
X104171905Y-64969819D01*
X104171905Y-64969819D02*
X104076667Y-64922200D01*
X104076667Y-64922200D02*
X104029048Y-64826961D01*
X104029048Y-64826961D02*
X104029048Y-64446009D01*
X104029048Y-64446009D02*
X104076667Y-64350771D01*
X104076667Y-64350771D02*
X104171905Y-64303152D01*
X104171905Y-64303152D02*
X104362381Y-64303152D01*
X104362381Y-64303152D02*
X104457619Y-64350771D01*
X104457619Y-64350771D02*
X104505238Y-64446009D01*
X104505238Y-64446009D02*
X104505238Y-64541247D01*
X104505238Y-64541247D02*
X104029048Y-64636485D01*
X104933810Y-64969819D02*
X104933810Y-64303152D01*
X104933810Y-64493628D02*
X104981429Y-64398390D01*
X104981429Y-64398390D02*
X105029048Y-64350771D01*
X105029048Y-64350771D02*
X105124286Y-64303152D01*
X105124286Y-64303152D02*
X105219524Y-64303152D01*
X105552858Y-64969819D02*
X105552858Y-64303152D01*
X105552858Y-64398390D02*
X105600477Y-64350771D01*
X105600477Y-64350771D02*
X105695715Y-64303152D01*
X105695715Y-64303152D02*
X105838572Y-64303152D01*
X105838572Y-64303152D02*
X105933810Y-64350771D01*
X105933810Y-64350771D02*
X105981429Y-64446009D01*
X105981429Y-64446009D02*
X105981429Y-64969819D01*
X105981429Y-64446009D02*
X106029048Y-64350771D01*
X106029048Y-64350771D02*
X106124286Y-64303152D01*
X106124286Y-64303152D02*
X106267143Y-64303152D01*
X106267143Y-64303152D02*
X106362382Y-64350771D01*
X106362382Y-64350771D02*
X106410001Y-64446009D01*
X106410001Y-64446009D02*
X106410001Y-64969819D01*
X106886191Y-64969819D02*
X106886191Y-64303152D01*
X106886191Y-63969819D02*
X106838572Y-64017438D01*
X106838572Y-64017438D02*
X106886191Y-64065057D01*
X106886191Y-64065057D02*
X106933810Y-64017438D01*
X106933810Y-64017438D02*
X106886191Y-63969819D01*
X106886191Y-63969819D02*
X106886191Y-64065057D01*
X107362381Y-64303152D02*
X107362381Y-64969819D01*
X107362381Y-64398390D02*
X107410000Y-64350771D01*
X107410000Y-64350771D02*
X107505238Y-64303152D01*
X107505238Y-64303152D02*
X107648095Y-64303152D01*
X107648095Y-64303152D02*
X107743333Y-64350771D01*
X107743333Y-64350771D02*
X107790952Y-64446009D01*
X107790952Y-64446009D02*
X107790952Y-64969819D01*
X108695714Y-64969819D02*
X108695714Y-64446009D01*
X108695714Y-64446009D02*
X108648095Y-64350771D01*
X108648095Y-64350771D02*
X108552857Y-64303152D01*
X108552857Y-64303152D02*
X108362381Y-64303152D01*
X108362381Y-64303152D02*
X108267143Y-64350771D01*
X108695714Y-64922200D02*
X108600476Y-64969819D01*
X108600476Y-64969819D02*
X108362381Y-64969819D01*
X108362381Y-64969819D02*
X108267143Y-64922200D01*
X108267143Y-64922200D02*
X108219524Y-64826961D01*
X108219524Y-64826961D02*
X108219524Y-64731723D01*
X108219524Y-64731723D02*
X108267143Y-64636485D01*
X108267143Y-64636485D02*
X108362381Y-64588866D01*
X108362381Y-64588866D02*
X108600476Y-64588866D01*
X108600476Y-64588866D02*
X108695714Y-64541247D01*
X109314762Y-64969819D02*
X109219524Y-64922200D01*
X109219524Y-64922200D02*
X109171905Y-64826961D01*
X109171905Y-64826961D02*
X109171905Y-63969819D01*
X109457620Y-65065057D02*
X110219524Y-65065057D01*
X110648096Y-63969819D02*
X110743334Y-63969819D01*
X110743334Y-63969819D02*
X110838572Y-64017438D01*
X110838572Y-64017438D02*
X110886191Y-64065057D01*
X110886191Y-64065057D02*
X110933810Y-64160295D01*
X110933810Y-64160295D02*
X110981429Y-64350771D01*
X110981429Y-64350771D02*
X110981429Y-64588866D01*
X110981429Y-64588866D02*
X110933810Y-64779342D01*
X110933810Y-64779342D02*
X110886191Y-64874580D01*
X110886191Y-64874580D02*
X110838572Y-64922200D01*
X110838572Y-64922200D02*
X110743334Y-64969819D01*
X110743334Y-64969819D02*
X110648096Y-64969819D01*
X110648096Y-64969819D02*
X110552858Y-64922200D01*
X110552858Y-64922200D02*
X110505239Y-64874580D01*
X110505239Y-64874580D02*
X110457620Y-64779342D01*
X110457620Y-64779342D02*
X110410001Y-64588866D01*
X110410001Y-64588866D02*
X110410001Y-64350771D01*
X110410001Y-64350771D02*
X110457620Y-64160295D01*
X110457620Y-64160295D02*
X110505239Y-64065057D01*
X110505239Y-64065057D02*
X110552858Y-64017438D01*
X110552858Y-64017438D02*
X110648096Y-63969819D01*
X111933810Y-64969819D02*
X111362382Y-64969819D01*
X111648096Y-64969819D02*
X111648096Y-63969819D01*
X111648096Y-63969819D02*
X111552858Y-64112676D01*
X111552858Y-64112676D02*
X111457620Y-64207914D01*
X111457620Y-64207914D02*
X111362382Y-64255533D01*
X112267144Y-64969819D02*
X112790953Y-64303152D01*
X112267144Y-64303152D02*
X112790953Y-64969819D01*
X113362382Y-63969819D02*
X113457620Y-63969819D01*
X113457620Y-63969819D02*
X113552858Y-64017438D01*
X113552858Y-64017438D02*
X113600477Y-64065057D01*
X113600477Y-64065057D02*
X113648096Y-64160295D01*
X113648096Y-64160295D02*
X113695715Y-64350771D01*
X113695715Y-64350771D02*
X113695715Y-64588866D01*
X113695715Y-64588866D02*
X113648096Y-64779342D01*
X113648096Y-64779342D02*
X113600477Y-64874580D01*
X113600477Y-64874580D02*
X113552858Y-64922200D01*
X113552858Y-64922200D02*
X113457620Y-64969819D01*
X113457620Y-64969819D02*
X113362382Y-64969819D01*
X113362382Y-64969819D02*
X113267144Y-64922200D01*
X113267144Y-64922200D02*
X113219525Y-64874580D01*
X113219525Y-64874580D02*
X113171906Y-64779342D01*
X113171906Y-64779342D02*
X113124287Y-64588866D01*
X113124287Y-64588866D02*
X113124287Y-64350771D01*
X113124287Y-64350771D02*
X113171906Y-64160295D01*
X113171906Y-64160295D02*
X113219525Y-64065057D01*
X113219525Y-64065057D02*
X113267144Y-64017438D01*
X113267144Y-64017438D02*
X113362382Y-63969819D01*
X114076668Y-64065057D02*
X114124287Y-64017438D01*
X114124287Y-64017438D02*
X114219525Y-63969819D01*
X114219525Y-63969819D02*
X114457620Y-63969819D01*
X114457620Y-63969819D02*
X114552858Y-64017438D01*
X114552858Y-64017438D02*
X114600477Y-64065057D01*
X114600477Y-64065057D02*
X114648096Y-64160295D01*
X114648096Y-64160295D02*
X114648096Y-64255533D01*
X114648096Y-64255533D02*
X114600477Y-64398390D01*
X114600477Y-64398390D02*
X114029049Y-64969819D01*
X114029049Y-64969819D02*
X114648096Y-64969819D01*
X106076666Y-65469819D02*
X106076666Y-66184104D01*
X106076666Y-66184104D02*
X106029047Y-66326961D01*
X106029047Y-66326961D02*
X105933809Y-66422200D01*
X105933809Y-66422200D02*
X105790952Y-66469819D01*
X105790952Y-66469819D02*
X105695714Y-66469819D01*
X106981428Y-65803152D02*
X106981428Y-66469819D01*
X106743333Y-65422200D02*
X106505238Y-66136485D01*
X106505238Y-66136485D02*
X107124285Y-66136485D01*
%TO.C,R11*%
X65874819Y-67206666D02*
X65874819Y-67778094D01*
X65874819Y-67492380D02*
X64874819Y-67492380D01*
X64874819Y-67492380D02*
X65017676Y-67587618D01*
X65017676Y-67587618D02*
X65112914Y-67682856D01*
X65112914Y-67682856D02*
X65160533Y-67778094D01*
X64874819Y-66587618D02*
X64874819Y-66492380D01*
X64874819Y-66492380D02*
X64922438Y-66397142D01*
X64922438Y-66397142D02*
X64970057Y-66349523D01*
X64970057Y-66349523D02*
X65065295Y-66301904D01*
X65065295Y-66301904D02*
X65255771Y-66254285D01*
X65255771Y-66254285D02*
X65493866Y-66254285D01*
X65493866Y-66254285D02*
X65684342Y-66301904D01*
X65684342Y-66301904D02*
X65779580Y-66349523D01*
X65779580Y-66349523D02*
X65827200Y-66397142D01*
X65827200Y-66397142D02*
X65874819Y-66492380D01*
X65874819Y-66492380D02*
X65874819Y-66587618D01*
X65874819Y-66587618D02*
X65827200Y-66682856D01*
X65827200Y-66682856D02*
X65779580Y-66730475D01*
X65779580Y-66730475D02*
X65684342Y-66778094D01*
X65684342Y-66778094D02*
X65493866Y-66825713D01*
X65493866Y-66825713D02*
X65255771Y-66825713D01*
X65255771Y-66825713D02*
X65065295Y-66778094D01*
X65065295Y-66778094D02*
X64970057Y-66730475D01*
X64970057Y-66730475D02*
X64922438Y-66682856D01*
X64922438Y-66682856D02*
X64874819Y-66587618D01*
X64874819Y-65635237D02*
X64874819Y-65539999D01*
X64874819Y-65539999D02*
X64922438Y-65444761D01*
X64922438Y-65444761D02*
X64970057Y-65397142D01*
X64970057Y-65397142D02*
X65065295Y-65349523D01*
X65065295Y-65349523D02*
X65255771Y-65301904D01*
X65255771Y-65301904D02*
X65493866Y-65301904D01*
X65493866Y-65301904D02*
X65684342Y-65349523D01*
X65684342Y-65349523D02*
X65779580Y-65397142D01*
X65779580Y-65397142D02*
X65827200Y-65444761D01*
X65827200Y-65444761D02*
X65874819Y-65539999D01*
X65874819Y-65539999D02*
X65874819Y-65635237D01*
X65874819Y-65635237D02*
X65827200Y-65730475D01*
X65827200Y-65730475D02*
X65779580Y-65778094D01*
X65779580Y-65778094D02*
X65684342Y-65825713D01*
X65684342Y-65825713D02*
X65493866Y-65873332D01*
X65493866Y-65873332D02*
X65255771Y-65873332D01*
X65255771Y-65873332D02*
X65065295Y-65825713D01*
X65065295Y-65825713D02*
X64970057Y-65778094D01*
X64970057Y-65778094D02*
X64922438Y-65730475D01*
X64922438Y-65730475D02*
X64874819Y-65635237D01*
X65874819Y-64873332D02*
X64874819Y-64873332D01*
X65874819Y-64301904D02*
X65303390Y-64730475D01*
X64874819Y-64301904D02*
X65446247Y-64873332D01*
X62034819Y-66682857D02*
X61558628Y-67016190D01*
X62034819Y-67254285D02*
X61034819Y-67254285D01*
X61034819Y-67254285D02*
X61034819Y-66873333D01*
X61034819Y-66873333D02*
X61082438Y-66778095D01*
X61082438Y-66778095D02*
X61130057Y-66730476D01*
X61130057Y-66730476D02*
X61225295Y-66682857D01*
X61225295Y-66682857D02*
X61368152Y-66682857D01*
X61368152Y-66682857D02*
X61463390Y-66730476D01*
X61463390Y-66730476D02*
X61511009Y-66778095D01*
X61511009Y-66778095D02*
X61558628Y-66873333D01*
X61558628Y-66873333D02*
X61558628Y-67254285D01*
X62034819Y-65730476D02*
X62034819Y-66301904D01*
X62034819Y-66016190D02*
X61034819Y-66016190D01*
X61034819Y-66016190D02*
X61177676Y-66111428D01*
X61177676Y-66111428D02*
X61272914Y-66206666D01*
X61272914Y-66206666D02*
X61320533Y-66301904D01*
X62034819Y-64778095D02*
X62034819Y-65349523D01*
X62034819Y-65063809D02*
X61034819Y-65063809D01*
X61034819Y-65063809D02*
X61177676Y-65159047D01*
X61177676Y-65159047D02*
X61272914Y-65254285D01*
X61272914Y-65254285D02*
X61320533Y-65349523D01*
%TO.C,J2*%
X109553333Y-128895180D02*
X109553333Y-128180895D01*
X109553333Y-128180895D02*
X109600952Y-128038038D01*
X109600952Y-128038038D02*
X109696190Y-127942800D01*
X109696190Y-127942800D02*
X109839047Y-127895180D01*
X109839047Y-127895180D02*
X109934285Y-127895180D01*
X109124761Y-128799942D02*
X109077142Y-128847561D01*
X109077142Y-128847561D02*
X108981904Y-128895180D01*
X108981904Y-128895180D02*
X108743809Y-128895180D01*
X108743809Y-128895180D02*
X108648571Y-128847561D01*
X108648571Y-128847561D02*
X108600952Y-128799942D01*
X108600952Y-128799942D02*
X108553333Y-128704704D01*
X108553333Y-128704704D02*
X108553333Y-128609466D01*
X108553333Y-128609466D02*
X108600952Y-128466609D01*
X108600952Y-128466609D02*
X109172380Y-127895180D01*
X109172380Y-127895180D02*
X108553333Y-127895180D01*
%TO.C,R13*%
X74764819Y-91925238D02*
X74764819Y-92496666D01*
X74764819Y-92210952D02*
X73764819Y-92210952D01*
X73764819Y-92210952D02*
X73907676Y-92306190D01*
X73907676Y-92306190D02*
X74002914Y-92401428D01*
X74002914Y-92401428D02*
X74050533Y-92496666D01*
X73764819Y-91306190D02*
X73764819Y-91210952D01*
X73764819Y-91210952D02*
X73812438Y-91115714D01*
X73812438Y-91115714D02*
X73860057Y-91068095D01*
X73860057Y-91068095D02*
X73955295Y-91020476D01*
X73955295Y-91020476D02*
X74145771Y-90972857D01*
X74145771Y-90972857D02*
X74383866Y-90972857D01*
X74383866Y-90972857D02*
X74574342Y-91020476D01*
X74574342Y-91020476D02*
X74669580Y-91068095D01*
X74669580Y-91068095D02*
X74717200Y-91115714D01*
X74717200Y-91115714D02*
X74764819Y-91210952D01*
X74764819Y-91210952D02*
X74764819Y-91306190D01*
X74764819Y-91306190D02*
X74717200Y-91401428D01*
X74717200Y-91401428D02*
X74669580Y-91449047D01*
X74669580Y-91449047D02*
X74574342Y-91496666D01*
X74574342Y-91496666D02*
X74383866Y-91544285D01*
X74383866Y-91544285D02*
X74145771Y-91544285D01*
X74145771Y-91544285D02*
X73955295Y-91496666D01*
X73955295Y-91496666D02*
X73860057Y-91449047D01*
X73860057Y-91449047D02*
X73812438Y-91401428D01*
X73812438Y-91401428D02*
X73764819Y-91306190D01*
X74764819Y-90544285D02*
X73764819Y-90544285D01*
X74383866Y-90449047D02*
X74764819Y-90163333D01*
X74098152Y-90163333D02*
X74479104Y-90544285D01*
X70924819Y-91972857D02*
X70448628Y-92306190D01*
X70924819Y-92544285D02*
X69924819Y-92544285D01*
X69924819Y-92544285D02*
X69924819Y-92163333D01*
X69924819Y-92163333D02*
X69972438Y-92068095D01*
X69972438Y-92068095D02*
X70020057Y-92020476D01*
X70020057Y-92020476D02*
X70115295Y-91972857D01*
X70115295Y-91972857D02*
X70258152Y-91972857D01*
X70258152Y-91972857D02*
X70353390Y-92020476D01*
X70353390Y-92020476D02*
X70401009Y-92068095D01*
X70401009Y-92068095D02*
X70448628Y-92163333D01*
X70448628Y-92163333D02*
X70448628Y-92544285D01*
X70924819Y-91020476D02*
X70924819Y-91591904D01*
X70924819Y-91306190D02*
X69924819Y-91306190D01*
X69924819Y-91306190D02*
X70067676Y-91401428D01*
X70067676Y-91401428D02*
X70162914Y-91496666D01*
X70162914Y-91496666D02*
X70210533Y-91591904D01*
X69924819Y-90687142D02*
X69924819Y-90068095D01*
X69924819Y-90068095D02*
X70305771Y-90401428D01*
X70305771Y-90401428D02*
X70305771Y-90258571D01*
X70305771Y-90258571D02*
X70353390Y-90163333D01*
X70353390Y-90163333D02*
X70401009Y-90115714D01*
X70401009Y-90115714D02*
X70496247Y-90068095D01*
X70496247Y-90068095D02*
X70734342Y-90068095D01*
X70734342Y-90068095D02*
X70829580Y-90115714D01*
X70829580Y-90115714D02*
X70877200Y-90163333D01*
X70877200Y-90163333D02*
X70924819Y-90258571D01*
X70924819Y-90258571D02*
X70924819Y-90544285D01*
X70924819Y-90544285D02*
X70877200Y-90639523D01*
X70877200Y-90639523D02*
X70829580Y-90687142D01*
%TO.C,R6*%
X119779819Y-130020238D02*
X119779819Y-130591666D01*
X119779819Y-130305952D02*
X118779819Y-130305952D01*
X118779819Y-130305952D02*
X118922676Y-130401190D01*
X118922676Y-130401190D02*
X119017914Y-130496428D01*
X119017914Y-130496428D02*
X119065533Y-130591666D01*
X118779819Y-129401190D02*
X118779819Y-129305952D01*
X118779819Y-129305952D02*
X118827438Y-129210714D01*
X118827438Y-129210714D02*
X118875057Y-129163095D01*
X118875057Y-129163095D02*
X118970295Y-129115476D01*
X118970295Y-129115476D02*
X119160771Y-129067857D01*
X119160771Y-129067857D02*
X119398866Y-129067857D01*
X119398866Y-129067857D02*
X119589342Y-129115476D01*
X119589342Y-129115476D02*
X119684580Y-129163095D01*
X119684580Y-129163095D02*
X119732200Y-129210714D01*
X119732200Y-129210714D02*
X119779819Y-129305952D01*
X119779819Y-129305952D02*
X119779819Y-129401190D01*
X119779819Y-129401190D02*
X119732200Y-129496428D01*
X119732200Y-129496428D02*
X119684580Y-129544047D01*
X119684580Y-129544047D02*
X119589342Y-129591666D01*
X119589342Y-129591666D02*
X119398866Y-129639285D01*
X119398866Y-129639285D02*
X119160771Y-129639285D01*
X119160771Y-129639285D02*
X118970295Y-129591666D01*
X118970295Y-129591666D02*
X118875057Y-129544047D01*
X118875057Y-129544047D02*
X118827438Y-129496428D01*
X118827438Y-129496428D02*
X118779819Y-129401190D01*
X119779819Y-128639285D02*
X118779819Y-128639285D01*
X119398866Y-128544047D02*
X119779819Y-128258333D01*
X119113152Y-128258333D02*
X119494104Y-128639285D01*
X119804819Y-122491666D02*
X119328628Y-122824999D01*
X119804819Y-123063094D02*
X118804819Y-123063094D01*
X118804819Y-123063094D02*
X118804819Y-122682142D01*
X118804819Y-122682142D02*
X118852438Y-122586904D01*
X118852438Y-122586904D02*
X118900057Y-122539285D01*
X118900057Y-122539285D02*
X118995295Y-122491666D01*
X118995295Y-122491666D02*
X119138152Y-122491666D01*
X119138152Y-122491666D02*
X119233390Y-122539285D01*
X119233390Y-122539285D02*
X119281009Y-122586904D01*
X119281009Y-122586904D02*
X119328628Y-122682142D01*
X119328628Y-122682142D02*
X119328628Y-123063094D01*
X118804819Y-121634523D02*
X118804819Y-121824999D01*
X118804819Y-121824999D02*
X118852438Y-121920237D01*
X118852438Y-121920237D02*
X118900057Y-121967856D01*
X118900057Y-121967856D02*
X119042914Y-122063094D01*
X119042914Y-122063094D02*
X119233390Y-122110713D01*
X119233390Y-122110713D02*
X119614342Y-122110713D01*
X119614342Y-122110713D02*
X119709580Y-122063094D01*
X119709580Y-122063094D02*
X119757200Y-122015475D01*
X119757200Y-122015475D02*
X119804819Y-121920237D01*
X119804819Y-121920237D02*
X119804819Y-121729761D01*
X119804819Y-121729761D02*
X119757200Y-121634523D01*
X119757200Y-121634523D02*
X119709580Y-121586904D01*
X119709580Y-121586904D02*
X119614342Y-121539285D01*
X119614342Y-121539285D02*
X119376247Y-121539285D01*
X119376247Y-121539285D02*
X119281009Y-121586904D01*
X119281009Y-121586904D02*
X119233390Y-121634523D01*
X119233390Y-121634523D02*
X119185771Y-121729761D01*
X119185771Y-121729761D02*
X119185771Y-121920237D01*
X119185771Y-121920237D02*
X119233390Y-122015475D01*
X119233390Y-122015475D02*
X119281009Y-122063094D01*
X119281009Y-122063094D02*
X119376247Y-122110713D01*
%TO.C,H2*%
X86868095Y-143329819D02*
X86868095Y-142329819D01*
X86868095Y-142806009D02*
X87439523Y-142806009D01*
X87439523Y-143329819D02*
X87439523Y-142329819D01*
X87868095Y-142425057D02*
X87915714Y-142377438D01*
X87915714Y-142377438D02*
X88010952Y-142329819D01*
X88010952Y-142329819D02*
X88249047Y-142329819D01*
X88249047Y-142329819D02*
X88344285Y-142377438D01*
X88344285Y-142377438D02*
X88391904Y-142425057D01*
X88391904Y-142425057D02*
X88439523Y-142520295D01*
X88439523Y-142520295D02*
X88439523Y-142615533D01*
X88439523Y-142615533D02*
X88391904Y-142758390D01*
X88391904Y-142758390D02*
X87820476Y-143329819D01*
X87820476Y-143329819D02*
X88439523Y-143329819D01*
%TO.C,U7*%
X102693866Y-125991904D02*
X102646247Y-125944285D01*
X102646247Y-125944285D02*
X102598628Y-125849047D01*
X102598628Y-125849047D02*
X102693866Y-125658571D01*
X102693866Y-125658571D02*
X102646247Y-125563333D01*
X102646247Y-125563333D02*
X102598628Y-125515714D01*
X104864819Y-126491904D02*
X105674342Y-126491904D01*
X105674342Y-126491904D02*
X105769580Y-126444285D01*
X105769580Y-126444285D02*
X105817200Y-126396666D01*
X105817200Y-126396666D02*
X105864819Y-126301428D01*
X105864819Y-126301428D02*
X105864819Y-126110952D01*
X105864819Y-126110952D02*
X105817200Y-126015714D01*
X105817200Y-126015714D02*
X105769580Y-125968095D01*
X105769580Y-125968095D02*
X105674342Y-125920476D01*
X105674342Y-125920476D02*
X104864819Y-125920476D01*
X104864819Y-125539523D02*
X104864819Y-124872857D01*
X104864819Y-124872857D02*
X105864819Y-125301428D01*
%TO.C,U6*%
X67804819Y-82875238D02*
X67804819Y-83351428D01*
X67804819Y-83351428D02*
X66804819Y-83351428D01*
X66804819Y-82637142D02*
X66804819Y-81970476D01*
X66804819Y-81970476D02*
X67804819Y-82399047D01*
X67233390Y-81446666D02*
X67185771Y-81541904D01*
X67185771Y-81541904D02*
X67138152Y-81589523D01*
X67138152Y-81589523D02*
X67042914Y-81637142D01*
X67042914Y-81637142D02*
X66995295Y-81637142D01*
X66995295Y-81637142D02*
X66900057Y-81589523D01*
X66900057Y-81589523D02*
X66852438Y-81541904D01*
X66852438Y-81541904D02*
X66804819Y-81446666D01*
X66804819Y-81446666D02*
X66804819Y-81256190D01*
X66804819Y-81256190D02*
X66852438Y-81160952D01*
X66852438Y-81160952D02*
X66900057Y-81113333D01*
X66900057Y-81113333D02*
X66995295Y-81065714D01*
X66995295Y-81065714D02*
X67042914Y-81065714D01*
X67042914Y-81065714D02*
X67138152Y-81113333D01*
X67138152Y-81113333D02*
X67185771Y-81160952D01*
X67185771Y-81160952D02*
X67233390Y-81256190D01*
X67233390Y-81256190D02*
X67233390Y-81446666D01*
X67233390Y-81446666D02*
X67281009Y-81541904D01*
X67281009Y-81541904D02*
X67328628Y-81589523D01*
X67328628Y-81589523D02*
X67423866Y-81637142D01*
X67423866Y-81637142D02*
X67614342Y-81637142D01*
X67614342Y-81637142D02*
X67709580Y-81589523D01*
X67709580Y-81589523D02*
X67757200Y-81541904D01*
X67757200Y-81541904D02*
X67804819Y-81446666D01*
X67804819Y-81446666D02*
X67804819Y-81256190D01*
X67804819Y-81256190D02*
X67757200Y-81160952D01*
X67757200Y-81160952D02*
X67709580Y-81113333D01*
X67709580Y-81113333D02*
X67614342Y-81065714D01*
X67614342Y-81065714D02*
X67423866Y-81065714D01*
X67423866Y-81065714D02*
X67328628Y-81113333D01*
X67328628Y-81113333D02*
X67281009Y-81160952D01*
X67281009Y-81160952D02*
X67233390Y-81256190D01*
X66804819Y-80446666D02*
X66804819Y-80351428D01*
X66804819Y-80351428D02*
X66852438Y-80256190D01*
X66852438Y-80256190D02*
X66900057Y-80208571D01*
X66900057Y-80208571D02*
X66995295Y-80160952D01*
X66995295Y-80160952D02*
X67185771Y-80113333D01*
X67185771Y-80113333D02*
X67423866Y-80113333D01*
X67423866Y-80113333D02*
X67614342Y-80160952D01*
X67614342Y-80160952D02*
X67709580Y-80208571D01*
X67709580Y-80208571D02*
X67757200Y-80256190D01*
X67757200Y-80256190D02*
X67804819Y-80351428D01*
X67804819Y-80351428D02*
X67804819Y-80446666D01*
X67804819Y-80446666D02*
X67757200Y-80541904D01*
X67757200Y-80541904D02*
X67709580Y-80589523D01*
X67709580Y-80589523D02*
X67614342Y-80637142D01*
X67614342Y-80637142D02*
X67423866Y-80684761D01*
X67423866Y-80684761D02*
X67185771Y-80684761D01*
X67185771Y-80684761D02*
X66995295Y-80637142D01*
X66995295Y-80637142D02*
X66900057Y-80589523D01*
X66900057Y-80589523D02*
X66852438Y-80541904D01*
X66852438Y-80541904D02*
X66804819Y-80446666D01*
X66804819Y-79256190D02*
X66804819Y-79446666D01*
X66804819Y-79446666D02*
X66852438Y-79541904D01*
X66852438Y-79541904D02*
X66900057Y-79589523D01*
X66900057Y-79589523D02*
X67042914Y-79684761D01*
X67042914Y-79684761D02*
X67233390Y-79732380D01*
X67233390Y-79732380D02*
X67614342Y-79732380D01*
X67614342Y-79732380D02*
X67709580Y-79684761D01*
X67709580Y-79684761D02*
X67757200Y-79637142D01*
X67757200Y-79637142D02*
X67804819Y-79541904D01*
X67804819Y-79541904D02*
X67804819Y-79351428D01*
X67804819Y-79351428D02*
X67757200Y-79256190D01*
X67757200Y-79256190D02*
X67709580Y-79208571D01*
X67709580Y-79208571D02*
X67614342Y-79160952D01*
X67614342Y-79160952D02*
X67376247Y-79160952D01*
X67376247Y-79160952D02*
X67281009Y-79208571D01*
X67281009Y-79208571D02*
X67233390Y-79256190D01*
X67233390Y-79256190D02*
X67185771Y-79351428D01*
X67185771Y-79351428D02*
X67185771Y-79541904D01*
X67185771Y-79541904D02*
X67233390Y-79637142D01*
X67233390Y-79637142D02*
X67281009Y-79684761D01*
X67281009Y-79684761D02*
X67376247Y-79732380D01*
X73574819Y-82041904D02*
X74384342Y-82041904D01*
X74384342Y-82041904D02*
X74479580Y-81994285D01*
X74479580Y-81994285D02*
X74527200Y-81946666D01*
X74527200Y-81946666D02*
X74574819Y-81851428D01*
X74574819Y-81851428D02*
X74574819Y-81660952D01*
X74574819Y-81660952D02*
X74527200Y-81565714D01*
X74527200Y-81565714D02*
X74479580Y-81518095D01*
X74479580Y-81518095D02*
X74384342Y-81470476D01*
X74384342Y-81470476D02*
X73574819Y-81470476D01*
X73574819Y-80565714D02*
X73574819Y-80756190D01*
X73574819Y-80756190D02*
X73622438Y-80851428D01*
X73622438Y-80851428D02*
X73670057Y-80899047D01*
X73670057Y-80899047D02*
X73812914Y-80994285D01*
X73812914Y-80994285D02*
X74003390Y-81041904D01*
X74003390Y-81041904D02*
X74384342Y-81041904D01*
X74384342Y-81041904D02*
X74479580Y-80994285D01*
X74479580Y-80994285D02*
X74527200Y-80946666D01*
X74527200Y-80946666D02*
X74574819Y-80851428D01*
X74574819Y-80851428D02*
X74574819Y-80660952D01*
X74574819Y-80660952D02*
X74527200Y-80565714D01*
X74527200Y-80565714D02*
X74479580Y-80518095D01*
X74479580Y-80518095D02*
X74384342Y-80470476D01*
X74384342Y-80470476D02*
X74146247Y-80470476D01*
X74146247Y-80470476D02*
X74051009Y-80518095D01*
X74051009Y-80518095D02*
X74003390Y-80565714D01*
X74003390Y-80565714D02*
X73955771Y-80660952D01*
X73955771Y-80660952D02*
X73955771Y-80851428D01*
X73955771Y-80851428D02*
X74003390Y-80946666D01*
X74003390Y-80946666D02*
X74051009Y-80994285D01*
X74051009Y-80994285D02*
X74146247Y-81041904D01*
%TO.C,R5*%
X123579819Y-130070238D02*
X123579819Y-130641666D01*
X123579819Y-130355952D02*
X122579819Y-130355952D01*
X122579819Y-130355952D02*
X122722676Y-130451190D01*
X122722676Y-130451190D02*
X122817914Y-130546428D01*
X122817914Y-130546428D02*
X122865533Y-130641666D01*
X122579819Y-129451190D02*
X122579819Y-129355952D01*
X122579819Y-129355952D02*
X122627438Y-129260714D01*
X122627438Y-129260714D02*
X122675057Y-129213095D01*
X122675057Y-129213095D02*
X122770295Y-129165476D01*
X122770295Y-129165476D02*
X122960771Y-129117857D01*
X122960771Y-129117857D02*
X123198866Y-129117857D01*
X123198866Y-129117857D02*
X123389342Y-129165476D01*
X123389342Y-129165476D02*
X123484580Y-129213095D01*
X123484580Y-129213095D02*
X123532200Y-129260714D01*
X123532200Y-129260714D02*
X123579819Y-129355952D01*
X123579819Y-129355952D02*
X123579819Y-129451190D01*
X123579819Y-129451190D02*
X123532200Y-129546428D01*
X123532200Y-129546428D02*
X123484580Y-129594047D01*
X123484580Y-129594047D02*
X123389342Y-129641666D01*
X123389342Y-129641666D02*
X123198866Y-129689285D01*
X123198866Y-129689285D02*
X122960771Y-129689285D01*
X122960771Y-129689285D02*
X122770295Y-129641666D01*
X122770295Y-129641666D02*
X122675057Y-129594047D01*
X122675057Y-129594047D02*
X122627438Y-129546428D01*
X122627438Y-129546428D02*
X122579819Y-129451190D01*
X123579819Y-128689285D02*
X122579819Y-128689285D01*
X123198866Y-128594047D02*
X123579819Y-128308333D01*
X122913152Y-128308333D02*
X123294104Y-128689285D01*
X123704819Y-122491666D02*
X123228628Y-122824999D01*
X123704819Y-123063094D02*
X122704819Y-123063094D01*
X122704819Y-123063094D02*
X122704819Y-122682142D01*
X122704819Y-122682142D02*
X122752438Y-122586904D01*
X122752438Y-122586904D02*
X122800057Y-122539285D01*
X122800057Y-122539285D02*
X122895295Y-122491666D01*
X122895295Y-122491666D02*
X123038152Y-122491666D01*
X123038152Y-122491666D02*
X123133390Y-122539285D01*
X123133390Y-122539285D02*
X123181009Y-122586904D01*
X123181009Y-122586904D02*
X123228628Y-122682142D01*
X123228628Y-122682142D02*
X123228628Y-123063094D01*
X122704819Y-121586904D02*
X122704819Y-122063094D01*
X122704819Y-122063094D02*
X123181009Y-122110713D01*
X123181009Y-122110713D02*
X123133390Y-122063094D01*
X123133390Y-122063094D02*
X123085771Y-121967856D01*
X123085771Y-121967856D02*
X123085771Y-121729761D01*
X123085771Y-121729761D02*
X123133390Y-121634523D01*
X123133390Y-121634523D02*
X123181009Y-121586904D01*
X123181009Y-121586904D02*
X123276247Y-121539285D01*
X123276247Y-121539285D02*
X123514342Y-121539285D01*
X123514342Y-121539285D02*
X123609580Y-121586904D01*
X123609580Y-121586904D02*
X123657200Y-121634523D01*
X123657200Y-121634523D02*
X123704819Y-121729761D01*
X123704819Y-121729761D02*
X123704819Y-121967856D01*
X123704819Y-121967856D02*
X123657200Y-122063094D01*
X123657200Y-122063094D02*
X123609580Y-122110713D01*
%TO.C,R2*%
X59494819Y-126325238D02*
X59494819Y-126896666D01*
X59494819Y-126610952D02*
X58494819Y-126610952D01*
X58494819Y-126610952D02*
X58637676Y-126706190D01*
X58637676Y-126706190D02*
X58732914Y-126801428D01*
X58732914Y-126801428D02*
X58780533Y-126896666D01*
X58494819Y-125706190D02*
X58494819Y-125610952D01*
X58494819Y-125610952D02*
X58542438Y-125515714D01*
X58542438Y-125515714D02*
X58590057Y-125468095D01*
X58590057Y-125468095D02*
X58685295Y-125420476D01*
X58685295Y-125420476D02*
X58875771Y-125372857D01*
X58875771Y-125372857D02*
X59113866Y-125372857D01*
X59113866Y-125372857D02*
X59304342Y-125420476D01*
X59304342Y-125420476D02*
X59399580Y-125468095D01*
X59399580Y-125468095D02*
X59447200Y-125515714D01*
X59447200Y-125515714D02*
X59494819Y-125610952D01*
X59494819Y-125610952D02*
X59494819Y-125706190D01*
X59494819Y-125706190D02*
X59447200Y-125801428D01*
X59447200Y-125801428D02*
X59399580Y-125849047D01*
X59399580Y-125849047D02*
X59304342Y-125896666D01*
X59304342Y-125896666D02*
X59113866Y-125944285D01*
X59113866Y-125944285D02*
X58875771Y-125944285D01*
X58875771Y-125944285D02*
X58685295Y-125896666D01*
X58685295Y-125896666D02*
X58590057Y-125849047D01*
X58590057Y-125849047D02*
X58542438Y-125801428D01*
X58542438Y-125801428D02*
X58494819Y-125706190D01*
X59494819Y-124944285D02*
X58494819Y-124944285D01*
X59113866Y-124849047D02*
X59494819Y-124563333D01*
X58828152Y-124563333D02*
X59209104Y-124944285D01*
X63334819Y-125896666D02*
X62858628Y-126229999D01*
X63334819Y-126468094D02*
X62334819Y-126468094D01*
X62334819Y-126468094D02*
X62334819Y-126087142D01*
X62334819Y-126087142D02*
X62382438Y-125991904D01*
X62382438Y-125991904D02*
X62430057Y-125944285D01*
X62430057Y-125944285D02*
X62525295Y-125896666D01*
X62525295Y-125896666D02*
X62668152Y-125896666D01*
X62668152Y-125896666D02*
X62763390Y-125944285D01*
X62763390Y-125944285D02*
X62811009Y-125991904D01*
X62811009Y-125991904D02*
X62858628Y-126087142D01*
X62858628Y-126087142D02*
X62858628Y-126468094D01*
X62430057Y-125515713D02*
X62382438Y-125468094D01*
X62382438Y-125468094D02*
X62334819Y-125372856D01*
X62334819Y-125372856D02*
X62334819Y-125134761D01*
X62334819Y-125134761D02*
X62382438Y-125039523D01*
X62382438Y-125039523D02*
X62430057Y-124991904D01*
X62430057Y-124991904D02*
X62525295Y-124944285D01*
X62525295Y-124944285D02*
X62620533Y-124944285D01*
X62620533Y-124944285D02*
X62763390Y-124991904D01*
X62763390Y-124991904D02*
X63334819Y-125563332D01*
X63334819Y-125563332D02*
X63334819Y-124944285D01*
%TO.C,U2*%
X72693866Y-109481904D02*
X72646247Y-109434285D01*
X72646247Y-109434285D02*
X72598628Y-109339047D01*
X72598628Y-109339047D02*
X72693866Y-109148571D01*
X72693866Y-109148571D02*
X72646247Y-109053333D01*
X72646247Y-109053333D02*
X72598628Y-109005714D01*
X73574819Y-109981904D02*
X74384342Y-109981904D01*
X74384342Y-109981904D02*
X74479580Y-109934285D01*
X74479580Y-109934285D02*
X74527200Y-109886666D01*
X74527200Y-109886666D02*
X74574819Y-109791428D01*
X74574819Y-109791428D02*
X74574819Y-109600952D01*
X74574819Y-109600952D02*
X74527200Y-109505714D01*
X74527200Y-109505714D02*
X74479580Y-109458095D01*
X74479580Y-109458095D02*
X74384342Y-109410476D01*
X74384342Y-109410476D02*
X73574819Y-109410476D01*
X73670057Y-108981904D02*
X73622438Y-108934285D01*
X73622438Y-108934285D02*
X73574819Y-108839047D01*
X73574819Y-108839047D02*
X73574819Y-108600952D01*
X73574819Y-108600952D02*
X73622438Y-108505714D01*
X73622438Y-108505714D02*
X73670057Y-108458095D01*
X73670057Y-108458095D02*
X73765295Y-108410476D01*
X73765295Y-108410476D02*
X73860533Y-108410476D01*
X73860533Y-108410476D02*
X74003390Y-108458095D01*
X74003390Y-108458095D02*
X74574819Y-109029523D01*
X74574819Y-109029523D02*
X74574819Y-108410476D01*
%TO.C,R3*%
X55684819Y-126325238D02*
X55684819Y-126896666D01*
X55684819Y-126610952D02*
X54684819Y-126610952D01*
X54684819Y-126610952D02*
X54827676Y-126706190D01*
X54827676Y-126706190D02*
X54922914Y-126801428D01*
X54922914Y-126801428D02*
X54970533Y-126896666D01*
X54684819Y-125706190D02*
X54684819Y-125610952D01*
X54684819Y-125610952D02*
X54732438Y-125515714D01*
X54732438Y-125515714D02*
X54780057Y-125468095D01*
X54780057Y-125468095D02*
X54875295Y-125420476D01*
X54875295Y-125420476D02*
X55065771Y-125372857D01*
X55065771Y-125372857D02*
X55303866Y-125372857D01*
X55303866Y-125372857D02*
X55494342Y-125420476D01*
X55494342Y-125420476D02*
X55589580Y-125468095D01*
X55589580Y-125468095D02*
X55637200Y-125515714D01*
X55637200Y-125515714D02*
X55684819Y-125610952D01*
X55684819Y-125610952D02*
X55684819Y-125706190D01*
X55684819Y-125706190D02*
X55637200Y-125801428D01*
X55637200Y-125801428D02*
X55589580Y-125849047D01*
X55589580Y-125849047D02*
X55494342Y-125896666D01*
X55494342Y-125896666D02*
X55303866Y-125944285D01*
X55303866Y-125944285D02*
X55065771Y-125944285D01*
X55065771Y-125944285D02*
X54875295Y-125896666D01*
X54875295Y-125896666D02*
X54780057Y-125849047D01*
X54780057Y-125849047D02*
X54732438Y-125801428D01*
X54732438Y-125801428D02*
X54684819Y-125706190D01*
X55684819Y-124944285D02*
X54684819Y-124944285D01*
X55303866Y-124849047D02*
X55684819Y-124563333D01*
X55018152Y-124563333D02*
X55399104Y-124944285D01*
X59524819Y-125896666D02*
X59048628Y-126229999D01*
X59524819Y-126468094D02*
X58524819Y-126468094D01*
X58524819Y-126468094D02*
X58524819Y-126087142D01*
X58524819Y-126087142D02*
X58572438Y-125991904D01*
X58572438Y-125991904D02*
X58620057Y-125944285D01*
X58620057Y-125944285D02*
X58715295Y-125896666D01*
X58715295Y-125896666D02*
X58858152Y-125896666D01*
X58858152Y-125896666D02*
X58953390Y-125944285D01*
X58953390Y-125944285D02*
X59001009Y-125991904D01*
X59001009Y-125991904D02*
X59048628Y-126087142D01*
X59048628Y-126087142D02*
X59048628Y-126468094D01*
X58524819Y-125563332D02*
X58524819Y-124944285D01*
X58524819Y-124944285D02*
X58905771Y-125277618D01*
X58905771Y-125277618D02*
X58905771Y-125134761D01*
X58905771Y-125134761D02*
X58953390Y-125039523D01*
X58953390Y-125039523D02*
X59001009Y-124991904D01*
X59001009Y-124991904D02*
X59096247Y-124944285D01*
X59096247Y-124944285D02*
X59334342Y-124944285D01*
X59334342Y-124944285D02*
X59429580Y-124991904D01*
X59429580Y-124991904D02*
X59477200Y-125039523D01*
X59477200Y-125039523D02*
X59524819Y-125134761D01*
X59524819Y-125134761D02*
X59524819Y-125420475D01*
X59524819Y-125420475D02*
X59477200Y-125515713D01*
X59477200Y-125515713D02*
X59429580Y-125563332D01*
%TO.C,Q1*%
X56334819Y-71937142D02*
X55334819Y-71937142D01*
X56334819Y-70889524D02*
X55858628Y-71222857D01*
X56334819Y-71460952D02*
X55334819Y-71460952D01*
X55334819Y-71460952D02*
X55334819Y-71080000D01*
X55334819Y-71080000D02*
X55382438Y-70984762D01*
X55382438Y-70984762D02*
X55430057Y-70937143D01*
X55430057Y-70937143D02*
X55525295Y-70889524D01*
X55525295Y-70889524D02*
X55668152Y-70889524D01*
X55668152Y-70889524D02*
X55763390Y-70937143D01*
X55763390Y-70937143D02*
X55811009Y-70984762D01*
X55811009Y-70984762D02*
X55858628Y-71080000D01*
X55858628Y-71080000D02*
X55858628Y-71460952D01*
X55811009Y-70127619D02*
X55811009Y-70460952D01*
X56334819Y-70460952D02*
X55334819Y-70460952D01*
X55334819Y-70460952D02*
X55334819Y-69984762D01*
X56334819Y-69556190D02*
X56334819Y-69365714D01*
X56334819Y-69365714D02*
X56287200Y-69270476D01*
X56287200Y-69270476D02*
X56239580Y-69222857D01*
X56239580Y-69222857D02*
X56096723Y-69127619D01*
X56096723Y-69127619D02*
X55906247Y-69080000D01*
X55906247Y-69080000D02*
X55525295Y-69080000D01*
X55525295Y-69080000D02*
X55430057Y-69127619D01*
X55430057Y-69127619D02*
X55382438Y-69175238D01*
X55382438Y-69175238D02*
X55334819Y-69270476D01*
X55334819Y-69270476D02*
X55334819Y-69460952D01*
X55334819Y-69460952D02*
X55382438Y-69556190D01*
X55382438Y-69556190D02*
X55430057Y-69603809D01*
X55430057Y-69603809D02*
X55525295Y-69651428D01*
X55525295Y-69651428D02*
X55763390Y-69651428D01*
X55763390Y-69651428D02*
X55858628Y-69603809D01*
X55858628Y-69603809D02*
X55906247Y-69556190D01*
X55906247Y-69556190D02*
X55953866Y-69460952D01*
X55953866Y-69460952D02*
X55953866Y-69270476D01*
X55953866Y-69270476D02*
X55906247Y-69175238D01*
X55906247Y-69175238D02*
X55858628Y-69127619D01*
X55858628Y-69127619D02*
X55763390Y-69080000D01*
X55334819Y-68175238D02*
X55334819Y-68651428D01*
X55334819Y-68651428D02*
X55811009Y-68699047D01*
X55811009Y-68699047D02*
X55763390Y-68651428D01*
X55763390Y-68651428D02*
X55715771Y-68556190D01*
X55715771Y-68556190D02*
X55715771Y-68318095D01*
X55715771Y-68318095D02*
X55763390Y-68222857D01*
X55763390Y-68222857D02*
X55811009Y-68175238D01*
X55811009Y-68175238D02*
X55906247Y-68127619D01*
X55906247Y-68127619D02*
X56144342Y-68127619D01*
X56144342Y-68127619D02*
X56239580Y-68175238D01*
X56239580Y-68175238D02*
X56287200Y-68222857D01*
X56287200Y-68222857D02*
X56334819Y-68318095D01*
X56334819Y-68318095D02*
X56334819Y-68556190D01*
X56334819Y-68556190D02*
X56287200Y-68651428D01*
X56287200Y-68651428D02*
X56239580Y-68699047D01*
X55668152Y-67270476D02*
X56334819Y-67270476D01*
X55287200Y-67508571D02*
X56001485Y-67746666D01*
X56001485Y-67746666D02*
X56001485Y-67127619D01*
X55334819Y-66556190D02*
X55334819Y-66460952D01*
X55334819Y-66460952D02*
X55382438Y-66365714D01*
X55382438Y-66365714D02*
X55430057Y-66318095D01*
X55430057Y-66318095D02*
X55525295Y-66270476D01*
X55525295Y-66270476D02*
X55715771Y-66222857D01*
X55715771Y-66222857D02*
X55953866Y-66222857D01*
X55953866Y-66222857D02*
X56144342Y-66270476D01*
X56144342Y-66270476D02*
X56239580Y-66318095D01*
X56239580Y-66318095D02*
X56287200Y-66365714D01*
X56287200Y-66365714D02*
X56334819Y-66460952D01*
X56334819Y-66460952D02*
X56334819Y-66556190D01*
X56334819Y-66556190D02*
X56287200Y-66651428D01*
X56287200Y-66651428D02*
X56239580Y-66699047D01*
X56239580Y-66699047D02*
X56144342Y-66746666D01*
X56144342Y-66746666D02*
X55953866Y-66794285D01*
X55953866Y-66794285D02*
X55715771Y-66794285D01*
X55715771Y-66794285D02*
X55525295Y-66746666D01*
X55525295Y-66746666D02*
X55430057Y-66699047D01*
X55430057Y-66699047D02*
X55382438Y-66651428D01*
X55382438Y-66651428D02*
X55334819Y-66556190D01*
X56334819Y-65794285D02*
X55334819Y-65794285D01*
X55334819Y-65794285D02*
X56334819Y-65222857D01*
X56334819Y-65222857D02*
X55334819Y-65222857D01*
X62740057Y-68675238D02*
X62692438Y-68770476D01*
X62692438Y-68770476D02*
X62597200Y-68865714D01*
X62597200Y-68865714D02*
X62454342Y-69008571D01*
X62454342Y-69008571D02*
X62406723Y-69103809D01*
X62406723Y-69103809D02*
X62406723Y-69199047D01*
X62644819Y-69151428D02*
X62597200Y-69246666D01*
X62597200Y-69246666D02*
X62501961Y-69341904D01*
X62501961Y-69341904D02*
X62311485Y-69389523D01*
X62311485Y-69389523D02*
X61978152Y-69389523D01*
X61978152Y-69389523D02*
X61787676Y-69341904D01*
X61787676Y-69341904D02*
X61692438Y-69246666D01*
X61692438Y-69246666D02*
X61644819Y-69151428D01*
X61644819Y-69151428D02*
X61644819Y-68960952D01*
X61644819Y-68960952D02*
X61692438Y-68865714D01*
X61692438Y-68865714D02*
X61787676Y-68770476D01*
X61787676Y-68770476D02*
X61978152Y-68722857D01*
X61978152Y-68722857D02*
X62311485Y-68722857D01*
X62311485Y-68722857D02*
X62501961Y-68770476D01*
X62501961Y-68770476D02*
X62597200Y-68865714D01*
X62597200Y-68865714D02*
X62644819Y-68960952D01*
X62644819Y-68960952D02*
X62644819Y-69151428D01*
X62644819Y-67770476D02*
X62644819Y-68341904D01*
X62644819Y-68056190D02*
X61644819Y-68056190D01*
X61644819Y-68056190D02*
X61787676Y-68151428D01*
X61787676Y-68151428D02*
X61882914Y-68246666D01*
X61882914Y-68246666D02*
X61930533Y-68341904D01*
%TO.C,U3*%
X126033866Y-109481904D02*
X125986247Y-109434285D01*
X125986247Y-109434285D02*
X125938628Y-109339047D01*
X125938628Y-109339047D02*
X126033866Y-109148571D01*
X126033866Y-109148571D02*
X125986247Y-109053333D01*
X125986247Y-109053333D02*
X125938628Y-109005714D01*
X126914819Y-109981904D02*
X127724342Y-109981904D01*
X127724342Y-109981904D02*
X127819580Y-109934285D01*
X127819580Y-109934285D02*
X127867200Y-109886666D01*
X127867200Y-109886666D02*
X127914819Y-109791428D01*
X127914819Y-109791428D02*
X127914819Y-109600952D01*
X127914819Y-109600952D02*
X127867200Y-109505714D01*
X127867200Y-109505714D02*
X127819580Y-109458095D01*
X127819580Y-109458095D02*
X127724342Y-109410476D01*
X127724342Y-109410476D02*
X126914819Y-109410476D01*
X126914819Y-109029523D02*
X126914819Y-108410476D01*
X126914819Y-108410476D02*
X127295771Y-108743809D01*
X127295771Y-108743809D02*
X127295771Y-108600952D01*
X127295771Y-108600952D02*
X127343390Y-108505714D01*
X127343390Y-108505714D02*
X127391009Y-108458095D01*
X127391009Y-108458095D02*
X127486247Y-108410476D01*
X127486247Y-108410476D02*
X127724342Y-108410476D01*
X127724342Y-108410476D02*
X127819580Y-108458095D01*
X127819580Y-108458095D02*
X127867200Y-108505714D01*
X127867200Y-108505714D02*
X127914819Y-108600952D01*
X127914819Y-108600952D02*
X127914819Y-108886666D01*
X127914819Y-108886666D02*
X127867200Y-108981904D01*
X127867200Y-108981904D02*
X127819580Y-109029523D01*
%TO.C,A1*%
X100499104Y-107900954D02*
X100499104Y-107424764D01*
X100784819Y-107996192D02*
X99784819Y-107662859D01*
X99784819Y-107662859D02*
X100784819Y-107329526D01*
X100784819Y-106567621D02*
X99784819Y-106567621D01*
X100737200Y-106567621D02*
X100784819Y-106662859D01*
X100784819Y-106662859D02*
X100784819Y-106853335D01*
X100784819Y-106853335D02*
X100737200Y-106948573D01*
X100737200Y-106948573D02*
X100689580Y-106996192D01*
X100689580Y-106996192D02*
X100594342Y-107043811D01*
X100594342Y-107043811D02*
X100308628Y-107043811D01*
X100308628Y-107043811D02*
X100213390Y-106996192D01*
X100213390Y-106996192D02*
X100165771Y-106948573D01*
X100165771Y-106948573D02*
X100118152Y-106853335D01*
X100118152Y-106853335D02*
X100118152Y-106662859D01*
X100118152Y-106662859D02*
X100165771Y-106567621D01*
X100784819Y-105662859D02*
X100261009Y-105662859D01*
X100261009Y-105662859D02*
X100165771Y-105710478D01*
X100165771Y-105710478D02*
X100118152Y-105805716D01*
X100118152Y-105805716D02*
X100118152Y-105996192D01*
X100118152Y-105996192D02*
X100165771Y-106091430D01*
X100737200Y-105662859D02*
X100784819Y-105758097D01*
X100784819Y-105758097D02*
X100784819Y-105996192D01*
X100784819Y-105996192D02*
X100737200Y-106091430D01*
X100737200Y-106091430D02*
X100641961Y-106139049D01*
X100641961Y-106139049D02*
X100546723Y-106139049D01*
X100546723Y-106139049D02*
X100451485Y-106091430D01*
X100451485Y-106091430D02*
X100403866Y-105996192D01*
X100403866Y-105996192D02*
X100403866Y-105758097D01*
X100403866Y-105758097D02*
X100356247Y-105662859D01*
X100118152Y-105329525D02*
X100118152Y-104948573D01*
X100784819Y-105186668D02*
X99927676Y-105186668D01*
X99927676Y-105186668D02*
X99832438Y-105139049D01*
X99832438Y-105139049D02*
X99784819Y-105043811D01*
X99784819Y-105043811D02*
X99784819Y-104948573D01*
X100784819Y-104615239D02*
X100118152Y-104615239D01*
X100308628Y-104615239D02*
X100213390Y-104567620D01*
X100213390Y-104567620D02*
X100165771Y-104520001D01*
X100165771Y-104520001D02*
X100118152Y-104424763D01*
X100118152Y-104424763D02*
X100118152Y-104329525D01*
X100118152Y-103567620D02*
X100784819Y-103567620D01*
X100118152Y-103996191D02*
X100641961Y-103996191D01*
X100641961Y-103996191D02*
X100737200Y-103948572D01*
X100737200Y-103948572D02*
X100784819Y-103853334D01*
X100784819Y-103853334D02*
X100784819Y-103710477D01*
X100784819Y-103710477D02*
X100737200Y-103615239D01*
X100737200Y-103615239D02*
X100689580Y-103567620D01*
X100784819Y-103091429D02*
X100118152Y-103091429D01*
X99784819Y-103091429D02*
X99832438Y-103139048D01*
X99832438Y-103139048D02*
X99880057Y-103091429D01*
X99880057Y-103091429D02*
X99832438Y-103043810D01*
X99832438Y-103043810D02*
X99784819Y-103091429D01*
X99784819Y-103091429D02*
X99880057Y-103091429D01*
X100118152Y-102758096D02*
X100118152Y-102377144D01*
X99784819Y-102615239D02*
X100641961Y-102615239D01*
X100641961Y-102615239D02*
X100737200Y-102567620D01*
X100737200Y-102567620D02*
X100784819Y-102472382D01*
X100784819Y-102472382D02*
X100784819Y-102377144D01*
X100880057Y-102281906D02*
X100880057Y-101520001D01*
X100261009Y-100948572D02*
X100261009Y-101281905D01*
X100784819Y-101281905D02*
X99784819Y-101281905D01*
X99784819Y-101281905D02*
X99784819Y-100805715D01*
X100737200Y-100043810D02*
X100784819Y-100139048D01*
X100784819Y-100139048D02*
X100784819Y-100329524D01*
X100784819Y-100329524D02*
X100737200Y-100424762D01*
X100737200Y-100424762D02*
X100641961Y-100472381D01*
X100641961Y-100472381D02*
X100261009Y-100472381D01*
X100261009Y-100472381D02*
X100165771Y-100424762D01*
X100165771Y-100424762D02*
X100118152Y-100329524D01*
X100118152Y-100329524D02*
X100118152Y-100139048D01*
X100118152Y-100139048D02*
X100165771Y-100043810D01*
X100165771Y-100043810D02*
X100261009Y-99996191D01*
X100261009Y-99996191D02*
X100356247Y-99996191D01*
X100356247Y-99996191D02*
X100451485Y-100472381D01*
X100784819Y-99139048D02*
X100261009Y-99139048D01*
X100261009Y-99139048D02*
X100165771Y-99186667D01*
X100165771Y-99186667D02*
X100118152Y-99281905D01*
X100118152Y-99281905D02*
X100118152Y-99472381D01*
X100118152Y-99472381D02*
X100165771Y-99567619D01*
X100737200Y-99139048D02*
X100784819Y-99234286D01*
X100784819Y-99234286D02*
X100784819Y-99472381D01*
X100784819Y-99472381D02*
X100737200Y-99567619D01*
X100737200Y-99567619D02*
X100641961Y-99615238D01*
X100641961Y-99615238D02*
X100546723Y-99615238D01*
X100546723Y-99615238D02*
X100451485Y-99567619D01*
X100451485Y-99567619D02*
X100403866Y-99472381D01*
X100403866Y-99472381D02*
X100403866Y-99234286D01*
X100403866Y-99234286D02*
X100356247Y-99139048D01*
X100118152Y-98805714D02*
X100118152Y-98424762D01*
X99784819Y-98662857D02*
X100641961Y-98662857D01*
X100641961Y-98662857D02*
X100737200Y-98615238D01*
X100737200Y-98615238D02*
X100784819Y-98520000D01*
X100784819Y-98520000D02*
X100784819Y-98424762D01*
X100784819Y-98091428D02*
X99784819Y-98091428D01*
X100784819Y-97662857D02*
X100261009Y-97662857D01*
X100261009Y-97662857D02*
X100165771Y-97710476D01*
X100165771Y-97710476D02*
X100118152Y-97805714D01*
X100118152Y-97805714D02*
X100118152Y-97948571D01*
X100118152Y-97948571D02*
X100165771Y-98043809D01*
X100165771Y-98043809D02*
X100213390Y-98091428D01*
X100737200Y-96805714D02*
X100784819Y-96900952D01*
X100784819Y-96900952D02*
X100784819Y-97091428D01*
X100784819Y-97091428D02*
X100737200Y-97186666D01*
X100737200Y-97186666D02*
X100641961Y-97234285D01*
X100641961Y-97234285D02*
X100261009Y-97234285D01*
X100261009Y-97234285D02*
X100165771Y-97186666D01*
X100165771Y-97186666D02*
X100118152Y-97091428D01*
X100118152Y-97091428D02*
X100118152Y-96900952D01*
X100118152Y-96900952D02*
X100165771Y-96805714D01*
X100165771Y-96805714D02*
X100261009Y-96758095D01*
X100261009Y-96758095D02*
X100356247Y-96758095D01*
X100356247Y-96758095D02*
X100451485Y-97234285D01*
X100784819Y-96329523D02*
X100118152Y-96329523D01*
X100308628Y-96329523D02*
X100213390Y-96281904D01*
X100213390Y-96281904D02*
X100165771Y-96234285D01*
X100165771Y-96234285D02*
X100118152Y-96139047D01*
X100118152Y-96139047D02*
X100118152Y-96043809D01*
X100880057Y-95948571D02*
X100880057Y-95186666D01*
X100784819Y-94948570D02*
X99784819Y-94948570D01*
X99784819Y-94948570D02*
X100499104Y-94615237D01*
X100499104Y-94615237D02*
X99784819Y-94281904D01*
X99784819Y-94281904D02*
X100784819Y-94281904D01*
X99784819Y-93615237D02*
X99784819Y-93519999D01*
X99784819Y-93519999D02*
X99832438Y-93424761D01*
X99832438Y-93424761D02*
X99880057Y-93377142D01*
X99880057Y-93377142D02*
X99975295Y-93329523D01*
X99975295Y-93329523D02*
X100165771Y-93281904D01*
X100165771Y-93281904D02*
X100403866Y-93281904D01*
X100403866Y-93281904D02*
X100594342Y-93329523D01*
X100594342Y-93329523D02*
X100689580Y-93377142D01*
X100689580Y-93377142D02*
X100737200Y-93424761D01*
X100737200Y-93424761D02*
X100784819Y-93519999D01*
X100784819Y-93519999D02*
X100784819Y-93615237D01*
X100784819Y-93615237D02*
X100737200Y-93710475D01*
X100737200Y-93710475D02*
X100689580Y-93758094D01*
X100689580Y-93758094D02*
X100594342Y-93805713D01*
X100594342Y-93805713D02*
X100403866Y-93853332D01*
X100403866Y-93853332D02*
X100165771Y-93853332D01*
X100165771Y-93853332D02*
X99975295Y-93805713D01*
X99975295Y-93805713D02*
X99880057Y-93758094D01*
X99880057Y-93758094D02*
X99832438Y-93710475D01*
X99832438Y-93710475D02*
X99784819Y-93615237D01*
X100880057Y-93091428D02*
X100880057Y-92329523D01*
X100499104Y-92139046D02*
X100499104Y-91662856D01*
X100784819Y-92234284D02*
X99784819Y-91900951D01*
X99784819Y-91900951D02*
X100784819Y-91567618D01*
X100784819Y-90805713D02*
X99784819Y-90805713D01*
X100737200Y-90805713D02*
X100784819Y-90900951D01*
X100784819Y-90900951D02*
X100784819Y-91091427D01*
X100784819Y-91091427D02*
X100737200Y-91186665D01*
X100737200Y-91186665D02*
X100689580Y-91234284D01*
X100689580Y-91234284D02*
X100594342Y-91281903D01*
X100594342Y-91281903D02*
X100308628Y-91281903D01*
X100308628Y-91281903D02*
X100213390Y-91234284D01*
X100213390Y-91234284D02*
X100165771Y-91186665D01*
X100165771Y-91186665D02*
X100118152Y-91091427D01*
X100118152Y-91091427D02*
X100118152Y-90900951D01*
X100118152Y-90900951D02*
X100165771Y-90805713D01*
X100784819Y-89900951D02*
X100261009Y-89900951D01*
X100261009Y-89900951D02*
X100165771Y-89948570D01*
X100165771Y-89948570D02*
X100118152Y-90043808D01*
X100118152Y-90043808D02*
X100118152Y-90234284D01*
X100118152Y-90234284D02*
X100165771Y-90329522D01*
X100737200Y-89900951D02*
X100784819Y-89996189D01*
X100784819Y-89996189D02*
X100784819Y-90234284D01*
X100784819Y-90234284D02*
X100737200Y-90329522D01*
X100737200Y-90329522D02*
X100641961Y-90377141D01*
X100641961Y-90377141D02*
X100546723Y-90377141D01*
X100546723Y-90377141D02*
X100451485Y-90329522D01*
X100451485Y-90329522D02*
X100403866Y-90234284D01*
X100403866Y-90234284D02*
X100403866Y-89996189D01*
X100403866Y-89996189D02*
X100356247Y-89900951D01*
X100784819Y-89281903D02*
X100737200Y-89377141D01*
X100737200Y-89377141D02*
X100641961Y-89424760D01*
X100641961Y-89424760D02*
X99784819Y-89424760D01*
X100784819Y-88758093D02*
X100737200Y-88853331D01*
X100737200Y-88853331D02*
X100689580Y-88900950D01*
X100689580Y-88900950D02*
X100594342Y-88948569D01*
X100594342Y-88948569D02*
X100308628Y-88948569D01*
X100308628Y-88948569D02*
X100213390Y-88900950D01*
X100213390Y-88900950D02*
X100165771Y-88853331D01*
X100165771Y-88853331D02*
X100118152Y-88758093D01*
X100118152Y-88758093D02*
X100118152Y-88615236D01*
X100118152Y-88615236D02*
X100165771Y-88519998D01*
X100165771Y-88519998D02*
X100213390Y-88472379D01*
X100213390Y-88472379D02*
X100308628Y-88424760D01*
X100308628Y-88424760D02*
X100594342Y-88424760D01*
X100594342Y-88424760D02*
X100689580Y-88472379D01*
X100689580Y-88472379D02*
X100737200Y-88519998D01*
X100737200Y-88519998D02*
X100784819Y-88615236D01*
X100784819Y-88615236D02*
X100784819Y-88758093D01*
X100118152Y-87567617D02*
X100927676Y-87567617D01*
X100927676Y-87567617D02*
X101022914Y-87615236D01*
X101022914Y-87615236D02*
X101070533Y-87662855D01*
X101070533Y-87662855D02*
X101118152Y-87758093D01*
X101118152Y-87758093D02*
X101118152Y-87900950D01*
X101118152Y-87900950D02*
X101070533Y-87996188D01*
X100737200Y-87567617D02*
X100784819Y-87662855D01*
X100784819Y-87662855D02*
X100784819Y-87853331D01*
X100784819Y-87853331D02*
X100737200Y-87948569D01*
X100737200Y-87948569D02*
X100689580Y-87996188D01*
X100689580Y-87996188D02*
X100594342Y-88043807D01*
X100594342Y-88043807D02*
X100308628Y-88043807D01*
X100308628Y-88043807D02*
X100213390Y-87996188D01*
X100213390Y-87996188D02*
X100165771Y-87948569D01*
X100165771Y-87948569D02*
X100118152Y-87853331D01*
X100118152Y-87853331D02*
X100118152Y-87662855D01*
X100118152Y-87662855D02*
X100165771Y-87567617D01*
X100118152Y-86662855D02*
X100927676Y-86662855D01*
X100927676Y-86662855D02*
X101022914Y-86710474D01*
X101022914Y-86710474D02*
X101070533Y-86758093D01*
X101070533Y-86758093D02*
X101118152Y-86853331D01*
X101118152Y-86853331D02*
X101118152Y-86996188D01*
X101118152Y-86996188D02*
X101070533Y-87091426D01*
X100737200Y-86662855D02*
X100784819Y-86758093D01*
X100784819Y-86758093D02*
X100784819Y-86948569D01*
X100784819Y-86948569D02*
X100737200Y-87043807D01*
X100737200Y-87043807D02*
X100689580Y-87091426D01*
X100689580Y-87091426D02*
X100594342Y-87139045D01*
X100594342Y-87139045D02*
X100308628Y-87139045D01*
X100308628Y-87139045D02*
X100213390Y-87091426D01*
X100213390Y-87091426D02*
X100165771Y-87043807D01*
X100165771Y-87043807D02*
X100118152Y-86948569D01*
X100118152Y-86948569D02*
X100118152Y-86758093D01*
X100118152Y-86758093D02*
X100165771Y-86662855D01*
X100737200Y-85805712D02*
X100784819Y-85900950D01*
X100784819Y-85900950D02*
X100784819Y-86091426D01*
X100784819Y-86091426D02*
X100737200Y-86186664D01*
X100737200Y-86186664D02*
X100641961Y-86234283D01*
X100641961Y-86234283D02*
X100261009Y-86234283D01*
X100261009Y-86234283D02*
X100165771Y-86186664D01*
X100165771Y-86186664D02*
X100118152Y-86091426D01*
X100118152Y-86091426D02*
X100118152Y-85900950D01*
X100118152Y-85900950D02*
X100165771Y-85805712D01*
X100165771Y-85805712D02*
X100261009Y-85758093D01*
X100261009Y-85758093D02*
X100356247Y-85758093D01*
X100356247Y-85758093D02*
X100451485Y-86234283D01*
X100784819Y-85329521D02*
X100118152Y-85329521D01*
X100308628Y-85329521D02*
X100213390Y-85281902D01*
X100213390Y-85281902D02*
X100165771Y-85234283D01*
X100165771Y-85234283D02*
X100118152Y-85139045D01*
X100118152Y-85139045D02*
X100118152Y-85043807D01*
X86915714Y-103039104D02*
X87391904Y-103039104D01*
X86820476Y-103324819D02*
X87153809Y-102324819D01*
X87153809Y-102324819D02*
X87487142Y-103324819D01*
X88344285Y-103324819D02*
X87772857Y-103324819D01*
X88058571Y-103324819D02*
X88058571Y-102324819D01*
X88058571Y-102324819D02*
X87963333Y-102467676D01*
X87963333Y-102467676D02*
X87868095Y-102562914D01*
X87868095Y-102562914D02*
X87772857Y-102610533D01*
%TO.C,SW1*%
X74436200Y-46961618D02*
X74483819Y-46818761D01*
X74483819Y-46818761D02*
X74483819Y-46580666D01*
X74483819Y-46580666D02*
X74436200Y-46485428D01*
X74436200Y-46485428D02*
X74388580Y-46437809D01*
X74388580Y-46437809D02*
X74293342Y-46390190D01*
X74293342Y-46390190D02*
X74198104Y-46390190D01*
X74198104Y-46390190D02*
X74102866Y-46437809D01*
X74102866Y-46437809D02*
X74055247Y-46485428D01*
X74055247Y-46485428D02*
X74007628Y-46580666D01*
X74007628Y-46580666D02*
X73960009Y-46771142D01*
X73960009Y-46771142D02*
X73912390Y-46866380D01*
X73912390Y-46866380D02*
X73864771Y-46913999D01*
X73864771Y-46913999D02*
X73769533Y-46961618D01*
X73769533Y-46961618D02*
X73674295Y-46961618D01*
X73674295Y-46961618D02*
X73579057Y-46913999D01*
X73579057Y-46913999D02*
X73531438Y-46866380D01*
X73531438Y-46866380D02*
X73483819Y-46771142D01*
X73483819Y-46771142D02*
X73483819Y-46533047D01*
X73483819Y-46533047D02*
X73531438Y-46390190D01*
X73483819Y-46056856D02*
X74483819Y-45818761D01*
X74483819Y-45818761D02*
X73769533Y-45628285D01*
X73769533Y-45628285D02*
X74483819Y-45437809D01*
X74483819Y-45437809D02*
X73483819Y-45199714D01*
X74579057Y-45056857D02*
X74579057Y-44294952D01*
X74483819Y-44056856D02*
X73483819Y-44056856D01*
X73483819Y-44056856D02*
X73483819Y-43675904D01*
X73483819Y-43675904D02*
X73531438Y-43580666D01*
X73531438Y-43580666D02*
X73579057Y-43533047D01*
X73579057Y-43533047D02*
X73674295Y-43485428D01*
X73674295Y-43485428D02*
X73817152Y-43485428D01*
X73817152Y-43485428D02*
X73912390Y-43533047D01*
X73912390Y-43533047D02*
X73960009Y-43580666D01*
X73960009Y-43580666D02*
X74007628Y-43675904D01*
X74007628Y-43675904D02*
X74007628Y-44056856D01*
X73817152Y-42628285D02*
X74483819Y-42628285D01*
X73817152Y-43056856D02*
X74340961Y-43056856D01*
X74340961Y-43056856D02*
X74436200Y-43009237D01*
X74436200Y-43009237D02*
X74483819Y-42913999D01*
X74483819Y-42913999D02*
X74483819Y-42771142D01*
X74483819Y-42771142D02*
X74436200Y-42675904D01*
X74436200Y-42675904D02*
X74388580Y-42628285D01*
X74436200Y-42199713D02*
X74483819Y-42104475D01*
X74483819Y-42104475D02*
X74483819Y-41913999D01*
X74483819Y-41913999D02*
X74436200Y-41818761D01*
X74436200Y-41818761D02*
X74340961Y-41771142D01*
X74340961Y-41771142D02*
X74293342Y-41771142D01*
X74293342Y-41771142D02*
X74198104Y-41818761D01*
X74198104Y-41818761D02*
X74150485Y-41913999D01*
X74150485Y-41913999D02*
X74150485Y-42056856D01*
X74150485Y-42056856D02*
X74102866Y-42152094D01*
X74102866Y-42152094D02*
X74007628Y-42199713D01*
X74007628Y-42199713D02*
X73960009Y-42199713D01*
X73960009Y-42199713D02*
X73864771Y-42152094D01*
X73864771Y-42152094D02*
X73817152Y-42056856D01*
X73817152Y-42056856D02*
X73817152Y-41913999D01*
X73817152Y-41913999D02*
X73864771Y-41818761D01*
X74483819Y-41342570D02*
X73483819Y-41342570D01*
X74483819Y-40913999D02*
X73960009Y-40913999D01*
X73960009Y-40913999D02*
X73864771Y-40961618D01*
X73864771Y-40961618D02*
X73817152Y-41056856D01*
X73817152Y-41056856D02*
X73817152Y-41199713D01*
X73817152Y-41199713D02*
X73864771Y-41294951D01*
X73864771Y-41294951D02*
X73912390Y-41342570D01*
%TO.C,R4*%
X51874819Y-126325238D02*
X51874819Y-126896666D01*
X51874819Y-126610952D02*
X50874819Y-126610952D01*
X50874819Y-126610952D02*
X51017676Y-126706190D01*
X51017676Y-126706190D02*
X51112914Y-126801428D01*
X51112914Y-126801428D02*
X51160533Y-126896666D01*
X50874819Y-125706190D02*
X50874819Y-125610952D01*
X50874819Y-125610952D02*
X50922438Y-125515714D01*
X50922438Y-125515714D02*
X50970057Y-125468095D01*
X50970057Y-125468095D02*
X51065295Y-125420476D01*
X51065295Y-125420476D02*
X51255771Y-125372857D01*
X51255771Y-125372857D02*
X51493866Y-125372857D01*
X51493866Y-125372857D02*
X51684342Y-125420476D01*
X51684342Y-125420476D02*
X51779580Y-125468095D01*
X51779580Y-125468095D02*
X51827200Y-125515714D01*
X51827200Y-125515714D02*
X51874819Y-125610952D01*
X51874819Y-125610952D02*
X51874819Y-125706190D01*
X51874819Y-125706190D02*
X51827200Y-125801428D01*
X51827200Y-125801428D02*
X51779580Y-125849047D01*
X51779580Y-125849047D02*
X51684342Y-125896666D01*
X51684342Y-125896666D02*
X51493866Y-125944285D01*
X51493866Y-125944285D02*
X51255771Y-125944285D01*
X51255771Y-125944285D02*
X51065295Y-125896666D01*
X51065295Y-125896666D02*
X50970057Y-125849047D01*
X50970057Y-125849047D02*
X50922438Y-125801428D01*
X50922438Y-125801428D02*
X50874819Y-125706190D01*
X51874819Y-124944285D02*
X50874819Y-124944285D01*
X51493866Y-124849047D02*
X51874819Y-124563333D01*
X51208152Y-124563333D02*
X51589104Y-124944285D01*
X55714819Y-125896666D02*
X55238628Y-126229999D01*
X55714819Y-126468094D02*
X54714819Y-126468094D01*
X54714819Y-126468094D02*
X54714819Y-126087142D01*
X54714819Y-126087142D02*
X54762438Y-125991904D01*
X54762438Y-125991904D02*
X54810057Y-125944285D01*
X54810057Y-125944285D02*
X54905295Y-125896666D01*
X54905295Y-125896666D02*
X55048152Y-125896666D01*
X55048152Y-125896666D02*
X55143390Y-125944285D01*
X55143390Y-125944285D02*
X55191009Y-125991904D01*
X55191009Y-125991904D02*
X55238628Y-126087142D01*
X55238628Y-126087142D02*
X55238628Y-126468094D01*
X55048152Y-125039523D02*
X55714819Y-125039523D01*
X54667200Y-125277618D02*
X55381485Y-125515713D01*
X55381485Y-125515713D02*
X55381485Y-124896666D01*
%TO.C,J1*%
X66373333Y-128895180D02*
X66373333Y-128180895D01*
X66373333Y-128180895D02*
X66420952Y-128038038D01*
X66420952Y-128038038D02*
X66516190Y-127942800D01*
X66516190Y-127942800D02*
X66659047Y-127895180D01*
X66659047Y-127895180D02*
X66754285Y-127895180D01*
X65373333Y-127895180D02*
X65944761Y-127895180D01*
X65659047Y-127895180D02*
X65659047Y-128895180D01*
X65659047Y-128895180D02*
X65754285Y-128752323D01*
X65754285Y-128752323D02*
X65849523Y-128657085D01*
X65849523Y-128657085D02*
X65944761Y-128609466D01*
%TO.C,J6*%
X62954819Y-84153333D02*
X63669104Y-84153333D01*
X63669104Y-84153333D02*
X63811961Y-84200952D01*
X63811961Y-84200952D02*
X63907200Y-84296190D01*
X63907200Y-84296190D02*
X63954819Y-84439047D01*
X63954819Y-84439047D02*
X63954819Y-84534285D01*
X62954819Y-83248571D02*
X62954819Y-83439047D01*
X62954819Y-83439047D02*
X63002438Y-83534285D01*
X63002438Y-83534285D02*
X63050057Y-83581904D01*
X63050057Y-83581904D02*
X63192914Y-83677142D01*
X63192914Y-83677142D02*
X63383390Y-83724761D01*
X63383390Y-83724761D02*
X63764342Y-83724761D01*
X63764342Y-83724761D02*
X63859580Y-83677142D01*
X63859580Y-83677142D02*
X63907200Y-83629523D01*
X63907200Y-83629523D02*
X63954819Y-83534285D01*
X63954819Y-83534285D02*
X63954819Y-83343809D01*
X63954819Y-83343809D02*
X63907200Y-83248571D01*
X63907200Y-83248571D02*
X63859580Y-83200952D01*
X63859580Y-83200952D02*
X63764342Y-83153333D01*
X63764342Y-83153333D02*
X63526247Y-83153333D01*
X63526247Y-83153333D02*
X63431009Y-83200952D01*
X63431009Y-83200952D02*
X63383390Y-83248571D01*
X63383390Y-83248571D02*
X63335771Y-83343809D01*
X63335771Y-83343809D02*
X63335771Y-83534285D01*
X63335771Y-83534285D02*
X63383390Y-83629523D01*
X63383390Y-83629523D02*
X63431009Y-83677142D01*
X63431009Y-83677142D02*
X63526247Y-83724761D01*
%TO.C,Q2*%
X67764819Y-72484762D02*
X67288628Y-72818095D01*
X67764819Y-73056190D02*
X66764819Y-73056190D01*
X66764819Y-73056190D02*
X66764819Y-72675238D01*
X66764819Y-72675238D02*
X66812438Y-72580000D01*
X66812438Y-72580000D02*
X66860057Y-72532381D01*
X66860057Y-72532381D02*
X66955295Y-72484762D01*
X66955295Y-72484762D02*
X67098152Y-72484762D01*
X67098152Y-72484762D02*
X67193390Y-72532381D01*
X67193390Y-72532381D02*
X67241009Y-72580000D01*
X67241009Y-72580000D02*
X67288628Y-72675238D01*
X67288628Y-72675238D02*
X67288628Y-73056190D01*
X67241009Y-71722857D02*
X67241009Y-72056190D01*
X67764819Y-72056190D02*
X66764819Y-72056190D01*
X66764819Y-72056190D02*
X66764819Y-71580000D01*
X67764819Y-71199047D02*
X66764819Y-71199047D01*
X66764819Y-71199047D02*
X66764819Y-70818095D01*
X66764819Y-70818095D02*
X66812438Y-70722857D01*
X66812438Y-70722857D02*
X66860057Y-70675238D01*
X66860057Y-70675238D02*
X66955295Y-70627619D01*
X66955295Y-70627619D02*
X67098152Y-70627619D01*
X67098152Y-70627619D02*
X67193390Y-70675238D01*
X67193390Y-70675238D02*
X67241009Y-70722857D01*
X67241009Y-70722857D02*
X67288628Y-70818095D01*
X67288628Y-70818095D02*
X67288628Y-71199047D01*
X66764819Y-70294285D02*
X66764819Y-69675238D01*
X66764819Y-69675238D02*
X67145771Y-70008571D01*
X67145771Y-70008571D02*
X67145771Y-69865714D01*
X67145771Y-69865714D02*
X67193390Y-69770476D01*
X67193390Y-69770476D02*
X67241009Y-69722857D01*
X67241009Y-69722857D02*
X67336247Y-69675238D01*
X67336247Y-69675238D02*
X67574342Y-69675238D01*
X67574342Y-69675238D02*
X67669580Y-69722857D01*
X67669580Y-69722857D02*
X67717200Y-69770476D01*
X67717200Y-69770476D02*
X67764819Y-69865714D01*
X67764819Y-69865714D02*
X67764819Y-70151428D01*
X67764819Y-70151428D02*
X67717200Y-70246666D01*
X67717200Y-70246666D02*
X67669580Y-70294285D01*
X66764819Y-69056190D02*
X66764819Y-68960952D01*
X66764819Y-68960952D02*
X66812438Y-68865714D01*
X66812438Y-68865714D02*
X66860057Y-68818095D01*
X66860057Y-68818095D02*
X66955295Y-68770476D01*
X66955295Y-68770476D02*
X67145771Y-68722857D01*
X67145771Y-68722857D02*
X67383866Y-68722857D01*
X67383866Y-68722857D02*
X67574342Y-68770476D01*
X67574342Y-68770476D02*
X67669580Y-68818095D01*
X67669580Y-68818095D02*
X67717200Y-68865714D01*
X67717200Y-68865714D02*
X67764819Y-68960952D01*
X67764819Y-68960952D02*
X67764819Y-69056190D01*
X67764819Y-69056190D02*
X67717200Y-69151428D01*
X67717200Y-69151428D02*
X67669580Y-69199047D01*
X67669580Y-69199047D02*
X67574342Y-69246666D01*
X67574342Y-69246666D02*
X67383866Y-69294285D01*
X67383866Y-69294285D02*
X67145771Y-69294285D01*
X67145771Y-69294285D02*
X66955295Y-69246666D01*
X66955295Y-69246666D02*
X66860057Y-69199047D01*
X66860057Y-69199047D02*
X66812438Y-69151428D01*
X66812438Y-69151428D02*
X66764819Y-69056190D01*
X67764819Y-68294285D02*
X66764819Y-68294285D01*
X66764819Y-68294285D02*
X67764819Y-67722857D01*
X67764819Y-67722857D02*
X66764819Y-67722857D01*
X66764819Y-67056190D02*
X66764819Y-66960952D01*
X66764819Y-66960952D02*
X66812438Y-66865714D01*
X66812438Y-66865714D02*
X66860057Y-66818095D01*
X66860057Y-66818095D02*
X66955295Y-66770476D01*
X66955295Y-66770476D02*
X67145771Y-66722857D01*
X67145771Y-66722857D02*
X67383866Y-66722857D01*
X67383866Y-66722857D02*
X67574342Y-66770476D01*
X67574342Y-66770476D02*
X67669580Y-66818095D01*
X67669580Y-66818095D02*
X67717200Y-66865714D01*
X67717200Y-66865714D02*
X67764819Y-66960952D01*
X67764819Y-66960952D02*
X67764819Y-67056190D01*
X67764819Y-67056190D02*
X67717200Y-67151428D01*
X67717200Y-67151428D02*
X67669580Y-67199047D01*
X67669580Y-67199047D02*
X67574342Y-67246666D01*
X67574342Y-67246666D02*
X67383866Y-67294285D01*
X67383866Y-67294285D02*
X67145771Y-67294285D01*
X67145771Y-67294285D02*
X66955295Y-67246666D01*
X66955295Y-67246666D02*
X66860057Y-67199047D01*
X66860057Y-67199047D02*
X66812438Y-67151428D01*
X66812438Y-67151428D02*
X66764819Y-67056190D01*
X66764819Y-65865714D02*
X66764819Y-66056190D01*
X66764819Y-66056190D02*
X66812438Y-66151428D01*
X66812438Y-66151428D02*
X66860057Y-66199047D01*
X66860057Y-66199047D02*
X67002914Y-66294285D01*
X67002914Y-66294285D02*
X67193390Y-66341904D01*
X67193390Y-66341904D02*
X67574342Y-66341904D01*
X67574342Y-66341904D02*
X67669580Y-66294285D01*
X67669580Y-66294285D02*
X67717200Y-66246666D01*
X67717200Y-66246666D02*
X67764819Y-66151428D01*
X67764819Y-66151428D02*
X67764819Y-65960952D01*
X67764819Y-65960952D02*
X67717200Y-65865714D01*
X67717200Y-65865714D02*
X67669580Y-65818095D01*
X67669580Y-65818095D02*
X67574342Y-65770476D01*
X67574342Y-65770476D02*
X67336247Y-65770476D01*
X67336247Y-65770476D02*
X67241009Y-65818095D01*
X67241009Y-65818095D02*
X67193390Y-65865714D01*
X67193390Y-65865714D02*
X67145771Y-65960952D01*
X67145771Y-65960952D02*
X67145771Y-66151428D01*
X67145771Y-66151428D02*
X67193390Y-66246666D01*
X67193390Y-66246666D02*
X67241009Y-66294285D01*
X67241009Y-66294285D02*
X67336247Y-66341904D01*
X67764819Y-64865714D02*
X67764819Y-65341904D01*
X67764819Y-65341904D02*
X66764819Y-65341904D01*
X67241009Y-64532380D02*
X67241009Y-64199047D01*
X67764819Y-64056190D02*
X67764819Y-64532380D01*
X67764819Y-64532380D02*
X66764819Y-64532380D01*
X66764819Y-64532380D02*
X66764819Y-64056190D01*
X74170057Y-68675238D02*
X74122438Y-68770476D01*
X74122438Y-68770476D02*
X74027200Y-68865714D01*
X74027200Y-68865714D02*
X73884342Y-69008571D01*
X73884342Y-69008571D02*
X73836723Y-69103809D01*
X73836723Y-69103809D02*
X73836723Y-69199047D01*
X74074819Y-69151428D02*
X74027200Y-69246666D01*
X74027200Y-69246666D02*
X73931961Y-69341904D01*
X73931961Y-69341904D02*
X73741485Y-69389523D01*
X73741485Y-69389523D02*
X73408152Y-69389523D01*
X73408152Y-69389523D02*
X73217676Y-69341904D01*
X73217676Y-69341904D02*
X73122438Y-69246666D01*
X73122438Y-69246666D02*
X73074819Y-69151428D01*
X73074819Y-69151428D02*
X73074819Y-68960952D01*
X73074819Y-68960952D02*
X73122438Y-68865714D01*
X73122438Y-68865714D02*
X73217676Y-68770476D01*
X73217676Y-68770476D02*
X73408152Y-68722857D01*
X73408152Y-68722857D02*
X73741485Y-68722857D01*
X73741485Y-68722857D02*
X73931961Y-68770476D01*
X73931961Y-68770476D02*
X74027200Y-68865714D01*
X74027200Y-68865714D02*
X74074819Y-68960952D01*
X74074819Y-68960952D02*
X74074819Y-69151428D01*
X73170057Y-68341904D02*
X73122438Y-68294285D01*
X73122438Y-68294285D02*
X73074819Y-68199047D01*
X73074819Y-68199047D02*
X73074819Y-67960952D01*
X73074819Y-67960952D02*
X73122438Y-67865714D01*
X73122438Y-67865714D02*
X73170057Y-67818095D01*
X73170057Y-67818095D02*
X73265295Y-67770476D01*
X73265295Y-67770476D02*
X73360533Y-67770476D01*
X73360533Y-67770476D02*
X73503390Y-67818095D01*
X73503390Y-67818095D02*
X74074819Y-68389523D01*
X74074819Y-68389523D02*
X74074819Y-67770476D01*
%TO.C,R1*%
X63304819Y-126325238D02*
X63304819Y-126896666D01*
X63304819Y-126610952D02*
X62304819Y-126610952D01*
X62304819Y-126610952D02*
X62447676Y-126706190D01*
X62447676Y-126706190D02*
X62542914Y-126801428D01*
X62542914Y-126801428D02*
X62590533Y-126896666D01*
X62304819Y-125706190D02*
X62304819Y-125610952D01*
X62304819Y-125610952D02*
X62352438Y-125515714D01*
X62352438Y-125515714D02*
X62400057Y-125468095D01*
X62400057Y-125468095D02*
X62495295Y-125420476D01*
X62495295Y-125420476D02*
X62685771Y-125372857D01*
X62685771Y-125372857D02*
X62923866Y-125372857D01*
X62923866Y-125372857D02*
X63114342Y-125420476D01*
X63114342Y-125420476D02*
X63209580Y-125468095D01*
X63209580Y-125468095D02*
X63257200Y-125515714D01*
X63257200Y-125515714D02*
X63304819Y-125610952D01*
X63304819Y-125610952D02*
X63304819Y-125706190D01*
X63304819Y-125706190D02*
X63257200Y-125801428D01*
X63257200Y-125801428D02*
X63209580Y-125849047D01*
X63209580Y-125849047D02*
X63114342Y-125896666D01*
X63114342Y-125896666D02*
X62923866Y-125944285D01*
X62923866Y-125944285D02*
X62685771Y-125944285D01*
X62685771Y-125944285D02*
X62495295Y-125896666D01*
X62495295Y-125896666D02*
X62400057Y-125849047D01*
X62400057Y-125849047D02*
X62352438Y-125801428D01*
X62352438Y-125801428D02*
X62304819Y-125706190D01*
X63304819Y-124944285D02*
X62304819Y-124944285D01*
X62923866Y-124849047D02*
X63304819Y-124563333D01*
X62638152Y-124563333D02*
X63019104Y-124944285D01*
X67144819Y-125896666D02*
X66668628Y-126229999D01*
X67144819Y-126468094D02*
X66144819Y-126468094D01*
X66144819Y-126468094D02*
X66144819Y-126087142D01*
X66144819Y-126087142D02*
X66192438Y-125991904D01*
X66192438Y-125991904D02*
X66240057Y-125944285D01*
X66240057Y-125944285D02*
X66335295Y-125896666D01*
X66335295Y-125896666D02*
X66478152Y-125896666D01*
X66478152Y-125896666D02*
X66573390Y-125944285D01*
X66573390Y-125944285D02*
X66621009Y-125991904D01*
X66621009Y-125991904D02*
X66668628Y-126087142D01*
X66668628Y-126087142D02*
X66668628Y-126468094D01*
X67144819Y-124944285D02*
X67144819Y-125515713D01*
X67144819Y-125229999D02*
X66144819Y-125229999D01*
X66144819Y-125229999D02*
X66287676Y-125325237D01*
X66287676Y-125325237D02*
X66382914Y-125420475D01*
X66382914Y-125420475D02*
X66430533Y-125515713D01*
%TO.C,U4*%
X110416133Y-75938095D02*
X110463752Y-75985714D01*
X110463752Y-75985714D02*
X110511371Y-76080952D01*
X110511371Y-76080952D02*
X110416133Y-76271428D01*
X110416133Y-76271428D02*
X110463752Y-76366666D01*
X110463752Y-76366666D02*
X110511371Y-76414285D01*
X109535180Y-75438095D02*
X108725657Y-75438095D01*
X108725657Y-75438095D02*
X108630419Y-75485714D01*
X108630419Y-75485714D02*
X108582800Y-75533333D01*
X108582800Y-75533333D02*
X108535180Y-75628571D01*
X108535180Y-75628571D02*
X108535180Y-75819047D01*
X108535180Y-75819047D02*
X108582800Y-75914285D01*
X108582800Y-75914285D02*
X108630419Y-75961904D01*
X108630419Y-75961904D02*
X108725657Y-76009523D01*
X108725657Y-76009523D02*
X109535180Y-76009523D01*
X109201847Y-76914285D02*
X108535180Y-76914285D01*
X109582800Y-76676190D02*
X108868514Y-76438095D01*
X108868514Y-76438095D02*
X108868514Y-77057142D01*
%TO.C,Q3*%
X104344819Y-79327142D02*
X103344819Y-79327142D01*
X103344819Y-79327142D02*
X104344819Y-78755714D01*
X104344819Y-78755714D02*
X103344819Y-78755714D01*
X104344819Y-78279523D02*
X103344819Y-78279523D01*
X103344819Y-78279523D02*
X104059104Y-77946190D01*
X104059104Y-77946190D02*
X103344819Y-77612857D01*
X103344819Y-77612857D02*
X104344819Y-77612857D01*
X103344819Y-76946190D02*
X103344819Y-76755714D01*
X103344819Y-76755714D02*
X103392438Y-76660476D01*
X103392438Y-76660476D02*
X103487676Y-76565238D01*
X103487676Y-76565238D02*
X103678152Y-76517619D01*
X103678152Y-76517619D02*
X104011485Y-76517619D01*
X104011485Y-76517619D02*
X104201961Y-76565238D01*
X104201961Y-76565238D02*
X104297200Y-76660476D01*
X104297200Y-76660476D02*
X104344819Y-76755714D01*
X104344819Y-76755714D02*
X104344819Y-76946190D01*
X104344819Y-76946190D02*
X104297200Y-77041428D01*
X104297200Y-77041428D02*
X104201961Y-77136666D01*
X104201961Y-77136666D02*
X104011485Y-77184285D01*
X104011485Y-77184285D02*
X103678152Y-77184285D01*
X103678152Y-77184285D02*
X103487676Y-77136666D01*
X103487676Y-77136666D02*
X103392438Y-77041428D01*
X103392438Y-77041428D02*
X103344819Y-76946190D01*
X104297200Y-76136666D02*
X104344819Y-75993809D01*
X104344819Y-75993809D02*
X104344819Y-75755714D01*
X104344819Y-75755714D02*
X104297200Y-75660476D01*
X104297200Y-75660476D02*
X104249580Y-75612857D01*
X104249580Y-75612857D02*
X104154342Y-75565238D01*
X104154342Y-75565238D02*
X104059104Y-75565238D01*
X104059104Y-75565238D02*
X103963866Y-75612857D01*
X103963866Y-75612857D02*
X103916247Y-75660476D01*
X103916247Y-75660476D02*
X103868628Y-75755714D01*
X103868628Y-75755714D02*
X103821009Y-75946190D01*
X103821009Y-75946190D02*
X103773390Y-76041428D01*
X103773390Y-76041428D02*
X103725771Y-76089047D01*
X103725771Y-76089047D02*
X103630533Y-76136666D01*
X103630533Y-76136666D02*
X103535295Y-76136666D01*
X103535295Y-76136666D02*
X103440057Y-76089047D01*
X103440057Y-76089047D02*
X103392438Y-76041428D01*
X103392438Y-76041428D02*
X103344819Y-75946190D01*
X103344819Y-75946190D02*
X103344819Y-75708095D01*
X103344819Y-75708095D02*
X103392438Y-75565238D01*
X107230057Y-77565238D02*
X107182438Y-77660476D01*
X107182438Y-77660476D02*
X107087200Y-77755714D01*
X107087200Y-77755714D02*
X106944342Y-77898571D01*
X106944342Y-77898571D02*
X106896723Y-77993809D01*
X106896723Y-77993809D02*
X106896723Y-78089047D01*
X107134819Y-78041428D02*
X107087200Y-78136666D01*
X107087200Y-78136666D02*
X106991961Y-78231904D01*
X106991961Y-78231904D02*
X106801485Y-78279523D01*
X106801485Y-78279523D02*
X106468152Y-78279523D01*
X106468152Y-78279523D02*
X106277676Y-78231904D01*
X106277676Y-78231904D02*
X106182438Y-78136666D01*
X106182438Y-78136666D02*
X106134819Y-78041428D01*
X106134819Y-78041428D02*
X106134819Y-77850952D01*
X106134819Y-77850952D02*
X106182438Y-77755714D01*
X106182438Y-77755714D02*
X106277676Y-77660476D01*
X106277676Y-77660476D02*
X106468152Y-77612857D01*
X106468152Y-77612857D02*
X106801485Y-77612857D01*
X106801485Y-77612857D02*
X106991961Y-77660476D01*
X106991961Y-77660476D02*
X107087200Y-77755714D01*
X107087200Y-77755714D02*
X107134819Y-77850952D01*
X107134819Y-77850952D02*
X107134819Y-78041428D01*
X106134819Y-77279523D02*
X106134819Y-76660476D01*
X106134819Y-76660476D02*
X106515771Y-76993809D01*
X106515771Y-76993809D02*
X106515771Y-76850952D01*
X106515771Y-76850952D02*
X106563390Y-76755714D01*
X106563390Y-76755714D02*
X106611009Y-76708095D01*
X106611009Y-76708095D02*
X106706247Y-76660476D01*
X106706247Y-76660476D02*
X106944342Y-76660476D01*
X106944342Y-76660476D02*
X107039580Y-76708095D01*
X107039580Y-76708095D02*
X107087200Y-76755714D01*
X107087200Y-76755714D02*
X107134819Y-76850952D01*
X107134819Y-76850952D02*
X107134819Y-77136666D01*
X107134819Y-77136666D02*
X107087200Y-77231904D01*
X107087200Y-77231904D02*
X107039580Y-77279523D01*
%TO.C,R7*%
X116029819Y-130145238D02*
X116029819Y-130716666D01*
X116029819Y-130430952D02*
X115029819Y-130430952D01*
X115029819Y-130430952D02*
X115172676Y-130526190D01*
X115172676Y-130526190D02*
X115267914Y-130621428D01*
X115267914Y-130621428D02*
X115315533Y-130716666D01*
X115029819Y-129526190D02*
X115029819Y-129430952D01*
X115029819Y-129430952D02*
X115077438Y-129335714D01*
X115077438Y-129335714D02*
X115125057Y-129288095D01*
X115125057Y-129288095D02*
X115220295Y-129240476D01*
X115220295Y-129240476D02*
X115410771Y-129192857D01*
X115410771Y-129192857D02*
X115648866Y-129192857D01*
X115648866Y-129192857D02*
X115839342Y-129240476D01*
X115839342Y-129240476D02*
X115934580Y-129288095D01*
X115934580Y-129288095D02*
X115982200Y-129335714D01*
X115982200Y-129335714D02*
X116029819Y-129430952D01*
X116029819Y-129430952D02*
X116029819Y-129526190D01*
X116029819Y-129526190D02*
X115982200Y-129621428D01*
X115982200Y-129621428D02*
X115934580Y-129669047D01*
X115934580Y-129669047D02*
X115839342Y-129716666D01*
X115839342Y-129716666D02*
X115648866Y-129764285D01*
X115648866Y-129764285D02*
X115410771Y-129764285D01*
X115410771Y-129764285D02*
X115220295Y-129716666D01*
X115220295Y-129716666D02*
X115125057Y-129669047D01*
X115125057Y-129669047D02*
X115077438Y-129621428D01*
X115077438Y-129621428D02*
X115029819Y-129526190D01*
X116029819Y-128764285D02*
X115029819Y-128764285D01*
X115648866Y-128669047D02*
X116029819Y-128383333D01*
X115363152Y-128383333D02*
X115744104Y-128764285D01*
X116129819Y-122841666D02*
X115653628Y-123174999D01*
X116129819Y-123413094D02*
X115129819Y-123413094D01*
X115129819Y-123413094D02*
X115129819Y-123032142D01*
X115129819Y-123032142D02*
X115177438Y-122936904D01*
X115177438Y-122936904D02*
X115225057Y-122889285D01*
X115225057Y-122889285D02*
X115320295Y-122841666D01*
X115320295Y-122841666D02*
X115463152Y-122841666D01*
X115463152Y-122841666D02*
X115558390Y-122889285D01*
X115558390Y-122889285D02*
X115606009Y-122936904D01*
X115606009Y-122936904D02*
X115653628Y-123032142D01*
X115653628Y-123032142D02*
X115653628Y-123413094D01*
X115129819Y-122508332D02*
X115129819Y-121841666D01*
X115129819Y-121841666D02*
X116129819Y-122270237D01*
%TO.C,R8*%
X112179819Y-130270238D02*
X112179819Y-130841666D01*
X112179819Y-130555952D02*
X111179819Y-130555952D01*
X111179819Y-130555952D02*
X111322676Y-130651190D01*
X111322676Y-130651190D02*
X111417914Y-130746428D01*
X111417914Y-130746428D02*
X111465533Y-130841666D01*
X111179819Y-129651190D02*
X111179819Y-129555952D01*
X111179819Y-129555952D02*
X111227438Y-129460714D01*
X111227438Y-129460714D02*
X111275057Y-129413095D01*
X111275057Y-129413095D02*
X111370295Y-129365476D01*
X111370295Y-129365476D02*
X111560771Y-129317857D01*
X111560771Y-129317857D02*
X111798866Y-129317857D01*
X111798866Y-129317857D02*
X111989342Y-129365476D01*
X111989342Y-129365476D02*
X112084580Y-129413095D01*
X112084580Y-129413095D02*
X112132200Y-129460714D01*
X112132200Y-129460714D02*
X112179819Y-129555952D01*
X112179819Y-129555952D02*
X112179819Y-129651190D01*
X112179819Y-129651190D02*
X112132200Y-129746428D01*
X112132200Y-129746428D02*
X112084580Y-129794047D01*
X112084580Y-129794047D02*
X111989342Y-129841666D01*
X111989342Y-129841666D02*
X111798866Y-129889285D01*
X111798866Y-129889285D02*
X111560771Y-129889285D01*
X111560771Y-129889285D02*
X111370295Y-129841666D01*
X111370295Y-129841666D02*
X111275057Y-129794047D01*
X111275057Y-129794047D02*
X111227438Y-129746428D01*
X111227438Y-129746428D02*
X111179819Y-129651190D01*
X112179819Y-128889285D02*
X111179819Y-128889285D01*
X111798866Y-128794047D02*
X112179819Y-128508333D01*
X111513152Y-128508333D02*
X111894104Y-128889285D01*
X112354819Y-122591666D02*
X111878628Y-122924999D01*
X112354819Y-123163094D02*
X111354819Y-123163094D01*
X111354819Y-123163094D02*
X111354819Y-122782142D01*
X111354819Y-122782142D02*
X111402438Y-122686904D01*
X111402438Y-122686904D02*
X111450057Y-122639285D01*
X111450057Y-122639285D02*
X111545295Y-122591666D01*
X111545295Y-122591666D02*
X111688152Y-122591666D01*
X111688152Y-122591666D02*
X111783390Y-122639285D01*
X111783390Y-122639285D02*
X111831009Y-122686904D01*
X111831009Y-122686904D02*
X111878628Y-122782142D01*
X111878628Y-122782142D02*
X111878628Y-123163094D01*
X111783390Y-122020237D02*
X111735771Y-122115475D01*
X111735771Y-122115475D02*
X111688152Y-122163094D01*
X111688152Y-122163094D02*
X111592914Y-122210713D01*
X111592914Y-122210713D02*
X111545295Y-122210713D01*
X111545295Y-122210713D02*
X111450057Y-122163094D01*
X111450057Y-122163094D02*
X111402438Y-122115475D01*
X111402438Y-122115475D02*
X111354819Y-122020237D01*
X111354819Y-122020237D02*
X111354819Y-121829761D01*
X111354819Y-121829761D02*
X111402438Y-121734523D01*
X111402438Y-121734523D02*
X111450057Y-121686904D01*
X111450057Y-121686904D02*
X111545295Y-121639285D01*
X111545295Y-121639285D02*
X111592914Y-121639285D01*
X111592914Y-121639285D02*
X111688152Y-121686904D01*
X111688152Y-121686904D02*
X111735771Y-121734523D01*
X111735771Y-121734523D02*
X111783390Y-121829761D01*
X111783390Y-121829761D02*
X111783390Y-122020237D01*
X111783390Y-122020237D02*
X111831009Y-122115475D01*
X111831009Y-122115475D02*
X111878628Y-122163094D01*
X111878628Y-122163094D02*
X111973866Y-122210713D01*
X111973866Y-122210713D02*
X112164342Y-122210713D01*
X112164342Y-122210713D02*
X112259580Y-122163094D01*
X112259580Y-122163094D02*
X112307200Y-122115475D01*
X112307200Y-122115475D02*
X112354819Y-122020237D01*
X112354819Y-122020237D02*
X112354819Y-121829761D01*
X112354819Y-121829761D02*
X112307200Y-121734523D01*
X112307200Y-121734523D02*
X112259580Y-121686904D01*
X112259580Y-121686904D02*
X112164342Y-121639285D01*
X112164342Y-121639285D02*
X111973866Y-121639285D01*
X111973866Y-121639285D02*
X111878628Y-121686904D01*
X111878628Y-121686904D02*
X111831009Y-121734523D01*
X111831009Y-121734523D02*
X111783390Y-121829761D01*
%TO.C,H1*%
X82844285Y-68619819D02*
X82844285Y-67619819D01*
X82844285Y-67619819D02*
X83177618Y-68334104D01*
X83177618Y-68334104D02*
X83510951Y-67619819D01*
X83510951Y-67619819D02*
X83510951Y-68619819D01*
X84129999Y-68619819D02*
X84034761Y-68572200D01*
X84034761Y-68572200D02*
X83987142Y-68524580D01*
X83987142Y-68524580D02*
X83939523Y-68429342D01*
X83939523Y-68429342D02*
X83939523Y-68143628D01*
X83939523Y-68143628D02*
X83987142Y-68048390D01*
X83987142Y-68048390D02*
X84034761Y-68000771D01*
X84034761Y-68000771D02*
X84129999Y-67953152D01*
X84129999Y-67953152D02*
X84272856Y-67953152D01*
X84272856Y-67953152D02*
X84368094Y-68000771D01*
X84368094Y-68000771D02*
X84415713Y-68048390D01*
X84415713Y-68048390D02*
X84463332Y-68143628D01*
X84463332Y-68143628D02*
X84463332Y-68429342D01*
X84463332Y-68429342D02*
X84415713Y-68524580D01*
X84415713Y-68524580D02*
X84368094Y-68572200D01*
X84368094Y-68572200D02*
X84272856Y-68619819D01*
X84272856Y-68619819D02*
X84129999Y-68619819D01*
X85320475Y-67953152D02*
X85320475Y-68619819D01*
X84891904Y-67953152D02*
X84891904Y-68476961D01*
X84891904Y-68476961D02*
X84939523Y-68572200D01*
X84939523Y-68572200D02*
X85034761Y-68619819D01*
X85034761Y-68619819D02*
X85177618Y-68619819D01*
X85177618Y-68619819D02*
X85272856Y-68572200D01*
X85272856Y-68572200D02*
X85320475Y-68524580D01*
X85796666Y-67953152D02*
X85796666Y-68619819D01*
X85796666Y-68048390D02*
X85844285Y-68000771D01*
X85844285Y-68000771D02*
X85939523Y-67953152D01*
X85939523Y-67953152D02*
X86082380Y-67953152D01*
X86082380Y-67953152D02*
X86177618Y-68000771D01*
X86177618Y-68000771D02*
X86225237Y-68096009D01*
X86225237Y-68096009D02*
X86225237Y-68619819D01*
X86558571Y-67953152D02*
X86939523Y-67953152D01*
X86701428Y-67619819D02*
X86701428Y-68476961D01*
X86701428Y-68476961D02*
X86749047Y-68572200D01*
X86749047Y-68572200D02*
X86844285Y-68619819D01*
X86844285Y-68619819D02*
X86939523Y-68619819D01*
X87272857Y-68619819D02*
X87272857Y-67953152D01*
X87272857Y-67619819D02*
X87225238Y-67667438D01*
X87225238Y-67667438D02*
X87272857Y-67715057D01*
X87272857Y-67715057D02*
X87320476Y-67667438D01*
X87320476Y-67667438D02*
X87272857Y-67619819D01*
X87272857Y-67619819D02*
X87272857Y-67715057D01*
X87749047Y-67953152D02*
X87749047Y-68619819D01*
X87749047Y-68048390D02*
X87796666Y-68000771D01*
X87796666Y-68000771D02*
X87891904Y-67953152D01*
X87891904Y-67953152D02*
X88034761Y-67953152D01*
X88034761Y-67953152D02*
X88129999Y-68000771D01*
X88129999Y-68000771D02*
X88177618Y-68096009D01*
X88177618Y-68096009D02*
X88177618Y-68619819D01*
X89082380Y-67953152D02*
X89082380Y-68762676D01*
X89082380Y-68762676D02*
X89034761Y-68857914D01*
X89034761Y-68857914D02*
X88987142Y-68905533D01*
X88987142Y-68905533D02*
X88891904Y-68953152D01*
X88891904Y-68953152D02*
X88749047Y-68953152D01*
X88749047Y-68953152D02*
X88653809Y-68905533D01*
X89082380Y-68572200D02*
X88987142Y-68619819D01*
X88987142Y-68619819D02*
X88796666Y-68619819D01*
X88796666Y-68619819D02*
X88701428Y-68572200D01*
X88701428Y-68572200D02*
X88653809Y-68524580D01*
X88653809Y-68524580D02*
X88606190Y-68429342D01*
X88606190Y-68429342D02*
X88606190Y-68143628D01*
X88606190Y-68143628D02*
X88653809Y-68048390D01*
X88653809Y-68048390D02*
X88701428Y-68000771D01*
X88701428Y-68000771D02*
X88796666Y-67953152D01*
X88796666Y-67953152D02*
X88987142Y-67953152D01*
X88987142Y-67953152D02*
X89082380Y-68000771D01*
X89558571Y-68619819D02*
X89558571Y-67619819D01*
X89558571Y-68096009D02*
X90129999Y-68096009D01*
X90129999Y-68619819D02*
X90129999Y-67619819D01*
X90749047Y-68619819D02*
X90653809Y-68572200D01*
X90653809Y-68572200D02*
X90606190Y-68524580D01*
X90606190Y-68524580D02*
X90558571Y-68429342D01*
X90558571Y-68429342D02*
X90558571Y-68143628D01*
X90558571Y-68143628D02*
X90606190Y-68048390D01*
X90606190Y-68048390D02*
X90653809Y-68000771D01*
X90653809Y-68000771D02*
X90749047Y-67953152D01*
X90749047Y-67953152D02*
X90891904Y-67953152D01*
X90891904Y-67953152D02*
X90987142Y-68000771D01*
X90987142Y-68000771D02*
X91034761Y-68048390D01*
X91034761Y-68048390D02*
X91082380Y-68143628D01*
X91082380Y-68143628D02*
X91082380Y-68429342D01*
X91082380Y-68429342D02*
X91034761Y-68524580D01*
X91034761Y-68524580D02*
X90987142Y-68572200D01*
X90987142Y-68572200D02*
X90891904Y-68619819D01*
X90891904Y-68619819D02*
X90749047Y-68619819D01*
X91653809Y-68619819D02*
X91558571Y-68572200D01*
X91558571Y-68572200D02*
X91510952Y-68476961D01*
X91510952Y-68476961D02*
X91510952Y-67619819D01*
X92415714Y-68572200D02*
X92320476Y-68619819D01*
X92320476Y-68619819D02*
X92130000Y-68619819D01*
X92130000Y-68619819D02*
X92034762Y-68572200D01*
X92034762Y-68572200D02*
X91987143Y-68476961D01*
X91987143Y-68476961D02*
X91987143Y-68096009D01*
X91987143Y-68096009D02*
X92034762Y-68000771D01*
X92034762Y-68000771D02*
X92130000Y-67953152D01*
X92130000Y-67953152D02*
X92320476Y-67953152D01*
X92320476Y-67953152D02*
X92415714Y-68000771D01*
X92415714Y-68000771D02*
X92463333Y-68096009D01*
X92463333Y-68096009D02*
X92463333Y-68191247D01*
X92463333Y-68191247D02*
X91987143Y-68286485D01*
X86868095Y-63319819D02*
X86868095Y-62319819D01*
X86868095Y-62796009D02*
X87439523Y-62796009D01*
X87439523Y-63319819D02*
X87439523Y-62319819D01*
X88439523Y-63319819D02*
X87868095Y-63319819D01*
X88153809Y-63319819D02*
X88153809Y-62319819D01*
X88153809Y-62319819D02*
X88058571Y-62462676D01*
X88058571Y-62462676D02*
X87963333Y-62557914D01*
X87963333Y-62557914D02*
X87868095Y-62605533D01*
%TO.C,R12*%
X65844819Y-92511428D02*
X65844819Y-93082856D01*
X65844819Y-92797142D02*
X64844819Y-92797142D01*
X64844819Y-92797142D02*
X64987676Y-92892380D01*
X64987676Y-92892380D02*
X65082914Y-92987618D01*
X65082914Y-92987618D02*
X65130533Y-93082856D01*
X64844819Y-91892380D02*
X64844819Y-91797142D01*
X64844819Y-91797142D02*
X64892438Y-91701904D01*
X64892438Y-91701904D02*
X64940057Y-91654285D01*
X64940057Y-91654285D02*
X65035295Y-91606666D01*
X65035295Y-91606666D02*
X65225771Y-91559047D01*
X65225771Y-91559047D02*
X65463866Y-91559047D01*
X65463866Y-91559047D02*
X65654342Y-91606666D01*
X65654342Y-91606666D02*
X65749580Y-91654285D01*
X65749580Y-91654285D02*
X65797200Y-91701904D01*
X65797200Y-91701904D02*
X65844819Y-91797142D01*
X65844819Y-91797142D02*
X65844819Y-91892380D01*
X65844819Y-91892380D02*
X65797200Y-91987618D01*
X65797200Y-91987618D02*
X65749580Y-92035237D01*
X65749580Y-92035237D02*
X65654342Y-92082856D01*
X65654342Y-92082856D02*
X65463866Y-92130475D01*
X65463866Y-92130475D02*
X65225771Y-92130475D01*
X65225771Y-92130475D02*
X65035295Y-92082856D01*
X65035295Y-92082856D02*
X64940057Y-92035237D01*
X64940057Y-92035237D02*
X64892438Y-91987618D01*
X64892438Y-91987618D02*
X64844819Y-91892380D01*
X64844819Y-90939999D02*
X64844819Y-90844761D01*
X64844819Y-90844761D02*
X64892438Y-90749523D01*
X64892438Y-90749523D02*
X64940057Y-90701904D01*
X64940057Y-90701904D02*
X65035295Y-90654285D01*
X65035295Y-90654285D02*
X65225771Y-90606666D01*
X65225771Y-90606666D02*
X65463866Y-90606666D01*
X65463866Y-90606666D02*
X65654342Y-90654285D01*
X65654342Y-90654285D02*
X65749580Y-90701904D01*
X65749580Y-90701904D02*
X65797200Y-90749523D01*
X65797200Y-90749523D02*
X65844819Y-90844761D01*
X65844819Y-90844761D02*
X65844819Y-90939999D01*
X65844819Y-90939999D02*
X65797200Y-91035237D01*
X65797200Y-91035237D02*
X65749580Y-91082856D01*
X65749580Y-91082856D02*
X65654342Y-91130475D01*
X65654342Y-91130475D02*
X65463866Y-91178094D01*
X65463866Y-91178094D02*
X65225771Y-91178094D01*
X65225771Y-91178094D02*
X65035295Y-91130475D01*
X65035295Y-91130475D02*
X64940057Y-91082856D01*
X64940057Y-91082856D02*
X64892438Y-91035237D01*
X64892438Y-91035237D02*
X64844819Y-90939999D01*
X65844819Y-90178094D02*
X64844819Y-90178094D01*
X65463866Y-90082856D02*
X65844819Y-89797142D01*
X65178152Y-89797142D02*
X65559104Y-90178094D01*
X69684819Y-92082857D02*
X69208628Y-92416190D01*
X69684819Y-92654285D02*
X68684819Y-92654285D01*
X68684819Y-92654285D02*
X68684819Y-92273333D01*
X68684819Y-92273333D02*
X68732438Y-92178095D01*
X68732438Y-92178095D02*
X68780057Y-92130476D01*
X68780057Y-92130476D02*
X68875295Y-92082857D01*
X68875295Y-92082857D02*
X69018152Y-92082857D01*
X69018152Y-92082857D02*
X69113390Y-92130476D01*
X69113390Y-92130476D02*
X69161009Y-92178095D01*
X69161009Y-92178095D02*
X69208628Y-92273333D01*
X69208628Y-92273333D02*
X69208628Y-92654285D01*
X69684819Y-91130476D02*
X69684819Y-91701904D01*
X69684819Y-91416190D02*
X68684819Y-91416190D01*
X68684819Y-91416190D02*
X68827676Y-91511428D01*
X68827676Y-91511428D02*
X68922914Y-91606666D01*
X68922914Y-91606666D02*
X68970533Y-91701904D01*
X68780057Y-90749523D02*
X68732438Y-90701904D01*
X68732438Y-90701904D02*
X68684819Y-90606666D01*
X68684819Y-90606666D02*
X68684819Y-90368571D01*
X68684819Y-90368571D02*
X68732438Y-90273333D01*
X68732438Y-90273333D02*
X68780057Y-90225714D01*
X68780057Y-90225714D02*
X68875295Y-90178095D01*
X68875295Y-90178095D02*
X68970533Y-90178095D01*
X68970533Y-90178095D02*
X69113390Y-90225714D01*
X69113390Y-90225714D02*
X69684819Y-90797142D01*
X69684819Y-90797142D02*
X69684819Y-90178095D01*
D11*
%TO.C,R11*%
X63500000Y-67310000D02*
X63500000Y-64770000D01*
X64300000Y-67310000D02*
G75*
G03*
X64300000Y-67310000I-800000J0D01*
G01*
%TO.C,R13*%
X72390000Y-92600000D02*
X72390000Y-90060000D01*
X73190000Y-92600000D02*
G75*
G03*
X73190000Y-92600000I-800000J0D01*
G01*
%TO.C,R6*%
X119380000Y-124460000D02*
X119380000Y-127000000D01*
X120180000Y-124460000D02*
G75*
G03*
X120180000Y-124460000I-800000J0D01*
G01*
%TO.C,U7*%
X103660000Y-123960000D02*
X103660000Y-127460000D01*
X107890000Y-125730000D02*
G75*
G03*
X103656375Y-123976375I-2480000J0D01*
G01*
X103656375Y-127483625D02*
G75*
G03*
X107890000Y-125730000I1753625J1753625D01*
G01*
%TO.C,U6*%
X73000000Y-76280000D02*
X68600000Y-76280000D01*
X71730000Y-76280000D02*
X71730000Y-86280000D01*
X68600000Y-76280000D02*
X68600000Y-86280000D01*
X73000000Y-79430000D02*
X71730000Y-79430000D01*
X73000000Y-83130000D02*
X71730000Y-83130000D01*
X73000000Y-86280000D02*
X73000000Y-76280000D01*
X68600000Y-86280000D02*
X73000000Y-86280000D01*
%TO.C,R5*%
X123190000Y-124460000D02*
X123190000Y-127000000D01*
X123990000Y-124460000D02*
G75*
G03*
X123990000Y-124460000I-800000J0D01*
G01*
%TO.C,R2*%
X60960000Y-124460000D02*
X60960000Y-127000000D01*
X61760000Y-124460000D02*
G75*
G03*
X61760000Y-124460000I-800000J0D01*
G01*
%TO.C,R3*%
X57150000Y-124460000D02*
X57150000Y-127000000D01*
X57950000Y-124460000D02*
G75*
G03*
X57950000Y-124460000I-800000J0D01*
G01*
%TO.C,Q1*%
X61070000Y-63580000D02*
X56570000Y-63580000D01*
X59770000Y-63580000D02*
X59770000Y-73580000D01*
X56570000Y-63580000D02*
X56570000Y-73580000D01*
X61070000Y-73580000D02*
X61070000Y-63580000D01*
X56570000Y-73580000D02*
X61070000Y-73580000D01*
%TO.C,A1*%
X76200000Y-80010000D02*
X76200000Y-125730000D01*
X76200000Y-82931000D02*
X77089000Y-83820000D01*
X77089000Y-83820000D02*
X76200000Y-84709000D01*
X78740000Y-128270000D02*
X96520000Y-128270000D01*
X96520000Y-77470000D02*
X78740000Y-77470000D01*
X99060000Y-125730000D02*
X99060000Y-80010000D01*
X78740000Y-77470000D02*
G75*
G03*
X76200000Y-80010000I0J-2540000D01*
G01*
X76200000Y-125730000D02*
G75*
G03*
X78691238Y-128269532I2540000J0D01*
G01*
X99060000Y-80010000D02*
G75*
G03*
X96520000Y-77470000I-2540000J0D01*
G01*
X96520000Y-128270000D02*
G75*
G03*
X99060000Y-125730000I0J2540000D01*
G01*
D12*
%TO.C,SW1*%
X65236000Y-59420000D02*
G75*
G03*
X65236000Y-59420000I-100000J0D01*
G01*
D13*
X72140000Y-53170000D02*
X72140000Y-59170000D01*
X66140000Y-53170000D02*
X72140000Y-53170000D01*
X72140000Y-59170000D02*
X66140000Y-59170000D01*
X66140000Y-59170000D02*
X66140000Y-53170000D01*
D11*
%TO.C,R4*%
X53340000Y-124460000D02*
X53340000Y-127000000D01*
X54140000Y-124460000D02*
G75*
G03*
X54140000Y-124460000I-800000J0D01*
G01*
%TO.C,Q2*%
X72500000Y-63580000D02*
X68000000Y-63580000D01*
X71200000Y-63580000D02*
X71200000Y-73580000D01*
X68000000Y-63580000D02*
X68000000Y-73580000D01*
X72500000Y-73580000D02*
X72500000Y-63580000D01*
X68000000Y-73580000D02*
X72500000Y-73580000D01*
%TO.C,R1*%
X64770000Y-124460000D02*
X64770000Y-127000000D01*
X65570000Y-124460000D02*
G75*
G03*
X65570000Y-124460000I-800000J0D01*
G01*
%TO.C,Q3*%
X104930000Y-75700000D02*
X104930000Y-79200000D01*
X109160000Y-77470000D02*
G75*
G03*
X104926375Y-75716375I-2480000J0D01*
G01*
X104926375Y-79223625D02*
G75*
G03*
X109160000Y-77470000I1753625J1753625D01*
G01*
%TO.C,R7*%
X115570000Y-124460000D02*
X115570000Y-127000000D01*
X116370000Y-124460000D02*
G75*
G03*
X116370000Y-124460000I-800000J0D01*
G01*
%TO.C,R8*%
X111760000Y-124460000D02*
X111760000Y-127000000D01*
X112560000Y-124460000D02*
G75*
G03*
X112560000Y-124460000I-800000J0D01*
G01*
%TO.C,R12*%
X67310000Y-90170000D02*
X67310000Y-92710000D01*
X68110000Y-90170000D02*
G75*
G03*
X68110000Y-90170000I-800000J0D01*
G01*
%TD*%
M02*
