%TF.GenerationSoftware,KiCad,Pcbnew,7.0.5*%
%TF.CreationDate,2023-06-12T13:55:42-04:00*%
%TF.ProjectId,Untitled,556e7469-746c-4656-942e-6b696361645f,rev?*%
%TF.SameCoordinates,Original*%
%TF.FileFunction,Legend,Top*%
%TF.FilePolarity,Positive*%
%FSLAX46Y46*%
G04 Gerber Fmt 4.6, Leading zero omitted, Abs format (unit mm)*
G04 Created by KiCad (PCBNEW 7.0.5) date 2023-06-12 13:55:42*
%MOMM*%
%LPD*%
G01*
G04 APERTURE LIST*
%ADD10C,0.150000*%
%ADD11C,0.100000*%
%ADD12C,0.152400*%
%ADD13C,0.120000*%
%ADD14C,0.200000*%
%ADD15C,0.127000*%
G04 APERTURE END LIST*
D10*
X62992000Y-85725000D02*
X61722000Y-85725000D01*
X62230000Y-90170000D02*
X62230000Y-88900000D01*
X62357000Y-85090000D02*
X62357000Y-86360000D01*
X59920476Y-130849819D02*
X60491904Y-130849819D01*
X60206190Y-131849819D02*
X60206190Y-130849819D01*
X61206190Y-131802200D02*
X61110952Y-131849819D01*
X61110952Y-131849819D02*
X60920476Y-131849819D01*
X60920476Y-131849819D02*
X60825238Y-131802200D01*
X60825238Y-131802200D02*
X60777619Y-131706961D01*
X60777619Y-131706961D02*
X60777619Y-131326009D01*
X60777619Y-131326009D02*
X60825238Y-131230771D01*
X60825238Y-131230771D02*
X60920476Y-131183152D01*
X60920476Y-131183152D02*
X61110952Y-131183152D01*
X61110952Y-131183152D02*
X61206190Y-131230771D01*
X61206190Y-131230771D02*
X61253809Y-131326009D01*
X61253809Y-131326009D02*
X61253809Y-131421247D01*
X61253809Y-131421247D02*
X60777619Y-131516485D01*
X61682381Y-131849819D02*
X61682381Y-131183152D01*
X61682381Y-131278390D02*
X61730000Y-131230771D01*
X61730000Y-131230771D02*
X61825238Y-131183152D01*
X61825238Y-131183152D02*
X61968095Y-131183152D01*
X61968095Y-131183152D02*
X62063333Y-131230771D01*
X62063333Y-131230771D02*
X62110952Y-131326009D01*
X62110952Y-131326009D02*
X62110952Y-131849819D01*
X62110952Y-131326009D02*
X62158571Y-131230771D01*
X62158571Y-131230771D02*
X62253809Y-131183152D01*
X62253809Y-131183152D02*
X62396666Y-131183152D01*
X62396666Y-131183152D02*
X62491905Y-131230771D01*
X62491905Y-131230771D02*
X62539524Y-131326009D01*
X62539524Y-131326009D02*
X62539524Y-131849819D01*
X63015714Y-131183152D02*
X63015714Y-132183152D01*
X63015714Y-131230771D02*
X63110952Y-131183152D01*
X63110952Y-131183152D02*
X63301428Y-131183152D01*
X63301428Y-131183152D02*
X63396666Y-131230771D01*
X63396666Y-131230771D02*
X63444285Y-131278390D01*
X63444285Y-131278390D02*
X63491904Y-131373628D01*
X63491904Y-131373628D02*
X63491904Y-131659342D01*
X63491904Y-131659342D02*
X63444285Y-131754580D01*
X63444285Y-131754580D02*
X63396666Y-131802200D01*
X63396666Y-131802200D02*
X63301428Y-131849819D01*
X63301428Y-131849819D02*
X63110952Y-131849819D01*
X63110952Y-131849819D02*
X63015714Y-131802200D01*
X63825238Y-130849819D02*
X64444285Y-130849819D01*
X64444285Y-130849819D02*
X64110952Y-131230771D01*
X64110952Y-131230771D02*
X64253809Y-131230771D01*
X64253809Y-131230771D02*
X64349047Y-131278390D01*
X64349047Y-131278390D02*
X64396666Y-131326009D01*
X64396666Y-131326009D02*
X64444285Y-131421247D01*
X64444285Y-131421247D02*
X64444285Y-131659342D01*
X64444285Y-131659342D02*
X64396666Y-131754580D01*
X64396666Y-131754580D02*
X64349047Y-131802200D01*
X64349047Y-131802200D02*
X64253809Y-131849819D01*
X64253809Y-131849819D02*
X63968095Y-131849819D01*
X63968095Y-131849819D02*
X63872857Y-131802200D01*
X63872857Y-131802200D02*
X63825238Y-131754580D01*
X52300476Y-130849819D02*
X52871904Y-130849819D01*
X52586190Y-131849819D02*
X52586190Y-130849819D01*
X53586190Y-131802200D02*
X53490952Y-131849819D01*
X53490952Y-131849819D02*
X53300476Y-131849819D01*
X53300476Y-131849819D02*
X53205238Y-131802200D01*
X53205238Y-131802200D02*
X53157619Y-131706961D01*
X53157619Y-131706961D02*
X53157619Y-131326009D01*
X53157619Y-131326009D02*
X53205238Y-131230771D01*
X53205238Y-131230771D02*
X53300476Y-131183152D01*
X53300476Y-131183152D02*
X53490952Y-131183152D01*
X53490952Y-131183152D02*
X53586190Y-131230771D01*
X53586190Y-131230771D02*
X53633809Y-131326009D01*
X53633809Y-131326009D02*
X53633809Y-131421247D01*
X53633809Y-131421247D02*
X53157619Y-131516485D01*
X54062381Y-131849819D02*
X54062381Y-131183152D01*
X54062381Y-131278390D02*
X54110000Y-131230771D01*
X54110000Y-131230771D02*
X54205238Y-131183152D01*
X54205238Y-131183152D02*
X54348095Y-131183152D01*
X54348095Y-131183152D02*
X54443333Y-131230771D01*
X54443333Y-131230771D02*
X54490952Y-131326009D01*
X54490952Y-131326009D02*
X54490952Y-131849819D01*
X54490952Y-131326009D02*
X54538571Y-131230771D01*
X54538571Y-131230771D02*
X54633809Y-131183152D01*
X54633809Y-131183152D02*
X54776666Y-131183152D01*
X54776666Y-131183152D02*
X54871905Y-131230771D01*
X54871905Y-131230771D02*
X54919524Y-131326009D01*
X54919524Y-131326009D02*
X54919524Y-131849819D01*
X55395714Y-131183152D02*
X55395714Y-132183152D01*
X55395714Y-131230771D02*
X55490952Y-131183152D01*
X55490952Y-131183152D02*
X55681428Y-131183152D01*
X55681428Y-131183152D02*
X55776666Y-131230771D01*
X55776666Y-131230771D02*
X55824285Y-131278390D01*
X55824285Y-131278390D02*
X55871904Y-131373628D01*
X55871904Y-131373628D02*
X55871904Y-131659342D01*
X55871904Y-131659342D02*
X55824285Y-131754580D01*
X55824285Y-131754580D02*
X55776666Y-131802200D01*
X55776666Y-131802200D02*
X55681428Y-131849819D01*
X55681428Y-131849819D02*
X55490952Y-131849819D01*
X55490952Y-131849819D02*
X55395714Y-131802200D01*
X56729047Y-131183152D02*
X56729047Y-131849819D01*
X56490952Y-130802200D02*
X56252857Y-131516485D01*
X56252857Y-131516485D02*
X56871904Y-131516485D01*
X63508009Y-90336429D02*
X63555628Y-90193572D01*
X63555628Y-90193572D02*
X63603247Y-90145953D01*
X63603247Y-90145953D02*
X63698485Y-90098334D01*
X63698485Y-90098334D02*
X63841342Y-90098334D01*
X63841342Y-90098334D02*
X63936580Y-90145953D01*
X63936580Y-90145953D02*
X63984200Y-90193572D01*
X63984200Y-90193572D02*
X64031819Y-90288810D01*
X64031819Y-90288810D02*
X64031819Y-90669762D01*
X64031819Y-90669762D02*
X63031819Y-90669762D01*
X63031819Y-90669762D02*
X63031819Y-90336429D01*
X63031819Y-90336429D02*
X63079438Y-90241191D01*
X63079438Y-90241191D02*
X63127057Y-90193572D01*
X63127057Y-90193572D02*
X63222295Y-90145953D01*
X63222295Y-90145953D02*
X63317533Y-90145953D01*
X63317533Y-90145953D02*
X63412771Y-90193572D01*
X63412771Y-90193572D02*
X63460390Y-90241191D01*
X63460390Y-90241191D02*
X63508009Y-90336429D01*
X63508009Y-90336429D02*
X63508009Y-90669762D01*
X64031819Y-89241191D02*
X63508009Y-89241191D01*
X63508009Y-89241191D02*
X63412771Y-89288810D01*
X63412771Y-89288810D02*
X63365152Y-89384048D01*
X63365152Y-89384048D02*
X63365152Y-89574524D01*
X63365152Y-89574524D02*
X63412771Y-89669762D01*
X63984200Y-89241191D02*
X64031819Y-89336429D01*
X64031819Y-89336429D02*
X64031819Y-89574524D01*
X64031819Y-89574524D02*
X63984200Y-89669762D01*
X63984200Y-89669762D02*
X63888961Y-89717381D01*
X63888961Y-89717381D02*
X63793723Y-89717381D01*
X63793723Y-89717381D02*
X63698485Y-89669762D01*
X63698485Y-89669762D02*
X63650866Y-89574524D01*
X63650866Y-89574524D02*
X63650866Y-89336429D01*
X63650866Y-89336429D02*
X63603247Y-89241191D01*
X63365152Y-88907857D02*
X63365152Y-88526905D01*
X63031819Y-88765000D02*
X63888961Y-88765000D01*
X63888961Y-88765000D02*
X63984200Y-88717381D01*
X63984200Y-88717381D02*
X64031819Y-88622143D01*
X64031819Y-88622143D02*
X64031819Y-88526905D01*
X63365152Y-88336428D02*
X63365152Y-87955476D01*
X63031819Y-88193571D02*
X63888961Y-88193571D01*
X63888961Y-88193571D02*
X63984200Y-88145952D01*
X63984200Y-88145952D02*
X64031819Y-88050714D01*
X64031819Y-88050714D02*
X64031819Y-87955476D01*
X63984200Y-87241190D02*
X64031819Y-87336428D01*
X64031819Y-87336428D02*
X64031819Y-87526904D01*
X64031819Y-87526904D02*
X63984200Y-87622142D01*
X63984200Y-87622142D02*
X63888961Y-87669761D01*
X63888961Y-87669761D02*
X63508009Y-87669761D01*
X63508009Y-87669761D02*
X63412771Y-87622142D01*
X63412771Y-87622142D02*
X63365152Y-87526904D01*
X63365152Y-87526904D02*
X63365152Y-87336428D01*
X63365152Y-87336428D02*
X63412771Y-87241190D01*
X63412771Y-87241190D02*
X63508009Y-87193571D01*
X63508009Y-87193571D02*
X63603247Y-87193571D01*
X63603247Y-87193571D02*
X63698485Y-87669761D01*
X64031819Y-86764999D02*
X63365152Y-86764999D01*
X63555628Y-86764999D02*
X63460390Y-86717380D01*
X63460390Y-86717380D02*
X63412771Y-86669761D01*
X63412771Y-86669761D02*
X63365152Y-86574523D01*
X63365152Y-86574523D02*
X63365152Y-86479285D01*
X63365152Y-86241189D02*
X64031819Y-86003094D01*
X63365152Y-85764999D02*
X64031819Y-86003094D01*
X64031819Y-86003094D02*
X64269914Y-86098332D01*
X64269914Y-86098332D02*
X64317533Y-86145951D01*
X64317533Y-86145951D02*
X64365152Y-86241189D01*
X103100476Y-130849819D02*
X103671904Y-130849819D01*
X103386190Y-131849819D02*
X103386190Y-130849819D01*
X104386190Y-131802200D02*
X104290952Y-131849819D01*
X104290952Y-131849819D02*
X104100476Y-131849819D01*
X104100476Y-131849819D02*
X104005238Y-131802200D01*
X104005238Y-131802200D02*
X103957619Y-131706961D01*
X103957619Y-131706961D02*
X103957619Y-131326009D01*
X103957619Y-131326009D02*
X104005238Y-131230771D01*
X104005238Y-131230771D02*
X104100476Y-131183152D01*
X104100476Y-131183152D02*
X104290952Y-131183152D01*
X104290952Y-131183152D02*
X104386190Y-131230771D01*
X104386190Y-131230771D02*
X104433809Y-131326009D01*
X104433809Y-131326009D02*
X104433809Y-131421247D01*
X104433809Y-131421247D02*
X103957619Y-131516485D01*
X104862381Y-131849819D02*
X104862381Y-131183152D01*
X104862381Y-131278390D02*
X104910000Y-131230771D01*
X104910000Y-131230771D02*
X105005238Y-131183152D01*
X105005238Y-131183152D02*
X105148095Y-131183152D01*
X105148095Y-131183152D02*
X105243333Y-131230771D01*
X105243333Y-131230771D02*
X105290952Y-131326009D01*
X105290952Y-131326009D02*
X105290952Y-131849819D01*
X105290952Y-131326009D02*
X105338571Y-131230771D01*
X105338571Y-131230771D02*
X105433809Y-131183152D01*
X105433809Y-131183152D02*
X105576666Y-131183152D01*
X105576666Y-131183152D02*
X105671905Y-131230771D01*
X105671905Y-131230771D02*
X105719524Y-131326009D01*
X105719524Y-131326009D02*
X105719524Y-131849819D01*
X106195714Y-131183152D02*
X106195714Y-132183152D01*
X106195714Y-131230771D02*
X106290952Y-131183152D01*
X106290952Y-131183152D02*
X106481428Y-131183152D01*
X106481428Y-131183152D02*
X106576666Y-131230771D01*
X106576666Y-131230771D02*
X106624285Y-131278390D01*
X106624285Y-131278390D02*
X106671904Y-131373628D01*
X106671904Y-131373628D02*
X106671904Y-131659342D01*
X106671904Y-131659342D02*
X106624285Y-131754580D01*
X106624285Y-131754580D02*
X106576666Y-131802200D01*
X106576666Y-131802200D02*
X106481428Y-131849819D01*
X106481428Y-131849819D02*
X106290952Y-131849819D01*
X106290952Y-131849819D02*
X106195714Y-131802200D01*
X107005238Y-130849819D02*
X107671904Y-130849819D01*
X107671904Y-130849819D02*
X107243333Y-131849819D01*
X95480476Y-130849819D02*
X96051904Y-130849819D01*
X95766190Y-131849819D02*
X95766190Y-130849819D01*
X96766190Y-131802200D02*
X96670952Y-131849819D01*
X96670952Y-131849819D02*
X96480476Y-131849819D01*
X96480476Y-131849819D02*
X96385238Y-131802200D01*
X96385238Y-131802200D02*
X96337619Y-131706961D01*
X96337619Y-131706961D02*
X96337619Y-131326009D01*
X96337619Y-131326009D02*
X96385238Y-131230771D01*
X96385238Y-131230771D02*
X96480476Y-131183152D01*
X96480476Y-131183152D02*
X96670952Y-131183152D01*
X96670952Y-131183152D02*
X96766190Y-131230771D01*
X96766190Y-131230771D02*
X96813809Y-131326009D01*
X96813809Y-131326009D02*
X96813809Y-131421247D01*
X96813809Y-131421247D02*
X96337619Y-131516485D01*
X97242381Y-131849819D02*
X97242381Y-131183152D01*
X97242381Y-131278390D02*
X97290000Y-131230771D01*
X97290000Y-131230771D02*
X97385238Y-131183152D01*
X97385238Y-131183152D02*
X97528095Y-131183152D01*
X97528095Y-131183152D02*
X97623333Y-131230771D01*
X97623333Y-131230771D02*
X97670952Y-131326009D01*
X97670952Y-131326009D02*
X97670952Y-131849819D01*
X97670952Y-131326009D02*
X97718571Y-131230771D01*
X97718571Y-131230771D02*
X97813809Y-131183152D01*
X97813809Y-131183152D02*
X97956666Y-131183152D01*
X97956666Y-131183152D02*
X98051905Y-131230771D01*
X98051905Y-131230771D02*
X98099524Y-131326009D01*
X98099524Y-131326009D02*
X98099524Y-131849819D01*
X98575714Y-131183152D02*
X98575714Y-132183152D01*
X98575714Y-131230771D02*
X98670952Y-131183152D01*
X98670952Y-131183152D02*
X98861428Y-131183152D01*
X98861428Y-131183152D02*
X98956666Y-131230771D01*
X98956666Y-131230771D02*
X99004285Y-131278390D01*
X99004285Y-131278390D02*
X99051904Y-131373628D01*
X99051904Y-131373628D02*
X99051904Y-131659342D01*
X99051904Y-131659342D02*
X99004285Y-131754580D01*
X99004285Y-131754580D02*
X98956666Y-131802200D01*
X98956666Y-131802200D02*
X98861428Y-131849819D01*
X98861428Y-131849819D02*
X98670952Y-131849819D01*
X98670952Y-131849819D02*
X98575714Y-131802200D01*
X99623333Y-131278390D02*
X99528095Y-131230771D01*
X99528095Y-131230771D02*
X99480476Y-131183152D01*
X99480476Y-131183152D02*
X99432857Y-131087914D01*
X99432857Y-131087914D02*
X99432857Y-131040295D01*
X99432857Y-131040295D02*
X99480476Y-130945057D01*
X99480476Y-130945057D02*
X99528095Y-130897438D01*
X99528095Y-130897438D02*
X99623333Y-130849819D01*
X99623333Y-130849819D02*
X99813809Y-130849819D01*
X99813809Y-130849819D02*
X99909047Y-130897438D01*
X99909047Y-130897438D02*
X99956666Y-130945057D01*
X99956666Y-130945057D02*
X100004285Y-131040295D01*
X100004285Y-131040295D02*
X100004285Y-131087914D01*
X100004285Y-131087914D02*
X99956666Y-131183152D01*
X99956666Y-131183152D02*
X99909047Y-131230771D01*
X99909047Y-131230771D02*
X99813809Y-131278390D01*
X99813809Y-131278390D02*
X99623333Y-131278390D01*
X99623333Y-131278390D02*
X99528095Y-131326009D01*
X99528095Y-131326009D02*
X99480476Y-131373628D01*
X99480476Y-131373628D02*
X99432857Y-131468866D01*
X99432857Y-131468866D02*
X99432857Y-131659342D01*
X99432857Y-131659342D02*
X99480476Y-131754580D01*
X99480476Y-131754580D02*
X99528095Y-131802200D01*
X99528095Y-131802200D02*
X99623333Y-131849819D01*
X99623333Y-131849819D02*
X99813809Y-131849819D01*
X99813809Y-131849819D02*
X99909047Y-131802200D01*
X99909047Y-131802200D02*
X99956666Y-131754580D01*
X99956666Y-131754580D02*
X100004285Y-131659342D01*
X100004285Y-131659342D02*
X100004285Y-131468866D01*
X100004285Y-131468866D02*
X99956666Y-131373628D01*
X99956666Y-131373628D02*
X99909047Y-131326009D01*
X99909047Y-131326009D02*
X99813809Y-131278390D01*
X75160476Y-130849819D02*
X75731904Y-130849819D01*
X75446190Y-131849819D02*
X75446190Y-130849819D01*
X76446190Y-131802200D02*
X76350952Y-131849819D01*
X76350952Y-131849819D02*
X76160476Y-131849819D01*
X76160476Y-131849819D02*
X76065238Y-131802200D01*
X76065238Y-131802200D02*
X76017619Y-131706961D01*
X76017619Y-131706961D02*
X76017619Y-131326009D01*
X76017619Y-131326009D02*
X76065238Y-131230771D01*
X76065238Y-131230771D02*
X76160476Y-131183152D01*
X76160476Y-131183152D02*
X76350952Y-131183152D01*
X76350952Y-131183152D02*
X76446190Y-131230771D01*
X76446190Y-131230771D02*
X76493809Y-131326009D01*
X76493809Y-131326009D02*
X76493809Y-131421247D01*
X76493809Y-131421247D02*
X76017619Y-131516485D01*
X76922381Y-131849819D02*
X76922381Y-131183152D01*
X76922381Y-131278390D02*
X76970000Y-131230771D01*
X76970000Y-131230771D02*
X77065238Y-131183152D01*
X77065238Y-131183152D02*
X77208095Y-131183152D01*
X77208095Y-131183152D02*
X77303333Y-131230771D01*
X77303333Y-131230771D02*
X77350952Y-131326009D01*
X77350952Y-131326009D02*
X77350952Y-131849819D01*
X77350952Y-131326009D02*
X77398571Y-131230771D01*
X77398571Y-131230771D02*
X77493809Y-131183152D01*
X77493809Y-131183152D02*
X77636666Y-131183152D01*
X77636666Y-131183152D02*
X77731905Y-131230771D01*
X77731905Y-131230771D02*
X77779524Y-131326009D01*
X77779524Y-131326009D02*
X77779524Y-131849819D01*
X78255714Y-131183152D02*
X78255714Y-132183152D01*
X78255714Y-131230771D02*
X78350952Y-131183152D01*
X78350952Y-131183152D02*
X78541428Y-131183152D01*
X78541428Y-131183152D02*
X78636666Y-131230771D01*
X78636666Y-131230771D02*
X78684285Y-131278390D01*
X78684285Y-131278390D02*
X78731904Y-131373628D01*
X78731904Y-131373628D02*
X78731904Y-131659342D01*
X78731904Y-131659342D02*
X78684285Y-131754580D01*
X78684285Y-131754580D02*
X78636666Y-131802200D01*
X78636666Y-131802200D02*
X78541428Y-131849819D01*
X78541428Y-131849819D02*
X78350952Y-131849819D01*
X78350952Y-131849819D02*
X78255714Y-131802200D01*
X79684285Y-131849819D02*
X79112857Y-131849819D01*
X79398571Y-131849819D02*
X79398571Y-130849819D01*
X79398571Y-130849819D02*
X79303333Y-130992676D01*
X79303333Y-130992676D02*
X79208095Y-131087914D01*
X79208095Y-131087914D02*
X79112857Y-131135533D01*
X105184580Y-112751429D02*
X105232200Y-112799048D01*
X105232200Y-112799048D02*
X105279819Y-112941905D01*
X105279819Y-112941905D02*
X105279819Y-113037143D01*
X105279819Y-113037143D02*
X105232200Y-113180000D01*
X105232200Y-113180000D02*
X105136961Y-113275238D01*
X105136961Y-113275238D02*
X105041723Y-113322857D01*
X105041723Y-113322857D02*
X104851247Y-113370476D01*
X104851247Y-113370476D02*
X104708390Y-113370476D01*
X104708390Y-113370476D02*
X104517914Y-113322857D01*
X104517914Y-113322857D02*
X104422676Y-113275238D01*
X104422676Y-113275238D02*
X104327438Y-113180000D01*
X104327438Y-113180000D02*
X104279819Y-113037143D01*
X104279819Y-113037143D02*
X104279819Y-112941905D01*
X104279819Y-112941905D02*
X104327438Y-112799048D01*
X104327438Y-112799048D02*
X104375057Y-112751429D01*
X105279819Y-112322857D02*
X104279819Y-112322857D01*
X105279819Y-111894286D02*
X104756009Y-111894286D01*
X104756009Y-111894286D02*
X104660771Y-111941905D01*
X104660771Y-111941905D02*
X104613152Y-112037143D01*
X104613152Y-112037143D02*
X104613152Y-112180000D01*
X104613152Y-112180000D02*
X104660771Y-112275238D01*
X104660771Y-112275238D02*
X104708390Y-112322857D01*
X105232200Y-111037143D02*
X105279819Y-111132381D01*
X105279819Y-111132381D02*
X105279819Y-111322857D01*
X105279819Y-111322857D02*
X105232200Y-111418095D01*
X105232200Y-111418095D02*
X105136961Y-111465714D01*
X105136961Y-111465714D02*
X104756009Y-111465714D01*
X104756009Y-111465714D02*
X104660771Y-111418095D01*
X104660771Y-111418095D02*
X104613152Y-111322857D01*
X104613152Y-111322857D02*
X104613152Y-111132381D01*
X104613152Y-111132381D02*
X104660771Y-111037143D01*
X104660771Y-111037143D02*
X104756009Y-110989524D01*
X104756009Y-110989524D02*
X104851247Y-110989524D01*
X104851247Y-110989524D02*
X104946485Y-111465714D01*
X105232200Y-110132381D02*
X105279819Y-110227619D01*
X105279819Y-110227619D02*
X105279819Y-110418095D01*
X105279819Y-110418095D02*
X105232200Y-110513333D01*
X105232200Y-110513333D02*
X105184580Y-110560952D01*
X105184580Y-110560952D02*
X105089342Y-110608571D01*
X105089342Y-110608571D02*
X104803628Y-110608571D01*
X104803628Y-110608571D02*
X104708390Y-110560952D01*
X104708390Y-110560952D02*
X104660771Y-110513333D01*
X104660771Y-110513333D02*
X104613152Y-110418095D01*
X104613152Y-110418095D02*
X104613152Y-110227619D01*
X104613152Y-110227619D02*
X104660771Y-110132381D01*
X105279819Y-109703809D02*
X104279819Y-109703809D01*
X104898866Y-109608571D02*
X105279819Y-109322857D01*
X104613152Y-109322857D02*
X104994104Y-109703809D01*
X105279819Y-107989523D02*
X105232200Y-108084761D01*
X105232200Y-108084761D02*
X105184580Y-108132380D01*
X105184580Y-108132380D02*
X105089342Y-108179999D01*
X105089342Y-108179999D02*
X104803628Y-108179999D01*
X104803628Y-108179999D02*
X104708390Y-108132380D01*
X104708390Y-108132380D02*
X104660771Y-108084761D01*
X104660771Y-108084761D02*
X104613152Y-107989523D01*
X104613152Y-107989523D02*
X104613152Y-107846666D01*
X104613152Y-107846666D02*
X104660771Y-107751428D01*
X104660771Y-107751428D02*
X104708390Y-107703809D01*
X104708390Y-107703809D02*
X104803628Y-107656190D01*
X104803628Y-107656190D02*
X105089342Y-107656190D01*
X105089342Y-107656190D02*
X105184580Y-107703809D01*
X105184580Y-107703809D02*
X105232200Y-107751428D01*
X105232200Y-107751428D02*
X105279819Y-107846666D01*
X105279819Y-107846666D02*
X105279819Y-107989523D01*
X105279819Y-107227618D02*
X104613152Y-107227618D01*
X104803628Y-107227618D02*
X104708390Y-107179999D01*
X104708390Y-107179999D02*
X104660771Y-107132380D01*
X104660771Y-107132380D02*
X104613152Y-107037142D01*
X104613152Y-107037142D02*
X104613152Y-106941904D01*
X105279819Y-106608570D02*
X104613152Y-106608570D01*
X104279819Y-106608570D02*
X104327438Y-106656189D01*
X104327438Y-106656189D02*
X104375057Y-106608570D01*
X104375057Y-106608570D02*
X104327438Y-106560951D01*
X104327438Y-106560951D02*
X104279819Y-106608570D01*
X104279819Y-106608570D02*
X104375057Y-106608570D01*
X105232200Y-105751428D02*
X105279819Y-105846666D01*
X105279819Y-105846666D02*
X105279819Y-106037142D01*
X105279819Y-106037142D02*
X105232200Y-106132380D01*
X105232200Y-106132380D02*
X105136961Y-106179999D01*
X105136961Y-106179999D02*
X104756009Y-106179999D01*
X104756009Y-106179999D02*
X104660771Y-106132380D01*
X104660771Y-106132380D02*
X104613152Y-106037142D01*
X104613152Y-106037142D02*
X104613152Y-105846666D01*
X104613152Y-105846666D02*
X104660771Y-105751428D01*
X104660771Y-105751428D02*
X104756009Y-105703809D01*
X104756009Y-105703809D02*
X104851247Y-105703809D01*
X104851247Y-105703809D02*
X104946485Y-106179999D01*
X104613152Y-105275237D02*
X105279819Y-105275237D01*
X104708390Y-105275237D02*
X104660771Y-105227618D01*
X104660771Y-105227618D02*
X104613152Y-105132380D01*
X104613152Y-105132380D02*
X104613152Y-104989523D01*
X104613152Y-104989523D02*
X104660771Y-104894285D01*
X104660771Y-104894285D02*
X104756009Y-104846666D01*
X104756009Y-104846666D02*
X105279819Y-104846666D01*
X104613152Y-104513332D02*
X104613152Y-104132380D01*
X104279819Y-104370475D02*
X105136961Y-104370475D01*
X105136961Y-104370475D02*
X105232200Y-104322856D01*
X105232200Y-104322856D02*
X105279819Y-104227618D01*
X105279819Y-104227618D02*
X105279819Y-104132380D01*
X105279819Y-103370475D02*
X104756009Y-103370475D01*
X104756009Y-103370475D02*
X104660771Y-103418094D01*
X104660771Y-103418094D02*
X104613152Y-103513332D01*
X104613152Y-103513332D02*
X104613152Y-103703808D01*
X104613152Y-103703808D02*
X104660771Y-103799046D01*
X105232200Y-103370475D02*
X105279819Y-103465713D01*
X105279819Y-103465713D02*
X105279819Y-103703808D01*
X105279819Y-103703808D02*
X105232200Y-103799046D01*
X105232200Y-103799046D02*
X105136961Y-103846665D01*
X105136961Y-103846665D02*
X105041723Y-103846665D01*
X105041723Y-103846665D02*
X104946485Y-103799046D01*
X104946485Y-103799046D02*
X104898866Y-103703808D01*
X104898866Y-103703808D02*
X104898866Y-103465713D01*
X104898866Y-103465713D02*
X104851247Y-103370475D01*
X104613152Y-103037141D02*
X104613152Y-102656189D01*
X104279819Y-102894284D02*
X105136961Y-102894284D01*
X105136961Y-102894284D02*
X105232200Y-102846665D01*
X105232200Y-102846665D02*
X105279819Y-102751427D01*
X105279819Y-102751427D02*
X105279819Y-102656189D01*
X105279819Y-102322855D02*
X104613152Y-102322855D01*
X104279819Y-102322855D02*
X104327438Y-102370474D01*
X104327438Y-102370474D02*
X104375057Y-102322855D01*
X104375057Y-102322855D02*
X104327438Y-102275236D01*
X104327438Y-102275236D02*
X104279819Y-102322855D01*
X104279819Y-102322855D02*
X104375057Y-102322855D01*
X105279819Y-101703808D02*
X105232200Y-101799046D01*
X105232200Y-101799046D02*
X105184580Y-101846665D01*
X105184580Y-101846665D02*
X105089342Y-101894284D01*
X105089342Y-101894284D02*
X104803628Y-101894284D01*
X104803628Y-101894284D02*
X104708390Y-101846665D01*
X104708390Y-101846665D02*
X104660771Y-101799046D01*
X104660771Y-101799046D02*
X104613152Y-101703808D01*
X104613152Y-101703808D02*
X104613152Y-101560951D01*
X104613152Y-101560951D02*
X104660771Y-101465713D01*
X104660771Y-101465713D02*
X104708390Y-101418094D01*
X104708390Y-101418094D02*
X104803628Y-101370475D01*
X104803628Y-101370475D02*
X105089342Y-101370475D01*
X105089342Y-101370475D02*
X105184580Y-101418094D01*
X105184580Y-101418094D02*
X105232200Y-101465713D01*
X105232200Y-101465713D02*
X105279819Y-101560951D01*
X105279819Y-101560951D02*
X105279819Y-101703808D01*
X104613152Y-100941903D02*
X105279819Y-100941903D01*
X104708390Y-100941903D02*
X104660771Y-100894284D01*
X104660771Y-100894284D02*
X104613152Y-100799046D01*
X104613152Y-100799046D02*
X104613152Y-100656189D01*
X104613152Y-100656189D02*
X104660771Y-100560951D01*
X104660771Y-100560951D02*
X104756009Y-100513332D01*
X104756009Y-100513332D02*
X105279819Y-100513332D01*
X105184580Y-100037141D02*
X105232200Y-99989522D01*
X105232200Y-99989522D02*
X105279819Y-100037141D01*
X105279819Y-100037141D02*
X105232200Y-100084760D01*
X105232200Y-100084760D02*
X105184580Y-100037141D01*
X105184580Y-100037141D02*
X105279819Y-100037141D01*
X104898866Y-100037141D02*
X104327438Y-100084760D01*
X104327438Y-100084760D02*
X104279819Y-100037141D01*
X104279819Y-100037141D02*
X104327438Y-99989522D01*
X104327438Y-99989522D02*
X104898866Y-100037141D01*
X104898866Y-100037141D02*
X104279819Y-100037141D01*
X110720476Y-130849819D02*
X111291904Y-130849819D01*
X111006190Y-131849819D02*
X111006190Y-130849819D01*
X112006190Y-131802200D02*
X111910952Y-131849819D01*
X111910952Y-131849819D02*
X111720476Y-131849819D01*
X111720476Y-131849819D02*
X111625238Y-131802200D01*
X111625238Y-131802200D02*
X111577619Y-131706961D01*
X111577619Y-131706961D02*
X111577619Y-131326009D01*
X111577619Y-131326009D02*
X111625238Y-131230771D01*
X111625238Y-131230771D02*
X111720476Y-131183152D01*
X111720476Y-131183152D02*
X111910952Y-131183152D01*
X111910952Y-131183152D02*
X112006190Y-131230771D01*
X112006190Y-131230771D02*
X112053809Y-131326009D01*
X112053809Y-131326009D02*
X112053809Y-131421247D01*
X112053809Y-131421247D02*
X111577619Y-131516485D01*
X112482381Y-131849819D02*
X112482381Y-131183152D01*
X112482381Y-131278390D02*
X112530000Y-131230771D01*
X112530000Y-131230771D02*
X112625238Y-131183152D01*
X112625238Y-131183152D02*
X112768095Y-131183152D01*
X112768095Y-131183152D02*
X112863333Y-131230771D01*
X112863333Y-131230771D02*
X112910952Y-131326009D01*
X112910952Y-131326009D02*
X112910952Y-131849819D01*
X112910952Y-131326009D02*
X112958571Y-131230771D01*
X112958571Y-131230771D02*
X113053809Y-131183152D01*
X113053809Y-131183152D02*
X113196666Y-131183152D01*
X113196666Y-131183152D02*
X113291905Y-131230771D01*
X113291905Y-131230771D02*
X113339524Y-131326009D01*
X113339524Y-131326009D02*
X113339524Y-131849819D01*
X113815714Y-131183152D02*
X113815714Y-132183152D01*
X113815714Y-131230771D02*
X113910952Y-131183152D01*
X113910952Y-131183152D02*
X114101428Y-131183152D01*
X114101428Y-131183152D02*
X114196666Y-131230771D01*
X114196666Y-131230771D02*
X114244285Y-131278390D01*
X114244285Y-131278390D02*
X114291904Y-131373628D01*
X114291904Y-131373628D02*
X114291904Y-131659342D01*
X114291904Y-131659342D02*
X114244285Y-131754580D01*
X114244285Y-131754580D02*
X114196666Y-131802200D01*
X114196666Y-131802200D02*
X114101428Y-131849819D01*
X114101428Y-131849819D02*
X113910952Y-131849819D01*
X113910952Y-131849819D02*
X113815714Y-131802200D01*
X115149047Y-130849819D02*
X114958571Y-130849819D01*
X114958571Y-130849819D02*
X114863333Y-130897438D01*
X114863333Y-130897438D02*
X114815714Y-130945057D01*
X114815714Y-130945057D02*
X114720476Y-131087914D01*
X114720476Y-131087914D02*
X114672857Y-131278390D01*
X114672857Y-131278390D02*
X114672857Y-131659342D01*
X114672857Y-131659342D02*
X114720476Y-131754580D01*
X114720476Y-131754580D02*
X114768095Y-131802200D01*
X114768095Y-131802200D02*
X114863333Y-131849819D01*
X114863333Y-131849819D02*
X115053809Y-131849819D01*
X115053809Y-131849819D02*
X115149047Y-131802200D01*
X115149047Y-131802200D02*
X115196666Y-131754580D01*
X115196666Y-131754580D02*
X115244285Y-131659342D01*
X115244285Y-131659342D02*
X115244285Y-131421247D01*
X115244285Y-131421247D02*
X115196666Y-131326009D01*
X115196666Y-131326009D02*
X115149047Y-131278390D01*
X115149047Y-131278390D02*
X115053809Y-131230771D01*
X115053809Y-131230771D02*
X114863333Y-131230771D01*
X114863333Y-131230771D02*
X114768095Y-131278390D01*
X114768095Y-131278390D02*
X114720476Y-131326009D01*
X114720476Y-131326009D02*
X114672857Y-131421247D01*
X63369819Y-82213220D02*
X62369819Y-82213220D01*
X63369819Y-81784649D02*
X62846009Y-81784649D01*
X62846009Y-81784649D02*
X62750771Y-81832268D01*
X62750771Y-81832268D02*
X62703152Y-81927506D01*
X62703152Y-81927506D02*
X62703152Y-82070363D01*
X62703152Y-82070363D02*
X62750771Y-82165601D01*
X62750771Y-82165601D02*
X62798390Y-82213220D01*
X63322200Y-80927506D02*
X63369819Y-81022744D01*
X63369819Y-81022744D02*
X63369819Y-81213220D01*
X63369819Y-81213220D02*
X63322200Y-81308458D01*
X63322200Y-81308458D02*
X63226961Y-81356077D01*
X63226961Y-81356077D02*
X62846009Y-81356077D01*
X62846009Y-81356077D02*
X62750771Y-81308458D01*
X62750771Y-81308458D02*
X62703152Y-81213220D01*
X62703152Y-81213220D02*
X62703152Y-81022744D01*
X62703152Y-81022744D02*
X62750771Y-80927506D01*
X62750771Y-80927506D02*
X62846009Y-80879887D01*
X62846009Y-80879887D02*
X62941247Y-80879887D01*
X62941247Y-80879887D02*
X63036485Y-81356077D01*
X63369819Y-80022744D02*
X62846009Y-80022744D01*
X62846009Y-80022744D02*
X62750771Y-80070363D01*
X62750771Y-80070363D02*
X62703152Y-80165601D01*
X62703152Y-80165601D02*
X62703152Y-80356077D01*
X62703152Y-80356077D02*
X62750771Y-80451315D01*
X63322200Y-80022744D02*
X63369819Y-80117982D01*
X63369819Y-80117982D02*
X63369819Y-80356077D01*
X63369819Y-80356077D02*
X63322200Y-80451315D01*
X63322200Y-80451315D02*
X63226961Y-80498934D01*
X63226961Y-80498934D02*
X63131723Y-80498934D01*
X63131723Y-80498934D02*
X63036485Y-80451315D01*
X63036485Y-80451315D02*
X62988866Y-80356077D01*
X62988866Y-80356077D02*
X62988866Y-80117982D01*
X62988866Y-80117982D02*
X62941247Y-80022744D01*
X62703152Y-79689410D02*
X62703152Y-79308458D01*
X62369819Y-79546553D02*
X63226961Y-79546553D01*
X63226961Y-79546553D02*
X63322200Y-79498934D01*
X63322200Y-79498934D02*
X63369819Y-79403696D01*
X63369819Y-79403696D02*
X63369819Y-79308458D01*
X63322200Y-78594172D02*
X63369819Y-78689410D01*
X63369819Y-78689410D02*
X63369819Y-78879886D01*
X63369819Y-78879886D02*
X63322200Y-78975124D01*
X63322200Y-78975124D02*
X63226961Y-79022743D01*
X63226961Y-79022743D02*
X62846009Y-79022743D01*
X62846009Y-79022743D02*
X62750771Y-78975124D01*
X62750771Y-78975124D02*
X62703152Y-78879886D01*
X62703152Y-78879886D02*
X62703152Y-78689410D01*
X62703152Y-78689410D02*
X62750771Y-78594172D01*
X62750771Y-78594172D02*
X62846009Y-78546553D01*
X62846009Y-78546553D02*
X62941247Y-78546553D01*
X62941247Y-78546553D02*
X63036485Y-79022743D01*
X63369819Y-78117981D02*
X62703152Y-78117981D01*
X62893628Y-78117981D02*
X62798390Y-78070362D01*
X62798390Y-78070362D02*
X62750771Y-78022743D01*
X62750771Y-78022743D02*
X62703152Y-77927505D01*
X62703152Y-77927505D02*
X62703152Y-77832267D01*
X104952969Y-82419819D02*
X104476779Y-82419819D01*
X104476779Y-82419819D02*
X104476779Y-81419819D01*
X105191065Y-81419819D02*
X105857731Y-81419819D01*
X105857731Y-81419819D02*
X105429160Y-82419819D01*
X106381541Y-81848390D02*
X106286303Y-81800771D01*
X106286303Y-81800771D02*
X106238684Y-81753152D01*
X106238684Y-81753152D02*
X106191065Y-81657914D01*
X106191065Y-81657914D02*
X106191065Y-81610295D01*
X106191065Y-81610295D02*
X106238684Y-81515057D01*
X106238684Y-81515057D02*
X106286303Y-81467438D01*
X106286303Y-81467438D02*
X106381541Y-81419819D01*
X106381541Y-81419819D02*
X106572017Y-81419819D01*
X106572017Y-81419819D02*
X106667255Y-81467438D01*
X106667255Y-81467438D02*
X106714874Y-81515057D01*
X106714874Y-81515057D02*
X106762493Y-81610295D01*
X106762493Y-81610295D02*
X106762493Y-81657914D01*
X106762493Y-81657914D02*
X106714874Y-81753152D01*
X106714874Y-81753152D02*
X106667255Y-81800771D01*
X106667255Y-81800771D02*
X106572017Y-81848390D01*
X106572017Y-81848390D02*
X106381541Y-81848390D01*
X106381541Y-81848390D02*
X106286303Y-81896009D01*
X106286303Y-81896009D02*
X106238684Y-81943628D01*
X106238684Y-81943628D02*
X106191065Y-82038866D01*
X106191065Y-82038866D02*
X106191065Y-82229342D01*
X106191065Y-82229342D02*
X106238684Y-82324580D01*
X106238684Y-82324580D02*
X106286303Y-82372200D01*
X106286303Y-82372200D02*
X106381541Y-82419819D01*
X106381541Y-82419819D02*
X106572017Y-82419819D01*
X106572017Y-82419819D02*
X106667255Y-82372200D01*
X106667255Y-82372200D02*
X106714874Y-82324580D01*
X106714874Y-82324580D02*
X106762493Y-82229342D01*
X106762493Y-82229342D02*
X106762493Y-82038866D01*
X106762493Y-82038866D02*
X106714874Y-81943628D01*
X106714874Y-81943628D02*
X106667255Y-81896009D01*
X106667255Y-81896009D02*
X106572017Y-81848390D01*
X107381541Y-81419819D02*
X107476779Y-81419819D01*
X107476779Y-81419819D02*
X107572017Y-81467438D01*
X107572017Y-81467438D02*
X107619636Y-81515057D01*
X107619636Y-81515057D02*
X107667255Y-81610295D01*
X107667255Y-81610295D02*
X107714874Y-81800771D01*
X107714874Y-81800771D02*
X107714874Y-82038866D01*
X107714874Y-82038866D02*
X107667255Y-82229342D01*
X107667255Y-82229342D02*
X107619636Y-82324580D01*
X107619636Y-82324580D02*
X107572017Y-82372200D01*
X107572017Y-82372200D02*
X107476779Y-82419819D01*
X107476779Y-82419819D02*
X107381541Y-82419819D01*
X107381541Y-82419819D02*
X107286303Y-82372200D01*
X107286303Y-82372200D02*
X107238684Y-82324580D01*
X107238684Y-82324580D02*
X107191065Y-82229342D01*
X107191065Y-82229342D02*
X107143446Y-82038866D01*
X107143446Y-82038866D02*
X107143446Y-81800771D01*
X107143446Y-81800771D02*
X107191065Y-81610295D01*
X107191065Y-81610295D02*
X107238684Y-81515057D01*
X107238684Y-81515057D02*
X107286303Y-81467438D01*
X107286303Y-81467438D02*
X107381541Y-81419819D01*
X108572017Y-81419819D02*
X108381541Y-81419819D01*
X108381541Y-81419819D02*
X108286303Y-81467438D01*
X108286303Y-81467438D02*
X108238684Y-81515057D01*
X108238684Y-81515057D02*
X108143446Y-81657914D01*
X108143446Y-81657914D02*
X108095827Y-81848390D01*
X108095827Y-81848390D02*
X108095827Y-82229342D01*
X108095827Y-82229342D02*
X108143446Y-82324580D01*
X108143446Y-82324580D02*
X108191065Y-82372200D01*
X108191065Y-82372200D02*
X108286303Y-82419819D01*
X108286303Y-82419819D02*
X108476779Y-82419819D01*
X108476779Y-82419819D02*
X108572017Y-82372200D01*
X108572017Y-82372200D02*
X108619636Y-82324580D01*
X108619636Y-82324580D02*
X108667255Y-82229342D01*
X108667255Y-82229342D02*
X108667255Y-81991247D01*
X108667255Y-81991247D02*
X108619636Y-81896009D01*
X108619636Y-81896009D02*
X108572017Y-81848390D01*
X108572017Y-81848390D02*
X108476779Y-81800771D01*
X108476779Y-81800771D02*
X108286303Y-81800771D01*
X108286303Y-81800771D02*
X108191065Y-81848390D01*
X108191065Y-81848390D02*
X108143446Y-81896009D01*
X108143446Y-81896009D02*
X108095827Y-81991247D01*
X51844580Y-111481429D02*
X51892200Y-111529048D01*
X51892200Y-111529048D02*
X51939819Y-111671905D01*
X51939819Y-111671905D02*
X51939819Y-111767143D01*
X51939819Y-111767143D02*
X51892200Y-111910000D01*
X51892200Y-111910000D02*
X51796961Y-112005238D01*
X51796961Y-112005238D02*
X51701723Y-112052857D01*
X51701723Y-112052857D02*
X51511247Y-112100476D01*
X51511247Y-112100476D02*
X51368390Y-112100476D01*
X51368390Y-112100476D02*
X51177914Y-112052857D01*
X51177914Y-112052857D02*
X51082676Y-112005238D01*
X51082676Y-112005238D02*
X50987438Y-111910000D01*
X50987438Y-111910000D02*
X50939819Y-111767143D01*
X50939819Y-111767143D02*
X50939819Y-111671905D01*
X50939819Y-111671905D02*
X50987438Y-111529048D01*
X50987438Y-111529048D02*
X51035057Y-111481429D01*
X51939819Y-111052857D02*
X50939819Y-111052857D01*
X51939819Y-110624286D02*
X51416009Y-110624286D01*
X51416009Y-110624286D02*
X51320771Y-110671905D01*
X51320771Y-110671905D02*
X51273152Y-110767143D01*
X51273152Y-110767143D02*
X51273152Y-110910000D01*
X51273152Y-110910000D02*
X51320771Y-111005238D01*
X51320771Y-111005238D02*
X51368390Y-111052857D01*
X51892200Y-109767143D02*
X51939819Y-109862381D01*
X51939819Y-109862381D02*
X51939819Y-110052857D01*
X51939819Y-110052857D02*
X51892200Y-110148095D01*
X51892200Y-110148095D02*
X51796961Y-110195714D01*
X51796961Y-110195714D02*
X51416009Y-110195714D01*
X51416009Y-110195714D02*
X51320771Y-110148095D01*
X51320771Y-110148095D02*
X51273152Y-110052857D01*
X51273152Y-110052857D02*
X51273152Y-109862381D01*
X51273152Y-109862381D02*
X51320771Y-109767143D01*
X51320771Y-109767143D02*
X51416009Y-109719524D01*
X51416009Y-109719524D02*
X51511247Y-109719524D01*
X51511247Y-109719524D02*
X51606485Y-110195714D01*
X51892200Y-108862381D02*
X51939819Y-108957619D01*
X51939819Y-108957619D02*
X51939819Y-109148095D01*
X51939819Y-109148095D02*
X51892200Y-109243333D01*
X51892200Y-109243333D02*
X51844580Y-109290952D01*
X51844580Y-109290952D02*
X51749342Y-109338571D01*
X51749342Y-109338571D02*
X51463628Y-109338571D01*
X51463628Y-109338571D02*
X51368390Y-109290952D01*
X51368390Y-109290952D02*
X51320771Y-109243333D01*
X51320771Y-109243333D02*
X51273152Y-109148095D01*
X51273152Y-109148095D02*
X51273152Y-108957619D01*
X51273152Y-108957619D02*
X51320771Y-108862381D01*
X51939819Y-108433809D02*
X50939819Y-108433809D01*
X51558866Y-108338571D02*
X51939819Y-108052857D01*
X51273152Y-108052857D02*
X51654104Y-108433809D01*
X51939819Y-106719523D02*
X51892200Y-106814761D01*
X51892200Y-106814761D02*
X51844580Y-106862380D01*
X51844580Y-106862380D02*
X51749342Y-106909999D01*
X51749342Y-106909999D02*
X51463628Y-106909999D01*
X51463628Y-106909999D02*
X51368390Y-106862380D01*
X51368390Y-106862380D02*
X51320771Y-106814761D01*
X51320771Y-106814761D02*
X51273152Y-106719523D01*
X51273152Y-106719523D02*
X51273152Y-106576666D01*
X51273152Y-106576666D02*
X51320771Y-106481428D01*
X51320771Y-106481428D02*
X51368390Y-106433809D01*
X51368390Y-106433809D02*
X51463628Y-106386190D01*
X51463628Y-106386190D02*
X51749342Y-106386190D01*
X51749342Y-106386190D02*
X51844580Y-106433809D01*
X51844580Y-106433809D02*
X51892200Y-106481428D01*
X51892200Y-106481428D02*
X51939819Y-106576666D01*
X51939819Y-106576666D02*
X51939819Y-106719523D01*
X51939819Y-105957618D02*
X51273152Y-105957618D01*
X51463628Y-105957618D02*
X51368390Y-105909999D01*
X51368390Y-105909999D02*
X51320771Y-105862380D01*
X51320771Y-105862380D02*
X51273152Y-105767142D01*
X51273152Y-105767142D02*
X51273152Y-105671904D01*
X51939819Y-105338570D02*
X51273152Y-105338570D01*
X50939819Y-105338570D02*
X50987438Y-105386189D01*
X50987438Y-105386189D02*
X51035057Y-105338570D01*
X51035057Y-105338570D02*
X50987438Y-105290951D01*
X50987438Y-105290951D02*
X50939819Y-105338570D01*
X50939819Y-105338570D02*
X51035057Y-105338570D01*
X51892200Y-104481428D02*
X51939819Y-104576666D01*
X51939819Y-104576666D02*
X51939819Y-104767142D01*
X51939819Y-104767142D02*
X51892200Y-104862380D01*
X51892200Y-104862380D02*
X51796961Y-104909999D01*
X51796961Y-104909999D02*
X51416009Y-104909999D01*
X51416009Y-104909999D02*
X51320771Y-104862380D01*
X51320771Y-104862380D02*
X51273152Y-104767142D01*
X51273152Y-104767142D02*
X51273152Y-104576666D01*
X51273152Y-104576666D02*
X51320771Y-104481428D01*
X51320771Y-104481428D02*
X51416009Y-104433809D01*
X51416009Y-104433809D02*
X51511247Y-104433809D01*
X51511247Y-104433809D02*
X51606485Y-104909999D01*
X51273152Y-104005237D02*
X51939819Y-104005237D01*
X51368390Y-104005237D02*
X51320771Y-103957618D01*
X51320771Y-103957618D02*
X51273152Y-103862380D01*
X51273152Y-103862380D02*
X51273152Y-103719523D01*
X51273152Y-103719523D02*
X51320771Y-103624285D01*
X51320771Y-103624285D02*
X51416009Y-103576666D01*
X51416009Y-103576666D02*
X51939819Y-103576666D01*
X51273152Y-103243332D02*
X51273152Y-102862380D01*
X50939819Y-103100475D02*
X51796961Y-103100475D01*
X51796961Y-103100475D02*
X51892200Y-103052856D01*
X51892200Y-103052856D02*
X51939819Y-102957618D01*
X51939819Y-102957618D02*
X51939819Y-102862380D01*
X51939819Y-102100475D02*
X51416009Y-102100475D01*
X51416009Y-102100475D02*
X51320771Y-102148094D01*
X51320771Y-102148094D02*
X51273152Y-102243332D01*
X51273152Y-102243332D02*
X51273152Y-102433808D01*
X51273152Y-102433808D02*
X51320771Y-102529046D01*
X51892200Y-102100475D02*
X51939819Y-102195713D01*
X51939819Y-102195713D02*
X51939819Y-102433808D01*
X51939819Y-102433808D02*
X51892200Y-102529046D01*
X51892200Y-102529046D02*
X51796961Y-102576665D01*
X51796961Y-102576665D02*
X51701723Y-102576665D01*
X51701723Y-102576665D02*
X51606485Y-102529046D01*
X51606485Y-102529046D02*
X51558866Y-102433808D01*
X51558866Y-102433808D02*
X51558866Y-102195713D01*
X51558866Y-102195713D02*
X51511247Y-102100475D01*
X51273152Y-101767141D02*
X51273152Y-101386189D01*
X50939819Y-101624284D02*
X51796961Y-101624284D01*
X51796961Y-101624284D02*
X51892200Y-101576665D01*
X51892200Y-101576665D02*
X51939819Y-101481427D01*
X51939819Y-101481427D02*
X51939819Y-101386189D01*
X51939819Y-101052855D02*
X51273152Y-101052855D01*
X50939819Y-101052855D02*
X50987438Y-101100474D01*
X50987438Y-101100474D02*
X51035057Y-101052855D01*
X51035057Y-101052855D02*
X50987438Y-101005236D01*
X50987438Y-101005236D02*
X50939819Y-101052855D01*
X50939819Y-101052855D02*
X51035057Y-101052855D01*
X51939819Y-100433808D02*
X51892200Y-100529046D01*
X51892200Y-100529046D02*
X51844580Y-100576665D01*
X51844580Y-100576665D02*
X51749342Y-100624284D01*
X51749342Y-100624284D02*
X51463628Y-100624284D01*
X51463628Y-100624284D02*
X51368390Y-100576665D01*
X51368390Y-100576665D02*
X51320771Y-100529046D01*
X51320771Y-100529046D02*
X51273152Y-100433808D01*
X51273152Y-100433808D02*
X51273152Y-100290951D01*
X51273152Y-100290951D02*
X51320771Y-100195713D01*
X51320771Y-100195713D02*
X51368390Y-100148094D01*
X51368390Y-100148094D02*
X51463628Y-100100475D01*
X51463628Y-100100475D02*
X51749342Y-100100475D01*
X51749342Y-100100475D02*
X51844580Y-100148094D01*
X51844580Y-100148094D02*
X51892200Y-100195713D01*
X51892200Y-100195713D02*
X51939819Y-100290951D01*
X51939819Y-100290951D02*
X51939819Y-100433808D01*
X51273152Y-99671903D02*
X51939819Y-99671903D01*
X51368390Y-99671903D02*
X51320771Y-99624284D01*
X51320771Y-99624284D02*
X51273152Y-99529046D01*
X51273152Y-99529046D02*
X51273152Y-99386189D01*
X51273152Y-99386189D02*
X51320771Y-99290951D01*
X51320771Y-99290951D02*
X51416009Y-99243332D01*
X51416009Y-99243332D02*
X51939819Y-99243332D01*
X51844580Y-98767141D02*
X51892200Y-98719522D01*
X51892200Y-98719522D02*
X51939819Y-98767141D01*
X51939819Y-98767141D02*
X51892200Y-98814760D01*
X51892200Y-98814760D02*
X51844580Y-98767141D01*
X51844580Y-98767141D02*
X51939819Y-98767141D01*
X51558866Y-98767141D02*
X50987438Y-98814760D01*
X50987438Y-98814760D02*
X50939819Y-98767141D01*
X50939819Y-98767141D02*
X50987438Y-98719522D01*
X50987438Y-98719522D02*
X51558866Y-98767141D01*
X51558866Y-98767141D02*
X50939819Y-98767141D01*
X104994104Y-119959047D02*
X104994104Y-119482857D01*
X105279819Y-120054285D02*
X104279819Y-119720952D01*
X104279819Y-119720952D02*
X105279819Y-119387619D01*
X105279819Y-119054285D02*
X104279819Y-119054285D01*
X104279819Y-119054285D02*
X104279819Y-118816190D01*
X104279819Y-118816190D02*
X104327438Y-118673333D01*
X104327438Y-118673333D02*
X104422676Y-118578095D01*
X104422676Y-118578095D02*
X104517914Y-118530476D01*
X104517914Y-118530476D02*
X104708390Y-118482857D01*
X104708390Y-118482857D02*
X104851247Y-118482857D01*
X104851247Y-118482857D02*
X105041723Y-118530476D01*
X105041723Y-118530476D02*
X105136961Y-118578095D01*
X105136961Y-118578095D02*
X105232200Y-118673333D01*
X105232200Y-118673333D02*
X105279819Y-118816190D01*
X105279819Y-118816190D02*
X105279819Y-119054285D01*
X105232200Y-118101904D02*
X105279819Y-117959047D01*
X105279819Y-117959047D02*
X105279819Y-117720952D01*
X105279819Y-117720952D02*
X105232200Y-117625714D01*
X105232200Y-117625714D02*
X105184580Y-117578095D01*
X105184580Y-117578095D02*
X105089342Y-117530476D01*
X105089342Y-117530476D02*
X104994104Y-117530476D01*
X104994104Y-117530476D02*
X104898866Y-117578095D01*
X104898866Y-117578095D02*
X104851247Y-117625714D01*
X104851247Y-117625714D02*
X104803628Y-117720952D01*
X104803628Y-117720952D02*
X104756009Y-117911428D01*
X104756009Y-117911428D02*
X104708390Y-118006666D01*
X104708390Y-118006666D02*
X104660771Y-118054285D01*
X104660771Y-118054285D02*
X104565533Y-118101904D01*
X104565533Y-118101904D02*
X104470295Y-118101904D01*
X104470295Y-118101904D02*
X104375057Y-118054285D01*
X104375057Y-118054285D02*
X104327438Y-118006666D01*
X104327438Y-118006666D02*
X104279819Y-117911428D01*
X104279819Y-117911428D02*
X104279819Y-117673333D01*
X104279819Y-117673333D02*
X104327438Y-117530476D01*
X105279819Y-116578095D02*
X105279819Y-117149523D01*
X105279819Y-116863809D02*
X104279819Y-116863809D01*
X104279819Y-116863809D02*
X104422676Y-116959047D01*
X104422676Y-116959047D02*
X104517914Y-117054285D01*
X104517914Y-117054285D02*
X104565533Y-117149523D01*
X105279819Y-115625714D02*
X105279819Y-116197142D01*
X105279819Y-115911428D02*
X104279819Y-115911428D01*
X104279819Y-115911428D02*
X104422676Y-116006666D01*
X104422676Y-116006666D02*
X104517914Y-116101904D01*
X104517914Y-116101904D02*
X104565533Y-116197142D01*
X105279819Y-114673333D02*
X105279819Y-115244761D01*
X105279819Y-114959047D02*
X104279819Y-114959047D01*
X104279819Y-114959047D02*
X104422676Y-115054285D01*
X104422676Y-115054285D02*
X104517914Y-115149523D01*
X104517914Y-115149523D02*
X104565533Y-115244761D01*
X104279819Y-113768571D02*
X104279819Y-114244761D01*
X104279819Y-114244761D02*
X104756009Y-114292380D01*
X104756009Y-114292380D02*
X104708390Y-114244761D01*
X104708390Y-114244761D02*
X104660771Y-114149523D01*
X104660771Y-114149523D02*
X104660771Y-113911428D01*
X104660771Y-113911428D02*
X104708390Y-113816190D01*
X104708390Y-113816190D02*
X104756009Y-113768571D01*
X104756009Y-113768571D02*
X104851247Y-113720952D01*
X104851247Y-113720952D02*
X105089342Y-113720952D01*
X105089342Y-113720952D02*
X105184580Y-113768571D01*
X105184580Y-113768571D02*
X105232200Y-113816190D01*
X105232200Y-113816190D02*
X105279819Y-113911428D01*
X105279819Y-113911428D02*
X105279819Y-114149523D01*
X105279819Y-114149523D02*
X105232200Y-114244761D01*
X105232200Y-114244761D02*
X105184580Y-114292380D01*
X51654104Y-119959047D02*
X51654104Y-119482857D01*
X51939819Y-120054285D02*
X50939819Y-119720952D01*
X50939819Y-119720952D02*
X51939819Y-119387619D01*
X51939819Y-119054285D02*
X50939819Y-119054285D01*
X50939819Y-119054285D02*
X50939819Y-118816190D01*
X50939819Y-118816190D02*
X50987438Y-118673333D01*
X50987438Y-118673333D02*
X51082676Y-118578095D01*
X51082676Y-118578095D02*
X51177914Y-118530476D01*
X51177914Y-118530476D02*
X51368390Y-118482857D01*
X51368390Y-118482857D02*
X51511247Y-118482857D01*
X51511247Y-118482857D02*
X51701723Y-118530476D01*
X51701723Y-118530476D02*
X51796961Y-118578095D01*
X51796961Y-118578095D02*
X51892200Y-118673333D01*
X51892200Y-118673333D02*
X51939819Y-118816190D01*
X51939819Y-118816190D02*
X51939819Y-119054285D01*
X51892200Y-118101904D02*
X51939819Y-117959047D01*
X51939819Y-117959047D02*
X51939819Y-117720952D01*
X51939819Y-117720952D02*
X51892200Y-117625714D01*
X51892200Y-117625714D02*
X51844580Y-117578095D01*
X51844580Y-117578095D02*
X51749342Y-117530476D01*
X51749342Y-117530476D02*
X51654104Y-117530476D01*
X51654104Y-117530476D02*
X51558866Y-117578095D01*
X51558866Y-117578095D02*
X51511247Y-117625714D01*
X51511247Y-117625714D02*
X51463628Y-117720952D01*
X51463628Y-117720952D02*
X51416009Y-117911428D01*
X51416009Y-117911428D02*
X51368390Y-118006666D01*
X51368390Y-118006666D02*
X51320771Y-118054285D01*
X51320771Y-118054285D02*
X51225533Y-118101904D01*
X51225533Y-118101904D02*
X51130295Y-118101904D01*
X51130295Y-118101904D02*
X51035057Y-118054285D01*
X51035057Y-118054285D02*
X50987438Y-118006666D01*
X50987438Y-118006666D02*
X50939819Y-117911428D01*
X50939819Y-117911428D02*
X50939819Y-117673333D01*
X50939819Y-117673333D02*
X50987438Y-117530476D01*
X51939819Y-116578095D02*
X51939819Y-117149523D01*
X51939819Y-116863809D02*
X50939819Y-116863809D01*
X50939819Y-116863809D02*
X51082676Y-116959047D01*
X51082676Y-116959047D02*
X51177914Y-117054285D01*
X51177914Y-117054285D02*
X51225533Y-117149523D01*
X51939819Y-115625714D02*
X51939819Y-116197142D01*
X51939819Y-115911428D02*
X50939819Y-115911428D01*
X50939819Y-115911428D02*
X51082676Y-116006666D01*
X51082676Y-116006666D02*
X51177914Y-116101904D01*
X51177914Y-116101904D02*
X51225533Y-116197142D01*
X51939819Y-114673333D02*
X51939819Y-115244761D01*
X51939819Y-114959047D02*
X50939819Y-114959047D01*
X50939819Y-114959047D02*
X51082676Y-115054285D01*
X51082676Y-115054285D02*
X51177914Y-115149523D01*
X51177914Y-115149523D02*
X51225533Y-115244761D01*
X50939819Y-113768571D02*
X50939819Y-114244761D01*
X50939819Y-114244761D02*
X51416009Y-114292380D01*
X51416009Y-114292380D02*
X51368390Y-114244761D01*
X51368390Y-114244761D02*
X51320771Y-114149523D01*
X51320771Y-114149523D02*
X51320771Y-113911428D01*
X51320771Y-113911428D02*
X51368390Y-113816190D01*
X51368390Y-113816190D02*
X51416009Y-113768571D01*
X51416009Y-113768571D02*
X51511247Y-113720952D01*
X51511247Y-113720952D02*
X51749342Y-113720952D01*
X51749342Y-113720952D02*
X51844580Y-113768571D01*
X51844580Y-113768571D02*
X51892200Y-113816190D01*
X51892200Y-113816190D02*
X51939819Y-113911428D01*
X51939819Y-113911428D02*
X51939819Y-114149523D01*
X51939819Y-114149523D02*
X51892200Y-114244761D01*
X51892200Y-114244761D02*
X51844580Y-114292380D01*
X118340476Y-130849819D02*
X118911904Y-130849819D01*
X118626190Y-131849819D02*
X118626190Y-130849819D01*
X119626190Y-131802200D02*
X119530952Y-131849819D01*
X119530952Y-131849819D02*
X119340476Y-131849819D01*
X119340476Y-131849819D02*
X119245238Y-131802200D01*
X119245238Y-131802200D02*
X119197619Y-131706961D01*
X119197619Y-131706961D02*
X119197619Y-131326009D01*
X119197619Y-131326009D02*
X119245238Y-131230771D01*
X119245238Y-131230771D02*
X119340476Y-131183152D01*
X119340476Y-131183152D02*
X119530952Y-131183152D01*
X119530952Y-131183152D02*
X119626190Y-131230771D01*
X119626190Y-131230771D02*
X119673809Y-131326009D01*
X119673809Y-131326009D02*
X119673809Y-131421247D01*
X119673809Y-131421247D02*
X119197619Y-131516485D01*
X120102381Y-131849819D02*
X120102381Y-131183152D01*
X120102381Y-131278390D02*
X120150000Y-131230771D01*
X120150000Y-131230771D02*
X120245238Y-131183152D01*
X120245238Y-131183152D02*
X120388095Y-131183152D01*
X120388095Y-131183152D02*
X120483333Y-131230771D01*
X120483333Y-131230771D02*
X120530952Y-131326009D01*
X120530952Y-131326009D02*
X120530952Y-131849819D01*
X120530952Y-131326009D02*
X120578571Y-131230771D01*
X120578571Y-131230771D02*
X120673809Y-131183152D01*
X120673809Y-131183152D02*
X120816666Y-131183152D01*
X120816666Y-131183152D02*
X120911905Y-131230771D01*
X120911905Y-131230771D02*
X120959524Y-131326009D01*
X120959524Y-131326009D02*
X120959524Y-131849819D01*
X121435714Y-131183152D02*
X121435714Y-132183152D01*
X121435714Y-131230771D02*
X121530952Y-131183152D01*
X121530952Y-131183152D02*
X121721428Y-131183152D01*
X121721428Y-131183152D02*
X121816666Y-131230771D01*
X121816666Y-131230771D02*
X121864285Y-131278390D01*
X121864285Y-131278390D02*
X121911904Y-131373628D01*
X121911904Y-131373628D02*
X121911904Y-131659342D01*
X121911904Y-131659342D02*
X121864285Y-131754580D01*
X121864285Y-131754580D02*
X121816666Y-131802200D01*
X121816666Y-131802200D02*
X121721428Y-131849819D01*
X121721428Y-131849819D02*
X121530952Y-131849819D01*
X121530952Y-131849819D02*
X121435714Y-131802200D01*
X122816666Y-130849819D02*
X122340476Y-130849819D01*
X122340476Y-130849819D02*
X122292857Y-131326009D01*
X122292857Y-131326009D02*
X122340476Y-131278390D01*
X122340476Y-131278390D02*
X122435714Y-131230771D01*
X122435714Y-131230771D02*
X122673809Y-131230771D01*
X122673809Y-131230771D02*
X122769047Y-131278390D01*
X122769047Y-131278390D02*
X122816666Y-131326009D01*
X122816666Y-131326009D02*
X122864285Y-131421247D01*
X122864285Y-131421247D02*
X122864285Y-131659342D01*
X122864285Y-131659342D02*
X122816666Y-131754580D01*
X122816666Y-131754580D02*
X122769047Y-131802200D01*
X122769047Y-131802200D02*
X122673809Y-131849819D01*
X122673809Y-131849819D02*
X122435714Y-131849819D01*
X122435714Y-131849819D02*
X122340476Y-131802200D01*
X122340476Y-131802200D02*
X122292857Y-131754580D01*
X121789819Y-80943220D02*
X120789819Y-80943220D01*
X120789819Y-80943220D02*
X120789819Y-80705125D01*
X120789819Y-80705125D02*
X120837438Y-80562268D01*
X120837438Y-80562268D02*
X120932676Y-80467030D01*
X120932676Y-80467030D02*
X121027914Y-80419411D01*
X121027914Y-80419411D02*
X121218390Y-80371792D01*
X121218390Y-80371792D02*
X121361247Y-80371792D01*
X121361247Y-80371792D02*
X121551723Y-80419411D01*
X121551723Y-80419411D02*
X121646961Y-80467030D01*
X121646961Y-80467030D02*
X121742200Y-80562268D01*
X121742200Y-80562268D02*
X121789819Y-80705125D01*
X121789819Y-80705125D02*
X121789819Y-80943220D01*
X121742200Y-79990839D02*
X121789819Y-79847982D01*
X121789819Y-79847982D02*
X121789819Y-79609887D01*
X121789819Y-79609887D02*
X121742200Y-79514649D01*
X121742200Y-79514649D02*
X121694580Y-79467030D01*
X121694580Y-79467030D02*
X121599342Y-79419411D01*
X121599342Y-79419411D02*
X121504104Y-79419411D01*
X121504104Y-79419411D02*
X121408866Y-79467030D01*
X121408866Y-79467030D02*
X121361247Y-79514649D01*
X121361247Y-79514649D02*
X121313628Y-79609887D01*
X121313628Y-79609887D02*
X121266009Y-79800363D01*
X121266009Y-79800363D02*
X121218390Y-79895601D01*
X121218390Y-79895601D02*
X121170771Y-79943220D01*
X121170771Y-79943220D02*
X121075533Y-79990839D01*
X121075533Y-79990839D02*
X120980295Y-79990839D01*
X120980295Y-79990839D02*
X120885057Y-79943220D01*
X120885057Y-79943220D02*
X120837438Y-79895601D01*
X120837438Y-79895601D02*
X120789819Y-79800363D01*
X120789819Y-79800363D02*
X120789819Y-79562268D01*
X120789819Y-79562268D02*
X120837438Y-79419411D01*
X120789819Y-79086077D02*
X120789819Y-78467030D01*
X120789819Y-78467030D02*
X121170771Y-78800363D01*
X121170771Y-78800363D02*
X121170771Y-78657506D01*
X121170771Y-78657506D02*
X121218390Y-78562268D01*
X121218390Y-78562268D02*
X121266009Y-78514649D01*
X121266009Y-78514649D02*
X121361247Y-78467030D01*
X121361247Y-78467030D02*
X121599342Y-78467030D01*
X121599342Y-78467030D02*
X121694580Y-78514649D01*
X121694580Y-78514649D02*
X121742200Y-78562268D01*
X121742200Y-78562268D02*
X121789819Y-78657506D01*
X121789819Y-78657506D02*
X121789819Y-78943220D01*
X121789819Y-78943220D02*
X121742200Y-79038458D01*
X121742200Y-79038458D02*
X121694580Y-79086077D01*
X120885057Y-78086077D02*
X120837438Y-78038458D01*
X120837438Y-78038458D02*
X120789819Y-77943220D01*
X120789819Y-77943220D02*
X120789819Y-77705125D01*
X120789819Y-77705125D02*
X120837438Y-77609887D01*
X120837438Y-77609887D02*
X120885057Y-77562268D01*
X120885057Y-77562268D02*
X120980295Y-77514649D01*
X120980295Y-77514649D02*
X121075533Y-77514649D01*
X121075533Y-77514649D02*
X121218390Y-77562268D01*
X121218390Y-77562268D02*
X121789819Y-78133696D01*
X121789819Y-78133696D02*
X121789819Y-77514649D01*
X120789819Y-77181315D02*
X120789819Y-76562268D01*
X120789819Y-76562268D02*
X121170771Y-76895601D01*
X121170771Y-76895601D02*
X121170771Y-76752744D01*
X121170771Y-76752744D02*
X121218390Y-76657506D01*
X121218390Y-76657506D02*
X121266009Y-76609887D01*
X121266009Y-76609887D02*
X121361247Y-76562268D01*
X121361247Y-76562268D02*
X121599342Y-76562268D01*
X121599342Y-76562268D02*
X121694580Y-76609887D01*
X121694580Y-76609887D02*
X121742200Y-76657506D01*
X121742200Y-76657506D02*
X121789819Y-76752744D01*
X121789819Y-76752744D02*
X121789819Y-77038458D01*
X121789819Y-77038458D02*
X121742200Y-77133696D01*
X121742200Y-77133696D02*
X121694580Y-77181315D01*
X121789819Y-75609887D02*
X121789819Y-76181315D01*
X121789819Y-75895601D02*
X120789819Y-75895601D01*
X120789819Y-75895601D02*
X120932676Y-75990839D01*
X120932676Y-75990839D02*
X121027914Y-76086077D01*
X121027914Y-76086077D02*
X121075533Y-76181315D01*
X121789819Y-73847982D02*
X121313628Y-74181315D01*
X121789819Y-74419410D02*
X120789819Y-74419410D01*
X120789819Y-74419410D02*
X120789819Y-74038458D01*
X120789819Y-74038458D02*
X120837438Y-73943220D01*
X120837438Y-73943220D02*
X120885057Y-73895601D01*
X120885057Y-73895601D02*
X120980295Y-73847982D01*
X120980295Y-73847982D02*
X121123152Y-73847982D01*
X121123152Y-73847982D02*
X121218390Y-73895601D01*
X121218390Y-73895601D02*
X121266009Y-73943220D01*
X121266009Y-73943220D02*
X121313628Y-74038458D01*
X121313628Y-74038458D02*
X121313628Y-74419410D01*
X120789819Y-73562267D02*
X120789819Y-72990839D01*
X121789819Y-73276553D02*
X120789819Y-73276553D01*
X121694580Y-72086077D02*
X121742200Y-72133696D01*
X121742200Y-72133696D02*
X121789819Y-72276553D01*
X121789819Y-72276553D02*
X121789819Y-72371791D01*
X121789819Y-72371791D02*
X121742200Y-72514648D01*
X121742200Y-72514648D02*
X121646961Y-72609886D01*
X121646961Y-72609886D02*
X121551723Y-72657505D01*
X121551723Y-72657505D02*
X121361247Y-72705124D01*
X121361247Y-72705124D02*
X121218390Y-72705124D01*
X121218390Y-72705124D02*
X121027914Y-72657505D01*
X121027914Y-72657505D02*
X120932676Y-72609886D01*
X120932676Y-72609886D02*
X120837438Y-72514648D01*
X120837438Y-72514648D02*
X120789819Y-72371791D01*
X120789819Y-72371791D02*
X120789819Y-72276553D01*
X120789819Y-72276553D02*
X120837438Y-72133696D01*
X120837438Y-72133696D02*
X120885057Y-72086077D01*
X67540476Y-130849819D02*
X68111904Y-130849819D01*
X67826190Y-131849819D02*
X67826190Y-130849819D01*
X68826190Y-131802200D02*
X68730952Y-131849819D01*
X68730952Y-131849819D02*
X68540476Y-131849819D01*
X68540476Y-131849819D02*
X68445238Y-131802200D01*
X68445238Y-131802200D02*
X68397619Y-131706961D01*
X68397619Y-131706961D02*
X68397619Y-131326009D01*
X68397619Y-131326009D02*
X68445238Y-131230771D01*
X68445238Y-131230771D02*
X68540476Y-131183152D01*
X68540476Y-131183152D02*
X68730952Y-131183152D01*
X68730952Y-131183152D02*
X68826190Y-131230771D01*
X68826190Y-131230771D02*
X68873809Y-131326009D01*
X68873809Y-131326009D02*
X68873809Y-131421247D01*
X68873809Y-131421247D02*
X68397619Y-131516485D01*
X69302381Y-131849819D02*
X69302381Y-131183152D01*
X69302381Y-131278390D02*
X69350000Y-131230771D01*
X69350000Y-131230771D02*
X69445238Y-131183152D01*
X69445238Y-131183152D02*
X69588095Y-131183152D01*
X69588095Y-131183152D02*
X69683333Y-131230771D01*
X69683333Y-131230771D02*
X69730952Y-131326009D01*
X69730952Y-131326009D02*
X69730952Y-131849819D01*
X69730952Y-131326009D02*
X69778571Y-131230771D01*
X69778571Y-131230771D02*
X69873809Y-131183152D01*
X69873809Y-131183152D02*
X70016666Y-131183152D01*
X70016666Y-131183152D02*
X70111905Y-131230771D01*
X70111905Y-131230771D02*
X70159524Y-131326009D01*
X70159524Y-131326009D02*
X70159524Y-131849819D01*
X70635714Y-131183152D02*
X70635714Y-132183152D01*
X70635714Y-131230771D02*
X70730952Y-131183152D01*
X70730952Y-131183152D02*
X70921428Y-131183152D01*
X70921428Y-131183152D02*
X71016666Y-131230771D01*
X71016666Y-131230771D02*
X71064285Y-131278390D01*
X71064285Y-131278390D02*
X71111904Y-131373628D01*
X71111904Y-131373628D02*
X71111904Y-131659342D01*
X71111904Y-131659342D02*
X71064285Y-131754580D01*
X71064285Y-131754580D02*
X71016666Y-131802200D01*
X71016666Y-131802200D02*
X70921428Y-131849819D01*
X70921428Y-131849819D02*
X70730952Y-131849819D01*
X70730952Y-131849819D02*
X70635714Y-131802200D01*
X71492857Y-130945057D02*
X71540476Y-130897438D01*
X71540476Y-130897438D02*
X71635714Y-130849819D01*
X71635714Y-130849819D02*
X71873809Y-130849819D01*
X71873809Y-130849819D02*
X71969047Y-130897438D01*
X71969047Y-130897438D02*
X72016666Y-130945057D01*
X72016666Y-130945057D02*
X72064285Y-131040295D01*
X72064285Y-131040295D02*
X72064285Y-131135533D01*
X72064285Y-131135533D02*
X72016666Y-131278390D01*
X72016666Y-131278390D02*
X71445238Y-131849819D01*
X71445238Y-131849819D02*
X72064285Y-131849819D01*
X101457618Y-63293152D02*
X101457618Y-63959819D01*
X101029047Y-63293152D02*
X101029047Y-63816961D01*
X101029047Y-63816961D02*
X101076666Y-63912200D01*
X101076666Y-63912200D02*
X101171904Y-63959819D01*
X101171904Y-63959819D02*
X101314761Y-63959819D01*
X101314761Y-63959819D02*
X101409999Y-63912200D01*
X101409999Y-63912200D02*
X101457618Y-63864580D01*
X101886190Y-63912200D02*
X101981428Y-63959819D01*
X101981428Y-63959819D02*
X102171904Y-63959819D01*
X102171904Y-63959819D02*
X102267142Y-63912200D01*
X102267142Y-63912200D02*
X102314761Y-63816961D01*
X102314761Y-63816961D02*
X102314761Y-63769342D01*
X102314761Y-63769342D02*
X102267142Y-63674104D01*
X102267142Y-63674104D02*
X102171904Y-63626485D01*
X102171904Y-63626485D02*
X102029047Y-63626485D01*
X102029047Y-63626485D02*
X101933809Y-63578866D01*
X101933809Y-63578866D02*
X101886190Y-63483628D01*
X101886190Y-63483628D02*
X101886190Y-63436009D01*
X101886190Y-63436009D02*
X101933809Y-63340771D01*
X101933809Y-63340771D02*
X102029047Y-63293152D01*
X102029047Y-63293152D02*
X102171904Y-63293152D01*
X102171904Y-63293152D02*
X102267142Y-63340771D01*
X102743333Y-63959819D02*
X102743333Y-62959819D01*
X102743333Y-63340771D02*
X102838571Y-63293152D01*
X102838571Y-63293152D02*
X103029047Y-63293152D01*
X103029047Y-63293152D02*
X103124285Y-63340771D01*
X103124285Y-63340771D02*
X103171904Y-63388390D01*
X103171904Y-63388390D02*
X103219523Y-63483628D01*
X103219523Y-63483628D02*
X103219523Y-63769342D01*
X103219523Y-63769342D02*
X103171904Y-63864580D01*
X103171904Y-63864580D02*
X103124285Y-63912200D01*
X103124285Y-63912200D02*
X103029047Y-63959819D01*
X103029047Y-63959819D02*
X102838571Y-63959819D01*
X102838571Y-63959819D02*
X102743333Y-63912200D01*
X104410000Y-63959819D02*
X104410000Y-63293152D01*
X104410000Y-63388390D02*
X104457619Y-63340771D01*
X104457619Y-63340771D02*
X104552857Y-63293152D01*
X104552857Y-63293152D02*
X104695714Y-63293152D01*
X104695714Y-63293152D02*
X104790952Y-63340771D01*
X104790952Y-63340771D02*
X104838571Y-63436009D01*
X104838571Y-63436009D02*
X104838571Y-63959819D01*
X104838571Y-63436009D02*
X104886190Y-63340771D01*
X104886190Y-63340771D02*
X104981428Y-63293152D01*
X104981428Y-63293152D02*
X105124285Y-63293152D01*
X105124285Y-63293152D02*
X105219524Y-63340771D01*
X105219524Y-63340771D02*
X105267143Y-63436009D01*
X105267143Y-63436009D02*
X105267143Y-63959819D01*
X105743333Y-63959819D02*
X105743333Y-63293152D01*
X105743333Y-62959819D02*
X105695714Y-63007438D01*
X105695714Y-63007438D02*
X105743333Y-63055057D01*
X105743333Y-63055057D02*
X105790952Y-63007438D01*
X105790952Y-63007438D02*
X105743333Y-62959819D01*
X105743333Y-62959819D02*
X105743333Y-63055057D01*
X106648094Y-63912200D02*
X106552856Y-63959819D01*
X106552856Y-63959819D02*
X106362380Y-63959819D01*
X106362380Y-63959819D02*
X106267142Y-63912200D01*
X106267142Y-63912200D02*
X106219523Y-63864580D01*
X106219523Y-63864580D02*
X106171904Y-63769342D01*
X106171904Y-63769342D02*
X106171904Y-63483628D01*
X106171904Y-63483628D02*
X106219523Y-63388390D01*
X106219523Y-63388390D02*
X106267142Y-63340771D01*
X106267142Y-63340771D02*
X106362380Y-63293152D01*
X106362380Y-63293152D02*
X106552856Y-63293152D01*
X106552856Y-63293152D02*
X106648094Y-63340771D01*
X107076666Y-63959819D02*
X107076666Y-63293152D01*
X107076666Y-63483628D02*
X107124285Y-63388390D01*
X107124285Y-63388390D02*
X107171904Y-63340771D01*
X107171904Y-63340771D02*
X107267142Y-63293152D01*
X107267142Y-63293152D02*
X107362380Y-63293152D01*
X107838571Y-63959819D02*
X107743333Y-63912200D01*
X107743333Y-63912200D02*
X107695714Y-63864580D01*
X107695714Y-63864580D02*
X107648095Y-63769342D01*
X107648095Y-63769342D02*
X107648095Y-63483628D01*
X107648095Y-63483628D02*
X107695714Y-63388390D01*
X107695714Y-63388390D02*
X107743333Y-63340771D01*
X107743333Y-63340771D02*
X107838571Y-63293152D01*
X107838571Y-63293152D02*
X107981428Y-63293152D01*
X107981428Y-63293152D02*
X108076666Y-63340771D01*
X108076666Y-63340771D02*
X108124285Y-63388390D01*
X108124285Y-63388390D02*
X108171904Y-63483628D01*
X108171904Y-63483628D02*
X108171904Y-63769342D01*
X108171904Y-63769342D02*
X108124285Y-63864580D01*
X108124285Y-63864580D02*
X108076666Y-63912200D01*
X108076666Y-63912200D02*
X107981428Y-63959819D01*
X107981428Y-63959819D02*
X107838571Y-63959819D01*
X109362381Y-63959819D02*
X109362381Y-62959819D01*
X109362381Y-63340771D02*
X109457619Y-63293152D01*
X109457619Y-63293152D02*
X109648095Y-63293152D01*
X109648095Y-63293152D02*
X109743333Y-63340771D01*
X109743333Y-63340771D02*
X109790952Y-63388390D01*
X109790952Y-63388390D02*
X109838571Y-63483628D01*
X109838571Y-63483628D02*
X109838571Y-63769342D01*
X109838571Y-63769342D02*
X109790952Y-63864580D01*
X109790952Y-63864580D02*
X109743333Y-63912200D01*
X109743333Y-63912200D02*
X109648095Y-63959819D01*
X109648095Y-63959819D02*
X109457619Y-63959819D01*
X109457619Y-63959819D02*
X109362381Y-63912200D01*
X100243331Y-65522200D02*
X100148093Y-65569819D01*
X100148093Y-65569819D02*
X99957617Y-65569819D01*
X99957617Y-65569819D02*
X99862379Y-65522200D01*
X99862379Y-65522200D02*
X99814760Y-65474580D01*
X99814760Y-65474580D02*
X99767141Y-65379342D01*
X99767141Y-65379342D02*
X99767141Y-65093628D01*
X99767141Y-65093628D02*
X99814760Y-64998390D01*
X99814760Y-64998390D02*
X99862379Y-64950771D01*
X99862379Y-64950771D02*
X99957617Y-64903152D01*
X99957617Y-64903152D02*
X100148093Y-64903152D01*
X100148093Y-64903152D02*
X100243331Y-64950771D01*
X101100474Y-65569819D02*
X101100474Y-65046009D01*
X101100474Y-65046009D02*
X101052855Y-64950771D01*
X101052855Y-64950771D02*
X100957617Y-64903152D01*
X100957617Y-64903152D02*
X100767141Y-64903152D01*
X100767141Y-64903152D02*
X100671903Y-64950771D01*
X101100474Y-65522200D02*
X101005236Y-65569819D01*
X101005236Y-65569819D02*
X100767141Y-65569819D01*
X100767141Y-65569819D02*
X100671903Y-65522200D01*
X100671903Y-65522200D02*
X100624284Y-65426961D01*
X100624284Y-65426961D02*
X100624284Y-65331723D01*
X100624284Y-65331723D02*
X100671903Y-65236485D01*
X100671903Y-65236485D02*
X100767141Y-65188866D01*
X100767141Y-65188866D02*
X101005236Y-65188866D01*
X101005236Y-65188866D02*
X101100474Y-65141247D01*
X101576665Y-65569819D02*
X101576665Y-64569819D01*
X101576665Y-64950771D02*
X101671903Y-64903152D01*
X101671903Y-64903152D02*
X101862379Y-64903152D01*
X101862379Y-64903152D02*
X101957617Y-64950771D01*
X101957617Y-64950771D02*
X102005236Y-64998390D01*
X102005236Y-64998390D02*
X102052855Y-65093628D01*
X102052855Y-65093628D02*
X102052855Y-65379342D01*
X102052855Y-65379342D02*
X102005236Y-65474580D01*
X102005236Y-65474580D02*
X101957617Y-65522200D01*
X101957617Y-65522200D02*
X101862379Y-65569819D01*
X101862379Y-65569819D02*
X101671903Y-65569819D01*
X101671903Y-65569819D02*
X101576665Y-65522200D01*
X102624284Y-65569819D02*
X102529046Y-65522200D01*
X102529046Y-65522200D02*
X102481427Y-65426961D01*
X102481427Y-65426961D02*
X102481427Y-64569819D01*
X103386189Y-65522200D02*
X103290951Y-65569819D01*
X103290951Y-65569819D02*
X103100475Y-65569819D01*
X103100475Y-65569819D02*
X103005237Y-65522200D01*
X103005237Y-65522200D02*
X102957618Y-65426961D01*
X102957618Y-65426961D02*
X102957618Y-65046009D01*
X102957618Y-65046009D02*
X103005237Y-64950771D01*
X103005237Y-64950771D02*
X103100475Y-64903152D01*
X103100475Y-64903152D02*
X103290951Y-64903152D01*
X103290951Y-64903152D02*
X103386189Y-64950771D01*
X103386189Y-64950771D02*
X103433808Y-65046009D01*
X103433808Y-65046009D02*
X103433808Y-65141247D01*
X103433808Y-65141247D02*
X102957618Y-65236485D01*
X104624285Y-64903152D02*
X104624285Y-65903152D01*
X104624285Y-64950771D02*
X104719523Y-64903152D01*
X104719523Y-64903152D02*
X104909999Y-64903152D01*
X104909999Y-64903152D02*
X105005237Y-64950771D01*
X105005237Y-64950771D02*
X105052856Y-64998390D01*
X105052856Y-64998390D02*
X105100475Y-65093628D01*
X105100475Y-65093628D02*
X105100475Y-65379342D01*
X105100475Y-65379342D02*
X105052856Y-65474580D01*
X105052856Y-65474580D02*
X105005237Y-65522200D01*
X105005237Y-65522200D02*
X104909999Y-65569819D01*
X104909999Y-65569819D02*
X104719523Y-65569819D01*
X104719523Y-65569819D02*
X104624285Y-65522200D01*
X105671904Y-65569819D02*
X105576666Y-65522200D01*
X105576666Y-65522200D02*
X105529047Y-65426961D01*
X105529047Y-65426961D02*
X105529047Y-64569819D01*
X106481428Y-64903152D02*
X106481428Y-65569819D01*
X106052857Y-64903152D02*
X106052857Y-65426961D01*
X106052857Y-65426961D02*
X106100476Y-65522200D01*
X106100476Y-65522200D02*
X106195714Y-65569819D01*
X106195714Y-65569819D02*
X106338571Y-65569819D01*
X106338571Y-65569819D02*
X106433809Y-65522200D01*
X106433809Y-65522200D02*
X106481428Y-65474580D01*
X107386190Y-64903152D02*
X107386190Y-65712676D01*
X107386190Y-65712676D02*
X107338571Y-65807914D01*
X107338571Y-65807914D02*
X107290952Y-65855533D01*
X107290952Y-65855533D02*
X107195714Y-65903152D01*
X107195714Y-65903152D02*
X107052857Y-65903152D01*
X107052857Y-65903152D02*
X106957619Y-65855533D01*
X107386190Y-65522200D02*
X107290952Y-65569819D01*
X107290952Y-65569819D02*
X107100476Y-65569819D01*
X107100476Y-65569819D02*
X107005238Y-65522200D01*
X107005238Y-65522200D02*
X106957619Y-65474580D01*
X106957619Y-65474580D02*
X106910000Y-65379342D01*
X106910000Y-65379342D02*
X106910000Y-65093628D01*
X106910000Y-65093628D02*
X106957619Y-64998390D01*
X106957619Y-64998390D02*
X107005238Y-64950771D01*
X107005238Y-64950771D02*
X107100476Y-64903152D01*
X107100476Y-64903152D02*
X107290952Y-64903152D01*
X107290952Y-64903152D02*
X107386190Y-64950771D01*
X108481429Y-64903152D02*
X108862381Y-64903152D01*
X108624286Y-65569819D02*
X108624286Y-64712676D01*
X108624286Y-64712676D02*
X108671905Y-64617438D01*
X108671905Y-64617438D02*
X108767143Y-64569819D01*
X108767143Y-64569819D02*
X108862381Y-64569819D01*
X109338572Y-65569819D02*
X109243334Y-65522200D01*
X109243334Y-65522200D02*
X109195715Y-65474580D01*
X109195715Y-65474580D02*
X109148096Y-65379342D01*
X109148096Y-65379342D02*
X109148096Y-65093628D01*
X109148096Y-65093628D02*
X109195715Y-64998390D01*
X109195715Y-64998390D02*
X109243334Y-64950771D01*
X109243334Y-64950771D02*
X109338572Y-64903152D01*
X109338572Y-64903152D02*
X109481429Y-64903152D01*
X109481429Y-64903152D02*
X109576667Y-64950771D01*
X109576667Y-64950771D02*
X109624286Y-64998390D01*
X109624286Y-64998390D02*
X109671905Y-65093628D01*
X109671905Y-65093628D02*
X109671905Y-65379342D01*
X109671905Y-65379342D02*
X109624286Y-65474580D01*
X109624286Y-65474580D02*
X109576667Y-65522200D01*
X109576667Y-65522200D02*
X109481429Y-65569819D01*
X109481429Y-65569819D02*
X109338572Y-65569819D01*
X110100477Y-65569819D02*
X110100477Y-64903152D01*
X110100477Y-65093628D02*
X110148096Y-64998390D01*
X110148096Y-64998390D02*
X110195715Y-64950771D01*
X110195715Y-64950771D02*
X110290953Y-64903152D01*
X110290953Y-64903152D02*
X110386191Y-64903152D01*
X99362379Y-66656009D02*
X99029046Y-66656009D01*
X99029046Y-67179819D02*
X99029046Y-66179819D01*
X99029046Y-66179819D02*
X99505236Y-66179819D01*
X100267141Y-67132200D02*
X100171903Y-67179819D01*
X100171903Y-67179819D02*
X99981427Y-67179819D01*
X99981427Y-67179819D02*
X99886189Y-67132200D01*
X99886189Y-67132200D02*
X99838570Y-67036961D01*
X99838570Y-67036961D02*
X99838570Y-66656009D01*
X99838570Y-66656009D02*
X99886189Y-66560771D01*
X99886189Y-66560771D02*
X99981427Y-66513152D01*
X99981427Y-66513152D02*
X100171903Y-66513152D01*
X100171903Y-66513152D02*
X100267141Y-66560771D01*
X100267141Y-66560771D02*
X100314760Y-66656009D01*
X100314760Y-66656009D02*
X100314760Y-66751247D01*
X100314760Y-66751247D02*
X99838570Y-66846485D01*
X101171903Y-67179819D02*
X101171903Y-66656009D01*
X101171903Y-66656009D02*
X101124284Y-66560771D01*
X101124284Y-66560771D02*
X101029046Y-66513152D01*
X101029046Y-66513152D02*
X100838570Y-66513152D01*
X100838570Y-66513152D02*
X100743332Y-66560771D01*
X101171903Y-67132200D02*
X101076665Y-67179819D01*
X101076665Y-67179819D02*
X100838570Y-67179819D01*
X100838570Y-67179819D02*
X100743332Y-67132200D01*
X100743332Y-67132200D02*
X100695713Y-67036961D01*
X100695713Y-67036961D02*
X100695713Y-66941723D01*
X100695713Y-66941723D02*
X100743332Y-66846485D01*
X100743332Y-66846485D02*
X100838570Y-66798866D01*
X100838570Y-66798866D02*
X101076665Y-66798866D01*
X101076665Y-66798866D02*
X101171903Y-66751247D01*
X101505237Y-66513152D02*
X101886189Y-66513152D01*
X101648094Y-66179819D02*
X101648094Y-67036961D01*
X101648094Y-67036961D02*
X101695713Y-67132200D01*
X101695713Y-67132200D02*
X101790951Y-67179819D01*
X101790951Y-67179819D02*
X101886189Y-67179819D01*
X102219523Y-67179819D02*
X102219523Y-66179819D01*
X102648094Y-67179819D02*
X102648094Y-66656009D01*
X102648094Y-66656009D02*
X102600475Y-66560771D01*
X102600475Y-66560771D02*
X102505237Y-66513152D01*
X102505237Y-66513152D02*
X102362380Y-66513152D01*
X102362380Y-66513152D02*
X102267142Y-66560771D01*
X102267142Y-66560771D02*
X102219523Y-66608390D01*
X103505237Y-67132200D02*
X103409999Y-67179819D01*
X103409999Y-67179819D02*
X103219523Y-67179819D01*
X103219523Y-67179819D02*
X103124285Y-67132200D01*
X103124285Y-67132200D02*
X103076666Y-67036961D01*
X103076666Y-67036961D02*
X103076666Y-66656009D01*
X103076666Y-66656009D02*
X103124285Y-66560771D01*
X103124285Y-66560771D02*
X103219523Y-66513152D01*
X103219523Y-66513152D02*
X103409999Y-66513152D01*
X103409999Y-66513152D02*
X103505237Y-66560771D01*
X103505237Y-66560771D02*
X103552856Y-66656009D01*
X103552856Y-66656009D02*
X103552856Y-66751247D01*
X103552856Y-66751247D02*
X103076666Y-66846485D01*
X103981428Y-67179819D02*
X103981428Y-66513152D01*
X103981428Y-66703628D02*
X104029047Y-66608390D01*
X104029047Y-66608390D02*
X104076666Y-66560771D01*
X104076666Y-66560771D02*
X104171904Y-66513152D01*
X104171904Y-66513152D02*
X104267142Y-66513152D01*
X105362381Y-66513152D02*
X105362381Y-67513152D01*
X105362381Y-66560771D02*
X105457619Y-66513152D01*
X105457619Y-66513152D02*
X105648095Y-66513152D01*
X105648095Y-66513152D02*
X105743333Y-66560771D01*
X105743333Y-66560771D02*
X105790952Y-66608390D01*
X105790952Y-66608390D02*
X105838571Y-66703628D01*
X105838571Y-66703628D02*
X105838571Y-66989342D01*
X105838571Y-66989342D02*
X105790952Y-67084580D01*
X105790952Y-67084580D02*
X105743333Y-67132200D01*
X105743333Y-67132200D02*
X105648095Y-67179819D01*
X105648095Y-67179819D02*
X105457619Y-67179819D01*
X105457619Y-67179819D02*
X105362381Y-67132200D01*
X106410000Y-67179819D02*
X106314762Y-67132200D01*
X106314762Y-67132200D02*
X106267143Y-67084580D01*
X106267143Y-67084580D02*
X106219524Y-66989342D01*
X106219524Y-66989342D02*
X106219524Y-66703628D01*
X106219524Y-66703628D02*
X106267143Y-66608390D01*
X106267143Y-66608390D02*
X106314762Y-66560771D01*
X106314762Y-66560771D02*
X106410000Y-66513152D01*
X106410000Y-66513152D02*
X106552857Y-66513152D01*
X106552857Y-66513152D02*
X106648095Y-66560771D01*
X106648095Y-66560771D02*
X106695714Y-66608390D01*
X106695714Y-66608390D02*
X106743333Y-66703628D01*
X106743333Y-66703628D02*
X106743333Y-66989342D01*
X106743333Y-66989342D02*
X106695714Y-67084580D01*
X106695714Y-67084580D02*
X106648095Y-67132200D01*
X106648095Y-67132200D02*
X106552857Y-67179819D01*
X106552857Y-67179819D02*
X106410000Y-67179819D01*
X107076667Y-66513152D02*
X107267143Y-67179819D01*
X107267143Y-67179819D02*
X107457619Y-66703628D01*
X107457619Y-66703628D02*
X107648095Y-67179819D01*
X107648095Y-67179819D02*
X107838571Y-66513152D01*
X108600476Y-67132200D02*
X108505238Y-67179819D01*
X108505238Y-67179819D02*
X108314762Y-67179819D01*
X108314762Y-67179819D02*
X108219524Y-67132200D01*
X108219524Y-67132200D02*
X108171905Y-67036961D01*
X108171905Y-67036961D02*
X108171905Y-66656009D01*
X108171905Y-66656009D02*
X108219524Y-66560771D01*
X108219524Y-66560771D02*
X108314762Y-66513152D01*
X108314762Y-66513152D02*
X108505238Y-66513152D01*
X108505238Y-66513152D02*
X108600476Y-66560771D01*
X108600476Y-66560771D02*
X108648095Y-66656009D01*
X108648095Y-66656009D02*
X108648095Y-66751247D01*
X108648095Y-66751247D02*
X108171905Y-66846485D01*
X109076667Y-67179819D02*
X109076667Y-66513152D01*
X109076667Y-66703628D02*
X109124286Y-66608390D01*
X109124286Y-66608390D02*
X109171905Y-66560771D01*
X109171905Y-66560771D02*
X109267143Y-66513152D01*
X109267143Y-66513152D02*
X109362381Y-66513152D01*
X110886191Y-66179819D02*
X110695715Y-66179819D01*
X110695715Y-66179819D02*
X110600477Y-66227438D01*
X110600477Y-66227438D02*
X110552858Y-66275057D01*
X110552858Y-66275057D02*
X110457620Y-66417914D01*
X110457620Y-66417914D02*
X110410001Y-66608390D01*
X110410001Y-66608390D02*
X110410001Y-66989342D01*
X110410001Y-66989342D02*
X110457620Y-67084580D01*
X110457620Y-67084580D02*
X110505239Y-67132200D01*
X110505239Y-67132200D02*
X110600477Y-67179819D01*
X110600477Y-67179819D02*
X110790953Y-67179819D01*
X110790953Y-67179819D02*
X110886191Y-67132200D01*
X110886191Y-67132200D02*
X110933810Y-67084580D01*
X110933810Y-67084580D02*
X110981429Y-66989342D01*
X110981429Y-66989342D02*
X110981429Y-66751247D01*
X110981429Y-66751247D02*
X110933810Y-66656009D01*
X110933810Y-66656009D02*
X110886191Y-66608390D01*
X110886191Y-66608390D02*
X110790953Y-66560771D01*
X110790953Y-66560771D02*
X110600477Y-66560771D01*
X110600477Y-66560771D02*
X110505239Y-66608390D01*
X110505239Y-66608390D02*
X110457620Y-66656009D01*
X110457620Y-66656009D02*
X110410001Y-66751247D01*
X111267144Y-66179819D02*
X111600477Y-67179819D01*
X111600477Y-67179819D02*
X111933810Y-66179819D01*
X76211779Y-51559819D02*
X76211779Y-50559819D01*
X76211779Y-50559819D02*
X76783207Y-51559819D01*
X76783207Y-51559819D02*
X76783207Y-50559819D01*
X77783207Y-50607438D02*
X77687969Y-50559819D01*
X77687969Y-50559819D02*
X77545112Y-50559819D01*
X77545112Y-50559819D02*
X77402255Y-50607438D01*
X77402255Y-50607438D02*
X77307017Y-50702676D01*
X77307017Y-50702676D02*
X77259398Y-50797914D01*
X77259398Y-50797914D02*
X77211779Y-50988390D01*
X77211779Y-50988390D02*
X77211779Y-51131247D01*
X77211779Y-51131247D02*
X77259398Y-51321723D01*
X77259398Y-51321723D02*
X77307017Y-51416961D01*
X77307017Y-51416961D02*
X77402255Y-51512200D01*
X77402255Y-51512200D02*
X77545112Y-51559819D01*
X77545112Y-51559819D02*
X77640350Y-51559819D01*
X77640350Y-51559819D02*
X77783207Y-51512200D01*
X77783207Y-51512200D02*
X77830826Y-51464580D01*
X77830826Y-51464580D02*
X77830826Y-51131247D01*
X77830826Y-51131247D02*
X77640350Y-51131247D01*
X78259398Y-51036009D02*
X78592731Y-51036009D01*
X78735588Y-51559819D02*
X78259398Y-51559819D01*
X78259398Y-51559819D02*
X78259398Y-50559819D01*
X78259398Y-50559819D02*
X78735588Y-50559819D01*
X79164160Y-51559819D02*
X79164160Y-50559819D01*
X79164160Y-50559819D02*
X79735588Y-51559819D01*
X79735588Y-51559819D02*
X79735588Y-50559819D01*
X80164160Y-51512200D02*
X80307017Y-51559819D01*
X80307017Y-51559819D02*
X80545112Y-51559819D01*
X80545112Y-51559819D02*
X80640350Y-51512200D01*
X80640350Y-51512200D02*
X80687969Y-51464580D01*
X80687969Y-51464580D02*
X80735588Y-51369342D01*
X80735588Y-51369342D02*
X80735588Y-51274104D01*
X80735588Y-51274104D02*
X80687969Y-51178866D01*
X80687969Y-51178866D02*
X80640350Y-51131247D01*
X80640350Y-51131247D02*
X80545112Y-51083628D01*
X80545112Y-51083628D02*
X80354636Y-51036009D01*
X80354636Y-51036009D02*
X80259398Y-50988390D01*
X80259398Y-50988390D02*
X80211779Y-50940771D01*
X80211779Y-50940771D02*
X80164160Y-50845533D01*
X80164160Y-50845533D02*
X80164160Y-50750295D01*
X80164160Y-50750295D02*
X80211779Y-50655057D01*
X80211779Y-50655057D02*
X80259398Y-50607438D01*
X80259398Y-50607438D02*
X80354636Y-50559819D01*
X80354636Y-50559819D02*
X80592731Y-50559819D01*
X80592731Y-50559819D02*
X80735588Y-50607438D01*
X81878446Y-51274104D02*
X82354636Y-51274104D01*
X81783208Y-51559819D02*
X82116541Y-50559819D01*
X82116541Y-50559819D02*
X82449874Y-51559819D01*
X82735589Y-51512200D02*
X82878446Y-51559819D01*
X82878446Y-51559819D02*
X83116541Y-51559819D01*
X83116541Y-51559819D02*
X83211779Y-51512200D01*
X83211779Y-51512200D02*
X83259398Y-51464580D01*
X83259398Y-51464580D02*
X83307017Y-51369342D01*
X83307017Y-51369342D02*
X83307017Y-51274104D01*
X83307017Y-51274104D02*
X83259398Y-51178866D01*
X83259398Y-51178866D02*
X83211779Y-51131247D01*
X83211779Y-51131247D02*
X83116541Y-51083628D01*
X83116541Y-51083628D02*
X82926065Y-51036009D01*
X82926065Y-51036009D02*
X82830827Y-50988390D01*
X82830827Y-50988390D02*
X82783208Y-50940771D01*
X82783208Y-50940771D02*
X82735589Y-50845533D01*
X82735589Y-50845533D02*
X82735589Y-50750295D01*
X82735589Y-50750295D02*
X82783208Y-50655057D01*
X82783208Y-50655057D02*
X82830827Y-50607438D01*
X82830827Y-50607438D02*
X82926065Y-50559819D01*
X82926065Y-50559819D02*
X83164160Y-50559819D01*
X83164160Y-50559819D02*
X83307017Y-50607438D01*
X84307017Y-51559819D02*
X83973684Y-51083628D01*
X83735589Y-51559819D02*
X83735589Y-50559819D01*
X83735589Y-50559819D02*
X84116541Y-50559819D01*
X84116541Y-50559819D02*
X84211779Y-50607438D01*
X84211779Y-50607438D02*
X84259398Y-50655057D01*
X84259398Y-50655057D02*
X84307017Y-50750295D01*
X84307017Y-50750295D02*
X84307017Y-50893152D01*
X84307017Y-50893152D02*
X84259398Y-50988390D01*
X84259398Y-50988390D02*
X84211779Y-51036009D01*
X84211779Y-51036009D02*
X84116541Y-51083628D01*
X84116541Y-51083628D02*
X83735589Y-51083628D01*
X85307017Y-51464580D02*
X85259398Y-51512200D01*
X85259398Y-51512200D02*
X85116541Y-51559819D01*
X85116541Y-51559819D02*
X85021303Y-51559819D01*
X85021303Y-51559819D02*
X84878446Y-51512200D01*
X84878446Y-51512200D02*
X84783208Y-51416961D01*
X84783208Y-51416961D02*
X84735589Y-51321723D01*
X84735589Y-51321723D02*
X84687970Y-51131247D01*
X84687970Y-51131247D02*
X84687970Y-50988390D01*
X84687970Y-50988390D02*
X84735589Y-50797914D01*
X84735589Y-50797914D02*
X84783208Y-50702676D01*
X84783208Y-50702676D02*
X84878446Y-50607438D01*
X84878446Y-50607438D02*
X85021303Y-50559819D01*
X85021303Y-50559819D02*
X85116541Y-50559819D01*
X85116541Y-50559819D02*
X85259398Y-50607438D01*
X85259398Y-50607438D02*
X85307017Y-50655057D01*
X87068922Y-51464580D02*
X87021303Y-51512200D01*
X87021303Y-51512200D02*
X86878446Y-51559819D01*
X86878446Y-51559819D02*
X86783208Y-51559819D01*
X86783208Y-51559819D02*
X86640351Y-51512200D01*
X86640351Y-51512200D02*
X86545113Y-51416961D01*
X86545113Y-51416961D02*
X86497494Y-51321723D01*
X86497494Y-51321723D02*
X86449875Y-51131247D01*
X86449875Y-51131247D02*
X86449875Y-50988390D01*
X86449875Y-50988390D02*
X86497494Y-50797914D01*
X86497494Y-50797914D02*
X86545113Y-50702676D01*
X86545113Y-50702676D02*
X86640351Y-50607438D01*
X86640351Y-50607438D02*
X86783208Y-50559819D01*
X86783208Y-50559819D02*
X86878446Y-50559819D01*
X86878446Y-50559819D02*
X87021303Y-50607438D01*
X87021303Y-50607438D02*
X87068922Y-50655057D01*
X87497494Y-50559819D02*
X87497494Y-51369342D01*
X87497494Y-51369342D02*
X87545113Y-51464580D01*
X87545113Y-51464580D02*
X87592732Y-51512200D01*
X87592732Y-51512200D02*
X87687970Y-51559819D01*
X87687970Y-51559819D02*
X87878446Y-51559819D01*
X87878446Y-51559819D02*
X87973684Y-51512200D01*
X87973684Y-51512200D02*
X88021303Y-51464580D01*
X88021303Y-51464580D02*
X88068922Y-51369342D01*
X88068922Y-51369342D02*
X88068922Y-50559819D01*
X88545113Y-51559819D02*
X88545113Y-50559819D01*
X88545113Y-50559819D02*
X89116541Y-51559819D01*
X89116541Y-51559819D02*
X89116541Y-50559819D01*
X89783208Y-51083628D02*
X89783208Y-51559819D01*
X89449875Y-50559819D02*
X89783208Y-51083628D01*
X89783208Y-51083628D02*
X90116541Y-50559819D01*
X76164160Y-53122200D02*
X76307017Y-53169819D01*
X76307017Y-53169819D02*
X76545112Y-53169819D01*
X76545112Y-53169819D02*
X76640350Y-53122200D01*
X76640350Y-53122200D02*
X76687969Y-53074580D01*
X76687969Y-53074580D02*
X76735588Y-52979342D01*
X76735588Y-52979342D02*
X76735588Y-52884104D01*
X76735588Y-52884104D02*
X76687969Y-52788866D01*
X76687969Y-52788866D02*
X76640350Y-52741247D01*
X76640350Y-52741247D02*
X76545112Y-52693628D01*
X76545112Y-52693628D02*
X76354636Y-52646009D01*
X76354636Y-52646009D02*
X76259398Y-52598390D01*
X76259398Y-52598390D02*
X76211779Y-52550771D01*
X76211779Y-52550771D02*
X76164160Y-52455533D01*
X76164160Y-52455533D02*
X76164160Y-52360295D01*
X76164160Y-52360295D02*
X76211779Y-52265057D01*
X76211779Y-52265057D02*
X76259398Y-52217438D01*
X76259398Y-52217438D02*
X76354636Y-52169819D01*
X76354636Y-52169819D02*
X76592731Y-52169819D01*
X76592731Y-52169819D02*
X76735588Y-52217438D01*
X77592731Y-53169819D02*
X77592731Y-52646009D01*
X77592731Y-52646009D02*
X77545112Y-52550771D01*
X77545112Y-52550771D02*
X77449874Y-52503152D01*
X77449874Y-52503152D02*
X77259398Y-52503152D01*
X77259398Y-52503152D02*
X77164160Y-52550771D01*
X77592731Y-53122200D02*
X77497493Y-53169819D01*
X77497493Y-53169819D02*
X77259398Y-53169819D01*
X77259398Y-53169819D02*
X77164160Y-53122200D01*
X77164160Y-53122200D02*
X77116541Y-53026961D01*
X77116541Y-53026961D02*
X77116541Y-52931723D01*
X77116541Y-52931723D02*
X77164160Y-52836485D01*
X77164160Y-52836485D02*
X77259398Y-52788866D01*
X77259398Y-52788866D02*
X77497493Y-52788866D01*
X77497493Y-52788866D02*
X77592731Y-52741247D01*
X78068922Y-52503152D02*
X78068922Y-53503152D01*
X78068922Y-52550771D02*
X78164160Y-52503152D01*
X78164160Y-52503152D02*
X78354636Y-52503152D01*
X78354636Y-52503152D02*
X78449874Y-52550771D01*
X78449874Y-52550771D02*
X78497493Y-52598390D01*
X78497493Y-52598390D02*
X78545112Y-52693628D01*
X78545112Y-52693628D02*
X78545112Y-52979342D01*
X78545112Y-52979342D02*
X78497493Y-53074580D01*
X78497493Y-53074580D02*
X78449874Y-53122200D01*
X78449874Y-53122200D02*
X78354636Y-53169819D01*
X78354636Y-53169819D02*
X78164160Y-53169819D01*
X78164160Y-53169819D02*
X78068922Y-53122200D01*
X80068922Y-52646009D02*
X79735589Y-52646009D01*
X79735589Y-53169819D02*
X79735589Y-52169819D01*
X79735589Y-52169819D02*
X80211779Y-52169819D01*
X80735589Y-53169819D02*
X80640351Y-53122200D01*
X80640351Y-53122200D02*
X80592732Y-53026961D01*
X80592732Y-53026961D02*
X80592732Y-52169819D01*
X81259399Y-53169819D02*
X81164161Y-53122200D01*
X81164161Y-53122200D02*
X81116542Y-53074580D01*
X81116542Y-53074580D02*
X81068923Y-52979342D01*
X81068923Y-52979342D02*
X81068923Y-52693628D01*
X81068923Y-52693628D02*
X81116542Y-52598390D01*
X81116542Y-52598390D02*
X81164161Y-52550771D01*
X81164161Y-52550771D02*
X81259399Y-52503152D01*
X81259399Y-52503152D02*
X81402256Y-52503152D01*
X81402256Y-52503152D02*
X81497494Y-52550771D01*
X81497494Y-52550771D02*
X81545113Y-52598390D01*
X81545113Y-52598390D02*
X81592732Y-52693628D01*
X81592732Y-52693628D02*
X81592732Y-52979342D01*
X81592732Y-52979342D02*
X81545113Y-53074580D01*
X81545113Y-53074580D02*
X81497494Y-53122200D01*
X81497494Y-53122200D02*
X81402256Y-53169819D01*
X81402256Y-53169819D02*
X81259399Y-53169819D01*
X81926066Y-52503152D02*
X82116542Y-53169819D01*
X82116542Y-53169819D02*
X82307018Y-52693628D01*
X82307018Y-52693628D02*
X82497494Y-53169819D01*
X82497494Y-53169819D02*
X82687970Y-52503152D01*
X83783209Y-53122200D02*
X83926066Y-53169819D01*
X83926066Y-53169819D02*
X84164161Y-53169819D01*
X84164161Y-53169819D02*
X84259399Y-53122200D01*
X84259399Y-53122200D02*
X84307018Y-53074580D01*
X84307018Y-53074580D02*
X84354637Y-52979342D01*
X84354637Y-52979342D02*
X84354637Y-52884104D01*
X84354637Y-52884104D02*
X84307018Y-52788866D01*
X84307018Y-52788866D02*
X84259399Y-52741247D01*
X84259399Y-52741247D02*
X84164161Y-52693628D01*
X84164161Y-52693628D02*
X83973685Y-52646009D01*
X83973685Y-52646009D02*
X83878447Y-52598390D01*
X83878447Y-52598390D02*
X83830828Y-52550771D01*
X83830828Y-52550771D02*
X83783209Y-52455533D01*
X83783209Y-52455533D02*
X83783209Y-52360295D01*
X83783209Y-52360295D02*
X83830828Y-52265057D01*
X83830828Y-52265057D02*
X83878447Y-52217438D01*
X83878447Y-52217438D02*
X83973685Y-52169819D01*
X83973685Y-52169819D02*
X84211780Y-52169819D01*
X84211780Y-52169819D02*
X84354637Y-52217438D01*
X85164161Y-53122200D02*
X85068923Y-53169819D01*
X85068923Y-53169819D02*
X84878447Y-53169819D01*
X84878447Y-53169819D02*
X84783209Y-53122200D01*
X84783209Y-53122200D02*
X84735590Y-53026961D01*
X84735590Y-53026961D02*
X84735590Y-52646009D01*
X84735590Y-52646009D02*
X84783209Y-52550771D01*
X84783209Y-52550771D02*
X84878447Y-52503152D01*
X84878447Y-52503152D02*
X85068923Y-52503152D01*
X85068923Y-52503152D02*
X85164161Y-52550771D01*
X85164161Y-52550771D02*
X85211780Y-52646009D01*
X85211780Y-52646009D02*
X85211780Y-52741247D01*
X85211780Y-52741247D02*
X84735590Y-52836485D01*
X85640352Y-52503152D02*
X85640352Y-53169819D01*
X85640352Y-52598390D02*
X85687971Y-52550771D01*
X85687971Y-52550771D02*
X85783209Y-52503152D01*
X85783209Y-52503152D02*
X85926066Y-52503152D01*
X85926066Y-52503152D02*
X86021304Y-52550771D01*
X86021304Y-52550771D02*
X86068923Y-52646009D01*
X86068923Y-52646009D02*
X86068923Y-53169819D01*
X86497495Y-53122200D02*
X86592733Y-53169819D01*
X86592733Y-53169819D02*
X86783209Y-53169819D01*
X86783209Y-53169819D02*
X86878447Y-53122200D01*
X86878447Y-53122200D02*
X86926066Y-53026961D01*
X86926066Y-53026961D02*
X86926066Y-52979342D01*
X86926066Y-52979342D02*
X86878447Y-52884104D01*
X86878447Y-52884104D02*
X86783209Y-52836485D01*
X86783209Y-52836485D02*
X86640352Y-52836485D01*
X86640352Y-52836485D02*
X86545114Y-52788866D01*
X86545114Y-52788866D02*
X86497495Y-52693628D01*
X86497495Y-52693628D02*
X86497495Y-52646009D01*
X86497495Y-52646009D02*
X86545114Y-52550771D01*
X86545114Y-52550771D02*
X86640352Y-52503152D01*
X86640352Y-52503152D02*
X86783209Y-52503152D01*
X86783209Y-52503152D02*
X86878447Y-52550771D01*
X87497495Y-53169819D02*
X87402257Y-53122200D01*
X87402257Y-53122200D02*
X87354638Y-53074580D01*
X87354638Y-53074580D02*
X87307019Y-52979342D01*
X87307019Y-52979342D02*
X87307019Y-52693628D01*
X87307019Y-52693628D02*
X87354638Y-52598390D01*
X87354638Y-52598390D02*
X87402257Y-52550771D01*
X87402257Y-52550771D02*
X87497495Y-52503152D01*
X87497495Y-52503152D02*
X87640352Y-52503152D01*
X87640352Y-52503152D02*
X87735590Y-52550771D01*
X87735590Y-52550771D02*
X87783209Y-52598390D01*
X87783209Y-52598390D02*
X87830828Y-52693628D01*
X87830828Y-52693628D02*
X87830828Y-52979342D01*
X87830828Y-52979342D02*
X87783209Y-53074580D01*
X87783209Y-53074580D02*
X87735590Y-53122200D01*
X87735590Y-53122200D02*
X87640352Y-53169819D01*
X87640352Y-53169819D02*
X87497495Y-53169819D01*
X88259400Y-53169819D02*
X88259400Y-52503152D01*
X88259400Y-52693628D02*
X88307019Y-52598390D01*
X88307019Y-52598390D02*
X88354638Y-52550771D01*
X88354638Y-52550771D02*
X88449876Y-52503152D01*
X88449876Y-52503152D02*
X88545114Y-52503152D01*
X89497496Y-52169819D02*
X89830829Y-53169819D01*
X89830829Y-53169819D02*
X90164162Y-52169819D01*
X90878448Y-53122200D02*
X90783210Y-53169819D01*
X90783210Y-53169819D02*
X90592734Y-53169819D01*
X90592734Y-53169819D02*
X90497496Y-53122200D01*
X90497496Y-53122200D02*
X90449877Y-53026961D01*
X90449877Y-53026961D02*
X90449877Y-52646009D01*
X90449877Y-52646009D02*
X90497496Y-52550771D01*
X90497496Y-52550771D02*
X90592734Y-52503152D01*
X90592734Y-52503152D02*
X90783210Y-52503152D01*
X90783210Y-52503152D02*
X90878448Y-52550771D01*
X90878448Y-52550771D02*
X90926067Y-52646009D01*
X90926067Y-52646009D02*
X90926067Y-52741247D01*
X90926067Y-52741247D02*
X90449877Y-52836485D01*
X91354639Y-53169819D02*
X91354639Y-52503152D01*
X91354639Y-52693628D02*
X91402258Y-52598390D01*
X91402258Y-52598390D02*
X91449877Y-52550771D01*
X91449877Y-52550771D02*
X91545115Y-52503152D01*
X91545115Y-52503152D02*
X91640353Y-52503152D01*
X91973687Y-53074580D02*
X92021306Y-53122200D01*
X92021306Y-53122200D02*
X91973687Y-53169819D01*
X91973687Y-53169819D02*
X91926068Y-53122200D01*
X91926068Y-53122200D02*
X91973687Y-53074580D01*
X91973687Y-53074580D02*
X91973687Y-53169819D01*
X93735591Y-53169819D02*
X93164163Y-53169819D01*
X93449877Y-53169819D02*
X93449877Y-52169819D01*
X93449877Y-52169819D02*
X93354639Y-52312676D01*
X93354639Y-52312676D02*
X93259401Y-52407914D01*
X93259401Y-52407914D02*
X93164163Y-52455533D01*
X94164163Y-53074580D02*
X94211782Y-53122200D01*
X94211782Y-53122200D02*
X94164163Y-53169819D01*
X94164163Y-53169819D02*
X94116544Y-53122200D01*
X94116544Y-53122200D02*
X94164163Y-53074580D01*
X94164163Y-53074580D02*
X94164163Y-53169819D01*
X94830829Y-52169819D02*
X94926067Y-52169819D01*
X94926067Y-52169819D02*
X95021305Y-52217438D01*
X95021305Y-52217438D02*
X95068924Y-52265057D01*
X95068924Y-52265057D02*
X95116543Y-52360295D01*
X95116543Y-52360295D02*
X95164162Y-52550771D01*
X95164162Y-52550771D02*
X95164162Y-52788866D01*
X95164162Y-52788866D02*
X95116543Y-52979342D01*
X95116543Y-52979342D02*
X95068924Y-53074580D01*
X95068924Y-53074580D02*
X95021305Y-53122200D01*
X95021305Y-53122200D02*
X94926067Y-53169819D01*
X94926067Y-53169819D02*
X94830829Y-53169819D01*
X94830829Y-53169819D02*
X94735591Y-53122200D01*
X94735591Y-53122200D02*
X94687972Y-53074580D01*
X94687972Y-53074580D02*
X94640353Y-52979342D01*
X94640353Y-52979342D02*
X94592734Y-52788866D01*
X94592734Y-52788866D02*
X94592734Y-52550771D01*
X94592734Y-52550771D02*
X94640353Y-52360295D01*
X94640353Y-52360295D02*
X94687972Y-52265057D01*
X94687972Y-52265057D02*
X94735591Y-52217438D01*
X94735591Y-52217438D02*
X94830829Y-52169819D01*
X65909819Y-84277030D02*
X65909819Y-84753220D01*
X65909819Y-84753220D02*
X64909819Y-84753220D01*
X64909819Y-84086553D02*
X64909819Y-83515125D01*
X65909819Y-83800839D02*
X64909819Y-83800839D01*
X65909819Y-82657982D02*
X65909819Y-83229410D01*
X65909819Y-82943696D02*
X64909819Y-82943696D01*
X64909819Y-82943696D02*
X65052676Y-83038934D01*
X65052676Y-83038934D02*
X65147914Y-83134172D01*
X65147914Y-83134172D02*
X65195533Y-83229410D01*
X65243152Y-81800839D02*
X65909819Y-81800839D01*
X64862200Y-82038934D02*
X65576485Y-82277029D01*
X65576485Y-82277029D02*
X65576485Y-81657982D01*
X64909819Y-80848458D02*
X64909819Y-81038934D01*
X64909819Y-81038934D02*
X64957438Y-81134172D01*
X64957438Y-81134172D02*
X65005057Y-81181791D01*
X65005057Y-81181791D02*
X65147914Y-81277029D01*
X65147914Y-81277029D02*
X65338390Y-81324648D01*
X65338390Y-81324648D02*
X65719342Y-81324648D01*
X65719342Y-81324648D02*
X65814580Y-81277029D01*
X65814580Y-81277029D02*
X65862200Y-81229410D01*
X65862200Y-81229410D02*
X65909819Y-81134172D01*
X65909819Y-81134172D02*
X65909819Y-80943696D01*
X65909819Y-80943696D02*
X65862200Y-80848458D01*
X65862200Y-80848458D02*
X65814580Y-80800839D01*
X65814580Y-80800839D02*
X65719342Y-80753220D01*
X65719342Y-80753220D02*
X65481247Y-80753220D01*
X65481247Y-80753220D02*
X65386009Y-80800839D01*
X65386009Y-80800839D02*
X65338390Y-80848458D01*
X65338390Y-80848458D02*
X65290771Y-80943696D01*
X65290771Y-80943696D02*
X65290771Y-81134172D01*
X65290771Y-81134172D02*
X65338390Y-81229410D01*
X65338390Y-81229410D02*
X65386009Y-81277029D01*
X65386009Y-81277029D02*
X65481247Y-81324648D01*
X64909819Y-80134172D02*
X64909819Y-80038934D01*
X64909819Y-80038934D02*
X64957438Y-79943696D01*
X64957438Y-79943696D02*
X65005057Y-79896077D01*
X65005057Y-79896077D02*
X65100295Y-79848458D01*
X65100295Y-79848458D02*
X65290771Y-79800839D01*
X65290771Y-79800839D02*
X65528866Y-79800839D01*
X65528866Y-79800839D02*
X65719342Y-79848458D01*
X65719342Y-79848458D02*
X65814580Y-79896077D01*
X65814580Y-79896077D02*
X65862200Y-79943696D01*
X65862200Y-79943696D02*
X65909819Y-80038934D01*
X65909819Y-80038934D02*
X65909819Y-80134172D01*
X65909819Y-80134172D02*
X65862200Y-80229410D01*
X65862200Y-80229410D02*
X65814580Y-80277029D01*
X65814580Y-80277029D02*
X65719342Y-80324648D01*
X65719342Y-80324648D02*
X65528866Y-80372267D01*
X65528866Y-80372267D02*
X65290771Y-80372267D01*
X65290771Y-80372267D02*
X65100295Y-80324648D01*
X65100295Y-80324648D02*
X65005057Y-80277029D01*
X65005057Y-80277029D02*
X64957438Y-80229410D01*
X64957438Y-80229410D02*
X64909819Y-80134172D01*
D11*
%TO.C,J4*%
X99996666Y-54067419D02*
X99996666Y-54781704D01*
X99996666Y-54781704D02*
X99949047Y-54924561D01*
X99949047Y-54924561D02*
X99853809Y-55019800D01*
X99853809Y-55019800D02*
X99710952Y-55067419D01*
X99710952Y-55067419D02*
X99615714Y-55067419D01*
X100901428Y-54400752D02*
X100901428Y-55067419D01*
X100663333Y-54019800D02*
X100425238Y-54734085D01*
X100425238Y-54734085D02*
X101044285Y-54734085D01*
D10*
%TO.C,R11*%
X65732819Y-66555857D02*
X65256628Y-66889190D01*
X65732819Y-67127285D02*
X64732819Y-67127285D01*
X64732819Y-67127285D02*
X64732819Y-66746333D01*
X64732819Y-66746333D02*
X64780438Y-66651095D01*
X64780438Y-66651095D02*
X64828057Y-66603476D01*
X64828057Y-66603476D02*
X64923295Y-66555857D01*
X64923295Y-66555857D02*
X65066152Y-66555857D01*
X65066152Y-66555857D02*
X65161390Y-66603476D01*
X65161390Y-66603476D02*
X65209009Y-66651095D01*
X65209009Y-66651095D02*
X65256628Y-66746333D01*
X65256628Y-66746333D02*
X65256628Y-67127285D01*
X65732819Y-65603476D02*
X65732819Y-66174904D01*
X65732819Y-65889190D02*
X64732819Y-65889190D01*
X64732819Y-65889190D02*
X64875676Y-65984428D01*
X64875676Y-65984428D02*
X64970914Y-66079666D01*
X64970914Y-66079666D02*
X65018533Y-66174904D01*
X65732819Y-64651095D02*
X65732819Y-65222523D01*
X65732819Y-64936809D02*
X64732819Y-64936809D01*
X64732819Y-64936809D02*
X64875676Y-65032047D01*
X64875676Y-65032047D02*
X64970914Y-65127285D01*
X64970914Y-65127285D02*
X65018533Y-65222523D01*
D11*
%TO.C,J2*%
X98726666Y-136697419D02*
X98726666Y-137411704D01*
X98726666Y-137411704D02*
X98679047Y-137554561D01*
X98679047Y-137554561D02*
X98583809Y-137649800D01*
X98583809Y-137649800D02*
X98440952Y-137697419D01*
X98440952Y-137697419D02*
X98345714Y-137697419D01*
X99155238Y-136792657D02*
X99202857Y-136745038D01*
X99202857Y-136745038D02*
X99298095Y-136697419D01*
X99298095Y-136697419D02*
X99536190Y-136697419D01*
X99536190Y-136697419D02*
X99631428Y-136745038D01*
X99631428Y-136745038D02*
X99679047Y-136792657D01*
X99679047Y-136792657D02*
X99726666Y-136887895D01*
X99726666Y-136887895D02*
X99726666Y-136983133D01*
X99726666Y-136983133D02*
X99679047Y-137125990D01*
X99679047Y-137125990D02*
X99107619Y-137697419D01*
X99107619Y-137697419D02*
X99726666Y-137697419D01*
D10*
%TO.C,R13*%
X70924819Y-93352857D02*
X70448628Y-93686190D01*
X70924819Y-93924285D02*
X69924819Y-93924285D01*
X69924819Y-93924285D02*
X69924819Y-93543333D01*
X69924819Y-93543333D02*
X69972438Y-93448095D01*
X69972438Y-93448095D02*
X70020057Y-93400476D01*
X70020057Y-93400476D02*
X70115295Y-93352857D01*
X70115295Y-93352857D02*
X70258152Y-93352857D01*
X70258152Y-93352857D02*
X70353390Y-93400476D01*
X70353390Y-93400476D02*
X70401009Y-93448095D01*
X70401009Y-93448095D02*
X70448628Y-93543333D01*
X70448628Y-93543333D02*
X70448628Y-93924285D01*
X70924819Y-92400476D02*
X70924819Y-92971904D01*
X70924819Y-92686190D02*
X69924819Y-92686190D01*
X69924819Y-92686190D02*
X70067676Y-92781428D01*
X70067676Y-92781428D02*
X70162914Y-92876666D01*
X70162914Y-92876666D02*
X70210533Y-92971904D01*
X69924819Y-92067142D02*
X69924819Y-91448095D01*
X69924819Y-91448095D02*
X70305771Y-91781428D01*
X70305771Y-91781428D02*
X70305771Y-91638571D01*
X70305771Y-91638571D02*
X70353390Y-91543333D01*
X70353390Y-91543333D02*
X70401009Y-91495714D01*
X70401009Y-91495714D02*
X70496247Y-91448095D01*
X70496247Y-91448095D02*
X70734342Y-91448095D01*
X70734342Y-91448095D02*
X70829580Y-91495714D01*
X70829580Y-91495714D02*
X70877200Y-91543333D01*
X70877200Y-91543333D02*
X70924819Y-91638571D01*
X70924819Y-91638571D02*
X70924819Y-91924285D01*
X70924819Y-91924285D02*
X70877200Y-92019523D01*
X70877200Y-92019523D02*
X70829580Y-92067142D01*
D12*
%TO.C,R6*%
X117559667Y-126192095D02*
X117221000Y-125708286D01*
X116979095Y-126192095D02*
X116979095Y-125176095D01*
X116979095Y-125176095D02*
X117366143Y-125176095D01*
X117366143Y-125176095D02*
X117462905Y-125224476D01*
X117462905Y-125224476D02*
X117511286Y-125272857D01*
X117511286Y-125272857D02*
X117559667Y-125369619D01*
X117559667Y-125369619D02*
X117559667Y-125514762D01*
X117559667Y-125514762D02*
X117511286Y-125611524D01*
X117511286Y-125611524D02*
X117462905Y-125659905D01*
X117462905Y-125659905D02*
X117366143Y-125708286D01*
X117366143Y-125708286D02*
X116979095Y-125708286D01*
X118430524Y-125176095D02*
X118237000Y-125176095D01*
X118237000Y-125176095D02*
X118140238Y-125224476D01*
X118140238Y-125224476D02*
X118091857Y-125272857D01*
X118091857Y-125272857D02*
X117995095Y-125418000D01*
X117995095Y-125418000D02*
X117946714Y-125611524D01*
X117946714Y-125611524D02*
X117946714Y-125998572D01*
X117946714Y-125998572D02*
X117995095Y-126095334D01*
X117995095Y-126095334D02*
X118043476Y-126143715D01*
X118043476Y-126143715D02*
X118140238Y-126192095D01*
X118140238Y-126192095D02*
X118333762Y-126192095D01*
X118333762Y-126192095D02*
X118430524Y-126143715D01*
X118430524Y-126143715D02*
X118478905Y-126095334D01*
X118478905Y-126095334D02*
X118527286Y-125998572D01*
X118527286Y-125998572D02*
X118527286Y-125756667D01*
X118527286Y-125756667D02*
X118478905Y-125659905D01*
X118478905Y-125659905D02*
X118430524Y-125611524D01*
X118430524Y-125611524D02*
X118333762Y-125563143D01*
X118333762Y-125563143D02*
X118140238Y-125563143D01*
X118140238Y-125563143D02*
X118043476Y-125611524D01*
X118043476Y-125611524D02*
X117995095Y-125659905D01*
X117995095Y-125659905D02*
X117946714Y-125756667D01*
D10*
%TO.C,H2*%
X86868095Y-138029819D02*
X86868095Y-137029819D01*
X86868095Y-137506009D02*
X87439523Y-137506009D01*
X87439523Y-138029819D02*
X87439523Y-137029819D01*
X87868095Y-137125057D02*
X87915714Y-137077438D01*
X87915714Y-137077438D02*
X88010952Y-137029819D01*
X88010952Y-137029819D02*
X88249047Y-137029819D01*
X88249047Y-137029819D02*
X88344285Y-137077438D01*
X88344285Y-137077438D02*
X88391904Y-137125057D01*
X88391904Y-137125057D02*
X88439523Y-137220295D01*
X88439523Y-137220295D02*
X88439523Y-137315533D01*
X88439523Y-137315533D02*
X88391904Y-137458390D01*
X88391904Y-137458390D02*
X87820476Y-138029819D01*
X87820476Y-138029819D02*
X88439523Y-138029819D01*
%TO.C,U7*%
X100838095Y-125184819D02*
X100838095Y-125994342D01*
X100838095Y-125994342D02*
X100885714Y-126089580D01*
X100885714Y-126089580D02*
X100933333Y-126137200D01*
X100933333Y-126137200D02*
X101028571Y-126184819D01*
X101028571Y-126184819D02*
X101219047Y-126184819D01*
X101219047Y-126184819D02*
X101314285Y-126137200D01*
X101314285Y-126137200D02*
X101361904Y-126089580D01*
X101361904Y-126089580D02*
X101409523Y-125994342D01*
X101409523Y-125994342D02*
X101409523Y-125184819D01*
X101790476Y-125184819D02*
X102457142Y-125184819D01*
X102457142Y-125184819D02*
X102028571Y-126184819D01*
%TO.C,U6*%
X73574819Y-82041904D02*
X74384342Y-82041904D01*
X74384342Y-82041904D02*
X74479580Y-81994285D01*
X74479580Y-81994285D02*
X74527200Y-81946666D01*
X74527200Y-81946666D02*
X74574819Y-81851428D01*
X74574819Y-81851428D02*
X74574819Y-81660952D01*
X74574819Y-81660952D02*
X74527200Y-81565714D01*
X74527200Y-81565714D02*
X74479580Y-81518095D01*
X74479580Y-81518095D02*
X74384342Y-81470476D01*
X74384342Y-81470476D02*
X73574819Y-81470476D01*
X73574819Y-80565714D02*
X73574819Y-80756190D01*
X73574819Y-80756190D02*
X73622438Y-80851428D01*
X73622438Y-80851428D02*
X73670057Y-80899047D01*
X73670057Y-80899047D02*
X73812914Y-80994285D01*
X73812914Y-80994285D02*
X74003390Y-81041904D01*
X74003390Y-81041904D02*
X74384342Y-81041904D01*
X74384342Y-81041904D02*
X74479580Y-80994285D01*
X74479580Y-80994285D02*
X74527200Y-80946666D01*
X74527200Y-80946666D02*
X74574819Y-80851428D01*
X74574819Y-80851428D02*
X74574819Y-80660952D01*
X74574819Y-80660952D02*
X74527200Y-80565714D01*
X74527200Y-80565714D02*
X74479580Y-80518095D01*
X74479580Y-80518095D02*
X74384342Y-80470476D01*
X74384342Y-80470476D02*
X74146247Y-80470476D01*
X74146247Y-80470476D02*
X74051009Y-80518095D01*
X74051009Y-80518095D02*
X74003390Y-80565714D01*
X74003390Y-80565714D02*
X73955771Y-80660952D01*
X73955771Y-80660952D02*
X73955771Y-80851428D01*
X73955771Y-80851428D02*
X74003390Y-80946666D01*
X74003390Y-80946666D02*
X74051009Y-80994285D01*
X74051009Y-80994285D02*
X74146247Y-81041904D01*
D12*
%TO.C,R5*%
X124380667Y-121962095D02*
X124042000Y-121478286D01*
X123800095Y-121962095D02*
X123800095Y-120946095D01*
X123800095Y-120946095D02*
X124187143Y-120946095D01*
X124187143Y-120946095D02*
X124283905Y-120994476D01*
X124283905Y-120994476D02*
X124332286Y-121042857D01*
X124332286Y-121042857D02*
X124380667Y-121139619D01*
X124380667Y-121139619D02*
X124380667Y-121284762D01*
X124380667Y-121284762D02*
X124332286Y-121381524D01*
X124332286Y-121381524D02*
X124283905Y-121429905D01*
X124283905Y-121429905D02*
X124187143Y-121478286D01*
X124187143Y-121478286D02*
X123800095Y-121478286D01*
X125299905Y-120946095D02*
X124816095Y-120946095D01*
X124816095Y-120946095D02*
X124767714Y-121429905D01*
X124767714Y-121429905D02*
X124816095Y-121381524D01*
X124816095Y-121381524D02*
X124912857Y-121333143D01*
X124912857Y-121333143D02*
X125154762Y-121333143D01*
X125154762Y-121333143D02*
X125251524Y-121381524D01*
X125251524Y-121381524D02*
X125299905Y-121429905D01*
X125299905Y-121429905D02*
X125348286Y-121526667D01*
X125348286Y-121526667D02*
X125348286Y-121768572D01*
X125348286Y-121768572D02*
X125299905Y-121865334D01*
X125299905Y-121865334D02*
X125251524Y-121913715D01*
X125251524Y-121913715D02*
X125154762Y-121962095D01*
X125154762Y-121962095D02*
X124912857Y-121962095D01*
X124912857Y-121962095D02*
X124816095Y-121913715D01*
X124816095Y-121913715D02*
X124767714Y-121865334D01*
%TO.C,R2*%
X59012667Y-126142095D02*
X58674000Y-125658286D01*
X58432095Y-126142095D02*
X58432095Y-125126095D01*
X58432095Y-125126095D02*
X58819143Y-125126095D01*
X58819143Y-125126095D02*
X58915905Y-125174476D01*
X58915905Y-125174476D02*
X58964286Y-125222857D01*
X58964286Y-125222857D02*
X59012667Y-125319619D01*
X59012667Y-125319619D02*
X59012667Y-125464762D01*
X59012667Y-125464762D02*
X58964286Y-125561524D01*
X58964286Y-125561524D02*
X58915905Y-125609905D01*
X58915905Y-125609905D02*
X58819143Y-125658286D01*
X58819143Y-125658286D02*
X58432095Y-125658286D01*
X59399714Y-125222857D02*
X59448095Y-125174476D01*
X59448095Y-125174476D02*
X59544857Y-125126095D01*
X59544857Y-125126095D02*
X59786762Y-125126095D01*
X59786762Y-125126095D02*
X59883524Y-125174476D01*
X59883524Y-125174476D02*
X59931905Y-125222857D01*
X59931905Y-125222857D02*
X59980286Y-125319619D01*
X59980286Y-125319619D02*
X59980286Y-125416381D01*
X59980286Y-125416381D02*
X59931905Y-125561524D01*
X59931905Y-125561524D02*
X59351333Y-126142095D01*
X59351333Y-126142095D02*
X59980286Y-126142095D01*
D11*
%TO.C,U2*%
X61502580Y-107188095D02*
X60693057Y-107188095D01*
X60693057Y-107188095D02*
X60597819Y-107235714D01*
X60597819Y-107235714D02*
X60550200Y-107283333D01*
X60550200Y-107283333D02*
X60502580Y-107378571D01*
X60502580Y-107378571D02*
X60502580Y-107569047D01*
X60502580Y-107569047D02*
X60550200Y-107664285D01*
X60550200Y-107664285D02*
X60597819Y-107711904D01*
X60597819Y-107711904D02*
X60693057Y-107759523D01*
X60693057Y-107759523D02*
X61502580Y-107759523D01*
X61407342Y-108188095D02*
X61454961Y-108235714D01*
X61454961Y-108235714D02*
X61502580Y-108330952D01*
X61502580Y-108330952D02*
X61502580Y-108569047D01*
X61502580Y-108569047D02*
X61454961Y-108664285D01*
X61454961Y-108664285D02*
X61407342Y-108711904D01*
X61407342Y-108711904D02*
X61312104Y-108759523D01*
X61312104Y-108759523D02*
X61216866Y-108759523D01*
X61216866Y-108759523D02*
X61074009Y-108711904D01*
X61074009Y-108711904D02*
X60502580Y-108140476D01*
X60502580Y-108140476D02*
X60502580Y-108759523D01*
D12*
%TO.C,R3*%
X55202667Y-126142095D02*
X54864000Y-125658286D01*
X54622095Y-126142095D02*
X54622095Y-125126095D01*
X54622095Y-125126095D02*
X55009143Y-125126095D01*
X55009143Y-125126095D02*
X55105905Y-125174476D01*
X55105905Y-125174476D02*
X55154286Y-125222857D01*
X55154286Y-125222857D02*
X55202667Y-125319619D01*
X55202667Y-125319619D02*
X55202667Y-125464762D01*
X55202667Y-125464762D02*
X55154286Y-125561524D01*
X55154286Y-125561524D02*
X55105905Y-125609905D01*
X55105905Y-125609905D02*
X55009143Y-125658286D01*
X55009143Y-125658286D02*
X54622095Y-125658286D01*
X55541333Y-125126095D02*
X56170286Y-125126095D01*
X56170286Y-125126095D02*
X55831619Y-125513143D01*
X55831619Y-125513143D02*
X55976762Y-125513143D01*
X55976762Y-125513143D02*
X56073524Y-125561524D01*
X56073524Y-125561524D02*
X56121905Y-125609905D01*
X56121905Y-125609905D02*
X56170286Y-125706667D01*
X56170286Y-125706667D02*
X56170286Y-125948572D01*
X56170286Y-125948572D02*
X56121905Y-126045334D01*
X56121905Y-126045334D02*
X56073524Y-126093715D01*
X56073524Y-126093715D02*
X55976762Y-126142095D01*
X55976762Y-126142095D02*
X55686476Y-126142095D01*
X55686476Y-126142095D02*
X55589714Y-126093715D01*
X55589714Y-126093715D02*
X55541333Y-126045334D01*
D10*
%TO.C,Q1*%
X55160057Y-64865238D02*
X55112438Y-64960476D01*
X55112438Y-64960476D02*
X55017200Y-65055714D01*
X55017200Y-65055714D02*
X54874342Y-65198571D01*
X54874342Y-65198571D02*
X54826723Y-65293809D01*
X54826723Y-65293809D02*
X54826723Y-65389047D01*
X55064819Y-65341428D02*
X55017200Y-65436666D01*
X55017200Y-65436666D02*
X54921961Y-65531904D01*
X54921961Y-65531904D02*
X54731485Y-65579523D01*
X54731485Y-65579523D02*
X54398152Y-65579523D01*
X54398152Y-65579523D02*
X54207676Y-65531904D01*
X54207676Y-65531904D02*
X54112438Y-65436666D01*
X54112438Y-65436666D02*
X54064819Y-65341428D01*
X54064819Y-65341428D02*
X54064819Y-65150952D01*
X54064819Y-65150952D02*
X54112438Y-65055714D01*
X54112438Y-65055714D02*
X54207676Y-64960476D01*
X54207676Y-64960476D02*
X54398152Y-64912857D01*
X54398152Y-64912857D02*
X54731485Y-64912857D01*
X54731485Y-64912857D02*
X54921961Y-64960476D01*
X54921961Y-64960476D02*
X55017200Y-65055714D01*
X55017200Y-65055714D02*
X55064819Y-65150952D01*
X55064819Y-65150952D02*
X55064819Y-65341428D01*
X55064819Y-63960476D02*
X55064819Y-64531904D01*
X55064819Y-64246190D02*
X54064819Y-64246190D01*
X54064819Y-64246190D02*
X54207676Y-64341428D01*
X54207676Y-64341428D02*
X54302914Y-64436666D01*
X54302914Y-64436666D02*
X54350533Y-64531904D01*
D11*
%TO.C,U3*%
X113757419Y-107441904D02*
X114566942Y-107441904D01*
X114566942Y-107441904D02*
X114662180Y-107394285D01*
X114662180Y-107394285D02*
X114709800Y-107346666D01*
X114709800Y-107346666D02*
X114757419Y-107251428D01*
X114757419Y-107251428D02*
X114757419Y-107060952D01*
X114757419Y-107060952D02*
X114709800Y-106965714D01*
X114709800Y-106965714D02*
X114662180Y-106918095D01*
X114662180Y-106918095D02*
X114566942Y-106870476D01*
X114566942Y-106870476D02*
X113757419Y-106870476D01*
X113757419Y-106489523D02*
X113757419Y-105870476D01*
X113757419Y-105870476D02*
X114138371Y-106203809D01*
X114138371Y-106203809D02*
X114138371Y-106060952D01*
X114138371Y-106060952D02*
X114185990Y-105965714D01*
X114185990Y-105965714D02*
X114233609Y-105918095D01*
X114233609Y-105918095D02*
X114328847Y-105870476D01*
X114328847Y-105870476D02*
X114566942Y-105870476D01*
X114566942Y-105870476D02*
X114662180Y-105918095D01*
X114662180Y-105918095D02*
X114709800Y-105965714D01*
X114709800Y-105965714D02*
X114757419Y-106060952D01*
X114757419Y-106060952D02*
X114757419Y-106346666D01*
X114757419Y-106346666D02*
X114709800Y-106441904D01*
X114709800Y-106441904D02*
X114662180Y-106489523D01*
D10*
%TO.C,A1*%
X86808214Y-78909104D02*
X87284404Y-78909104D01*
X86712976Y-79194819D02*
X87046309Y-78194819D01*
X87046309Y-78194819D02*
X87379642Y-79194819D01*
X88236785Y-79194819D02*
X87665357Y-79194819D01*
X87951071Y-79194819D02*
X87951071Y-78194819D01*
X87951071Y-78194819D02*
X87855833Y-78337676D01*
X87855833Y-78337676D02*
X87760595Y-78432914D01*
X87760595Y-78432914D02*
X87665357Y-78480533D01*
%TO.C,SW1*%
X64658200Y-58582332D02*
X64705819Y-58439475D01*
X64705819Y-58439475D02*
X64705819Y-58201380D01*
X64705819Y-58201380D02*
X64658200Y-58106142D01*
X64658200Y-58106142D02*
X64610580Y-58058523D01*
X64610580Y-58058523D02*
X64515342Y-58010904D01*
X64515342Y-58010904D02*
X64420104Y-58010904D01*
X64420104Y-58010904D02*
X64324866Y-58058523D01*
X64324866Y-58058523D02*
X64277247Y-58106142D01*
X64277247Y-58106142D02*
X64229628Y-58201380D01*
X64229628Y-58201380D02*
X64182009Y-58391856D01*
X64182009Y-58391856D02*
X64134390Y-58487094D01*
X64134390Y-58487094D02*
X64086771Y-58534713D01*
X64086771Y-58534713D02*
X63991533Y-58582332D01*
X63991533Y-58582332D02*
X63896295Y-58582332D01*
X63896295Y-58582332D02*
X63801057Y-58534713D01*
X63801057Y-58534713D02*
X63753438Y-58487094D01*
X63753438Y-58487094D02*
X63705819Y-58391856D01*
X63705819Y-58391856D02*
X63705819Y-58153761D01*
X63705819Y-58153761D02*
X63753438Y-58010904D01*
X63705819Y-57677570D02*
X64705819Y-57439475D01*
X64705819Y-57439475D02*
X63991533Y-57248999D01*
X63991533Y-57248999D02*
X64705819Y-57058523D01*
X64705819Y-57058523D02*
X63705819Y-56820428D01*
X64705819Y-55915666D02*
X64705819Y-56487094D01*
X64705819Y-56201380D02*
X63705819Y-56201380D01*
X63705819Y-56201380D02*
X63848676Y-56296618D01*
X63848676Y-56296618D02*
X63943914Y-56391856D01*
X63943914Y-56391856D02*
X63991533Y-56487094D01*
%TO.C,R4*%
X51649333Y-126184819D02*
X51316000Y-125708628D01*
X51077905Y-126184819D02*
X51077905Y-125184819D01*
X51077905Y-125184819D02*
X51458857Y-125184819D01*
X51458857Y-125184819D02*
X51554095Y-125232438D01*
X51554095Y-125232438D02*
X51601714Y-125280057D01*
X51601714Y-125280057D02*
X51649333Y-125375295D01*
X51649333Y-125375295D02*
X51649333Y-125518152D01*
X51649333Y-125518152D02*
X51601714Y-125613390D01*
X51601714Y-125613390D02*
X51554095Y-125661009D01*
X51554095Y-125661009D02*
X51458857Y-125708628D01*
X51458857Y-125708628D02*
X51077905Y-125708628D01*
X52506476Y-125518152D02*
X52506476Y-126184819D01*
X52268381Y-125137200D02*
X52030286Y-125851485D01*
X52030286Y-125851485D02*
X52649333Y-125851485D01*
D11*
%TO.C,J1*%
X55546666Y-136697419D02*
X55546666Y-137411704D01*
X55546666Y-137411704D02*
X55499047Y-137554561D01*
X55499047Y-137554561D02*
X55403809Y-137649800D01*
X55403809Y-137649800D02*
X55260952Y-137697419D01*
X55260952Y-137697419D02*
X55165714Y-137697419D01*
X56546666Y-137697419D02*
X55975238Y-137697419D01*
X56260952Y-137697419D02*
X56260952Y-136697419D01*
X56260952Y-136697419D02*
X56165714Y-136840276D01*
X56165714Y-136840276D02*
X56070476Y-136935514D01*
X56070476Y-136935514D02*
X55975238Y-136983133D01*
%TO.C,J6*%
X51527419Y-75263333D02*
X52241704Y-75263333D01*
X52241704Y-75263333D02*
X52384561Y-75310952D01*
X52384561Y-75310952D02*
X52479800Y-75406190D01*
X52479800Y-75406190D02*
X52527419Y-75549047D01*
X52527419Y-75549047D02*
X52527419Y-75644285D01*
X51527419Y-74358571D02*
X51527419Y-74549047D01*
X51527419Y-74549047D02*
X51575038Y-74644285D01*
X51575038Y-74644285D02*
X51622657Y-74691904D01*
X51622657Y-74691904D02*
X51765514Y-74787142D01*
X51765514Y-74787142D02*
X51955990Y-74834761D01*
X51955990Y-74834761D02*
X52336942Y-74834761D01*
X52336942Y-74834761D02*
X52432180Y-74787142D01*
X52432180Y-74787142D02*
X52479800Y-74739523D01*
X52479800Y-74739523D02*
X52527419Y-74644285D01*
X52527419Y-74644285D02*
X52527419Y-74453809D01*
X52527419Y-74453809D02*
X52479800Y-74358571D01*
X52479800Y-74358571D02*
X52432180Y-74310952D01*
X52432180Y-74310952D02*
X52336942Y-74263333D01*
X52336942Y-74263333D02*
X52098847Y-74263333D01*
X52098847Y-74263333D02*
X52003609Y-74310952D01*
X52003609Y-74310952D02*
X51955990Y-74358571D01*
X51955990Y-74358571D02*
X51908371Y-74453809D01*
X51908371Y-74453809D02*
X51908371Y-74644285D01*
X51908371Y-74644285D02*
X51955990Y-74739523D01*
X51955990Y-74739523D02*
X52003609Y-74787142D01*
X52003609Y-74787142D02*
X52098847Y-74834761D01*
D10*
%TO.C,Q2*%
X74210057Y-72485238D02*
X74162438Y-72580476D01*
X74162438Y-72580476D02*
X74067200Y-72675714D01*
X74067200Y-72675714D02*
X73924342Y-72818571D01*
X73924342Y-72818571D02*
X73876723Y-72913809D01*
X73876723Y-72913809D02*
X73876723Y-73009047D01*
X74114819Y-72961428D02*
X74067200Y-73056666D01*
X74067200Y-73056666D02*
X73971961Y-73151904D01*
X73971961Y-73151904D02*
X73781485Y-73199523D01*
X73781485Y-73199523D02*
X73448152Y-73199523D01*
X73448152Y-73199523D02*
X73257676Y-73151904D01*
X73257676Y-73151904D02*
X73162438Y-73056666D01*
X73162438Y-73056666D02*
X73114819Y-72961428D01*
X73114819Y-72961428D02*
X73114819Y-72770952D01*
X73114819Y-72770952D02*
X73162438Y-72675714D01*
X73162438Y-72675714D02*
X73257676Y-72580476D01*
X73257676Y-72580476D02*
X73448152Y-72532857D01*
X73448152Y-72532857D02*
X73781485Y-72532857D01*
X73781485Y-72532857D02*
X73971961Y-72580476D01*
X73971961Y-72580476D02*
X74067200Y-72675714D01*
X74067200Y-72675714D02*
X74114819Y-72770952D01*
X74114819Y-72770952D02*
X74114819Y-72961428D01*
X73210057Y-72151904D02*
X73162438Y-72104285D01*
X73162438Y-72104285D02*
X73114819Y-72009047D01*
X73114819Y-72009047D02*
X73114819Y-71770952D01*
X73114819Y-71770952D02*
X73162438Y-71675714D01*
X73162438Y-71675714D02*
X73210057Y-71628095D01*
X73210057Y-71628095D02*
X73305295Y-71580476D01*
X73305295Y-71580476D02*
X73400533Y-71580476D01*
X73400533Y-71580476D02*
X73543390Y-71628095D01*
X73543390Y-71628095D02*
X74114819Y-72199523D01*
X74114819Y-72199523D02*
X74114819Y-71580476D01*
D12*
%TO.C,R1*%
X62949667Y-126192095D02*
X62611000Y-125708286D01*
X62369095Y-126192095D02*
X62369095Y-125176095D01*
X62369095Y-125176095D02*
X62756143Y-125176095D01*
X62756143Y-125176095D02*
X62852905Y-125224476D01*
X62852905Y-125224476D02*
X62901286Y-125272857D01*
X62901286Y-125272857D02*
X62949667Y-125369619D01*
X62949667Y-125369619D02*
X62949667Y-125514762D01*
X62949667Y-125514762D02*
X62901286Y-125611524D01*
X62901286Y-125611524D02*
X62852905Y-125659905D01*
X62852905Y-125659905D02*
X62756143Y-125708286D01*
X62756143Y-125708286D02*
X62369095Y-125708286D01*
X63917286Y-126192095D02*
X63336714Y-126192095D01*
X63627000Y-126192095D02*
X63627000Y-125176095D01*
X63627000Y-125176095D02*
X63530238Y-125321238D01*
X63530238Y-125321238D02*
X63433476Y-125418000D01*
X63433476Y-125418000D02*
X63336714Y-125466381D01*
D11*
%TO.C,U4*%
X118652580Y-67818095D02*
X117843057Y-67818095D01*
X117843057Y-67818095D02*
X117747819Y-67865714D01*
X117747819Y-67865714D02*
X117700200Y-67913333D01*
X117700200Y-67913333D02*
X117652580Y-68008571D01*
X117652580Y-68008571D02*
X117652580Y-68199047D01*
X117652580Y-68199047D02*
X117700200Y-68294285D01*
X117700200Y-68294285D02*
X117747819Y-68341904D01*
X117747819Y-68341904D02*
X117843057Y-68389523D01*
X117843057Y-68389523D02*
X118652580Y-68389523D01*
X118319247Y-69294285D02*
X117652580Y-69294285D01*
X118700200Y-69056190D02*
X117985914Y-68818095D01*
X117985914Y-68818095D02*
X117985914Y-69437142D01*
X118332819Y-74535312D02*
X118285200Y-74487693D01*
X118285200Y-74487693D02*
X118237580Y-74344836D01*
X118237580Y-74344836D02*
X118237580Y-74249598D01*
X118237580Y-74249598D02*
X118285200Y-74106741D01*
X118285200Y-74106741D02*
X118380438Y-74011503D01*
X118380438Y-74011503D02*
X118475676Y-73963884D01*
X118475676Y-73963884D02*
X118666152Y-73916265D01*
X118666152Y-73916265D02*
X118809009Y-73916265D01*
X118809009Y-73916265D02*
X118999485Y-73963884D01*
X118999485Y-73963884D02*
X119094723Y-74011503D01*
X119094723Y-74011503D02*
X119189961Y-74106741D01*
X119189961Y-74106741D02*
X119237580Y-74249598D01*
X119237580Y-74249598D02*
X119237580Y-74344836D01*
X119237580Y-74344836D02*
X119189961Y-74487693D01*
X119189961Y-74487693D02*
X119142342Y-74535312D01*
X118237580Y-75535312D02*
X118713771Y-75201979D01*
X118237580Y-74963884D02*
X119237580Y-74963884D01*
X119237580Y-74963884D02*
X119237580Y-75344836D01*
X119237580Y-75344836D02*
X119189961Y-75440074D01*
X119189961Y-75440074D02*
X119142342Y-75487693D01*
X119142342Y-75487693D02*
X119047104Y-75535312D01*
X119047104Y-75535312D02*
X118904247Y-75535312D01*
X118904247Y-75535312D02*
X118809009Y-75487693D01*
X118809009Y-75487693D02*
X118761390Y-75440074D01*
X118761390Y-75440074D02*
X118713771Y-75344836D01*
X118713771Y-75344836D02*
X118713771Y-74963884D01*
X118237580Y-76487693D02*
X118237580Y-75916265D01*
X118237580Y-76201979D02*
X119237580Y-76201979D01*
X119237580Y-76201979D02*
X119094723Y-76106741D01*
X119094723Y-76106741D02*
X118999485Y-76011503D01*
X118999485Y-76011503D02*
X118951866Y-75916265D01*
X119142342Y-76868646D02*
X119189961Y-76916265D01*
X119189961Y-76916265D02*
X119237580Y-77011503D01*
X119237580Y-77011503D02*
X119237580Y-77249598D01*
X119237580Y-77249598D02*
X119189961Y-77344836D01*
X119189961Y-77344836D02*
X119142342Y-77392455D01*
X119142342Y-77392455D02*
X119047104Y-77440074D01*
X119047104Y-77440074D02*
X118951866Y-77440074D01*
X118951866Y-77440074D02*
X118809009Y-77392455D01*
X118809009Y-77392455D02*
X118237580Y-76821027D01*
X118237580Y-76821027D02*
X118237580Y-77440074D01*
X119142342Y-77821027D02*
X119189961Y-77868646D01*
X119189961Y-77868646D02*
X119237580Y-77963884D01*
X119237580Y-77963884D02*
X119237580Y-78201979D01*
X119237580Y-78201979D02*
X119189961Y-78297217D01*
X119189961Y-78297217D02*
X119142342Y-78344836D01*
X119142342Y-78344836D02*
X119047104Y-78392455D01*
X119047104Y-78392455D02*
X118951866Y-78392455D01*
X118951866Y-78392455D02*
X118809009Y-78344836D01*
X118809009Y-78344836D02*
X118237580Y-77773408D01*
X118237580Y-77773408D02*
X118237580Y-78392455D01*
X119237580Y-79011503D02*
X119237580Y-79106741D01*
X119237580Y-79106741D02*
X119189961Y-79201979D01*
X119189961Y-79201979D02*
X119142342Y-79249598D01*
X119142342Y-79249598D02*
X119047104Y-79297217D01*
X119047104Y-79297217D02*
X118856628Y-79344836D01*
X118856628Y-79344836D02*
X118618533Y-79344836D01*
X118618533Y-79344836D02*
X118428057Y-79297217D01*
X118428057Y-79297217D02*
X118332819Y-79249598D01*
X118332819Y-79249598D02*
X118285200Y-79201979D01*
X118285200Y-79201979D02*
X118237580Y-79106741D01*
X118237580Y-79106741D02*
X118237580Y-79011503D01*
X118237580Y-79011503D02*
X118285200Y-78916265D01*
X118285200Y-78916265D02*
X118332819Y-78868646D01*
X118332819Y-78868646D02*
X118428057Y-78821027D01*
X118428057Y-78821027D02*
X118618533Y-78773408D01*
X118618533Y-78773408D02*
X118856628Y-78773408D01*
X118856628Y-78773408D02*
X119047104Y-78821027D01*
X119047104Y-78821027D02*
X119142342Y-78868646D01*
X119142342Y-78868646D02*
X119189961Y-78916265D01*
X119189961Y-78916265D02*
X119237580Y-79011503D01*
D10*
%TO.C,Q3*%
X107854761Y-74210057D02*
X107759523Y-74162438D01*
X107759523Y-74162438D02*
X107664285Y-74067200D01*
X107664285Y-74067200D02*
X107521428Y-73924342D01*
X107521428Y-73924342D02*
X107426190Y-73876723D01*
X107426190Y-73876723D02*
X107330952Y-73876723D01*
X107378571Y-74114819D02*
X107283333Y-74067200D01*
X107283333Y-74067200D02*
X107188095Y-73971961D01*
X107188095Y-73971961D02*
X107140476Y-73781485D01*
X107140476Y-73781485D02*
X107140476Y-73448152D01*
X107140476Y-73448152D02*
X107188095Y-73257676D01*
X107188095Y-73257676D02*
X107283333Y-73162438D01*
X107283333Y-73162438D02*
X107378571Y-73114819D01*
X107378571Y-73114819D02*
X107569047Y-73114819D01*
X107569047Y-73114819D02*
X107664285Y-73162438D01*
X107664285Y-73162438D02*
X107759523Y-73257676D01*
X107759523Y-73257676D02*
X107807142Y-73448152D01*
X107807142Y-73448152D02*
X107807142Y-73781485D01*
X107807142Y-73781485D02*
X107759523Y-73971961D01*
X107759523Y-73971961D02*
X107664285Y-74067200D01*
X107664285Y-74067200D02*
X107569047Y-74114819D01*
X107569047Y-74114819D02*
X107378571Y-74114819D01*
X108140476Y-73114819D02*
X108759523Y-73114819D01*
X108759523Y-73114819D02*
X108426190Y-73495771D01*
X108426190Y-73495771D02*
X108569047Y-73495771D01*
X108569047Y-73495771D02*
X108664285Y-73543390D01*
X108664285Y-73543390D02*
X108711904Y-73591009D01*
X108711904Y-73591009D02*
X108759523Y-73686247D01*
X108759523Y-73686247D02*
X108759523Y-73924342D01*
X108759523Y-73924342D02*
X108711904Y-74019580D01*
X108711904Y-74019580D02*
X108664285Y-74067200D01*
X108664285Y-74067200D02*
X108569047Y-74114819D01*
X108569047Y-74114819D02*
X108283333Y-74114819D01*
X108283333Y-74114819D02*
X108188095Y-74067200D01*
X108188095Y-74067200D02*
X108140476Y-74019580D01*
D12*
%TO.C,R7*%
X113749667Y-126192095D02*
X113411000Y-125708286D01*
X113169095Y-126192095D02*
X113169095Y-125176095D01*
X113169095Y-125176095D02*
X113556143Y-125176095D01*
X113556143Y-125176095D02*
X113652905Y-125224476D01*
X113652905Y-125224476D02*
X113701286Y-125272857D01*
X113701286Y-125272857D02*
X113749667Y-125369619D01*
X113749667Y-125369619D02*
X113749667Y-125514762D01*
X113749667Y-125514762D02*
X113701286Y-125611524D01*
X113701286Y-125611524D02*
X113652905Y-125659905D01*
X113652905Y-125659905D02*
X113556143Y-125708286D01*
X113556143Y-125708286D02*
X113169095Y-125708286D01*
X114088333Y-125176095D02*
X114765667Y-125176095D01*
X114765667Y-125176095D02*
X114330238Y-126192095D01*
%TO.C,R8*%
X109812667Y-126192095D02*
X109474000Y-125708286D01*
X109232095Y-126192095D02*
X109232095Y-125176095D01*
X109232095Y-125176095D02*
X109619143Y-125176095D01*
X109619143Y-125176095D02*
X109715905Y-125224476D01*
X109715905Y-125224476D02*
X109764286Y-125272857D01*
X109764286Y-125272857D02*
X109812667Y-125369619D01*
X109812667Y-125369619D02*
X109812667Y-125514762D01*
X109812667Y-125514762D02*
X109764286Y-125611524D01*
X109764286Y-125611524D02*
X109715905Y-125659905D01*
X109715905Y-125659905D02*
X109619143Y-125708286D01*
X109619143Y-125708286D02*
X109232095Y-125708286D01*
X110393238Y-125611524D02*
X110296476Y-125563143D01*
X110296476Y-125563143D02*
X110248095Y-125514762D01*
X110248095Y-125514762D02*
X110199714Y-125418000D01*
X110199714Y-125418000D02*
X110199714Y-125369619D01*
X110199714Y-125369619D02*
X110248095Y-125272857D01*
X110248095Y-125272857D02*
X110296476Y-125224476D01*
X110296476Y-125224476D02*
X110393238Y-125176095D01*
X110393238Y-125176095D02*
X110586762Y-125176095D01*
X110586762Y-125176095D02*
X110683524Y-125224476D01*
X110683524Y-125224476D02*
X110731905Y-125272857D01*
X110731905Y-125272857D02*
X110780286Y-125369619D01*
X110780286Y-125369619D02*
X110780286Y-125418000D01*
X110780286Y-125418000D02*
X110731905Y-125514762D01*
X110731905Y-125514762D02*
X110683524Y-125563143D01*
X110683524Y-125563143D02*
X110586762Y-125611524D01*
X110586762Y-125611524D02*
X110393238Y-125611524D01*
X110393238Y-125611524D02*
X110296476Y-125659905D01*
X110296476Y-125659905D02*
X110248095Y-125708286D01*
X110248095Y-125708286D02*
X110199714Y-125805048D01*
X110199714Y-125805048D02*
X110199714Y-125998572D01*
X110199714Y-125998572D02*
X110248095Y-126095334D01*
X110248095Y-126095334D02*
X110296476Y-126143715D01*
X110296476Y-126143715D02*
X110393238Y-126192095D01*
X110393238Y-126192095D02*
X110586762Y-126192095D01*
X110586762Y-126192095D02*
X110683524Y-126143715D01*
X110683524Y-126143715D02*
X110731905Y-126095334D01*
X110731905Y-126095334D02*
X110780286Y-125998572D01*
X110780286Y-125998572D02*
X110780286Y-125805048D01*
X110780286Y-125805048D02*
X110731905Y-125708286D01*
X110731905Y-125708286D02*
X110683524Y-125659905D01*
X110683524Y-125659905D02*
X110586762Y-125611524D01*
D10*
%TO.C,H1*%
X86868095Y-63319819D02*
X86868095Y-62319819D01*
X86868095Y-62796009D02*
X87439523Y-62796009D01*
X87439523Y-63319819D02*
X87439523Y-62319819D01*
X88439523Y-63319819D02*
X87868095Y-63319819D01*
X88153809Y-63319819D02*
X88153809Y-62319819D01*
X88153809Y-62319819D02*
X88058571Y-62462676D01*
X88058571Y-62462676D02*
X87963333Y-62557914D01*
X87963333Y-62557914D02*
X87868095Y-62605533D01*
%TO.C,R12*%
X65224819Y-93352857D02*
X64748628Y-93686190D01*
X65224819Y-93924285D02*
X64224819Y-93924285D01*
X64224819Y-93924285D02*
X64224819Y-93543333D01*
X64224819Y-93543333D02*
X64272438Y-93448095D01*
X64272438Y-93448095D02*
X64320057Y-93400476D01*
X64320057Y-93400476D02*
X64415295Y-93352857D01*
X64415295Y-93352857D02*
X64558152Y-93352857D01*
X64558152Y-93352857D02*
X64653390Y-93400476D01*
X64653390Y-93400476D02*
X64701009Y-93448095D01*
X64701009Y-93448095D02*
X64748628Y-93543333D01*
X64748628Y-93543333D02*
X64748628Y-93924285D01*
X65224819Y-92400476D02*
X65224819Y-92971904D01*
X65224819Y-92686190D02*
X64224819Y-92686190D01*
X64224819Y-92686190D02*
X64367676Y-92781428D01*
X64367676Y-92781428D02*
X64462914Y-92876666D01*
X64462914Y-92876666D02*
X64510533Y-92971904D01*
X64320057Y-92019523D02*
X64272438Y-91971904D01*
X64272438Y-91971904D02*
X64224819Y-91876666D01*
X64224819Y-91876666D02*
X64224819Y-91638571D01*
X64224819Y-91638571D02*
X64272438Y-91543333D01*
X64272438Y-91543333D02*
X64320057Y-91495714D01*
X64320057Y-91495714D02*
X64415295Y-91448095D01*
X64415295Y-91448095D02*
X64510533Y-91448095D01*
X64510533Y-91448095D02*
X64653390Y-91495714D01*
X64653390Y-91495714D02*
X65224819Y-92067142D01*
X65224819Y-92067142D02*
X65224819Y-91448095D01*
D11*
%TO.C,J4*%
X109848026Y-60300000D02*
G75*
G03*
X109848026Y-60300000I-898026J0D01*
G01*
X106038026Y-60300000D02*
G75*
G03*
X106038026Y-60300000I-898026J0D01*
G01*
X107045000Y-53315000D02*
X109585000Y-53315000D01*
X109585000Y-53315000D02*
X109585000Y-55220000D01*
X109585000Y-55220000D02*
X107045000Y-55220000D01*
X107045000Y-55220000D02*
X107045000Y-53315000D01*
X103235000Y-53315000D02*
X105775000Y-53315000D01*
X105775000Y-53315000D02*
X105775000Y-55220000D01*
X105775000Y-55220000D02*
X103235000Y-55220000D01*
X103235000Y-55220000D02*
X103235000Y-53315000D01*
X110855000Y-61825000D02*
X101890000Y-61825000D01*
X110855000Y-49825000D02*
X110855000Y-61825000D01*
X110855000Y-49825000D02*
X101890000Y-49825000D01*
X107045000Y-49825000D02*
X107045000Y-61825000D01*
X103235000Y-49825000D02*
X103235000Y-61825000D01*
X101890000Y-49825000D02*
X101890000Y-61825000D01*
D13*
%TO.C,R11*%
X63500000Y-66390000D02*
X63500000Y-65770000D01*
X64420000Y-67310000D02*
G75*
G03*
X64420000Y-67310000I-920000J0D01*
G01*
D11*
%TO.C,J2*%
X125170000Y-144540000D02*
X125170000Y-132540000D01*
X123825000Y-144540000D02*
X123825000Y-132540000D01*
X120015000Y-144540000D02*
X120015000Y-132540000D01*
X116205000Y-144540000D02*
X116205000Y-132540000D01*
X112395000Y-144540000D02*
X112395000Y-132540000D01*
X108585000Y-144540000D02*
X108585000Y-132540000D01*
X104775000Y-144540000D02*
X104775000Y-132540000D01*
X100965000Y-144540000D02*
X100965000Y-132540000D01*
X97155000Y-144540000D02*
X97155000Y-132540000D01*
X93345000Y-144540000D02*
X125170000Y-144540000D01*
X93345000Y-144540000D02*
X93345000Y-132540000D01*
X93345000Y-132540000D02*
X125170000Y-132540000D01*
X123825000Y-141050000D02*
X121285000Y-141050000D01*
X121285000Y-141050000D02*
X121285000Y-139145000D01*
X121285000Y-139145000D02*
X123825000Y-139145000D01*
X123825000Y-139145000D02*
X123825000Y-141050000D01*
X120015000Y-141050000D02*
X117475000Y-141050000D01*
X117475000Y-141050000D02*
X117475000Y-139145000D01*
X117475000Y-139145000D02*
X120015000Y-139145000D01*
X120015000Y-139145000D02*
X120015000Y-141050000D01*
X116205000Y-141050000D02*
X113665000Y-141050000D01*
X113665000Y-141050000D02*
X113665000Y-139145000D01*
X113665000Y-139145000D02*
X116205000Y-139145000D01*
X116205000Y-139145000D02*
X116205000Y-141050000D01*
X112395000Y-141050000D02*
X109855000Y-141050000D01*
X109855000Y-141050000D02*
X109855000Y-139145000D01*
X109855000Y-139145000D02*
X112395000Y-139145000D01*
X112395000Y-139145000D02*
X112395000Y-141050000D01*
X108585000Y-141050000D02*
X106045000Y-141050000D01*
X106045000Y-141050000D02*
X106045000Y-139145000D01*
X106045000Y-139145000D02*
X108585000Y-139145000D01*
X108585000Y-139145000D02*
X108585000Y-141050000D01*
X104775000Y-141050000D02*
X102235000Y-141050000D01*
X102235000Y-141050000D02*
X102235000Y-139145000D01*
X102235000Y-139145000D02*
X104775000Y-139145000D01*
X104775000Y-139145000D02*
X104775000Y-141050000D01*
X100965000Y-141050000D02*
X98425000Y-141050000D01*
X98425000Y-141050000D02*
X98425000Y-139145000D01*
X98425000Y-139145000D02*
X100965000Y-139145000D01*
X100965000Y-139145000D02*
X100965000Y-141050000D01*
X97155000Y-141050000D02*
X94615000Y-141050000D01*
X94615000Y-141050000D02*
X94615000Y-139145000D01*
X94615000Y-139145000D02*
X97155000Y-139145000D01*
X97155000Y-139145000D02*
X97155000Y-141050000D01*
X122818026Y-134065000D02*
G75*
G03*
X122818026Y-134065000I-898026J0D01*
G01*
X119008026Y-134065000D02*
G75*
G03*
X119008026Y-134065000I-898026J0D01*
G01*
X115198026Y-134065000D02*
G75*
G03*
X115198026Y-134065000I-898026J0D01*
G01*
X111388026Y-134065000D02*
G75*
G03*
X111388026Y-134065000I-898026J0D01*
G01*
X107578026Y-134065000D02*
G75*
G03*
X107578026Y-134065000I-898026J0D01*
G01*
X103768026Y-134065000D02*
G75*
G03*
X103768026Y-134065000I-898026J0D01*
G01*
X99958026Y-134065000D02*
G75*
G03*
X99958026Y-134065000I-898026J0D01*
G01*
X96148026Y-134065000D02*
G75*
G03*
X96148026Y-134065000I-898026J0D01*
G01*
D13*
%TO.C,R13*%
X72390000Y-91680000D02*
X72390000Y-91060000D01*
X73310000Y-92600000D02*
G75*
G03*
X73310000Y-92600000I-920000J0D01*
G01*
%TO.C,R6*%
X119380000Y-125380000D02*
X119380000Y-126000000D01*
X120300000Y-124460000D02*
G75*
G03*
X120300000Y-124460000I-920000J0D01*
G01*
%TO.C,U7*%
X103560000Y-123930000D02*
X103560000Y-127530000D01*
X108010000Y-125730000D02*
G75*
G03*
X103571522Y-123891522I-2600000J0D01*
G01*
X103571522Y-127568478D02*
G75*
G03*
X108010000Y-125730000I1838478J1838478D01*
G01*
%TO.C,U6*%
X73120000Y-76160000D02*
X68479000Y-76160000D01*
X73120000Y-76160000D02*
X73120000Y-86400000D01*
X71610000Y-76160000D02*
X71610000Y-86400000D01*
X68479000Y-76160000D02*
X68479000Y-86400000D01*
X73120000Y-79430000D02*
X71610000Y-79430000D01*
X73120000Y-83131000D02*
X71610000Y-83131000D01*
X73120000Y-86400000D02*
X68479000Y-86400000D01*
%TO.C,R5*%
X123190000Y-125380000D02*
X123190000Y-126000000D01*
X124110000Y-124460000D02*
G75*
G03*
X124110000Y-124460000I-920000J0D01*
G01*
%TO.C,R2*%
X60960000Y-125380000D02*
X60960000Y-126000000D01*
X61880000Y-124460000D02*
G75*
G03*
X61880000Y-124460000I-920000J0D01*
G01*
D11*
%TO.C,U2*%
X52070000Y-120650000D02*
X69850000Y-120650000D01*
X69850000Y-120650000D02*
X69850000Y-95250000D01*
X69850000Y-95250000D02*
X52070000Y-95250000D01*
X52070000Y-95250000D02*
X52070000Y-120650000D01*
X55880000Y-118110000D02*
G75*
G03*
X55880000Y-118110000I-1270000J0D01*
G01*
X68580000Y-118110000D02*
G75*
G03*
X68580000Y-118110000I-1270000J0D01*
G01*
X55880000Y-97790000D02*
G75*
G03*
X55880000Y-97790000I-1270000J0D01*
G01*
X68580000Y-97790000D02*
G75*
G03*
X68580000Y-97790000I-1270000J0D01*
G01*
D13*
%TO.C,R3*%
X57150000Y-125380000D02*
X57150000Y-126000000D01*
X58070000Y-124460000D02*
G75*
G03*
X58070000Y-124460000I-920000J0D01*
G01*
%TO.C,Q1*%
X61190000Y-63460000D02*
X56449000Y-63460000D01*
X61190000Y-63460000D02*
X61190000Y-73700000D01*
X59650000Y-63460000D02*
X59650000Y-73700000D01*
X56449000Y-63460000D02*
X56449000Y-73700000D01*
X61190000Y-73700000D02*
X56449000Y-73700000D01*
D11*
%TO.C,U3*%
X105410000Y-120650000D02*
X123190000Y-120650000D01*
X123190000Y-120650000D02*
X123190000Y-95250000D01*
X123190000Y-95250000D02*
X105410000Y-95250000D01*
X105410000Y-95250000D02*
X105410000Y-120650000D01*
X109220000Y-118110000D02*
G75*
G03*
X109220000Y-118110000I-1270000J0D01*
G01*
X121920000Y-118110000D02*
G75*
G03*
X121920000Y-118110000I-1270000J0D01*
G01*
X109220000Y-97790000D02*
G75*
G03*
X109220000Y-97790000I-1270000J0D01*
G01*
X121920000Y-97790000D02*
G75*
G03*
X121920000Y-97790000I-1270000J0D01*
G01*
D13*
%TO.C,A1*%
X75770000Y-84820000D02*
X75770000Y-82820000D01*
X76090000Y-80010000D02*
X76090000Y-125730000D01*
X96520000Y-77360000D02*
X78740000Y-77360000D01*
X96520000Y-128380000D02*
X78740000Y-128380000D01*
X99170000Y-80010000D02*
X99170000Y-125730000D01*
X78740000Y-77360000D02*
G75*
G03*
X76090000Y-80010000I0J-2650000D01*
G01*
X76090000Y-125730000D02*
G75*
G03*
X78740000Y-128380000I2650000J0D01*
G01*
X99170000Y-80010000D02*
G75*
G03*
X96520000Y-77360000I-2650000J0D01*
G01*
X96520000Y-128380000D02*
G75*
G03*
X99170000Y-125730000I0J2650000D01*
G01*
D14*
%TO.C,SW1*%
X65236000Y-59420000D02*
G75*
G03*
X65236000Y-59420000I-100000J0D01*
G01*
D15*
X67964000Y-53170000D02*
X70316000Y-53170000D01*
X72140000Y-58346000D02*
X72140000Y-53994000D01*
X66140000Y-58346000D02*
X66140000Y-53994000D01*
X67964000Y-59170000D02*
X70316000Y-59170000D01*
D13*
%TO.C,R4*%
X53340000Y-125380000D02*
X53340000Y-126000000D01*
X54260000Y-124460000D02*
G75*
G03*
X54260000Y-124460000I-920000J0D01*
G01*
D11*
%TO.C,J1*%
X81990000Y-144540000D02*
X81990000Y-132540000D01*
X80645000Y-144540000D02*
X80645000Y-132540000D01*
X76835000Y-144540000D02*
X76835000Y-132540000D01*
X73025000Y-144540000D02*
X73025000Y-132540000D01*
X69215000Y-144540000D02*
X69215000Y-132540000D01*
X65405000Y-144540000D02*
X65405000Y-132540000D01*
X61595000Y-144540000D02*
X61595000Y-132540000D01*
X57785000Y-144540000D02*
X57785000Y-132540000D01*
X53975000Y-144540000D02*
X53975000Y-132540000D01*
X50165000Y-144540000D02*
X81990000Y-144540000D01*
X50165000Y-144540000D02*
X50165000Y-132540000D01*
X50165000Y-132540000D02*
X81990000Y-132540000D01*
X80645000Y-141050000D02*
X78105000Y-141050000D01*
X78105000Y-141050000D02*
X78105000Y-139145000D01*
X78105000Y-139145000D02*
X80645000Y-139145000D01*
X80645000Y-139145000D02*
X80645000Y-141050000D01*
X76835000Y-141050000D02*
X74295000Y-141050000D01*
X74295000Y-141050000D02*
X74295000Y-139145000D01*
X74295000Y-139145000D02*
X76835000Y-139145000D01*
X76835000Y-139145000D02*
X76835000Y-141050000D01*
X73025000Y-141050000D02*
X70485000Y-141050000D01*
X70485000Y-141050000D02*
X70485000Y-139145000D01*
X70485000Y-139145000D02*
X73025000Y-139145000D01*
X73025000Y-139145000D02*
X73025000Y-141050000D01*
X69215000Y-141050000D02*
X66675000Y-141050000D01*
X66675000Y-141050000D02*
X66675000Y-139145000D01*
X66675000Y-139145000D02*
X69215000Y-139145000D01*
X69215000Y-139145000D02*
X69215000Y-141050000D01*
X65405000Y-141050000D02*
X62865000Y-141050000D01*
X62865000Y-141050000D02*
X62865000Y-139145000D01*
X62865000Y-139145000D02*
X65405000Y-139145000D01*
X65405000Y-139145000D02*
X65405000Y-141050000D01*
X61595000Y-141050000D02*
X59055000Y-141050000D01*
X59055000Y-141050000D02*
X59055000Y-139145000D01*
X59055000Y-139145000D02*
X61595000Y-139145000D01*
X61595000Y-139145000D02*
X61595000Y-141050000D01*
X57785000Y-141050000D02*
X55245000Y-141050000D01*
X55245000Y-141050000D02*
X55245000Y-139145000D01*
X55245000Y-139145000D02*
X57785000Y-139145000D01*
X57785000Y-139145000D02*
X57785000Y-141050000D01*
X53975000Y-141050000D02*
X51435000Y-141050000D01*
X51435000Y-141050000D02*
X51435000Y-139145000D01*
X51435000Y-139145000D02*
X53975000Y-139145000D01*
X53975000Y-139145000D02*
X53975000Y-141050000D01*
X79638026Y-134065000D02*
G75*
G03*
X79638026Y-134065000I-898026J0D01*
G01*
X75828026Y-134065000D02*
G75*
G03*
X75828026Y-134065000I-898026J0D01*
G01*
X72018026Y-134065000D02*
G75*
G03*
X72018026Y-134065000I-898026J0D01*
G01*
X68208026Y-134065000D02*
G75*
G03*
X68208026Y-134065000I-898026J0D01*
G01*
X64398026Y-134065000D02*
G75*
G03*
X64398026Y-134065000I-898026J0D01*
G01*
X60588026Y-134065000D02*
G75*
G03*
X60588026Y-134065000I-898026J0D01*
G01*
X56778026Y-134065000D02*
G75*
G03*
X56778026Y-134065000I-898026J0D01*
G01*
X52968026Y-134065000D02*
G75*
G03*
X52968026Y-134065000I-898026J0D01*
G01*
%TO.C,J6*%
X49770000Y-93420000D02*
X61770000Y-93420000D01*
X49770000Y-92075000D02*
X61770000Y-92075000D01*
X49770000Y-88265000D02*
X61770000Y-88265000D01*
X49770000Y-84455000D02*
X61770000Y-84455000D01*
X49770000Y-80645000D02*
X61770000Y-80645000D01*
X49770000Y-76835000D02*
X49770000Y-93420000D01*
X49770000Y-76835000D02*
X61770000Y-76835000D01*
X61770000Y-76835000D02*
X61770000Y-93420000D01*
X53260000Y-92075000D02*
X55165000Y-92075000D01*
X55165000Y-92075000D02*
X55165000Y-89535000D01*
X55165000Y-89535000D02*
X53260000Y-89535000D01*
X53260000Y-89535000D02*
X53260000Y-92075000D01*
X53260000Y-88265000D02*
X55165000Y-88265000D01*
X55165000Y-88265000D02*
X55165000Y-85725000D01*
X55165000Y-85725000D02*
X53260000Y-85725000D01*
X53260000Y-85725000D02*
X53260000Y-88265000D01*
X53260000Y-84455000D02*
X55165000Y-84455000D01*
X55165000Y-84455000D02*
X55165000Y-81915000D01*
X55165000Y-81915000D02*
X53260000Y-81915000D01*
X53260000Y-81915000D02*
X53260000Y-84455000D01*
X53260000Y-80645000D02*
X55165000Y-80645000D01*
X55165000Y-80645000D02*
X55165000Y-78105000D01*
X55165000Y-78105000D02*
X53260000Y-78105000D01*
X53260000Y-78105000D02*
X53260000Y-80645000D01*
X61143026Y-90170000D02*
G75*
G03*
X61143026Y-90170000I-898026J0D01*
G01*
X61143026Y-86360000D02*
G75*
G03*
X61143026Y-86360000I-898026J0D01*
G01*
X61143026Y-82550000D02*
G75*
G03*
X61143026Y-82550000I-898026J0D01*
G01*
X61143026Y-78740000D02*
G75*
G03*
X61143026Y-78740000I-898026J0D01*
G01*
D13*
%TO.C,Q2*%
X72620000Y-63460000D02*
X67879000Y-63460000D01*
X72620000Y-63460000D02*
X72620000Y-73700000D01*
X71080000Y-63460000D02*
X71080000Y-73700000D01*
X67879000Y-63460000D02*
X67879000Y-73700000D01*
X72620000Y-73700000D02*
X67879000Y-73700000D01*
%TO.C,R1*%
X64770000Y-125380000D02*
X64770000Y-126000000D01*
X65690000Y-124460000D02*
G75*
G03*
X65690000Y-124460000I-920000J0D01*
G01*
D11*
%TO.C,U4*%
X116840000Y-64770000D02*
X115570000Y-64770000D01*
X115570000Y-64770000D02*
X115570000Y-87630000D01*
X115570000Y-87630000D02*
X116840000Y-87630000D01*
X116840000Y-87630000D02*
X116840000Y-64770000D01*
X116840000Y-69850000D02*
X120650000Y-69850000D01*
X120650000Y-69850000D02*
X120650000Y-82550000D01*
X120650000Y-82550000D02*
X116840000Y-82550000D01*
X116840000Y-82550000D02*
X116840000Y-69850000D01*
D13*
%TO.C,Q3*%
X104830000Y-75670000D02*
X104830000Y-79270000D01*
X109280000Y-77470000D02*
G75*
G03*
X104841522Y-75631522I-2600000J0D01*
G01*
X104841522Y-79308478D02*
G75*
G03*
X109280000Y-77470000I1838478J1838478D01*
G01*
%TO.C,R7*%
X115570000Y-125380000D02*
X115570000Y-126000000D01*
X116490000Y-124460000D02*
G75*
G03*
X116490000Y-124460000I-920000J0D01*
G01*
%TO.C,R8*%
X111760000Y-125380000D02*
X111760000Y-126000000D01*
X112680000Y-124460000D02*
G75*
G03*
X112680000Y-124460000I-920000J0D01*
G01*
%TO.C,R12*%
X67310000Y-91090000D02*
X67310000Y-91710000D01*
X68230000Y-90170000D02*
G75*
G03*
X68230000Y-90170000I-920000J0D01*
G01*
%TD*%
M02*
