%TF.GenerationSoftware,KiCad,Pcbnew,7.0.5*%
%TF.CreationDate,2023-06-12T13:55:42-04:00*%
%TF.ProjectId,Untitled,556e7469-746c-4656-942e-6b696361645f,rev?*%
%TF.SameCoordinates,Original*%
%TF.FileFunction,Soldermask,Top*%
%TF.FilePolarity,Negative*%
%FSLAX46Y46*%
G04 Gerber Fmt 4.6, Leading zero omitted, Abs format (unit mm)*
G04 Created by KiCad (PCBNEW 7.0.5) date 2023-06-12 13:55:42*
%MOMM*%
%LPD*%
G01*
G04 APERTURE LIST*
%ADD10C,1.905000*%
%ADD11C,1.400000*%
%ADD12O,1.400000X1.400000*%
%ADD13C,4.300000*%
%ADD14R,1.500000X1.050000*%
%ADD15O,1.500000X1.050000*%
%ADD16R,2.000000X1.905000*%
%ADD17O,2.000000X1.905000*%
%ADD18C,1.524000*%
%ADD19R,1.600000X1.600000*%
%ADD20C,1.600000*%
%ADD21C,1.508000*%
%ADD22R,1.508000X1.508000*%
G04 APERTURE END LIST*
D10*
%TO.C,J4*%
X105140000Y-52125000D03*
X108950000Y-57125000D03*
%TD*%
D11*
%TO.C,R11*%
X63500000Y-67310000D03*
D12*
X63500000Y-64770000D03*
%TD*%
D10*
%TO.C,J2*%
X95250000Y-137240000D03*
X99060000Y-142240000D03*
X102870000Y-137240000D03*
X106680000Y-142240000D03*
X110490000Y-137240000D03*
X114300000Y-142240000D03*
X118110000Y-137240000D03*
X121920000Y-142240000D03*
%TD*%
D11*
%TO.C,R13*%
X72390000Y-92600000D03*
D12*
X72390000Y-90060000D03*
%TD*%
D11*
%TO.C,R6*%
X119380000Y-124460000D03*
D12*
X119380000Y-127000000D03*
%TD*%
D13*
%TO.C,H2*%
X87630000Y-142875000D03*
%TD*%
D14*
%TO.C,U7*%
X105410000Y-124460000D03*
D15*
X105410000Y-125730000D03*
X105410000Y-127000000D03*
%TD*%
D16*
%TO.C,U6*%
X69850000Y-78740000D03*
D17*
X69850000Y-81280000D03*
X69850000Y-83820000D03*
%TD*%
D11*
%TO.C,R5*%
X123190000Y-124460000D03*
D12*
X123190000Y-127000000D03*
%TD*%
D11*
%TO.C,R2*%
X60960000Y-124460000D03*
D12*
X60960000Y-127000000D03*
%TD*%
D18*
%TO.C,U2*%
X67310000Y-114300000D03*
X67310000Y-111760000D03*
X67310000Y-109220000D03*
X67310000Y-106680000D03*
X67310000Y-104140000D03*
X67310000Y-101600000D03*
X54610000Y-101600000D03*
X54610000Y-104140000D03*
X54610000Y-106680000D03*
X54610000Y-109220000D03*
X54610000Y-111760000D03*
X54610000Y-114300000D03*
%TD*%
D11*
%TO.C,R3*%
X57150000Y-124460000D03*
D12*
X57150000Y-127000000D03*
%TD*%
D16*
%TO.C,Q1*%
X58420000Y-66040000D03*
D17*
X58420000Y-68580000D03*
X58420000Y-71120000D03*
%TD*%
D18*
%TO.C,U3*%
X120650000Y-114300000D03*
X120650000Y-111760000D03*
X120650000Y-109220000D03*
X120650000Y-106680000D03*
X120650000Y-104140000D03*
X120650000Y-101600000D03*
X107950000Y-101600000D03*
X107950000Y-104140000D03*
X107950000Y-106680000D03*
X107950000Y-109220000D03*
X107950000Y-111760000D03*
X107950000Y-114300000D03*
%TD*%
D19*
%TO.C,A1*%
X77470000Y-83820000D03*
D20*
X77470000Y-86360000D03*
X77470000Y-88900000D03*
X77470000Y-91440000D03*
X77470000Y-93980000D03*
X77470000Y-96520000D03*
X77470000Y-99060000D03*
X77470000Y-101600000D03*
X77470000Y-104140000D03*
X77470000Y-106680000D03*
X77470000Y-109220000D03*
X77470000Y-111760000D03*
X77470000Y-114300000D03*
X77470000Y-116840000D03*
X77470000Y-119380000D03*
X77470000Y-121920000D03*
X97790000Y-121920000D03*
X97790000Y-119380000D03*
X97790000Y-116840000D03*
X97790000Y-114300000D03*
X97790000Y-111760000D03*
X97790000Y-109220000D03*
X97790000Y-106680000D03*
X97790000Y-104140000D03*
X97790000Y-101600000D03*
X97790000Y-99060000D03*
X97790000Y-96520000D03*
X97790000Y-93980000D03*
%TD*%
D21*
%TO.C,SW1*%
X71390000Y-52920000D03*
X71390000Y-59420000D03*
X66890000Y-52920000D03*
D22*
X66890000Y-59420000D03*
%TD*%
D11*
%TO.C,R4*%
X53340000Y-124460000D03*
D12*
X53340000Y-127000000D03*
%TD*%
D10*
%TO.C,J1*%
X52070000Y-137240000D03*
X55880000Y-142240000D03*
X59690000Y-137240000D03*
X63500000Y-142240000D03*
X67310000Y-137240000D03*
X71120000Y-142240000D03*
X74930000Y-137240000D03*
X78740000Y-142240000D03*
%TD*%
%TO.C,J6*%
X57070000Y-78740000D03*
X52070000Y-82550000D03*
X57070000Y-86360000D03*
X52070000Y-90170000D03*
%TD*%
D16*
%TO.C,Q2*%
X69850000Y-66040000D03*
D17*
X69850000Y-68580000D03*
X69850000Y-71120000D03*
%TD*%
D11*
%TO.C,R1*%
X64770000Y-124460000D03*
D12*
X64770000Y-127000000D03*
%TD*%
D18*
%TO.C,U4*%
X114300000Y-67310000D03*
X114300000Y-69850000D03*
X114300000Y-72390000D03*
X114300000Y-74930000D03*
X114300000Y-77470000D03*
X114300000Y-80010000D03*
X114300000Y-82550000D03*
X114300000Y-85090000D03*
%TD*%
D14*
%TO.C,Q3*%
X106680000Y-76200000D03*
D15*
X106680000Y-77470000D03*
X106680000Y-78740000D03*
%TD*%
D11*
%TO.C,R7*%
X115570000Y-124460000D03*
D12*
X115570000Y-127000000D03*
%TD*%
D11*
%TO.C,R8*%
X111760000Y-124460000D03*
D12*
X111760000Y-127000000D03*
%TD*%
D13*
%TO.C,H1*%
X87630000Y-62865000D03*
%TD*%
D11*
%TO.C,R12*%
X67310000Y-90170000D03*
D12*
X67310000Y-92710000D03*
%TD*%
M02*
