%TF.GenerationSoftware,KiCad,Pcbnew,7.0.5*%
%TF.CreationDate,2023-06-12T13:55:42-04:00*%
%TF.ProjectId,Untitled,556e7469-746c-4656-942e-6b696361645f,rev?*%
%TF.SameCoordinates,Original*%
%TF.FileFunction,Other,User*%
%FSLAX46Y46*%
G04 Gerber Fmt 4.6, Leading zero omitted, Abs format (unit mm)*
G04 Created by KiCad (PCBNEW 7.0.5) date 2023-06-12 13:55:42*
%MOMM*%
%LPD*%
G01*
G04 APERTURE LIST*
%ADD10C,0.050000*%
G04 APERTURE END LIST*
D10*
%TO.C,R11*%
X62450000Y-68360000D02*
X64550000Y-68360000D01*
X64550000Y-68360000D02*
X64550000Y-63820000D01*
X62450000Y-63820000D02*
X62450000Y-68360000D01*
X64550000Y-63820000D02*
X62450000Y-63820000D01*
%TO.C,R13*%
X71340000Y-93650000D02*
X73440000Y-93650000D01*
X73440000Y-93650000D02*
X73440000Y-89110000D01*
X71340000Y-89110000D02*
X71340000Y-93650000D01*
X73440000Y-89110000D02*
X71340000Y-89110000D01*
%TO.C,R6*%
X120430000Y-123410000D02*
X118330000Y-123410000D01*
X118330000Y-123410000D02*
X118330000Y-127950000D01*
X120430000Y-127950000D02*
X120430000Y-123410000D01*
X118330000Y-127950000D02*
X120430000Y-127950000D01*
%TO.C,H2*%
X92180000Y-142875000D02*
G75*
G03*
X92180000Y-142875000I-4550000J0D01*
G01*
%TO.C,U7*%
X108140000Y-123000000D02*
X103400000Y-123000000D01*
X108140000Y-123000000D02*
X108140000Y-128460000D01*
X103400000Y-128460000D02*
X103400000Y-123000000D01*
X103400000Y-128460000D02*
X108140000Y-128460000D01*
%TO.C,U6*%
X73250000Y-76030000D02*
X68340000Y-76030000D01*
X68340000Y-76030000D02*
X68340000Y-86530000D01*
X73250000Y-86530000D02*
X73250000Y-76030000D01*
X68340000Y-86530000D02*
X73250000Y-86530000D01*
%TO.C,R5*%
X124240000Y-123410000D02*
X122140000Y-123410000D01*
X122140000Y-123410000D02*
X122140000Y-127950000D01*
X124240000Y-127950000D02*
X124240000Y-123410000D01*
X122140000Y-127950000D02*
X124240000Y-127950000D01*
%TO.C,R2*%
X62010000Y-123410000D02*
X59910000Y-123410000D01*
X59910000Y-123410000D02*
X59910000Y-127950000D01*
X62010000Y-127950000D02*
X62010000Y-123410000D01*
X59910000Y-127950000D02*
X62010000Y-127950000D01*
%TO.C,R3*%
X58200000Y-123410000D02*
X56100000Y-123410000D01*
X56100000Y-123410000D02*
X56100000Y-127950000D01*
X58200000Y-127950000D02*
X58200000Y-123410000D01*
X56100000Y-127950000D02*
X58200000Y-127950000D01*
%TO.C,Q1*%
X61320000Y-63330000D02*
X56320000Y-63330000D01*
X56320000Y-63330000D02*
X56320000Y-73830000D01*
X61320000Y-73830000D02*
X61320000Y-63330000D01*
X56320000Y-73830000D02*
X61320000Y-73830000D01*
%TO.C,A1*%
X75950000Y-125730000D02*
X75950000Y-80010000D01*
X96520000Y-77220000D02*
X78740000Y-77220000D01*
X96520000Y-128520000D02*
X78740000Y-128520000D01*
X99310000Y-125730000D02*
X99310000Y-80010000D01*
X78740000Y-77220000D02*
G75*
G03*
X75950000Y-80010000I0J-2790000D01*
G01*
X75950000Y-125730000D02*
G75*
G03*
X78740000Y-128520000I2790000J0D01*
G01*
X99310000Y-80010000D02*
G75*
G03*
X96520000Y-77220000I-2790000J0D01*
G01*
X96520000Y-128520000D02*
G75*
G03*
X99310000Y-125730000I0J2790000D01*
G01*
%TO.C,SW1*%
X72394000Y-51916000D02*
X65886000Y-51916000D01*
X65886000Y-51916000D02*
X65886000Y-60424000D01*
X72394000Y-60424000D02*
X72394000Y-51916000D01*
X65886000Y-60424000D02*
X72394000Y-60424000D01*
%TO.C,R4*%
X54390000Y-123410000D02*
X52290000Y-123410000D01*
X52290000Y-123410000D02*
X52290000Y-127950000D01*
X54390000Y-127950000D02*
X54390000Y-123410000D01*
X52290000Y-127950000D02*
X54390000Y-127950000D01*
%TO.C,Q2*%
X72750000Y-63330000D02*
X67750000Y-63330000D01*
X67750000Y-63330000D02*
X67750000Y-73830000D01*
X72750000Y-73830000D02*
X72750000Y-63330000D01*
X67750000Y-73830000D02*
X72750000Y-73830000D01*
%TO.C,R1*%
X65820000Y-123410000D02*
X63720000Y-123410000D01*
X63720000Y-123410000D02*
X63720000Y-127950000D01*
X65820000Y-127950000D02*
X65820000Y-123410000D01*
X63720000Y-127950000D02*
X65820000Y-127950000D01*
%TO.C,Q3*%
X109410000Y-74740000D02*
X104670000Y-74740000D01*
X109410000Y-74740000D02*
X109410000Y-80200000D01*
X104670000Y-80200000D02*
X104670000Y-74740000D01*
X104670000Y-80200000D02*
X109410000Y-80200000D01*
%TO.C,R7*%
X116620000Y-123410000D02*
X114520000Y-123410000D01*
X114520000Y-123410000D02*
X114520000Y-127950000D01*
X116620000Y-127950000D02*
X116620000Y-123410000D01*
X114520000Y-127950000D02*
X116620000Y-127950000D01*
%TO.C,R8*%
X112810000Y-123410000D02*
X110710000Y-123410000D01*
X110710000Y-123410000D02*
X110710000Y-127950000D01*
X112810000Y-127950000D02*
X112810000Y-123410000D01*
X110710000Y-127950000D02*
X112810000Y-127950000D01*
%TO.C,H1*%
X92180000Y-62865000D02*
G75*
G03*
X92180000Y-62865000I-4550000J0D01*
G01*
%TO.C,R12*%
X68360000Y-89120000D02*
X66260000Y-89120000D01*
X66260000Y-89120000D02*
X66260000Y-93660000D01*
X68360000Y-93660000D02*
X68360000Y-89120000D01*
X66260000Y-93660000D02*
X68360000Y-93660000D01*
%TD*%
M02*
