M48
; DRILL file {KiCad 7.0.1-0} date 2023 June 27, Tuesday 10:07:53
; FORMAT={-:-/ absolute / inch / decimal}
; #@! TF.CreationDate,2023-06-27T10:07:53-04:00
; #@! TF.GenerationSoftware,Kicad,Pcbnew,7.0.1-0
; #@! TF.FileFunction,Plated,1,2,PTH
FMAT,2
INCH
; #@! TA.AperFunction,Plated,PTH,ComponentDrill
T1C0.0276
; #@! TA.AperFunction,Plated,PTH,ComponentDrill
T2C0.0295
; #@! TA.AperFunction,Plated,PTH,ComponentDrill
T3C0.0394
; #@! TA.AperFunction,Plated,PTH,ComponentDrill
T4C0.0400
; #@! TA.AperFunction,Plated,PTH,ComponentDrill
T5C0.0433
%
G90
G05
T1
X2.1Y-4.9
X2.1Y-5.0
X2.25Y-4.9
X2.25Y-5.0
X2.4Y-4.9
X2.4Y-5.0
X2.5Y-2.55
X2.5Y-2.65
X2.55Y-4.9
X2.55Y-5.0
X2.65Y-3.55
X2.65Y-3.65
X2.85Y-3.5457
X2.85Y-3.6457
X4.4Y-4.9
X4.4Y-5.0
X4.55Y-4.9
X4.55Y-5.0
X4.7Y-4.9
X4.7Y-5.0
X4.85Y-4.9
X4.85Y-5.0
T2
X4.15Y-4.9
X4.15Y-4.95
X4.15Y-5.0
X4.2Y-3.0
X4.2Y-3.05
X4.2Y-3.1
T3
X2.6335Y-2.0835
X2.6335Y-2.3394
X2.8106Y-2.0835
X2.8106Y-2.3394
X3.05Y-3.4
T4
X2.05Y-3.25
X2.05Y-3.55
X2.05Y-5.4031
X2.15Y-4.0
X2.15Y-4.1
X2.15Y-4.2
X2.15Y-4.3
X2.15Y-4.4
X2.15Y-4.5
X2.2Y-5.6
X2.2469Y-3.1
X2.2469Y-3.4
X2.35Y-5.4031
X2.5Y-5.6
X2.65Y-4.0
X2.65Y-4.1
X2.65Y-4.2
X2.65Y-4.3
X2.65Y-4.4
X2.65Y-4.5
X2.65Y-5.4031
X2.8Y-5.6
X2.95Y-5.4031
X3.05Y-3.3
X3.05Y-3.5
X3.05Y-3.6
X3.05Y-3.7
X3.05Y-3.8
X3.05Y-3.9
X3.05Y-4.0
X3.05Y-4.1
X3.05Y-4.2
X3.05Y-4.3
X3.05Y-4.4
X3.05Y-4.5
X3.05Y-4.6
X3.05Y-4.7
X3.05Y-4.8
X3.1Y-5.6
X3.75Y-5.4031
X3.85Y-3.7
X3.85Y-3.8
X3.85Y-3.9
X3.85Y-4.0
X3.85Y-4.1
X3.85Y-4.2
X3.85Y-4.3
X3.85Y-4.4
X3.85Y-4.5
X3.85Y-4.6
X3.85Y-4.7
X3.85Y-4.8
X3.9Y-5.6
X4.05Y-5.4031
X4.1394Y-2.0522
X4.2Y-5.6
X4.25Y-4.0
X4.25Y-4.1
X4.25Y-4.2
X4.25Y-4.3
X4.25Y-4.4
X4.25Y-4.5
X4.2894Y-2.249
X4.35Y-5.4031
X4.5Y-2.65
X4.5Y-2.75
X4.5Y-2.85
X4.5Y-2.95
X4.5Y-3.05
X4.5Y-3.15
X4.5Y-3.25
X4.5Y-3.35
X4.5Y-5.6
X4.65Y-5.4031
X4.75Y-4.0
X4.75Y-4.1
X4.75Y-4.2
X4.75Y-4.3
X4.75Y-4.4
X4.75Y-4.5
X4.8Y-5.6
T5
X2.3Y-2.6
X2.3Y-2.7
X2.3Y-2.8
X2.75Y-2.6
X2.75Y-2.7
X2.75Y-2.8
X2.75Y-3.1
X2.75Y-3.2
X2.75Y-3.3
T0
M30
