%TF.GenerationSoftware,KiCad,Pcbnew,7.0.1-0*%
%TF.CreationDate,2023-12-13T16:09:33-05:00*%
%TF.ProjectId,Untitled,556e7469-746c-4656-942e-6b696361645f,rev?*%
%TF.SameCoordinates,Original*%
%TF.FileFunction,Paste,Top*%
%TF.FilePolarity,Positive*%
%FSLAX46Y46*%
G04 Gerber Fmt 4.6, Leading zero omitted, Abs format (unit mm)*
G04 Created by KiCad (PCBNEW 7.0.1-0) date 2023-12-13 16:09:33*
%MOMM*%
%LPD*%
G01*
G04 APERTURE LIST*
%TA.AperFunction,Profile*%
%ADD10C,0.100000*%
%TD*%
G04 APERTURE END LIST*
D10*
X49530000Y-62230000D02*
X49530000Y-143510000D01*
X50800000Y-144780000D02*
X60960000Y-144780000D01*
X50800000Y-60960000D02*
G75*
G03*
X49530000Y-62230000I0J-1270000D01*
G01*
X114300000Y-144780000D02*
X114300000Y-154940000D01*
X49530000Y-143510000D02*
G75*
G03*
X50800000Y-144780000I1270000J0D01*
G01*
X114300000Y-60960000D02*
X114300000Y-50800000D01*
X62230000Y-156210000D02*
X113030000Y-156210000D01*
X113030000Y-49530000D02*
X62230000Y-49530000D01*
X60960000Y-60960000D02*
X50800000Y-60960000D01*
X124460000Y-60960000D02*
X114300000Y-60960000D01*
X114300000Y-50800000D02*
G75*
G03*
X113030000Y-49530000I-1270000J0D01*
G01*
X60960000Y-60960000D02*
X60960000Y-50800000D01*
X124460000Y-144780000D02*
X114300000Y-144780000D01*
X62230000Y-49530000D02*
G75*
G03*
X60960000Y-50800000I0J-1270000D01*
G01*
X60960000Y-144780000D02*
X60960000Y-154940000D01*
X113030000Y-156210000D02*
G75*
G03*
X114300000Y-154940000I0J1270000D01*
G01*
X125730000Y-62230000D02*
G75*
G03*
X124460000Y-60960000I-1270000J0D01*
G01*
X125730000Y-143510000D02*
X125730000Y-62230000D01*
X124460000Y-144780000D02*
G75*
G03*
X125730000Y-143510000I0J1270000D01*
G01*
X60960000Y-154940000D02*
G75*
G03*
X62230000Y-156210000I1270000J0D01*
G01*
M02*
