%TF.GenerationSoftware,KiCad,Pcbnew,7.0.1-0*%
%TF.CreationDate,2023-12-13T16:09:33-05:00*%
%TF.ProjectId,Untitled,556e7469-746c-4656-942e-6b696361645f,rev?*%
%TF.SameCoordinates,Original*%
%TF.FileFunction,Copper,L2,Bot*%
%TF.FilePolarity,Positive*%
%FSLAX46Y46*%
G04 Gerber Fmt 4.6, Leading zero omitted, Abs format (unit mm)*
G04 Created by KiCad (PCBNEW 7.0.1-0) date 2023-12-13 16:09:33*
%MOMM*%
%LPD*%
G01*
G04 APERTURE LIST*
%TA.AperFunction,ComponentPad*%
%ADD10C,1.400000*%
%TD*%
%TA.AperFunction,ComponentPad*%
%ADD11O,1.400000X1.400000*%
%TD*%
%TA.AperFunction,ComponentPad*%
%ADD12C,1.905000*%
%TD*%
%TA.AperFunction,ComponentPad*%
%ADD13R,1.500000X1.050000*%
%TD*%
%TA.AperFunction,ComponentPad*%
%ADD14O,1.500000X1.050000*%
%TD*%
%TA.AperFunction,ComponentPad*%
%ADD15R,2.000000X1.905000*%
%TD*%
%TA.AperFunction,ComponentPad*%
%ADD16O,2.000000X1.905000*%
%TD*%
%TA.AperFunction,ComponentPad*%
%ADD17O,2.032000X1.524000*%
%TD*%
%TA.AperFunction,ComponentPad*%
%ADD18R,2.540000X1.778000*%
%TD*%
%TA.AperFunction,ComponentPad*%
%ADD19O,2.500000X1.600000*%
%TD*%
%TA.AperFunction,ComponentPad*%
%ADD20O,2.540000X1.778000*%
%TD*%
%TA.AperFunction,ComponentPad*%
%ADD21C,2.000000*%
%TD*%
%TA.AperFunction,Conductor*%
%ADD22C,0.381000*%
%TD*%
%TA.AperFunction,Conductor*%
%ADD23C,0.508000*%
%TD*%
%TA.AperFunction,Conductor*%
%ADD24C,0.635000*%
%TD*%
%TA.AperFunction,Conductor*%
%ADD25C,0.250000*%
%TD*%
%TA.AperFunction,Profile*%
%ADD26C,0.100000*%
%TD*%
G04 APERTURE END LIST*
D10*
%TO.P,R11,1*%
%TO.N,Net-(J6-Pin_3)*%
X63500000Y-67310000D03*
D11*
%TO.P,R11,2*%
%TO.N,Net-(Q1-G)*%
X63500000Y-64770000D03*
%TD*%
D12*
%TO.P,J2,1,Pin_1*%
%TO.N,Net-(J1-Pin_1)*%
X95250000Y-137240000D03*
%TO.P,J2,2,Pin_2*%
%TO.N,Net-(J2-Pin_2)*%
X99060000Y-142240000D03*
%TO.P,J2,3,Pin_3*%
%TO.N,Net-(J1-Pin_1)*%
X102870000Y-137240000D03*
%TO.P,J2,4,Pin_4*%
%TO.N,Net-(J2-Pin_4)*%
X106680000Y-142240000D03*
%TO.P,J2,5,Pin_5*%
%TO.N,Net-(J1-Pin_1)*%
X110490000Y-137240000D03*
%TO.P,J2,6,Pin_6*%
%TO.N,Net-(J2-Pin_6)*%
X114300000Y-142240000D03*
%TO.P,J2,7,Pin_7*%
%TO.N,Net-(J1-Pin_1)*%
X118110000Y-137240000D03*
%TO.P,J2,8,Pin_8*%
%TO.N,Net-(J2-Pin_8)*%
X121920000Y-142240000D03*
%TD*%
D10*
%TO.P,R13,1*%
%TO.N,Net-(A1-DAC0{slash}A0)*%
X72390000Y-92600000D03*
D11*
%TO.P,R13,2*%
%TO.N,GND*%
X72390000Y-90060000D03*
%TD*%
D10*
%TO.P,R6,1*%
%TO.N,Net-(J2-Pin_6)*%
X119380000Y-124460000D03*
D11*
%TO.P,R6,2*%
%TO.N,Net-(U3-A-)*%
X119380000Y-127000000D03*
%TD*%
D13*
%TO.P,U7,1,Vin*%
%TO.N,+3V3*%
X105410000Y-124460000D03*
D14*
%TO.P,U7,2,Vout*%
%TO.N,Net-(J1-Pin_1)*%
X105410000Y-125730000D03*
%TO.P,U7,3,GND*%
%TO.N,GND*%
X105410000Y-127000000D03*
%TD*%
D15*
%TO.P,U6,1,IN*%
%TO.N,Net-(Q1-D)*%
X69850000Y-78740000D03*
D16*
%TO.P,U6,2,GND*%
%TO.N,GND*%
X69850000Y-81280000D03*
%TO.P,U6,3,OUT*%
%TO.N,Net-(J4-Pin_2)*%
X69850000Y-83820000D03*
%TD*%
D10*
%TO.P,R5,1*%
%TO.N,Net-(J2-Pin_8)*%
X123190000Y-124460000D03*
D11*
%TO.P,R5,2*%
%TO.N,Net-(U3-A-)*%
X123190000Y-127000000D03*
%TD*%
D13*
%TO.P,Q3,1,S*%
%TO.N,Net-(Q3-S)*%
X106680000Y-78740000D03*
D14*
%TO.P,Q3,2,G*%
%TO.N,Net-(Q3-G)*%
X106680000Y-77470000D03*
%TO.P,Q3,3,D*%
%TO.N,Net-(Q1-G)*%
X106680000Y-76200000D03*
%TD*%
D10*
%TO.P,R2,1*%
%TO.N,Net-(J1-Pin_6)*%
X60960000Y-124460000D03*
D11*
%TO.P,R2,2*%
%TO.N,Net-(U2-A-)*%
X60960000Y-127000000D03*
%TD*%
D17*
%TO.P,U2,1,VIN*%
%TO.N,+3V3*%
X67310000Y-114300000D03*
%TO.P,U2,2,GND*%
%TO.N,GND*%
X67310000Y-111760000D03*
%TO.P,U2,3,SCL*%
%TO.N,SCL*%
X67310000Y-109220000D03*
%TO.P,U2,4,SDA*%
%TO.N,SDA*%
X67310000Y-106680000D03*
%TO.P,U2,5,ADDR*%
%TO.N,GND*%
X67310000Y-104140000D03*
%TO.P,U2,6,ALRT*%
%TO.N,unconnected-(U2-ALRT-Pad6)*%
X67310000Y-101600000D03*
%TO.P,U2,7,A-*%
%TO.N,Net-(U2-A-)*%
X54610000Y-101600000D03*
%TO.P,U2,8,A0*%
%TO.N,Net-(J1-Pin_8)*%
X54610000Y-104140000D03*
%TO.P,U2,9,A1*%
%TO.N,Net-(J1-Pin_6)*%
X54610000Y-106680000D03*
%TO.P,U2,10,A2*%
%TO.N,Net-(J1-Pin_4)*%
X54610000Y-109220000D03*
%TO.P,U2,11,A3*%
%TO.N,Net-(J1-Pin_2)*%
X54610000Y-111760000D03*
%TO.P,U2,12,A+*%
%TO.N,unconnected-(U2-A+-Pad12)*%
X54610000Y-114300000D03*
%TD*%
D10*
%TO.P,R3,1*%
%TO.N,Net-(J1-Pin_4)*%
X57150000Y-124460000D03*
D11*
%TO.P,R3,2*%
%TO.N,Net-(U2-A-)*%
X57150000Y-127000000D03*
%TD*%
D15*
%TO.P,Q1,1,G*%
%TO.N,Net-(Q1-G)*%
X58420000Y-66040000D03*
D16*
%TO.P,Q1,2,D*%
%TO.N,Net-(Q1-D)*%
X58420000Y-68580000D03*
%TO.P,Q1,3,S*%
%TO.N,Net-(J6-Pin_3)*%
X58420000Y-71120000D03*
%TD*%
D17*
%TO.P,U3,1,VIN*%
%TO.N,+3V3*%
X120650000Y-114300000D03*
%TO.P,U3,2,GND*%
%TO.N,GND*%
X120650000Y-111760000D03*
%TO.P,U3,3,SCL*%
%TO.N,SCL*%
X120650000Y-109220000D03*
%TO.P,U3,4,SDA*%
%TO.N,SDA*%
X120650000Y-106680000D03*
%TO.P,U3,5,ADDR*%
%TO.N,+3V3*%
X120650000Y-104140000D03*
%TO.P,U3,6,ALRT*%
%TO.N,unconnected-(U3-ALRT-Pad6)*%
X120650000Y-101600000D03*
%TO.P,U3,7,A-*%
%TO.N,Net-(U3-A-)*%
X107950000Y-101600000D03*
%TO.P,U3,8,A0*%
%TO.N,Net-(J2-Pin_8)*%
X107950000Y-104140000D03*
%TO.P,U3,9,A1*%
%TO.N,Net-(J2-Pin_6)*%
X107950000Y-106680000D03*
%TO.P,U3,10,A2*%
%TO.N,Net-(J2-Pin_4)*%
X107950000Y-109220000D03*
%TO.P,U3,11,A3*%
%TO.N,Net-(J2-Pin_2)*%
X107950000Y-111760000D03*
%TO.P,U3,12,A+*%
%TO.N,unconnected-(U3-A+-Pad12)*%
X107950000Y-114300000D03*
%TD*%
D18*
%TO.P,A1,1,~{RESET}*%
%TO.N,unconnected-(A1-~{RESET}-Pad1)*%
X77470000Y-83820000D03*
D19*
%TO.P,A1,2,3V3*%
%TO.N,+3V3*%
X77470000Y-86360000D03*
D20*
%TO.P,A1,3,AREF*%
%TO.N,unconnected-(A1-AREF-Pad3)*%
X77470000Y-88900000D03*
%TO.P,A1,4,GND*%
%TO.N,GND*%
X77470000Y-91440000D03*
%TO.P,A1,5,DAC0/A0*%
%TO.N,Net-(A1-DAC0{slash}A0)*%
X77470000Y-93980000D03*
%TO.P,A1,6,A1*%
%TO.N,unconnected-(A1-A1-Pad6)*%
X77470000Y-96520000D03*
%TO.P,A1,7,A2*%
%TO.N,unconnected-(A1-A2-Pad7)*%
X77470000Y-99060000D03*
%TO.P,A1,8,A3*%
%TO.N,unconnected-(A1-A3-Pad8)*%
X77470000Y-101600000D03*
%TO.P,A1,9,A4*%
%TO.N,unconnected-(A1-A4-Pad9)*%
X77470000Y-104140000D03*
%TO.P,A1,10,A5*%
%TO.N,unconnected-(A1-A5-Pad10)*%
X77470000Y-106680000D03*
%TO.P,A1,11,SCK/D24*%
%TO.N,unconnected-(A1-SCK{slash}D24-Pad11)*%
X77470000Y-109220000D03*
%TO.P,A1,12,MOSI/D23*%
%TO.N,unconnected-(A1-MOSI{slash}D23-Pad12)*%
X77470000Y-111760000D03*
%TO.P,A1,13,MISO/D22*%
%TO.N,unconnected-(A1-MISO{slash}D22-Pad13)*%
X77470000Y-114300000D03*
%TO.P,A1,14,RX/D0*%
%TO.N,unconnected-(A1-RX{slash}D0-Pad14)*%
X77470000Y-116840000D03*
%TO.P,A1,15,TX/D1*%
%TO.N,unconnected-(A1-TX{slash}D1-Pad15)*%
X77470000Y-119380000D03*
%TO.P,A1,16,GND*%
%TO.N,GND*%
X77470000Y-121920000D03*
%TO.P,A1,17,SDA/D20*%
%TO.N,SDA*%
X97790000Y-121920000D03*
%TO.P,A1,18,SCL/D21*%
%TO.N,SCL*%
X97790000Y-119380000D03*
%TO.P,A1,19,D5*%
%TO.N,unconnected-(A1-D5-Pad19)*%
X97790000Y-116840000D03*
%TO.P,A1,20,D6*%
%TO.N,HEAT*%
X97790000Y-114300000D03*
%TO.P,A1,21,D9*%
%TO.N,unconnected-(A1-D9-Pad21)*%
X97790000Y-111760000D03*
%TO.P,A1,22,D10*%
%TO.N,unconnected-(A1-D10-Pad22)*%
X97790000Y-109220000D03*
%TO.P,A1,23,D11*%
%TO.N,unconnected-(A1-D11-Pad23)*%
X97790000Y-106680000D03*
%TO.P,A1,24,D12*%
%TO.N,unconnected-(A1-D12-Pad24)*%
X97790000Y-104140000D03*
%TO.P,A1,25,D13*%
%TO.N,unconnected-(A1-D13-Pad25)*%
X97790000Y-101600000D03*
%TO.P,A1,26,USB*%
%TO.N,Net-(A1-USB)*%
X97790000Y-99060000D03*
%TO.P,A1,27,EN*%
%TO.N,unconnected-(A1-EN-Pad27)*%
X97790000Y-96520000D03*
%TO.P,A1,28,VBAT*%
%TO.N,unconnected-(A1-VBAT-Pad28)*%
X97790000Y-93980000D03*
%TD*%
D21*
%TO.P,SW1,1,1*%
%TO.N,Net-(Q1-G)*%
X66929000Y-59436000D03*
X66929000Y-52936000D03*
%TO.P,SW1,2,2*%
%TO.N,GND*%
X71429000Y-59436000D03*
X71429000Y-52936000D03*
%TD*%
D10*
%TO.P,R4,1*%
%TO.N,Net-(J1-Pin_2)*%
X53340000Y-124460000D03*
D11*
%TO.P,R4,2*%
%TO.N,Net-(U2-A-)*%
X53340000Y-127000000D03*
%TD*%
D12*
%TO.P,J1,1,Pin_1*%
%TO.N,Net-(J1-Pin_1)*%
X52070000Y-137240000D03*
%TO.P,J1,2,Pin_2*%
%TO.N,Net-(J1-Pin_2)*%
X55880000Y-142240000D03*
%TO.P,J1,3,Pin_3*%
%TO.N,Net-(J1-Pin_1)*%
X59690000Y-137240000D03*
%TO.P,J1,4,Pin_4*%
%TO.N,Net-(J1-Pin_4)*%
X63500000Y-142240000D03*
%TO.P,J1,5,Pin_5*%
%TO.N,Net-(J1-Pin_1)*%
X67310000Y-137240000D03*
%TO.P,J1,6,Pin_6*%
%TO.N,Net-(J1-Pin_6)*%
X71120000Y-142240000D03*
%TO.P,J1,7,Pin_7*%
%TO.N,Net-(J1-Pin_1)*%
X74930000Y-137240000D03*
%TO.P,J1,8,Pin_8*%
%TO.N,Net-(J1-Pin_8)*%
X78740000Y-142240000D03*
%TD*%
%TO.P,J6,1,Pin_1*%
%TO.N,Net-(J6-Pin_1)*%
X57070000Y-78740000D03*
%TO.P,J6,2,Pin_2*%
%TO.N,Net-(J4-Pin_2)*%
X52070000Y-82550000D03*
%TO.P,J6,3,Pin_3*%
%TO.N,Net-(J6-Pin_3)*%
X57070000Y-86360000D03*
%TO.P,J6,4,Pin_4*%
%TO.N,GND*%
X52070000Y-90170000D03*
%TD*%
D15*
%TO.P,Q2,1,G*%
%TO.N,HEAT*%
X69850000Y-66040000D03*
D16*
%TO.P,Q2,2,D*%
%TO.N,Net-(J6-Pin_1)*%
X69850000Y-68580000D03*
%TO.P,Q2,3,S*%
%TO.N,GND*%
X69850000Y-71120000D03*
%TD*%
D10*
%TO.P,R1,1*%
%TO.N,Net-(J1-Pin_8)*%
X64770000Y-124460000D03*
D11*
%TO.P,R1,2*%
%TO.N,Net-(U2-A-)*%
X64770000Y-127000000D03*
%TD*%
D17*
%TO.P,U4,1,Vin*%
%TO.N,+3V3*%
X114300000Y-67310000D03*
%TO.P,U4,2,GND*%
%TO.N,GND*%
X114300000Y-69850000D03*
%TO.P,U4,3,SCL*%
%TO.N,SCL*%
X114300000Y-72390000D03*
%TO.P,U4,4,SDA*%
%TO.N,SDA*%
X114300000Y-74930000D03*
%TO.P,U4,5,BAT*%
%TO.N,Net-(Q3-G)*%
X114300000Y-77470000D03*
%TO.P,U4,6,32K*%
%TO.N,unconnected-(U4-32K-Pad6)*%
X114300000Y-80010000D03*
%TO.P,U4,7,SQW*%
%TO.N,Net-(Q3-S)*%
X114300000Y-82550000D03*
%TO.P,U4,8,~{RST}*%
%TO.N,unconnected-(U4-~{RST}-Pad8)*%
X114300000Y-85090000D03*
%TD*%
D10*
%TO.P,R7,1*%
%TO.N,Net-(J2-Pin_4)*%
X115570000Y-124460000D03*
D11*
%TO.P,R7,2*%
%TO.N,Net-(U3-A-)*%
X115570000Y-127000000D03*
%TD*%
D10*
%TO.P,R8,1*%
%TO.N,Net-(J2-Pin_2)*%
X111760000Y-124460000D03*
D11*
%TO.P,R8,2*%
%TO.N,Net-(U3-A-)*%
X111760000Y-127000000D03*
%TD*%
D12*
%TO.P,J4,1,Pin_1*%
%TO.N,GND*%
X108950000Y-57125000D03*
%TO.P,J4,2,Pin_2*%
%TO.N,Net-(J4-Pin_2)*%
X105140000Y-52125000D03*
%TD*%
D10*
%TO.P,R12,1*%
%TO.N,Net-(J6-Pin_3)*%
X67310000Y-90170000D03*
D11*
%TO.P,R12,2*%
%TO.N,Net-(A1-DAC0{slash}A0)*%
X67310000Y-92710000D03*
%TD*%
D22*
%TO.N,Net-(J1-Pin_1)*%
X52070000Y-137240000D02*
X59690000Y-137240000D01*
X102870000Y-127000000D02*
X104140000Y-125730000D01*
X95250000Y-137240000D02*
X102870000Y-137240000D01*
X104140000Y-125730000D02*
X105410000Y-125730000D01*
X102870000Y-137240000D02*
X110490000Y-137240000D01*
X59690000Y-137240000D02*
X67310000Y-137240000D01*
X102870000Y-137240000D02*
X102870000Y-127000000D01*
X74930000Y-137240000D02*
X95250000Y-137240000D01*
X67310000Y-137240000D02*
X74930000Y-137240000D01*
X110490000Y-137240000D02*
X118110000Y-137240000D01*
D23*
%TO.N,Net-(Q1-G)*%
X83820000Y-76200000D02*
X67040000Y-59420000D01*
X106680000Y-76200000D02*
X83820000Y-76200000D01*
D22*
%TO.N,Net-(U2-A-)*%
X53340000Y-127000000D02*
X60960000Y-127000000D01*
X53340000Y-101600000D02*
X54610000Y-101600000D01*
X50800000Y-104140000D02*
X53340000Y-101600000D01*
X64770000Y-127000000D02*
X60960000Y-127000000D01*
X50800000Y-124460000D02*
X50800000Y-104140000D01*
X53340000Y-127000000D02*
X50800000Y-124460000D01*
%TO.N,Net-(U3-A-)*%
X121920000Y-99060000D02*
X119380000Y-99060000D01*
X119380000Y-127000000D02*
X115570000Y-127000000D01*
X123190000Y-127000000D02*
X119380000Y-127000000D01*
X123190000Y-127000000D02*
X124460000Y-125730000D01*
X124460000Y-101600000D02*
X121920000Y-99060000D01*
X119380000Y-99060000D02*
X116840000Y-101600000D01*
X116840000Y-101600000D02*
X107950000Y-101600000D01*
X115570000Y-127000000D02*
X111760000Y-127000000D01*
X124460000Y-125730000D02*
X124460000Y-101600000D01*
D24*
%TO.N,+3V3*%
X105410000Y-124460000D02*
X107950000Y-121920000D01*
X113030000Y-121920000D02*
X120650000Y-114300000D01*
X107950000Y-121920000D02*
X113030000Y-121920000D01*
D22*
%TO.N,SCL*%
X68580000Y-109220000D02*
X72390000Y-113030000D01*
X118110000Y-106680000D02*
X105410000Y-119380000D01*
X77470000Y-125730000D02*
X91440000Y-125730000D01*
X105410000Y-119380000D02*
X97790000Y-119380000D01*
X123190000Y-107950000D02*
X123190000Y-101600000D01*
X91440000Y-125730000D02*
X97790000Y-119380000D01*
X120650000Y-109220000D02*
X121920000Y-109220000D01*
X121920000Y-100330000D02*
X119380000Y-100330000D01*
X121920000Y-109220000D02*
X123190000Y-107950000D01*
X119380000Y-100330000D02*
X118110000Y-101600000D01*
X118110000Y-101600000D02*
X118110000Y-106680000D01*
X72390000Y-120650000D02*
X77470000Y-125730000D01*
X67310000Y-109220000D02*
X68580000Y-109220000D01*
X123190000Y-101600000D02*
X121920000Y-100330000D01*
X72390000Y-113030000D02*
X72390000Y-120650000D01*
%TO.N,SDA*%
X67310000Y-106680000D02*
X66040000Y-106680000D01*
X64770000Y-118110000D02*
X73660000Y-127000000D01*
X66040000Y-106680000D02*
X64770000Y-107950000D01*
X73660000Y-127000000D02*
X92710000Y-127000000D01*
X105410000Y-121920000D02*
X120650000Y-106680000D01*
X64770000Y-107950000D02*
X64770000Y-118110000D01*
X92710000Y-127000000D02*
X97790000Y-121920000D01*
X97790000Y-121920000D02*
X105410000Y-121920000D01*
%TO.N,Net-(A1-DAC0{slash}A0)*%
X73660000Y-93980000D02*
X77470000Y-93980000D01*
X72390000Y-92710000D02*
X73660000Y-93980000D01*
%TO.N,HEAT*%
X86360000Y-82550000D02*
X69850000Y-66040000D01*
X97790000Y-114300000D02*
X86360000Y-102870000D01*
X86360000Y-102870000D02*
X86360000Y-82550000D01*
D24*
%TO.N,Net-(J4-Pin_2)*%
X53340000Y-83820000D02*
X52070000Y-82550000D01*
X69850000Y-83820000D02*
X53340000Y-83820000D01*
D25*
%TO.N,Net-(Q1-D)*%
X69850000Y-78740000D02*
X68580000Y-78740000D01*
D24*
X68580000Y-78740000D02*
X58420000Y-68580000D01*
D22*
%TO.N,Net-(Q3-S)*%
X110490000Y-78740000D02*
X114300000Y-82550000D01*
X106680000Y-78740000D02*
X110490000Y-78740000D01*
%TO.N,Net-(Q3-G)*%
X114300000Y-77470000D02*
X106680000Y-77470000D01*
%TD*%
%TA.AperFunction,Conductor*%
%TO.N,GND*%
G36*
X66227850Y-107632935D02*
G01*
X66310918Y-107705509D01*
X66310919Y-107705510D01*
X66310922Y-107705512D01*
X66506008Y-107822071D01*
X66506011Y-107822072D01*
X66539596Y-107834677D01*
X66587176Y-107866700D01*
X66615256Y-107916709D01*
X66617830Y-107974005D01*
X66594345Y-108026330D01*
X66549828Y-108062490D01*
X66405847Y-108131827D01*
X66221992Y-108265406D01*
X66064947Y-108429661D01*
X65939753Y-108619324D01*
X65850437Y-108828287D01*
X65799869Y-109049845D01*
X65789672Y-109276869D01*
X65820177Y-109502067D01*
X65855803Y-109611711D01*
X65890404Y-109718200D01*
X65998092Y-109918319D01*
X66071476Y-110010339D01*
X66139783Y-110095993D01*
X66310918Y-110245509D01*
X66310919Y-110245510D01*
X66310922Y-110245512D01*
X66506008Y-110362071D01*
X66540243Y-110374919D01*
X66587821Y-110406942D01*
X66615902Y-110456951D01*
X66618476Y-110514247D01*
X66594992Y-110566572D01*
X66550474Y-110602732D01*
X66520649Y-110617094D01*
X66520648Y-110617096D01*
X67310000Y-111406447D01*
X67310001Y-111406447D01*
X68102352Y-110614094D01*
X68102351Y-110614093D01*
X68079780Y-110605622D01*
X68032200Y-110573598D01*
X68004120Y-110523589D01*
X68001547Y-110466293D01*
X68025032Y-110413969D01*
X68069550Y-110377809D01*
X68075554Y-110374918D01*
X68106407Y-110360059D01*
X68214150Y-110308174D01*
X68214156Y-110308170D01*
X68398005Y-110174596D01*
X68398012Y-110174588D01*
X68404629Y-110169781D01*
X68458117Y-110147626D01*
X68515833Y-110152168D01*
X68565196Y-110182418D01*
X71662681Y-113279902D01*
X71689561Y-113320130D01*
X71699000Y-113367583D01*
X71699000Y-120625374D01*
X71698774Y-120632861D01*
X71695195Y-120692029D01*
X71705879Y-120750332D01*
X71707006Y-120757735D01*
X71714152Y-120816583D01*
X71717643Y-120825788D01*
X71723668Y-120847400D01*
X71725442Y-120857083D01*
X71749772Y-120911143D01*
X71752630Y-120918044D01*
X71754956Y-120924175D01*
X71773656Y-120973482D01*
X71779249Y-120981585D01*
X71790273Y-121001132D01*
X71794311Y-121010104D01*
X71830863Y-121056759D01*
X71835303Y-121062793D01*
X71868979Y-121111582D01*
X71913352Y-121150893D01*
X71918805Y-121156027D01*
X74410542Y-123647764D01*
X76860098Y-126097319D01*
X76890348Y-126146682D01*
X76894890Y-126204398D01*
X76872735Y-126257885D01*
X76828712Y-126295485D01*
X76772417Y-126309000D01*
X73997583Y-126309000D01*
X73950130Y-126299561D01*
X73909902Y-126272681D01*
X65497319Y-117860097D01*
X65470439Y-117819869D01*
X65461000Y-117772416D01*
X65461000Y-114356869D01*
X65789672Y-114356869D01*
X65820177Y-114582067D01*
X65855803Y-114691711D01*
X65890404Y-114798200D01*
X65998092Y-114998319D01*
X66102488Y-115129227D01*
X66139783Y-115175993D01*
X66310918Y-115325509D01*
X66310919Y-115325510D01*
X66310922Y-115325512D01*
X66506008Y-115442071D01*
X66506009Y-115442071D01*
X66506012Y-115442073D01*
X66718770Y-115521922D01*
X66942372Y-115562500D01*
X66942373Y-115562500D01*
X67620696Y-115562500D01*
X67620699Y-115562500D01*
X67790339Y-115547232D01*
X68009404Y-115486774D01*
X68108264Y-115439165D01*
X68214150Y-115388174D01*
X68214153Y-115388172D01*
X68398005Y-115254596D01*
X68555052Y-115090338D01*
X68680246Y-114900677D01*
X68739789Y-114761366D01*
X68769562Y-114691712D01*
X68794587Y-114582068D01*
X68820131Y-114470154D01*
X68830327Y-114243129D01*
X68799822Y-114017932D01*
X68729596Y-113801800D01*
X68621908Y-113601681D01*
X68480217Y-113424007D01*
X68428327Y-113378672D01*
X68309081Y-113274490D01*
X68204203Y-113211828D01*
X68113992Y-113157929D01*
X68113990Y-113157928D01*
X68113988Y-113157927D01*
X68079755Y-113145079D01*
X68032175Y-113113054D01*
X68004095Y-113063045D01*
X68001523Y-113005750D01*
X68025007Y-112953425D01*
X68069525Y-112917265D01*
X68099349Y-112902902D01*
X67310000Y-112113553D01*
X66517646Y-112905904D01*
X66517647Y-112905905D01*
X66540220Y-112914377D01*
X66587799Y-112946401D01*
X66615879Y-112996410D01*
X66618453Y-113053705D01*
X66594968Y-113106030D01*
X66550451Y-113142190D01*
X66405847Y-113211827D01*
X66221992Y-113345406D01*
X66064947Y-113509661D01*
X65939753Y-113699324D01*
X65850437Y-113908287D01*
X65799869Y-114129845D01*
X65789672Y-114356869D01*
X65461000Y-114356869D01*
X65461000Y-111816846D01*
X65790174Y-111816846D01*
X65820668Y-112041957D01*
X65890864Y-112258000D01*
X65998513Y-112458045D01*
X66113815Y-112602630D01*
X66113816Y-112602630D01*
X66956447Y-111760001D01*
X67663553Y-111760001D01*
X68505251Y-112601699D01*
X68505252Y-112601698D01*
X68554659Y-112550025D01*
X68679802Y-112360439D01*
X68769085Y-112151555D01*
X68819632Y-111930087D01*
X68829825Y-111703153D01*
X68799331Y-111478042D01*
X68729135Y-111261999D01*
X68621486Y-111061954D01*
X68506183Y-110917368D01*
X67663553Y-111760000D01*
X67663553Y-111760001D01*
X66956447Y-111760001D01*
X66956447Y-111760000D01*
X66114747Y-110918299D01*
X66114746Y-110918299D01*
X66065341Y-110969974D01*
X65940197Y-111159560D01*
X65850914Y-111368444D01*
X65800367Y-111589912D01*
X65790174Y-111816846D01*
X65461000Y-111816846D01*
X65461000Y-108287584D01*
X65470439Y-108240131D01*
X65497319Y-108199903D01*
X65634732Y-108062490D01*
X66058587Y-107638633D01*
X66111493Y-107607292D01*
X66172953Y-107605222D01*
X66227850Y-107632935D01*
G37*
%TD.AperFunction*%
%TA.AperFunction,Conductor*%
G36*
X113034853Y-49530882D02*
G01*
X113037530Y-49531092D01*
X113086632Y-49534957D01*
X113087244Y-49535008D01*
X113227579Y-49547285D01*
X113245698Y-49550236D01*
X113324494Y-49569153D01*
X113327476Y-49569910D01*
X113432793Y-49598130D01*
X113448150Y-49603343D01*
X113476451Y-49615065D01*
X113528496Y-49636622D01*
X113533376Y-49638770D01*
X113626788Y-49682329D01*
X113639135Y-49688963D01*
X113715163Y-49735553D01*
X113721477Y-49739694D01*
X113804166Y-49797594D01*
X113813551Y-49804860D01*
X113881975Y-49863299D01*
X113889124Y-49869908D01*
X113960090Y-49940874D01*
X113966699Y-49948023D01*
X114025135Y-50016442D01*
X114032414Y-50025844D01*
X114090299Y-50108513D01*
X114094451Y-50114845D01*
X114141028Y-50190852D01*
X114147680Y-50203231D01*
X114191208Y-50296577D01*
X114193388Y-50301531D01*
X114226655Y-50381848D01*
X114231868Y-50397205D01*
X114260067Y-50502442D01*
X114260866Y-50505589D01*
X114279760Y-50584290D01*
X114282714Y-50602430D01*
X114294967Y-50742487D01*
X114295057Y-50743562D01*
X114299118Y-50795145D01*
X114299500Y-50804877D01*
X114299500Y-60935240D01*
X114299459Y-60935446D01*
X114299459Y-60960000D01*
X114299500Y-60960099D01*
X114299617Y-60960383D01*
X114299618Y-60960384D01*
X114299808Y-60960462D01*
X114300000Y-60960541D01*
X114300002Y-60960539D01*
X114324616Y-60960524D01*
X114324616Y-60960528D01*
X114324760Y-60960500D01*
X124455126Y-60960500D01*
X124464853Y-60960882D01*
X124467530Y-60961092D01*
X124516632Y-60964957D01*
X124517244Y-60965008D01*
X124657579Y-60977285D01*
X124675698Y-60980236D01*
X124754494Y-60999153D01*
X124757476Y-60999910D01*
X124862793Y-61028130D01*
X124878150Y-61033343D01*
X124906451Y-61045065D01*
X124958496Y-61066622D01*
X124963376Y-61068770D01*
X125056788Y-61112329D01*
X125069135Y-61118963D01*
X125145163Y-61165553D01*
X125151477Y-61169694D01*
X125234166Y-61227594D01*
X125243551Y-61234860D01*
X125311975Y-61293299D01*
X125319124Y-61299908D01*
X125390090Y-61370874D01*
X125396699Y-61378023D01*
X125455135Y-61446442D01*
X125462414Y-61455844D01*
X125520299Y-61538513D01*
X125524451Y-61544845D01*
X125571028Y-61620852D01*
X125577680Y-61633231D01*
X125621208Y-61726577D01*
X125623388Y-61731531D01*
X125656655Y-61811848D01*
X125661868Y-61827205D01*
X125690067Y-61932442D01*
X125690866Y-61935589D01*
X125709760Y-62014290D01*
X125712714Y-62032430D01*
X125724967Y-62172487D01*
X125725057Y-62173562D01*
X125729118Y-62225145D01*
X125729500Y-62234877D01*
X125729500Y-143505123D01*
X125729117Y-143514855D01*
X125725056Y-143566436D01*
X125724967Y-143567511D01*
X125712714Y-143707568D01*
X125709760Y-143725708D01*
X125690866Y-143804409D01*
X125690067Y-143807556D01*
X125661868Y-143912793D01*
X125656655Y-143928150D01*
X125623388Y-144008467D01*
X125621208Y-144013421D01*
X125577680Y-144106767D01*
X125571025Y-144119153D01*
X125524451Y-144195153D01*
X125520299Y-144201485D01*
X125462414Y-144284154D01*
X125455129Y-144293563D01*
X125396699Y-144361975D01*
X125390090Y-144369124D01*
X125319124Y-144440090D01*
X125311975Y-144446699D01*
X125243563Y-144505129D01*
X125234154Y-144512414D01*
X125151485Y-144570299D01*
X125145153Y-144574451D01*
X125069153Y-144621025D01*
X125056767Y-144627680D01*
X124963421Y-144671208D01*
X124958467Y-144673388D01*
X124878150Y-144706655D01*
X124862793Y-144711868D01*
X124757556Y-144740067D01*
X124754409Y-144740866D01*
X124675708Y-144759760D01*
X124657568Y-144762714D01*
X124517511Y-144774967D01*
X124516436Y-144775056D01*
X124464855Y-144779117D01*
X124455123Y-144779500D01*
X114324760Y-144779500D01*
X114324554Y-144779459D01*
X114299998Y-144779459D01*
X114299807Y-144779538D01*
X114299619Y-144779615D01*
X114299615Y-144779618D01*
X114299459Y-144779999D01*
X114299476Y-144804616D01*
X114299471Y-144804616D01*
X114299500Y-144804760D01*
X114299500Y-154935123D01*
X114299117Y-154944855D01*
X114295056Y-154996436D01*
X114294967Y-154997511D01*
X114282714Y-155137568D01*
X114279760Y-155155708D01*
X114260866Y-155234409D01*
X114260067Y-155237556D01*
X114231868Y-155342793D01*
X114226655Y-155358150D01*
X114193388Y-155438467D01*
X114191208Y-155443421D01*
X114147680Y-155536767D01*
X114141025Y-155549153D01*
X114094451Y-155625153D01*
X114090299Y-155631485D01*
X114032414Y-155714154D01*
X114025129Y-155723563D01*
X113966699Y-155791975D01*
X113960090Y-155799124D01*
X113889124Y-155870090D01*
X113881975Y-155876699D01*
X113813563Y-155935129D01*
X113804154Y-155942414D01*
X113721485Y-156000299D01*
X113715153Y-156004451D01*
X113639153Y-156051025D01*
X113626767Y-156057680D01*
X113533421Y-156101208D01*
X113528467Y-156103388D01*
X113448150Y-156136655D01*
X113432793Y-156141868D01*
X113327556Y-156170067D01*
X113324409Y-156170866D01*
X113245708Y-156189760D01*
X113227568Y-156192714D01*
X113087511Y-156204967D01*
X113086436Y-156205056D01*
X113034855Y-156209117D01*
X113025123Y-156209500D01*
X62234877Y-156209500D01*
X62225147Y-156209118D01*
X62220829Y-156208778D01*
X62173562Y-156205057D01*
X62172487Y-156204967D01*
X62032430Y-156192714D01*
X62014290Y-156189760D01*
X61935589Y-156170866D01*
X61932442Y-156170067D01*
X61827205Y-156141868D01*
X61811848Y-156136655D01*
X61731531Y-156103388D01*
X61726577Y-156101208D01*
X61633224Y-156057676D01*
X61620852Y-156051028D01*
X61573554Y-156022044D01*
X61544845Y-156004451D01*
X61538513Y-156000299D01*
X61503624Y-155975869D01*
X61455839Y-155942410D01*
X61446442Y-155935135D01*
X61378023Y-155876699D01*
X61370874Y-155870090D01*
X61299908Y-155799124D01*
X61293299Y-155791975D01*
X61272545Y-155767675D01*
X61234860Y-155723551D01*
X61227594Y-155714166D01*
X61169694Y-155631477D01*
X61165547Y-155625153D01*
X61118963Y-155549135D01*
X61112329Y-155536788D01*
X61068770Y-155443376D01*
X61066622Y-155438496D01*
X61033343Y-155358150D01*
X61028130Y-155342793D01*
X60999910Y-155237476D01*
X60999153Y-155234494D01*
X60980236Y-155155698D01*
X60977285Y-155137579D01*
X60965008Y-154997244D01*
X60964957Y-154996632D01*
X60960882Y-154944853D01*
X60960500Y-154935126D01*
X60960500Y-144804760D01*
X60960528Y-144804616D01*
X60960524Y-144804616D01*
X60960539Y-144780002D01*
X60960541Y-144780000D01*
X60960461Y-144779808D01*
X60960384Y-144779618D01*
X60960380Y-144779614D01*
X60960194Y-144779538D01*
X60960002Y-144779459D01*
X60935446Y-144779459D01*
X60935240Y-144779500D01*
X50804877Y-144779500D01*
X50795147Y-144779118D01*
X50790829Y-144778778D01*
X50743562Y-144775057D01*
X50742487Y-144774967D01*
X50602430Y-144762714D01*
X50584290Y-144759760D01*
X50505589Y-144740866D01*
X50502442Y-144740067D01*
X50397205Y-144711868D01*
X50381848Y-144706655D01*
X50301531Y-144673388D01*
X50296577Y-144671208D01*
X50203224Y-144627676D01*
X50190852Y-144621028D01*
X50143554Y-144592044D01*
X50114845Y-144574451D01*
X50108513Y-144570299D01*
X50073624Y-144545869D01*
X50025839Y-144512410D01*
X50016442Y-144505135D01*
X49948023Y-144446699D01*
X49940874Y-144440090D01*
X49869908Y-144369124D01*
X49863299Y-144361975D01*
X49842545Y-144337675D01*
X49804860Y-144293551D01*
X49797594Y-144284166D01*
X49739694Y-144201477D01*
X49735547Y-144195153D01*
X49688963Y-144119135D01*
X49682329Y-144106788D01*
X49638770Y-144013376D01*
X49636622Y-144008496D01*
X49603343Y-143928150D01*
X49598130Y-143912793D01*
X49569910Y-143807476D01*
X49569153Y-143804494D01*
X49550236Y-143725698D01*
X49547285Y-143707579D01*
X49535008Y-143567244D01*
X49534957Y-143566632D01*
X49530882Y-143514853D01*
X49530500Y-143505126D01*
X49530500Y-142239999D01*
X54422019Y-142239999D01*
X54441904Y-142479971D01*
X54441904Y-142479974D01*
X54441905Y-142479976D01*
X54501017Y-142713405D01*
X54597745Y-142933922D01*
X54729449Y-143135510D01*
X54892537Y-143312671D01*
X55082561Y-143460572D01*
X55294336Y-143575179D01*
X55522087Y-143653366D01*
X55759601Y-143693000D01*
X56000399Y-143693000D01*
X56237913Y-143653366D01*
X56465664Y-143575179D01*
X56677439Y-143460572D01*
X56867463Y-143312671D01*
X57030551Y-143135510D01*
X57162255Y-142933922D01*
X57258983Y-142713405D01*
X57318095Y-142479976D01*
X57337980Y-142240000D01*
X57337980Y-142239999D01*
X62042019Y-142239999D01*
X62061904Y-142479971D01*
X62061904Y-142479974D01*
X62061905Y-142479976D01*
X62121017Y-142713405D01*
X62217745Y-142933922D01*
X62349449Y-143135510D01*
X62512537Y-143312671D01*
X62702561Y-143460572D01*
X62914336Y-143575179D01*
X63142087Y-143653366D01*
X63379601Y-143693000D01*
X63620399Y-143693000D01*
X63857913Y-143653366D01*
X64085664Y-143575179D01*
X64297439Y-143460572D01*
X64487463Y-143312671D01*
X64650551Y-143135510D01*
X64782255Y-142933922D01*
X64878983Y-142713405D01*
X64938095Y-142479976D01*
X64957980Y-142240000D01*
X64957980Y-142239999D01*
X69662019Y-142239999D01*
X69681904Y-142479971D01*
X69681904Y-142479974D01*
X69681905Y-142479976D01*
X69741017Y-142713405D01*
X69837745Y-142933922D01*
X69969449Y-143135510D01*
X70132537Y-143312671D01*
X70322561Y-143460572D01*
X70534336Y-143575179D01*
X70762087Y-143653366D01*
X70999601Y-143693000D01*
X71240399Y-143693000D01*
X71477913Y-143653366D01*
X71705664Y-143575179D01*
X71917439Y-143460572D01*
X72107463Y-143312671D01*
X72270551Y-143135510D01*
X72402255Y-142933922D01*
X72498983Y-142713405D01*
X72558095Y-142479976D01*
X72577980Y-142240000D01*
X72577980Y-142239999D01*
X77282019Y-142239999D01*
X77301904Y-142479971D01*
X77301904Y-142479974D01*
X77301905Y-142479976D01*
X77361017Y-142713405D01*
X77457745Y-142933922D01*
X77589449Y-143135510D01*
X77752537Y-143312671D01*
X77942561Y-143460572D01*
X78154336Y-143575179D01*
X78382087Y-143653366D01*
X78619601Y-143693000D01*
X78860399Y-143693000D01*
X79097913Y-143653366D01*
X79325664Y-143575179D01*
X79537439Y-143460572D01*
X79727463Y-143312671D01*
X79890551Y-143135510D01*
X80022255Y-142933922D01*
X80081919Y-142797903D01*
X85225794Y-142797903D01*
X85235672Y-143105972D01*
X85284867Y-143410261D01*
X85372570Y-143705760D01*
X85497334Y-143987604D01*
X85497336Y-143987608D01*
X85497337Y-143987609D01*
X85657123Y-144251193D01*
X85849304Y-144492181D01*
X86070724Y-144706614D01*
X86317747Y-144890972D01*
X86586318Y-145042228D01*
X86872025Y-145157899D01*
X87170179Y-145236084D01*
X87475883Y-145275500D01*
X87706974Y-145275500D01*
X87706978Y-145275500D01*
X87756639Y-145272311D01*
X87937601Y-145260693D01*
X88240151Y-145201772D01*
X88532683Y-145104644D01*
X88810393Y-144970907D01*
X89068720Y-144802754D01*
X89095450Y-144779999D01*
X89142356Y-144740067D01*
X89303424Y-144602948D01*
X89451327Y-144440090D01*
X89510646Y-144374774D01*
X89510647Y-144374771D01*
X89510650Y-144374769D01*
X89686996Y-144121963D01*
X89829567Y-143848683D01*
X89881121Y-143708594D01*
X89936020Y-143559416D01*
X90004609Y-143258907D01*
X90034206Y-142952098D01*
X90024327Y-142644022D01*
X89975133Y-142339739D01*
X89945531Y-142240000D01*
X97602019Y-142240000D01*
X97621904Y-142479971D01*
X97621904Y-142479974D01*
X97621905Y-142479976D01*
X97681017Y-142713405D01*
X97777745Y-142933922D01*
X97909449Y-143135510D01*
X98072537Y-143312671D01*
X98262561Y-143460572D01*
X98474336Y-143575179D01*
X98702087Y-143653366D01*
X98939601Y-143693000D01*
X99180399Y-143693000D01*
X99417913Y-143653366D01*
X99645664Y-143575179D01*
X99857439Y-143460572D01*
X100047463Y-143312671D01*
X100210551Y-143135510D01*
X100342255Y-142933922D01*
X100438983Y-142713405D01*
X100498095Y-142479976D01*
X100517980Y-142240000D01*
X105222019Y-142240000D01*
X105241904Y-142479971D01*
X105241904Y-142479974D01*
X105241905Y-142479976D01*
X105301017Y-142713405D01*
X105397745Y-142933922D01*
X105529449Y-143135510D01*
X105692537Y-143312671D01*
X105882561Y-143460572D01*
X106094336Y-143575179D01*
X106322087Y-143653366D01*
X106559601Y-143693000D01*
X106800399Y-143693000D01*
X107037913Y-143653366D01*
X107265664Y-143575179D01*
X107477439Y-143460572D01*
X107667463Y-143312671D01*
X107830551Y-143135510D01*
X107962255Y-142933922D01*
X108058983Y-142713405D01*
X108118095Y-142479976D01*
X108137980Y-142240000D01*
X112842019Y-142240000D01*
X112861904Y-142479971D01*
X112861904Y-142479974D01*
X112861905Y-142479976D01*
X112921017Y-142713405D01*
X113017745Y-142933922D01*
X113149449Y-143135510D01*
X113312537Y-143312671D01*
X113502561Y-143460572D01*
X113714336Y-143575179D01*
X113942087Y-143653366D01*
X114179601Y-143693000D01*
X114420399Y-143693000D01*
X114657913Y-143653366D01*
X114885664Y-143575179D01*
X115097439Y-143460572D01*
X115287463Y-143312671D01*
X115450551Y-143135510D01*
X115582255Y-142933922D01*
X115678983Y-142713405D01*
X115738095Y-142479976D01*
X115757980Y-142240000D01*
X120462019Y-142240000D01*
X120481904Y-142479971D01*
X120481904Y-142479974D01*
X120481905Y-142479976D01*
X120541017Y-142713405D01*
X120637745Y-142933922D01*
X120769449Y-143135510D01*
X120932537Y-143312671D01*
X121122561Y-143460572D01*
X121334336Y-143575179D01*
X121562087Y-143653366D01*
X121799601Y-143693000D01*
X122040399Y-143693000D01*
X122277913Y-143653366D01*
X122505664Y-143575179D01*
X122717439Y-143460572D01*
X122907463Y-143312671D01*
X123070551Y-143135510D01*
X123202255Y-142933922D01*
X123298983Y-142713405D01*
X123358095Y-142479976D01*
X123377980Y-142240000D01*
X123358095Y-142000024D01*
X123298983Y-141766595D01*
X123202255Y-141546078D01*
X123070551Y-141344490D01*
X122907463Y-141167329D01*
X122717439Y-141019428D01*
X122505664Y-140904821D01*
X122505660Y-140904819D01*
X122505659Y-140904819D01*
X122277915Y-140826634D01*
X122040399Y-140787000D01*
X121799601Y-140787000D01*
X121562084Y-140826634D01*
X121334340Y-140904819D01*
X121122559Y-141019429D01*
X120932536Y-141167329D01*
X120769448Y-141344491D01*
X120637745Y-141546077D01*
X120541017Y-141766593D01*
X120481904Y-142000028D01*
X120462019Y-142240000D01*
X115757980Y-142240000D01*
X115738095Y-142000024D01*
X115678983Y-141766595D01*
X115582255Y-141546078D01*
X115450551Y-141344490D01*
X115287463Y-141167329D01*
X115097439Y-141019428D01*
X114885664Y-140904821D01*
X114885660Y-140904819D01*
X114885659Y-140904819D01*
X114657915Y-140826634D01*
X114420399Y-140787000D01*
X114179601Y-140787000D01*
X113942084Y-140826634D01*
X113714340Y-140904819D01*
X113502559Y-141019429D01*
X113312536Y-141167329D01*
X113149448Y-141344491D01*
X113017745Y-141546077D01*
X112921017Y-141766593D01*
X112861904Y-142000028D01*
X112842019Y-142240000D01*
X108137980Y-142240000D01*
X108118095Y-142000024D01*
X108058983Y-141766595D01*
X107962255Y-141546078D01*
X107830551Y-141344490D01*
X107667463Y-141167329D01*
X107477439Y-141019428D01*
X107265664Y-140904821D01*
X107265660Y-140904819D01*
X107265659Y-140904819D01*
X107037915Y-140826634D01*
X106800399Y-140787000D01*
X106559601Y-140787000D01*
X106322084Y-140826634D01*
X106094340Y-140904819D01*
X105882559Y-141019429D01*
X105692536Y-141167329D01*
X105529448Y-141344491D01*
X105397745Y-141546077D01*
X105301017Y-141766593D01*
X105241904Y-142000028D01*
X105222019Y-142240000D01*
X100517980Y-142240000D01*
X100498095Y-142000024D01*
X100438983Y-141766595D01*
X100342255Y-141546078D01*
X100210551Y-141344490D01*
X100047463Y-141167329D01*
X99857439Y-141019428D01*
X99645664Y-140904821D01*
X99645660Y-140904819D01*
X99645659Y-140904819D01*
X99417915Y-140826634D01*
X99180399Y-140787000D01*
X98939601Y-140787000D01*
X98702084Y-140826634D01*
X98474340Y-140904819D01*
X98262559Y-141019429D01*
X98072536Y-141167329D01*
X97909448Y-141344491D01*
X97777745Y-141546077D01*
X97681017Y-141766593D01*
X97621904Y-142000028D01*
X97602019Y-142240000D01*
X89945531Y-142240000D01*
X89887431Y-142044244D01*
X89867856Y-142000024D01*
X89762665Y-141762395D01*
X89681218Y-141628039D01*
X89602877Y-141498807D01*
X89410696Y-141257819D01*
X89189276Y-141043386D01*
X89157174Y-141019428D01*
X88942256Y-140859030D01*
X88942254Y-140859029D01*
X88942253Y-140859028D01*
X88673682Y-140707772D01*
X88387975Y-140592101D01*
X88153417Y-140530592D01*
X88089818Y-140513915D01*
X87837227Y-140481347D01*
X87784117Y-140474500D01*
X87553026Y-140474500D01*
X87553022Y-140474500D01*
X87322397Y-140489307D01*
X87019854Y-140548226D01*
X86887711Y-140592101D01*
X86727317Y-140645356D01*
X86727314Y-140645357D01*
X86727312Y-140645358D01*
X86449612Y-140779089D01*
X86191274Y-140947249D01*
X85956575Y-141147052D01*
X85749353Y-141375225D01*
X85573002Y-141628039D01*
X85430432Y-141901316D01*
X85323979Y-142190583D01*
X85255390Y-142491092D01*
X85225794Y-142797903D01*
X80081919Y-142797903D01*
X80118983Y-142713405D01*
X80178095Y-142479976D01*
X80197980Y-142240000D01*
X80178095Y-142000024D01*
X80118983Y-141766595D01*
X80022255Y-141546078D01*
X79890551Y-141344490D01*
X79727463Y-141167329D01*
X79537439Y-141019428D01*
X79325664Y-140904821D01*
X79325660Y-140904819D01*
X79325659Y-140904819D01*
X79097915Y-140826634D01*
X78860399Y-140787000D01*
X78619601Y-140787000D01*
X78382084Y-140826634D01*
X78154340Y-140904819D01*
X77942559Y-141019429D01*
X77752536Y-141167329D01*
X77589448Y-141344491D01*
X77457745Y-141546077D01*
X77361017Y-141766593D01*
X77301904Y-142000028D01*
X77282019Y-142239999D01*
X72577980Y-142239999D01*
X72558095Y-142000024D01*
X72498983Y-141766595D01*
X72402255Y-141546078D01*
X72270551Y-141344490D01*
X72107463Y-141167329D01*
X71917439Y-141019428D01*
X71705664Y-140904821D01*
X71705660Y-140904819D01*
X71705659Y-140904819D01*
X71477915Y-140826634D01*
X71240399Y-140787000D01*
X70999601Y-140787000D01*
X70762084Y-140826634D01*
X70534340Y-140904819D01*
X70322559Y-141019429D01*
X70132536Y-141167329D01*
X69969448Y-141344491D01*
X69837745Y-141546077D01*
X69741017Y-141766593D01*
X69681904Y-142000028D01*
X69662019Y-142239999D01*
X64957980Y-142239999D01*
X64938095Y-142000024D01*
X64878983Y-141766595D01*
X64782255Y-141546078D01*
X64650551Y-141344490D01*
X64487463Y-141167329D01*
X64297439Y-141019428D01*
X64085664Y-140904821D01*
X64085660Y-140904819D01*
X64085659Y-140904819D01*
X63857915Y-140826634D01*
X63620399Y-140787000D01*
X63379601Y-140787000D01*
X63142084Y-140826634D01*
X62914340Y-140904819D01*
X62702559Y-141019429D01*
X62512536Y-141167329D01*
X62349448Y-141344491D01*
X62217745Y-141546077D01*
X62121017Y-141766593D01*
X62061904Y-142000028D01*
X62042019Y-142239999D01*
X57337980Y-142239999D01*
X57318095Y-142000024D01*
X57258983Y-141766595D01*
X57162255Y-141546078D01*
X57030551Y-141344490D01*
X56867463Y-141167329D01*
X56677439Y-141019428D01*
X56465664Y-140904821D01*
X56465660Y-140904819D01*
X56465659Y-140904819D01*
X56237915Y-140826634D01*
X56000399Y-140787000D01*
X55759601Y-140787000D01*
X55522084Y-140826634D01*
X55294340Y-140904819D01*
X55082559Y-141019429D01*
X54892536Y-141167329D01*
X54729448Y-141344491D01*
X54597745Y-141546077D01*
X54501017Y-141766593D01*
X54441904Y-142000028D01*
X54422019Y-142239999D01*
X49530500Y-142239999D01*
X49530500Y-137240000D01*
X50612019Y-137240000D01*
X50631904Y-137479971D01*
X50631904Y-137479974D01*
X50631905Y-137479976D01*
X50691017Y-137713405D01*
X50787745Y-137933922D01*
X50919449Y-138135510D01*
X51082537Y-138312671D01*
X51272561Y-138460572D01*
X51484336Y-138575179D01*
X51712087Y-138653366D01*
X51949601Y-138693000D01*
X52190399Y-138693000D01*
X52427913Y-138653366D01*
X52655664Y-138575179D01*
X52867439Y-138460572D01*
X53057463Y-138312671D01*
X53220551Y-138135510D01*
X53260415Y-138074493D01*
X53317462Y-137987178D01*
X53362253Y-137945945D01*
X53421270Y-137931000D01*
X58338730Y-137931000D01*
X58397747Y-137945945D01*
X58442538Y-137987178D01*
X58539446Y-138135506D01*
X58539449Y-138135510D01*
X58702537Y-138312671D01*
X58892561Y-138460572D01*
X59104336Y-138575179D01*
X59332087Y-138653366D01*
X59569601Y-138693000D01*
X59810399Y-138693000D01*
X60047913Y-138653366D01*
X60275664Y-138575179D01*
X60487439Y-138460572D01*
X60677463Y-138312671D01*
X60840551Y-138135510D01*
X60880415Y-138074493D01*
X60937462Y-137987178D01*
X60982253Y-137945945D01*
X61041270Y-137931000D01*
X65958730Y-137931000D01*
X66017747Y-137945945D01*
X66062538Y-137987178D01*
X66159446Y-138135506D01*
X66159449Y-138135510D01*
X66322537Y-138312671D01*
X66512561Y-138460572D01*
X66724336Y-138575179D01*
X66952087Y-138653366D01*
X67189601Y-138693000D01*
X67430399Y-138693000D01*
X67667913Y-138653366D01*
X67895664Y-138575179D01*
X68107439Y-138460572D01*
X68297463Y-138312671D01*
X68460551Y-138135510D01*
X68500415Y-138074493D01*
X68557462Y-137987178D01*
X68602253Y-137945945D01*
X68661270Y-137931000D01*
X73578730Y-137931000D01*
X73637747Y-137945945D01*
X73682538Y-137987178D01*
X73779446Y-138135506D01*
X73779449Y-138135510D01*
X73942537Y-138312671D01*
X74132561Y-138460572D01*
X74344336Y-138575179D01*
X74572087Y-138653366D01*
X74809601Y-138693000D01*
X75050399Y-138693000D01*
X75287913Y-138653366D01*
X75515664Y-138575179D01*
X75727439Y-138460572D01*
X75917463Y-138312671D01*
X76080551Y-138135510D01*
X76120415Y-138074493D01*
X76177462Y-137987178D01*
X76222253Y-137945945D01*
X76281270Y-137931000D01*
X93898730Y-137931000D01*
X93957747Y-137945945D01*
X94002538Y-137987178D01*
X94099446Y-138135506D01*
X94099449Y-138135510D01*
X94262537Y-138312671D01*
X94452561Y-138460572D01*
X94664336Y-138575179D01*
X94892087Y-138653366D01*
X95129601Y-138693000D01*
X95370399Y-138693000D01*
X95607913Y-138653366D01*
X95835664Y-138575179D01*
X96047439Y-138460572D01*
X96237463Y-138312671D01*
X96400551Y-138135510D01*
X96440415Y-138074493D01*
X96497462Y-137987178D01*
X96542253Y-137945945D01*
X96601270Y-137931000D01*
X101518730Y-137931000D01*
X101577747Y-137945945D01*
X101622538Y-137987178D01*
X101719446Y-138135506D01*
X101719449Y-138135510D01*
X101882537Y-138312671D01*
X102072561Y-138460572D01*
X102284336Y-138575179D01*
X102512087Y-138653366D01*
X102749601Y-138693000D01*
X102990399Y-138693000D01*
X103227913Y-138653366D01*
X103455664Y-138575179D01*
X103667439Y-138460572D01*
X103857463Y-138312671D01*
X104020551Y-138135510D01*
X104060415Y-138074493D01*
X104117462Y-137987178D01*
X104162253Y-137945945D01*
X104221270Y-137931000D01*
X109138730Y-137931000D01*
X109197747Y-137945945D01*
X109242538Y-137987178D01*
X109339446Y-138135506D01*
X109339449Y-138135510D01*
X109502537Y-138312671D01*
X109692561Y-138460572D01*
X109904336Y-138575179D01*
X110132087Y-138653366D01*
X110369601Y-138693000D01*
X110610399Y-138693000D01*
X110847913Y-138653366D01*
X111075664Y-138575179D01*
X111287439Y-138460572D01*
X111477463Y-138312671D01*
X111640551Y-138135510D01*
X111680415Y-138074493D01*
X111737462Y-137987178D01*
X111782253Y-137945945D01*
X111841270Y-137931000D01*
X116758730Y-137931000D01*
X116817747Y-137945945D01*
X116862538Y-137987178D01*
X116959446Y-138135506D01*
X116959449Y-138135510D01*
X117122537Y-138312671D01*
X117312561Y-138460572D01*
X117524336Y-138575179D01*
X117752087Y-138653366D01*
X117989601Y-138693000D01*
X118230399Y-138693000D01*
X118467913Y-138653366D01*
X118695664Y-138575179D01*
X118907439Y-138460572D01*
X119097463Y-138312671D01*
X119260551Y-138135510D01*
X119392255Y-137933922D01*
X119488983Y-137713405D01*
X119548095Y-137479976D01*
X119567980Y-137240000D01*
X119548095Y-137000024D01*
X119488983Y-136766595D01*
X119392255Y-136546078D01*
X119260551Y-136344490D01*
X119097463Y-136167329D01*
X118907439Y-136019428D01*
X118695664Y-135904821D01*
X118695660Y-135904819D01*
X118695659Y-135904819D01*
X118467915Y-135826634D01*
X118230399Y-135787000D01*
X117989601Y-135787000D01*
X117752084Y-135826634D01*
X117524340Y-135904819D01*
X117312559Y-136019429D01*
X117122536Y-136167329D01*
X116959446Y-136344493D01*
X116862538Y-136492822D01*
X116817747Y-136534055D01*
X116758730Y-136549000D01*
X111841270Y-136549000D01*
X111782253Y-136534055D01*
X111737462Y-136492822D01*
X111640553Y-136344493D01*
X111640552Y-136344492D01*
X111640551Y-136344490D01*
X111477463Y-136167329D01*
X111287439Y-136019428D01*
X111075664Y-135904821D01*
X111075660Y-135904819D01*
X111075659Y-135904819D01*
X110847915Y-135826634D01*
X110610399Y-135787000D01*
X110369601Y-135787000D01*
X110132084Y-135826634D01*
X109904340Y-135904819D01*
X109692559Y-136019429D01*
X109502536Y-136167329D01*
X109339446Y-136344493D01*
X109242538Y-136492822D01*
X109197747Y-136534055D01*
X109138730Y-136549000D01*
X104221270Y-136549000D01*
X104162253Y-136534055D01*
X104117462Y-136492822D01*
X104020553Y-136344493D01*
X104020552Y-136344492D01*
X104020551Y-136344490D01*
X103857463Y-136167329D01*
X103667439Y-136019428D01*
X103657975Y-136014306D01*
X103625982Y-135996992D01*
X103578477Y-135951411D01*
X103561000Y-135887938D01*
X103561000Y-127337584D01*
X103570439Y-127290131D01*
X103597254Y-127250000D01*
X104189715Y-127250000D01*
X104233441Y-127394150D01*
X104328620Y-127572215D01*
X104456707Y-127728292D01*
X104612784Y-127856379D01*
X104790848Y-127951557D01*
X104984067Y-128010170D01*
X105134639Y-128025000D01*
X105160000Y-128025000D01*
X105160000Y-127250000D01*
X105660000Y-127250000D01*
X105660000Y-128025000D01*
X105685361Y-128025000D01*
X105835932Y-128010170D01*
X106029151Y-127951557D01*
X106207215Y-127856379D01*
X106363292Y-127728292D01*
X106491379Y-127572215D01*
X106586558Y-127394150D01*
X106630285Y-127250000D01*
X105660000Y-127250000D01*
X105160000Y-127250000D01*
X104189715Y-127250000D01*
X103597254Y-127250000D01*
X103597319Y-127249903D01*
X103826347Y-127020875D01*
X104060903Y-126786318D01*
X104101130Y-126759439D01*
X104148583Y-126750000D01*
X105072685Y-126750000D01*
X105084838Y-126750596D01*
X105134620Y-126755500D01*
X105685380Y-126755500D01*
X105735161Y-126750597D01*
X105747315Y-126750000D01*
X106630285Y-126750000D01*
X106586558Y-126605850D01*
X106489348Y-126423984D01*
X106474706Y-126365530D01*
X106489348Y-126307077D01*
X106491798Y-126302494D01*
X106587023Y-126124341D01*
X106645662Y-125931033D01*
X106665462Y-125730000D01*
X106645662Y-125528967D01*
X106587023Y-125335659D01*
X106587019Y-125335652D01*
X106586693Y-125334576D01*
X106583228Y-125277104D01*
X106597748Y-125243545D01*
X106603794Y-125227332D01*
X106603796Y-125227331D01*
X106654091Y-125092483D01*
X106660500Y-125032873D01*
X106660499Y-124417686D01*
X106669938Y-124370234D01*
X106696815Y-124330009D01*
X108252507Y-122774319D01*
X108292736Y-122747439D01*
X108340189Y-122738000D01*
X113122164Y-122738000D01*
X113122166Y-122738000D01*
X113160459Y-122729258D01*
X113174136Y-122726934D01*
X113213174Y-122722537D01*
X113250239Y-122709566D01*
X113263595Y-122705718D01*
X113301878Y-122696982D01*
X113337267Y-122679938D01*
X113350087Y-122674628D01*
X113387163Y-122661656D01*
X113420434Y-122640749D01*
X113432559Y-122634048D01*
X113467956Y-122617003D01*
X113498654Y-122592520D01*
X113509979Y-122584484D01*
X113543242Y-122563585D01*
X113673585Y-122433242D01*
X113673585Y-122433240D01*
X113683789Y-122423037D01*
X113683792Y-122423032D01*
X120508007Y-115598819D01*
X120548236Y-115571939D01*
X120595689Y-115562500D01*
X120960696Y-115562500D01*
X120960699Y-115562500D01*
X121130339Y-115547232D01*
X121349404Y-115486774D01*
X121448264Y-115439165D01*
X121554150Y-115388174D01*
X121554153Y-115388172D01*
X121738005Y-115254596D01*
X121895052Y-115090338D01*
X122020246Y-114900677D01*
X122079789Y-114761366D01*
X122109562Y-114691712D01*
X122134587Y-114582068D01*
X122160131Y-114470154D01*
X122170327Y-114243129D01*
X122139822Y-114017932D01*
X122069596Y-113801800D01*
X121961908Y-113601681D01*
X121820217Y-113424007D01*
X121768327Y-113378672D01*
X121649081Y-113274490D01*
X121544203Y-113211828D01*
X121453992Y-113157929D01*
X121453990Y-113157928D01*
X121453988Y-113157927D01*
X121419755Y-113145079D01*
X121372175Y-113113054D01*
X121344095Y-113063045D01*
X121341523Y-113005750D01*
X121365007Y-112953425D01*
X121409525Y-112917265D01*
X121439349Y-112902902D01*
X120650000Y-112113553D01*
X119857646Y-112905904D01*
X119857647Y-112905905D01*
X119880220Y-112914377D01*
X119927799Y-112946401D01*
X119955879Y-112996410D01*
X119958453Y-113053705D01*
X119934968Y-113106030D01*
X119890451Y-113142190D01*
X119745847Y-113211827D01*
X119561992Y-113345406D01*
X119404947Y-113509661D01*
X119279753Y-113699324D01*
X119190437Y-113908287D01*
X119139869Y-114129845D01*
X119129672Y-114356869D01*
X119158006Y-114566036D01*
X119152622Y-114622320D01*
X119122809Y-114670362D01*
X112727493Y-121065681D01*
X112687265Y-121092561D01*
X112639812Y-121102000D01*
X108042166Y-121102000D01*
X107857833Y-121102000D01*
X107843753Y-121105213D01*
X107819547Y-121110738D01*
X107805843Y-121113066D01*
X107766823Y-121117463D01*
X107729752Y-121130433D01*
X107716398Y-121134280D01*
X107678123Y-121143016D01*
X107642741Y-121160055D01*
X107629901Y-121165373D01*
X107592838Y-121178342D01*
X107559589Y-121199234D01*
X107547423Y-121205958D01*
X107512045Y-121222996D01*
X107481351Y-121247474D01*
X107470011Y-121255520D01*
X107436760Y-121276413D01*
X107345483Y-121367687D01*
X107345481Y-121367691D01*
X105314991Y-123398181D01*
X105274763Y-123425061D01*
X105227310Y-123434500D01*
X104612130Y-123434500D01*
X104552515Y-123440909D01*
X104417669Y-123491204D01*
X104302454Y-123577454D01*
X104216204Y-123692668D01*
X104165909Y-123827516D01*
X104159500Y-123887131D01*
X104159500Y-124920577D01*
X104146436Y-124975978D01*
X104109995Y-125019706D01*
X104057857Y-125042545D01*
X104039674Y-125045878D01*
X104032266Y-125047005D01*
X103973418Y-125054152D01*
X103973416Y-125054152D01*
X103973413Y-125054153D01*
X103964203Y-125057645D01*
X103942604Y-125063666D01*
X103932916Y-125065441D01*
X103878865Y-125089768D01*
X103871956Y-125092630D01*
X103832914Y-125107437D01*
X103816515Y-125113657D01*
X103808415Y-125119248D01*
X103788876Y-125130268D01*
X103779897Y-125134309D01*
X103733237Y-125170863D01*
X103727211Y-125175297D01*
X103678418Y-125208979D01*
X103639105Y-125253352D01*
X103633973Y-125258803D01*
X102398804Y-126493972D01*
X102393352Y-126499104D01*
X102348980Y-126538415D01*
X102315298Y-126587212D01*
X102310861Y-126593243D01*
X102274312Y-126639894D01*
X102274312Y-126639895D01*
X102270269Y-126648875D01*
X102259252Y-126668409D01*
X102253656Y-126676515D01*
X102232632Y-126731950D01*
X102229768Y-126738864D01*
X102205441Y-126792917D01*
X102203666Y-126802604D01*
X102197645Y-126824203D01*
X102194153Y-126833413D01*
X102187006Y-126892266D01*
X102185879Y-126899668D01*
X102175195Y-126957971D01*
X102178774Y-127017139D01*
X102179000Y-127024626D01*
X102179000Y-135887938D01*
X102161523Y-135951411D01*
X102114018Y-135996992D01*
X102072564Y-136019426D01*
X101882536Y-136167329D01*
X101719446Y-136344493D01*
X101622538Y-136492822D01*
X101577747Y-136534055D01*
X101518730Y-136549000D01*
X96601270Y-136549000D01*
X96542253Y-136534055D01*
X96497462Y-136492822D01*
X96400553Y-136344493D01*
X96400552Y-136344492D01*
X96400551Y-136344490D01*
X96237463Y-136167329D01*
X96047439Y-136019428D01*
X95835664Y-135904821D01*
X95835660Y-135904819D01*
X95835659Y-135904819D01*
X95607915Y-135826634D01*
X95370399Y-135787000D01*
X95129601Y-135787000D01*
X94892084Y-135826634D01*
X94664340Y-135904819D01*
X94452559Y-136019429D01*
X94262536Y-136167329D01*
X94099446Y-136344493D01*
X94002538Y-136492822D01*
X93957747Y-136534055D01*
X93898730Y-136549000D01*
X76281270Y-136549000D01*
X76222253Y-136534055D01*
X76177462Y-136492822D01*
X76080553Y-136344493D01*
X76080552Y-136344492D01*
X76080551Y-136344490D01*
X75917463Y-136167329D01*
X75727439Y-136019428D01*
X75515664Y-135904821D01*
X75515660Y-135904819D01*
X75515659Y-135904819D01*
X75287915Y-135826634D01*
X75050399Y-135787000D01*
X74809601Y-135787000D01*
X74572084Y-135826634D01*
X74344340Y-135904819D01*
X74132559Y-136019429D01*
X73942536Y-136167329D01*
X73779446Y-136344493D01*
X73682538Y-136492822D01*
X73637747Y-136534055D01*
X73578730Y-136549000D01*
X68661270Y-136549000D01*
X68602253Y-136534055D01*
X68557462Y-136492822D01*
X68460553Y-136344493D01*
X68460552Y-136344492D01*
X68460551Y-136344490D01*
X68297463Y-136167329D01*
X68107439Y-136019428D01*
X67895664Y-135904821D01*
X67895660Y-135904819D01*
X67895659Y-135904819D01*
X67667915Y-135826634D01*
X67430399Y-135787000D01*
X67189601Y-135787000D01*
X66952084Y-135826634D01*
X66724340Y-135904819D01*
X66512559Y-136019429D01*
X66322536Y-136167329D01*
X66159446Y-136344493D01*
X66062538Y-136492822D01*
X66017747Y-136534055D01*
X65958730Y-136549000D01*
X61041270Y-136549000D01*
X60982253Y-136534055D01*
X60937462Y-136492822D01*
X60840553Y-136344493D01*
X60840552Y-136344492D01*
X60840551Y-136344490D01*
X60677463Y-136167329D01*
X60487439Y-136019428D01*
X60275664Y-135904821D01*
X60275660Y-135904819D01*
X60275659Y-135904819D01*
X60047915Y-135826634D01*
X59810399Y-135787000D01*
X59569601Y-135787000D01*
X59332084Y-135826634D01*
X59104340Y-135904819D01*
X58892559Y-136019429D01*
X58702536Y-136167329D01*
X58539446Y-136344493D01*
X58442538Y-136492822D01*
X58397747Y-136534055D01*
X58338730Y-136549000D01*
X53421270Y-136549000D01*
X53362253Y-136534055D01*
X53317462Y-136492822D01*
X53220553Y-136344493D01*
X53220552Y-136344492D01*
X53220551Y-136344490D01*
X53057463Y-136167329D01*
X52867439Y-136019428D01*
X52655664Y-135904821D01*
X52655660Y-135904819D01*
X52655659Y-135904819D01*
X52427915Y-135826634D01*
X52190399Y-135787000D01*
X51949601Y-135787000D01*
X51712084Y-135826634D01*
X51484340Y-135904819D01*
X51272559Y-136019429D01*
X51082536Y-136167329D01*
X50919448Y-136344491D01*
X50787745Y-136546077D01*
X50691017Y-136766593D01*
X50631904Y-137000028D01*
X50612019Y-137240000D01*
X49530500Y-137240000D01*
X49530500Y-124502029D01*
X50105195Y-124502029D01*
X50115879Y-124560332D01*
X50117006Y-124567735D01*
X50124152Y-124626583D01*
X50127643Y-124635788D01*
X50133668Y-124657400D01*
X50135442Y-124667083D01*
X50159772Y-124721143D01*
X50162630Y-124728044D01*
X50183656Y-124783482D01*
X50189249Y-124791585D01*
X50200273Y-124811132D01*
X50204311Y-124820104D01*
X50240863Y-124866759D01*
X50245303Y-124872793D01*
X50278979Y-124921582D01*
X50323352Y-124960893D01*
X50328805Y-124966027D01*
X52112567Y-126749789D01*
X52141516Y-126795358D01*
X52148357Y-126848911D01*
X52134357Y-126999999D01*
X52154885Y-127221537D01*
X52215769Y-127435526D01*
X52314941Y-127634688D01*
X52449019Y-127812237D01*
X52613437Y-127962124D01*
X52802595Y-128079245D01*
X52802597Y-128079245D01*
X52802599Y-128079247D01*
X53010060Y-128159618D01*
X53228757Y-128200500D01*
X53451241Y-128200500D01*
X53451243Y-128200500D01*
X53669940Y-128159618D01*
X53877401Y-128079247D01*
X54066562Y-127962124D01*
X54230981Y-127812236D01*
X54285324Y-127740273D01*
X54329007Y-127704000D01*
X54384279Y-127691000D01*
X56105721Y-127691000D01*
X56160993Y-127704000D01*
X56204675Y-127740273D01*
X56259019Y-127812237D01*
X56423437Y-127962124D01*
X56612595Y-128079245D01*
X56612597Y-128079245D01*
X56612599Y-128079247D01*
X56820060Y-128159618D01*
X57038757Y-128200500D01*
X57261241Y-128200500D01*
X57261243Y-128200500D01*
X57479940Y-128159618D01*
X57687401Y-128079247D01*
X57876562Y-127962124D01*
X58040981Y-127812236D01*
X58095324Y-127740273D01*
X58139007Y-127704000D01*
X58194279Y-127691000D01*
X59915721Y-127691000D01*
X59970993Y-127704000D01*
X60014675Y-127740273D01*
X60069019Y-127812237D01*
X60233437Y-127962124D01*
X60422595Y-128079245D01*
X60422597Y-128079245D01*
X60422599Y-128079247D01*
X60630060Y-128159618D01*
X60848757Y-128200500D01*
X61071241Y-128200500D01*
X61071243Y-128200500D01*
X61289940Y-128159618D01*
X61497401Y-128079247D01*
X61686562Y-127962124D01*
X61850981Y-127812236D01*
X61905324Y-127740273D01*
X61949007Y-127704000D01*
X62004279Y-127691000D01*
X63725721Y-127691000D01*
X63780993Y-127704000D01*
X63824675Y-127740273D01*
X63879019Y-127812237D01*
X64043437Y-127962124D01*
X64232595Y-128079245D01*
X64232597Y-128079245D01*
X64232599Y-128079247D01*
X64440060Y-128159618D01*
X64658757Y-128200500D01*
X64881241Y-128200500D01*
X64881243Y-128200500D01*
X65099940Y-128159618D01*
X65307401Y-128079247D01*
X65496562Y-127962124D01*
X65660981Y-127812236D01*
X65795058Y-127634689D01*
X65894229Y-127435528D01*
X65955115Y-127221536D01*
X65975643Y-127000000D01*
X65955115Y-126778464D01*
X65921165Y-126659142D01*
X65894230Y-126564473D01*
X65795058Y-126365311D01*
X65660980Y-126187762D01*
X65496562Y-126037875D01*
X65307404Y-125920754D01*
X65268746Y-125905778D01*
X65113474Y-125845625D01*
X65065106Y-125811831D01*
X65037832Y-125759504D01*
X65037832Y-125700496D01*
X65065106Y-125648169D01*
X65113474Y-125614374D01*
X65307401Y-125539247D01*
X65496562Y-125422124D01*
X65660981Y-125272236D01*
X65795058Y-125094689D01*
X65894229Y-124895528D01*
X65902415Y-124866759D01*
X65926109Y-124783482D01*
X65955115Y-124681536D01*
X65975643Y-124460000D01*
X65955115Y-124238464D01*
X65932227Y-124158021D01*
X65894230Y-124024473D01*
X65795058Y-123825311D01*
X65660980Y-123647762D01*
X65496562Y-123497875D01*
X65307404Y-123380754D01*
X65180205Y-123331477D01*
X65099940Y-123300382D01*
X64881243Y-123259500D01*
X64658757Y-123259500D01*
X64474361Y-123293970D01*
X64440060Y-123300382D01*
X64232595Y-123380754D01*
X64043437Y-123497875D01*
X63879019Y-123647762D01*
X63744941Y-123825311D01*
X63645769Y-124024473D01*
X63584885Y-124238462D01*
X63573037Y-124366326D01*
X63564357Y-124460000D01*
X63569143Y-124511647D01*
X63584885Y-124681537D01*
X63645769Y-124895526D01*
X63744941Y-125094688D01*
X63879019Y-125272237D01*
X64043437Y-125422124D01*
X64197209Y-125517334D01*
X64232599Y-125539247D01*
X64426523Y-125614373D01*
X64474893Y-125648169D01*
X64502167Y-125700496D01*
X64502167Y-125759504D01*
X64474893Y-125811831D01*
X64426523Y-125845626D01*
X64295346Y-125896444D01*
X64232596Y-125920754D01*
X64043437Y-126037875D01*
X63879019Y-126187762D01*
X63824675Y-126259727D01*
X63780993Y-126296000D01*
X63725721Y-126309000D01*
X62004279Y-126309000D01*
X61949007Y-126296000D01*
X61905325Y-126259727D01*
X61850980Y-126187762D01*
X61686562Y-126037875D01*
X61497404Y-125920754D01*
X61458746Y-125905778D01*
X61303474Y-125845625D01*
X61255106Y-125811831D01*
X61227832Y-125759504D01*
X61227832Y-125700496D01*
X61255106Y-125648169D01*
X61303474Y-125614374D01*
X61497401Y-125539247D01*
X61686562Y-125422124D01*
X61850981Y-125272236D01*
X61985058Y-125094689D01*
X62084229Y-124895528D01*
X62092415Y-124866759D01*
X62116109Y-124783482D01*
X62145115Y-124681536D01*
X62165643Y-124460000D01*
X62145115Y-124238464D01*
X62122227Y-124158021D01*
X62084230Y-124024473D01*
X61985058Y-123825311D01*
X61850980Y-123647762D01*
X61686562Y-123497875D01*
X61497404Y-123380754D01*
X61370205Y-123331477D01*
X61289940Y-123300382D01*
X61071243Y-123259500D01*
X60848757Y-123259500D01*
X60664361Y-123293970D01*
X60630060Y-123300382D01*
X60422595Y-123380754D01*
X60233437Y-123497875D01*
X60069019Y-123647762D01*
X59934941Y-123825311D01*
X59835769Y-124024473D01*
X59774885Y-124238462D01*
X59763037Y-124366326D01*
X59754357Y-124460000D01*
X59759143Y-124511647D01*
X59774885Y-124681537D01*
X59835769Y-124895526D01*
X59934941Y-125094688D01*
X60069019Y-125272237D01*
X60233437Y-125422124D01*
X60387209Y-125517334D01*
X60422599Y-125539247D01*
X60616523Y-125614373D01*
X60664893Y-125648169D01*
X60692167Y-125700496D01*
X60692167Y-125759504D01*
X60664893Y-125811831D01*
X60616523Y-125845626D01*
X60485346Y-125896444D01*
X60422596Y-125920754D01*
X60233437Y-126037875D01*
X60069019Y-126187762D01*
X60014675Y-126259727D01*
X59970993Y-126296000D01*
X59915721Y-126309000D01*
X58194279Y-126309000D01*
X58139007Y-126296000D01*
X58095325Y-126259727D01*
X58040980Y-126187762D01*
X57876562Y-126037875D01*
X57687404Y-125920754D01*
X57648746Y-125905778D01*
X57493474Y-125845625D01*
X57445106Y-125811831D01*
X57417832Y-125759504D01*
X57417832Y-125700496D01*
X57445106Y-125648169D01*
X57493474Y-125614374D01*
X57687401Y-125539247D01*
X57876562Y-125422124D01*
X58040981Y-125272236D01*
X58175058Y-125094689D01*
X58274229Y-124895528D01*
X58282415Y-124866759D01*
X58306109Y-124783482D01*
X58335115Y-124681536D01*
X58355643Y-124460000D01*
X58335115Y-124238464D01*
X58312227Y-124158021D01*
X58274230Y-124024473D01*
X58175058Y-123825311D01*
X58040980Y-123647762D01*
X57876562Y-123497875D01*
X57687404Y-123380754D01*
X57560205Y-123331477D01*
X57479940Y-123300382D01*
X57261243Y-123259500D01*
X57038757Y-123259500D01*
X56854361Y-123293970D01*
X56820060Y-123300382D01*
X56612595Y-123380754D01*
X56423437Y-123497875D01*
X56259019Y-123647762D01*
X56124941Y-123825311D01*
X56025769Y-124024473D01*
X55964885Y-124238462D01*
X55953037Y-124366326D01*
X55944357Y-124460000D01*
X55949143Y-124511647D01*
X55964885Y-124681537D01*
X56025769Y-124895526D01*
X56124941Y-125094688D01*
X56259019Y-125272237D01*
X56423437Y-125422124D01*
X56577209Y-125517334D01*
X56612599Y-125539247D01*
X56806523Y-125614373D01*
X56854893Y-125648169D01*
X56882167Y-125700496D01*
X56882167Y-125759504D01*
X56854893Y-125811831D01*
X56806523Y-125845626D01*
X56675346Y-125896444D01*
X56612596Y-125920754D01*
X56423437Y-126037875D01*
X56259019Y-126187762D01*
X56204675Y-126259727D01*
X56160993Y-126296000D01*
X56105721Y-126309000D01*
X54384279Y-126309000D01*
X54329007Y-126296000D01*
X54285325Y-126259727D01*
X54230980Y-126187762D01*
X54066562Y-126037875D01*
X53877404Y-125920754D01*
X53838746Y-125905778D01*
X53683474Y-125845625D01*
X53635106Y-125811831D01*
X53607832Y-125759504D01*
X53607832Y-125700496D01*
X53635106Y-125648169D01*
X53683474Y-125614374D01*
X53877401Y-125539247D01*
X54066562Y-125422124D01*
X54230981Y-125272236D01*
X54365058Y-125094689D01*
X54464229Y-124895528D01*
X54472415Y-124866759D01*
X54496109Y-124783482D01*
X54525115Y-124681536D01*
X54545643Y-124460000D01*
X54525115Y-124238464D01*
X54502227Y-124158021D01*
X54464230Y-124024473D01*
X54365058Y-123825311D01*
X54230980Y-123647762D01*
X54066562Y-123497875D01*
X53877404Y-123380754D01*
X53750205Y-123331477D01*
X53669940Y-123300382D01*
X53451243Y-123259500D01*
X53228757Y-123259500D01*
X53044361Y-123293970D01*
X53010060Y-123300382D01*
X52802595Y-123380754D01*
X52613437Y-123497875D01*
X52449019Y-123647762D01*
X52314941Y-123825311D01*
X52215769Y-124024473D01*
X52154885Y-124238462D01*
X52134357Y-124460000D01*
X52139142Y-124511647D01*
X52130011Y-124571070D01*
X52094002Y-124619213D01*
X52039581Y-124644760D01*
X51979538Y-124641706D01*
X51927990Y-124610768D01*
X51527319Y-124210097D01*
X51500439Y-124169869D01*
X51491000Y-124122416D01*
X51491000Y-118152029D01*
X64075195Y-118152029D01*
X64085879Y-118210332D01*
X64087006Y-118217735D01*
X64094152Y-118276583D01*
X64097643Y-118285788D01*
X64103668Y-118307400D01*
X64105442Y-118317083D01*
X64129772Y-118371143D01*
X64132630Y-118378044D01*
X64153656Y-118433482D01*
X64159249Y-118441585D01*
X64170273Y-118461132D01*
X64174311Y-118470104D01*
X64210863Y-118516759D01*
X64215303Y-118522793D01*
X64248979Y-118571582D01*
X64293352Y-118610893D01*
X64298805Y-118616027D01*
X73153971Y-127471192D01*
X73159091Y-127476630D01*
X73198417Y-127521020D01*
X73224170Y-127538795D01*
X73247211Y-127554700D01*
X73253245Y-127559140D01*
X73299895Y-127595688D01*
X73308862Y-127599724D01*
X73328416Y-127610751D01*
X73336518Y-127616344D01*
X73391938Y-127637362D01*
X73398848Y-127640224D01*
X73452916Y-127664558D01*
X73462595Y-127666331D01*
X73484225Y-127672361D01*
X73493418Y-127675848D01*
X73552244Y-127682990D01*
X73559636Y-127684114D01*
X73617972Y-127694806D01*
X73674518Y-127691385D01*
X73677150Y-127691226D01*
X73684637Y-127691000D01*
X92685374Y-127691000D01*
X92692861Y-127691226D01*
X92752028Y-127694805D01*
X92752028Y-127694804D01*
X92752030Y-127694805D01*
X92810336Y-127684119D01*
X92817725Y-127682994D01*
X92876582Y-127675848D01*
X92885790Y-127672355D01*
X92907398Y-127666332D01*
X92917085Y-127664557D01*
X92971161Y-127640218D01*
X92978045Y-127637368D01*
X93033482Y-127616344D01*
X93041585Y-127610750D01*
X93061137Y-127599723D01*
X93070105Y-127595688D01*
X93116776Y-127559122D01*
X93122769Y-127554711D01*
X93171583Y-127521020D01*
X93210902Y-127476635D01*
X93216003Y-127471217D01*
X97341402Y-123345819D01*
X97381630Y-123318939D01*
X97429083Y-123309500D01*
X98230031Y-123309500D01*
X98305734Y-123303056D01*
X98406676Y-123294465D01*
X98635571Y-123234865D01*
X98851102Y-123137439D01*
X99047068Y-123004990D01*
X99217831Y-122841327D01*
X99341126Y-122674620D01*
X99351003Y-122661266D01*
X99394874Y-122624277D01*
X99450699Y-122611000D01*
X105385374Y-122611000D01*
X105392861Y-122611226D01*
X105452028Y-122614805D01*
X105452028Y-122614804D01*
X105452030Y-122614805D01*
X105510336Y-122604119D01*
X105517725Y-122602994D01*
X105576582Y-122595848D01*
X105585790Y-122592355D01*
X105607398Y-122586332D01*
X105617085Y-122584557D01*
X105671161Y-122560218D01*
X105678045Y-122557368D01*
X105733482Y-122536344D01*
X105741585Y-122530750D01*
X105761137Y-122519723D01*
X105770105Y-122515688D01*
X105816776Y-122479122D01*
X105822769Y-122474711D01*
X105871583Y-122441020D01*
X105910902Y-122396635D01*
X105916003Y-122391217D01*
X116490373Y-111816846D01*
X119130174Y-111816846D01*
X119160668Y-112041957D01*
X119230864Y-112258000D01*
X119338513Y-112458045D01*
X119453815Y-112602630D01*
X119453816Y-112602630D01*
X120296447Y-111760001D01*
X121003553Y-111760001D01*
X121845251Y-112601699D01*
X121845252Y-112601698D01*
X121894659Y-112550025D01*
X122019802Y-112360439D01*
X122109085Y-112151555D01*
X122159632Y-111930087D01*
X122169825Y-111703153D01*
X122139331Y-111478042D01*
X122069135Y-111261999D01*
X121961486Y-111061954D01*
X121846183Y-110917368D01*
X121003553Y-111760000D01*
X121003553Y-111760001D01*
X120296447Y-111760001D01*
X120296447Y-111760000D01*
X119454747Y-110918299D01*
X119454746Y-110918299D01*
X119405341Y-110969974D01*
X119280197Y-111159560D01*
X119190914Y-111368444D01*
X119140367Y-111589912D01*
X119130174Y-111816846D01*
X116490373Y-111816846D01*
X118940860Y-109366359D01*
X119000268Y-109333308D01*
X119068177Y-109336548D01*
X119124171Y-109375108D01*
X119151417Y-109437396D01*
X119160177Y-109502067D01*
X119195803Y-109611711D01*
X119230404Y-109718200D01*
X119338092Y-109918319D01*
X119411476Y-110010339D01*
X119479783Y-110095993D01*
X119650918Y-110245509D01*
X119650919Y-110245510D01*
X119650922Y-110245512D01*
X119846008Y-110362071D01*
X119880243Y-110374919D01*
X119927821Y-110406942D01*
X119955902Y-110456951D01*
X119958476Y-110514247D01*
X119934992Y-110566572D01*
X119890474Y-110602732D01*
X119860649Y-110617094D01*
X119860648Y-110617096D01*
X120650000Y-111406447D01*
X120650001Y-111406447D01*
X121442352Y-110614094D01*
X121442351Y-110614093D01*
X121419780Y-110605622D01*
X121372200Y-110573598D01*
X121344120Y-110523589D01*
X121341547Y-110466293D01*
X121365032Y-110413969D01*
X121409550Y-110377809D01*
X121414600Y-110375377D01*
X121554153Y-110308172D01*
X121738005Y-110174596D01*
X121895052Y-110010338D01*
X121928447Y-109959744D01*
X121963528Y-109924633D01*
X122009574Y-109906091D01*
X122020349Y-109904116D01*
X122027725Y-109902994D01*
X122086582Y-109895848D01*
X122095790Y-109892355D01*
X122117398Y-109886332D01*
X122127085Y-109884557D01*
X122181161Y-109860218D01*
X122188045Y-109857368D01*
X122243482Y-109836344D01*
X122251585Y-109830750D01*
X122271137Y-109819723D01*
X122280105Y-109815688D01*
X122326776Y-109779122D01*
X122332769Y-109774711D01*
X122381583Y-109741020D01*
X122420902Y-109696635D01*
X122426003Y-109691217D01*
X123557319Y-108559901D01*
X123606682Y-108529652D01*
X123664398Y-108525110D01*
X123717885Y-108547265D01*
X123755485Y-108591288D01*
X123769000Y-108647583D01*
X123769000Y-123215851D01*
X123754694Y-123273672D01*
X123715077Y-123318151D01*
X123659290Y-123339025D01*
X123600206Y-123331477D01*
X123519944Y-123300383D01*
X123519941Y-123300382D01*
X123519940Y-123300382D01*
X123301243Y-123259500D01*
X123078757Y-123259500D01*
X122894361Y-123293970D01*
X122860060Y-123300382D01*
X122652595Y-123380754D01*
X122463437Y-123497875D01*
X122299019Y-123647762D01*
X122164941Y-123825311D01*
X122065769Y-124024473D01*
X122004885Y-124238462D01*
X121993037Y-124366326D01*
X121984357Y-124460000D01*
X121989143Y-124511647D01*
X122004885Y-124681537D01*
X122065769Y-124895526D01*
X122164941Y-125094688D01*
X122299019Y-125272237D01*
X122463437Y-125422124D01*
X122617209Y-125517334D01*
X122652599Y-125539247D01*
X122846523Y-125614373D01*
X122894893Y-125648169D01*
X122922167Y-125700496D01*
X122922167Y-125759504D01*
X122894893Y-125811831D01*
X122846523Y-125845626D01*
X122715346Y-125896444D01*
X122652596Y-125920754D01*
X122463437Y-126037875D01*
X122299019Y-126187762D01*
X122244675Y-126259727D01*
X122200993Y-126296000D01*
X122145721Y-126309000D01*
X120424279Y-126309000D01*
X120369007Y-126296000D01*
X120325325Y-126259727D01*
X120270980Y-126187762D01*
X120106562Y-126037875D01*
X119917404Y-125920754D01*
X119878746Y-125905778D01*
X119723474Y-125845625D01*
X119675106Y-125811831D01*
X119647832Y-125759504D01*
X119647832Y-125700496D01*
X119675106Y-125648169D01*
X119723474Y-125614374D01*
X119917401Y-125539247D01*
X120106562Y-125422124D01*
X120270981Y-125272236D01*
X120405058Y-125094689D01*
X120504229Y-124895528D01*
X120512415Y-124866759D01*
X120536109Y-124783482D01*
X120565115Y-124681536D01*
X120585643Y-124460000D01*
X120565115Y-124238464D01*
X120542227Y-124158021D01*
X120504230Y-124024473D01*
X120405058Y-123825311D01*
X120270980Y-123647762D01*
X120106562Y-123497875D01*
X119917404Y-123380754D01*
X119790205Y-123331477D01*
X119709940Y-123300382D01*
X119491243Y-123259500D01*
X119268757Y-123259500D01*
X119084361Y-123293970D01*
X119050060Y-123300382D01*
X118842595Y-123380754D01*
X118653437Y-123497875D01*
X118489019Y-123647762D01*
X118354941Y-123825311D01*
X118255769Y-124024473D01*
X118194885Y-124238462D01*
X118183037Y-124366326D01*
X118174357Y-124460000D01*
X118179143Y-124511647D01*
X118194885Y-124681537D01*
X118255769Y-124895526D01*
X118354941Y-125094688D01*
X118489019Y-125272237D01*
X118653437Y-125422124D01*
X118807209Y-125517334D01*
X118842599Y-125539247D01*
X119036523Y-125614373D01*
X119084893Y-125648169D01*
X119112167Y-125700496D01*
X119112167Y-125759504D01*
X119084893Y-125811831D01*
X119036523Y-125845626D01*
X118905346Y-125896444D01*
X118842596Y-125920754D01*
X118653437Y-126037875D01*
X118489019Y-126187762D01*
X118434675Y-126259727D01*
X118390993Y-126296000D01*
X118335721Y-126309000D01*
X116614279Y-126309000D01*
X116559007Y-126296000D01*
X116515325Y-126259727D01*
X116460980Y-126187762D01*
X116296562Y-126037875D01*
X116107404Y-125920754D01*
X116068746Y-125905778D01*
X115913474Y-125845625D01*
X115865106Y-125811831D01*
X115837832Y-125759504D01*
X115837832Y-125700496D01*
X115865106Y-125648169D01*
X115913474Y-125614374D01*
X116107401Y-125539247D01*
X116296562Y-125422124D01*
X116460981Y-125272236D01*
X116595058Y-125094689D01*
X116694229Y-124895528D01*
X116702415Y-124866759D01*
X116726109Y-124783482D01*
X116755115Y-124681536D01*
X116775643Y-124460000D01*
X116755115Y-124238464D01*
X116732227Y-124158021D01*
X116694230Y-124024473D01*
X116595058Y-123825311D01*
X116460980Y-123647762D01*
X116296562Y-123497875D01*
X116107404Y-123380754D01*
X115980205Y-123331477D01*
X115899940Y-123300382D01*
X115681243Y-123259500D01*
X115458757Y-123259500D01*
X115274361Y-123293970D01*
X115240060Y-123300382D01*
X115032595Y-123380754D01*
X114843437Y-123497875D01*
X114679019Y-123647762D01*
X114544941Y-123825311D01*
X114445769Y-124024473D01*
X114384885Y-124238462D01*
X114373037Y-124366326D01*
X114364357Y-124460000D01*
X114369143Y-124511647D01*
X114384885Y-124681537D01*
X114445769Y-124895526D01*
X114544941Y-125094688D01*
X114679019Y-125272237D01*
X114843437Y-125422124D01*
X114997209Y-125517334D01*
X115032599Y-125539247D01*
X115226523Y-125614373D01*
X115274893Y-125648169D01*
X115302167Y-125700496D01*
X115302167Y-125759504D01*
X115274893Y-125811831D01*
X115226523Y-125845626D01*
X115095346Y-125896444D01*
X115032596Y-125920754D01*
X114843437Y-126037875D01*
X114679019Y-126187762D01*
X114624675Y-126259727D01*
X114580993Y-126296000D01*
X114525721Y-126309000D01*
X112804279Y-126309000D01*
X112749007Y-126296000D01*
X112705325Y-126259727D01*
X112650980Y-126187762D01*
X112486562Y-126037875D01*
X112297404Y-125920754D01*
X112258746Y-125905778D01*
X112103474Y-125845625D01*
X112055106Y-125811831D01*
X112027832Y-125759504D01*
X112027832Y-125700496D01*
X112055106Y-125648169D01*
X112103474Y-125614374D01*
X112297401Y-125539247D01*
X112486562Y-125422124D01*
X112650981Y-125272236D01*
X112785058Y-125094689D01*
X112884229Y-124895528D01*
X112892415Y-124866759D01*
X112916109Y-124783482D01*
X112945115Y-124681536D01*
X112965643Y-124460000D01*
X112945115Y-124238464D01*
X112922227Y-124158021D01*
X112884230Y-124024473D01*
X112785058Y-123825311D01*
X112650980Y-123647762D01*
X112486562Y-123497875D01*
X112297404Y-123380754D01*
X112170205Y-123331477D01*
X112089940Y-123300382D01*
X111871243Y-123259500D01*
X111648757Y-123259500D01*
X111464361Y-123293970D01*
X111430060Y-123300382D01*
X111222595Y-123380754D01*
X111033437Y-123497875D01*
X110869019Y-123647762D01*
X110734941Y-123825311D01*
X110635769Y-124024473D01*
X110574885Y-124238462D01*
X110563037Y-124366326D01*
X110554357Y-124460000D01*
X110559143Y-124511647D01*
X110574885Y-124681537D01*
X110635769Y-124895526D01*
X110734941Y-125094688D01*
X110869019Y-125272237D01*
X111033437Y-125422124D01*
X111187209Y-125517334D01*
X111222599Y-125539247D01*
X111416523Y-125614373D01*
X111464893Y-125648169D01*
X111492167Y-125700496D01*
X111492167Y-125759504D01*
X111464893Y-125811831D01*
X111416523Y-125845626D01*
X111285346Y-125896444D01*
X111222596Y-125920754D01*
X111033437Y-126037875D01*
X110869019Y-126187762D01*
X110734941Y-126365311D01*
X110635769Y-126564473D01*
X110574885Y-126778462D01*
X110554357Y-127000000D01*
X110574885Y-127221537D01*
X110635769Y-127435526D01*
X110734941Y-127634688D01*
X110869019Y-127812237D01*
X111033437Y-127962124D01*
X111222595Y-128079245D01*
X111222597Y-128079245D01*
X111222599Y-128079247D01*
X111430060Y-128159618D01*
X111648757Y-128200500D01*
X111871241Y-128200500D01*
X111871243Y-128200500D01*
X112089940Y-128159618D01*
X112297401Y-128079247D01*
X112486562Y-127962124D01*
X112650981Y-127812236D01*
X112705324Y-127740273D01*
X112749007Y-127704000D01*
X112804279Y-127691000D01*
X114525721Y-127691000D01*
X114580993Y-127704000D01*
X114624675Y-127740273D01*
X114679019Y-127812237D01*
X114843437Y-127962124D01*
X115032595Y-128079245D01*
X115032597Y-128079245D01*
X115032599Y-128079247D01*
X115240060Y-128159618D01*
X115458757Y-128200500D01*
X115681241Y-128200500D01*
X115681243Y-128200500D01*
X115899940Y-128159618D01*
X116107401Y-128079247D01*
X116296562Y-127962124D01*
X116460981Y-127812236D01*
X116515324Y-127740273D01*
X116559007Y-127704000D01*
X116614279Y-127691000D01*
X118335721Y-127691000D01*
X118390993Y-127704000D01*
X118434675Y-127740273D01*
X118489019Y-127812237D01*
X118653437Y-127962124D01*
X118842595Y-128079245D01*
X118842597Y-128079245D01*
X118842599Y-128079247D01*
X119050060Y-128159618D01*
X119268757Y-128200500D01*
X119491241Y-128200500D01*
X119491243Y-128200500D01*
X119709940Y-128159618D01*
X119917401Y-128079247D01*
X120106562Y-127962124D01*
X120270981Y-127812236D01*
X120325324Y-127740273D01*
X120369007Y-127704000D01*
X120424279Y-127691000D01*
X122145721Y-127691000D01*
X122200993Y-127704000D01*
X122244675Y-127740273D01*
X122299019Y-127812237D01*
X122463437Y-127962124D01*
X122652595Y-128079245D01*
X122652597Y-128079245D01*
X122652599Y-128079247D01*
X122860060Y-128159618D01*
X123078757Y-128200500D01*
X123301241Y-128200500D01*
X123301243Y-128200500D01*
X123519940Y-128159618D01*
X123727401Y-128079247D01*
X123916562Y-127962124D01*
X124080981Y-127812236D01*
X124215058Y-127634689D01*
X124314229Y-127435528D01*
X124375115Y-127221536D01*
X124395643Y-127000000D01*
X124381641Y-126848910D01*
X124388483Y-126795358D01*
X124417430Y-126749790D01*
X124931217Y-126236003D01*
X124936635Y-126230902D01*
X124981020Y-126191583D01*
X125014719Y-126142760D01*
X125019100Y-126136806D01*
X125055688Y-126090106D01*
X125059727Y-126081128D01*
X125070754Y-126061578D01*
X125076344Y-126053482D01*
X125097372Y-125998032D01*
X125100229Y-125991138D01*
X125124557Y-125937085D01*
X125126332Y-125927398D01*
X125132355Y-125905790D01*
X125135848Y-125896582D01*
X125142994Y-125837725D01*
X125144119Y-125830336D01*
X125154805Y-125772030D01*
X125151226Y-125712861D01*
X125151000Y-125705374D01*
X125151000Y-101624625D01*
X125151226Y-101617138D01*
X125151261Y-101616545D01*
X125154805Y-101557971D01*
X125144113Y-101499630D01*
X125142994Y-101492276D01*
X125135848Y-101433418D01*
X125132355Y-101424208D01*
X125126332Y-101402602D01*
X125124557Y-101392915D01*
X125100225Y-101338851D01*
X125097361Y-101331936D01*
X125092050Y-101317932D01*
X125076344Y-101276518D01*
X125070752Y-101268417D01*
X125059727Y-101248870D01*
X125055688Y-101239894D01*
X125055687Y-101239893D01*
X125055687Y-101239892D01*
X125036882Y-101215890D01*
X125019132Y-101193233D01*
X125014703Y-101187214D01*
X125002219Y-101169129D01*
X124981020Y-101138417D01*
X124936639Y-101099099D01*
X124931201Y-101093979D01*
X122426027Y-98588805D01*
X122420893Y-98583352D01*
X122381582Y-98538979D01*
X122332793Y-98505303D01*
X122326759Y-98500863D01*
X122280104Y-98464311D01*
X122271132Y-98460273D01*
X122251585Y-98449249D01*
X122243482Y-98443656D01*
X122213223Y-98432180D01*
X122188044Y-98422630D01*
X122181143Y-98419772D01*
X122181134Y-98419768D01*
X122127085Y-98395443D01*
X122127083Y-98395442D01*
X122119311Y-98394018D01*
X122117398Y-98393667D01*
X122095788Y-98387643D01*
X122086583Y-98384152D01*
X122027735Y-98377006D01*
X122020332Y-98375879D01*
X121962029Y-98365195D01*
X121962028Y-98365195D01*
X121910896Y-98368287D01*
X121902861Y-98368774D01*
X121895374Y-98369000D01*
X119404625Y-98369000D01*
X119397138Y-98368774D01*
X119337969Y-98365194D01*
X119279668Y-98375878D01*
X119272268Y-98377004D01*
X119213417Y-98384151D01*
X119204203Y-98387645D01*
X119182604Y-98393666D01*
X119172916Y-98395441D01*
X119118865Y-98419768D01*
X119111956Y-98422630D01*
X119072914Y-98437437D01*
X119056515Y-98443657D01*
X119048415Y-98449248D01*
X119028876Y-98460268D01*
X119019897Y-98464309D01*
X118973237Y-98500863D01*
X118967211Y-98505297D01*
X118918418Y-98538979D01*
X118879105Y-98583352D01*
X118873973Y-98588803D01*
X116590097Y-100872681D01*
X116549869Y-100899561D01*
X116502416Y-100909000D01*
X109327460Y-100909000D01*
X109273659Y-100896720D01*
X109230513Y-100862313D01*
X109120216Y-100724006D01*
X108949081Y-100574490D01*
X108753987Y-100457926D01*
X108541229Y-100378077D01*
X108317628Y-100337500D01*
X108317627Y-100337500D01*
X107639301Y-100337500D01*
X107566598Y-100344043D01*
X107469657Y-100352768D01*
X107250594Y-100413226D01*
X107045849Y-100511825D01*
X106861992Y-100645406D01*
X106704947Y-100809661D01*
X106579753Y-100999324D01*
X106490437Y-101208287D01*
X106439869Y-101429845D01*
X106429672Y-101656869D01*
X106460177Y-101882067D01*
X106478216Y-101937584D01*
X106530404Y-102098200D01*
X106638092Y-102298319D01*
X106711476Y-102390339D01*
X106779783Y-102475993D01*
X106950918Y-102625509D01*
X106950919Y-102625510D01*
X106950922Y-102625512D01*
X107146008Y-102742071D01*
X107146011Y-102742072D01*
X107179596Y-102754677D01*
X107227176Y-102786700D01*
X107255256Y-102836709D01*
X107257830Y-102894005D01*
X107234345Y-102946330D01*
X107189828Y-102982490D01*
X107045847Y-103051827D01*
X106861992Y-103185406D01*
X106704947Y-103349661D01*
X106579753Y-103539324D01*
X106490437Y-103748287D01*
X106439869Y-103969845D01*
X106429672Y-104196869D01*
X106460177Y-104422067D01*
X106478216Y-104477584D01*
X106530404Y-104638200D01*
X106638092Y-104838319D01*
X106753177Y-104982630D01*
X106779783Y-105015993D01*
X106950918Y-105165509D01*
X106950919Y-105165510D01*
X106950922Y-105165512D01*
X107146008Y-105282071D01*
X107146011Y-105282072D01*
X107179596Y-105294677D01*
X107227176Y-105326700D01*
X107255256Y-105376709D01*
X107257830Y-105434005D01*
X107234345Y-105486330D01*
X107189828Y-105522490D01*
X107045847Y-105591827D01*
X106861992Y-105725406D01*
X106704947Y-105889661D01*
X106579753Y-106079324D01*
X106490437Y-106288287D01*
X106439869Y-106509845D01*
X106429672Y-106736869D01*
X106460177Y-106962067D01*
X106485534Y-107040105D01*
X106530404Y-107178200D01*
X106638092Y-107378319D01*
X106725891Y-107488415D01*
X106779783Y-107555993D01*
X106950918Y-107705509D01*
X106950919Y-107705510D01*
X106950922Y-107705512D01*
X107146008Y-107822071D01*
X107146011Y-107822072D01*
X107179596Y-107834677D01*
X107227176Y-107866700D01*
X107255256Y-107916709D01*
X107257830Y-107974005D01*
X107234345Y-108026330D01*
X107189828Y-108062490D01*
X107045847Y-108131827D01*
X106861992Y-108265406D01*
X106704947Y-108429661D01*
X106579753Y-108619324D01*
X106490437Y-108828287D01*
X106439869Y-109049845D01*
X106429672Y-109276869D01*
X106460177Y-109502067D01*
X106495803Y-109611711D01*
X106530404Y-109718200D01*
X106638092Y-109918319D01*
X106711476Y-110010339D01*
X106779783Y-110095993D01*
X106950918Y-110245509D01*
X106950919Y-110245510D01*
X106950922Y-110245512D01*
X107146008Y-110362071D01*
X107146011Y-110362072D01*
X107179596Y-110374677D01*
X107227176Y-110406700D01*
X107255256Y-110456709D01*
X107257830Y-110514005D01*
X107234345Y-110566330D01*
X107189828Y-110602490D01*
X107045847Y-110671827D01*
X106861992Y-110805406D01*
X106704947Y-110969661D01*
X106579753Y-111159324D01*
X106490437Y-111368287D01*
X106439869Y-111589845D01*
X106429672Y-111816869D01*
X106460177Y-112042067D01*
X106483405Y-112113553D01*
X106530404Y-112258200D01*
X106638092Y-112458319D01*
X106753177Y-112602630D01*
X106779783Y-112635993D01*
X106950918Y-112785509D01*
X106950919Y-112785510D01*
X106950922Y-112785512D01*
X107146008Y-112902071D01*
X107146011Y-112902072D01*
X107179596Y-112914677D01*
X107227176Y-112946700D01*
X107255256Y-112996709D01*
X107257830Y-113054005D01*
X107234345Y-113106330D01*
X107189828Y-113142490D01*
X107045847Y-113211827D01*
X106861992Y-113345406D01*
X106704947Y-113509661D01*
X106579753Y-113699324D01*
X106490437Y-113908287D01*
X106439869Y-114129845D01*
X106429672Y-114356869D01*
X106460177Y-114582067D01*
X106495803Y-114691711D01*
X106530404Y-114798200D01*
X106638092Y-114998319D01*
X106742488Y-115129227D01*
X106779783Y-115175993D01*
X106950918Y-115325509D01*
X106950919Y-115325510D01*
X106950922Y-115325512D01*
X107146008Y-115442071D01*
X107146009Y-115442071D01*
X107146012Y-115442073D01*
X107358770Y-115521922D01*
X107582372Y-115562500D01*
X107582373Y-115562500D01*
X107950916Y-115562500D01*
X108007211Y-115576015D01*
X108051234Y-115613615D01*
X108073389Y-115667102D01*
X108068847Y-115724818D01*
X108038597Y-115774181D01*
X105160097Y-118652681D01*
X105119869Y-118679561D01*
X105072416Y-118689000D01*
X99446575Y-118689000D01*
X99386101Y-118673254D01*
X99340986Y-118630015D01*
X99292193Y-118550770D01*
X99135925Y-118373215D01*
X99040693Y-118296320D01*
X98951895Y-118224620D01*
X98937103Y-118216357D01*
X98891988Y-118173117D01*
X98873690Y-118113366D01*
X98886856Y-118052278D01*
X98928138Y-118005371D01*
X99047068Y-117924990D01*
X99217831Y-117761327D01*
X99358478Y-117571159D01*
X99464964Y-117359957D01*
X99534224Y-117133797D01*
X99564267Y-116899185D01*
X99554229Y-116662871D01*
X99504397Y-116431652D01*
X99416207Y-116212180D01*
X99416206Y-116212178D01*
X99292195Y-116010772D01*
X99135925Y-115833215D01*
X98951895Y-115684620D01*
X98937103Y-115676357D01*
X98891988Y-115633117D01*
X98873690Y-115573366D01*
X98886856Y-115512278D01*
X98928138Y-115465371D01*
X99047068Y-115384990D01*
X99217831Y-115221327D01*
X99358478Y-115031159D01*
X99464964Y-114819957D01*
X99534224Y-114593797D01*
X99564267Y-114359185D01*
X99554229Y-114122871D01*
X99504397Y-113891652D01*
X99416207Y-113672180D01*
X99409846Y-113661849D01*
X99292195Y-113470772D01*
X99135925Y-113293215D01*
X98951895Y-113144620D01*
X98937103Y-113136357D01*
X98891988Y-113093117D01*
X98873690Y-113033366D01*
X98886856Y-112972278D01*
X98928138Y-112925371D01*
X99047068Y-112844990D01*
X99217831Y-112681327D01*
X99358478Y-112491159D01*
X99464964Y-112279957D01*
X99534224Y-112053797D01*
X99564267Y-111819185D01*
X99554229Y-111582871D01*
X99504397Y-111351652D01*
X99416207Y-111132180D01*
X99372799Y-111061681D01*
X99292195Y-110930772D01*
X99135925Y-110753215D01*
X98951895Y-110604620D01*
X98937103Y-110596357D01*
X98891988Y-110553117D01*
X98873690Y-110493366D01*
X98886856Y-110432278D01*
X98928138Y-110385371D01*
X99047068Y-110304990D01*
X99217831Y-110141327D01*
X99358478Y-109951159D01*
X99464964Y-109739957D01*
X99534224Y-109513797D01*
X99564267Y-109279185D01*
X99554229Y-109042871D01*
X99504397Y-108811652D01*
X99416207Y-108592180D01*
X99408567Y-108579772D01*
X99292195Y-108390772D01*
X99135925Y-108213215D01*
X98951895Y-108064620D01*
X98937103Y-108056357D01*
X98891988Y-108013117D01*
X98873690Y-107953366D01*
X98886856Y-107892278D01*
X98928138Y-107845371D01*
X99047068Y-107764990D01*
X99217831Y-107601327D01*
X99358478Y-107411159D01*
X99464964Y-107199957D01*
X99534224Y-106973797D01*
X99564267Y-106739185D01*
X99554229Y-106502871D01*
X99504397Y-106271652D01*
X99416207Y-106052180D01*
X99416206Y-106052178D01*
X99292195Y-105850772D01*
X99135925Y-105673215D01*
X98951895Y-105524620D01*
X98937103Y-105516357D01*
X98891988Y-105473117D01*
X98873690Y-105413366D01*
X98886856Y-105352278D01*
X98928138Y-105305371D01*
X99047068Y-105224990D01*
X99217831Y-105061327D01*
X99358478Y-104871159D01*
X99464964Y-104659957D01*
X99534224Y-104433797D01*
X99564267Y-104199185D01*
X99554229Y-103962871D01*
X99504397Y-103731652D01*
X99416207Y-103512180D01*
X99372799Y-103441681D01*
X99292195Y-103310772D01*
X99135925Y-103133215D01*
X98951895Y-102984620D01*
X98937103Y-102976357D01*
X98891988Y-102933117D01*
X98873690Y-102873366D01*
X98886856Y-102812278D01*
X98928138Y-102765371D01*
X99047068Y-102684990D01*
X99217831Y-102521327D01*
X99358478Y-102331159D01*
X99464964Y-102119957D01*
X99534224Y-101893797D01*
X99564267Y-101659185D01*
X99554229Y-101422871D01*
X99504397Y-101191652D01*
X99416207Y-100972180D01*
X99416206Y-100972178D01*
X99292195Y-100770772D01*
X99135925Y-100593215D01*
X98951895Y-100444620D01*
X98937103Y-100436357D01*
X98891988Y-100393117D01*
X98873690Y-100333366D01*
X98886856Y-100272278D01*
X98928138Y-100225371D01*
X99047068Y-100144990D01*
X99217831Y-99981327D01*
X99358478Y-99791159D01*
X99464964Y-99579957D01*
X99534224Y-99353797D01*
X99564267Y-99119185D01*
X99554229Y-98882871D01*
X99504397Y-98651652D01*
X99416207Y-98432180D01*
X99410331Y-98422637D01*
X99292195Y-98230772D01*
X99135925Y-98053215D01*
X98951895Y-97904620D01*
X98937103Y-97896357D01*
X98891988Y-97853117D01*
X98873690Y-97793366D01*
X98886856Y-97732278D01*
X98928138Y-97685371D01*
X99047068Y-97604990D01*
X99217831Y-97441327D01*
X99358478Y-97251159D01*
X99464964Y-97039957D01*
X99534224Y-96813797D01*
X99564267Y-96579185D01*
X99554229Y-96342871D01*
X99504397Y-96111652D01*
X99416207Y-95892180D01*
X99416206Y-95892178D01*
X99292195Y-95690772D01*
X99135925Y-95513215D01*
X98951895Y-95364620D01*
X98937103Y-95356357D01*
X98891988Y-95313117D01*
X98873690Y-95253366D01*
X98886856Y-95192278D01*
X98928138Y-95145371D01*
X99047068Y-95064990D01*
X99217831Y-94901327D01*
X99358478Y-94711159D01*
X99464964Y-94499957D01*
X99534224Y-94273797D01*
X99564267Y-94039185D01*
X99554229Y-93802871D01*
X99504397Y-93571652D01*
X99500568Y-93562124D01*
X99459297Y-93459417D01*
X99416207Y-93352180D01*
X99411594Y-93344688D01*
X99292195Y-93150772D01*
X99135925Y-92973215D01*
X98951898Y-92824622D01*
X98745405Y-92709269D01*
X98522386Y-92630471D01*
X98289266Y-92590500D01*
X98289264Y-92590500D01*
X97349972Y-92590500D01*
X97349969Y-92590500D01*
X97173327Y-92605534D01*
X96944425Y-92665136D01*
X96728898Y-92762560D01*
X96532932Y-92895009D01*
X96362168Y-93058672D01*
X96221522Y-93248840D01*
X96207968Y-93275723D01*
X96115036Y-93460043D01*
X96045776Y-93686203D01*
X96015733Y-93920815D01*
X96025771Y-94157129D01*
X96050915Y-94273796D01*
X96075603Y-94388350D01*
X96163793Y-94607821D01*
X96287804Y-94809227D01*
X96444074Y-94986784D01*
X96628101Y-95135377D01*
X96642895Y-95143641D01*
X96688010Y-95186881D01*
X96706309Y-95246632D01*
X96693144Y-95307720D01*
X96651858Y-95354630D01*
X96532932Y-95435009D01*
X96362168Y-95598672D01*
X96221522Y-95788840D01*
X96169420Y-95892178D01*
X96115036Y-96000043D01*
X96045776Y-96226203D01*
X96015733Y-96460815D01*
X96025771Y-96697129D01*
X96050915Y-96813796D01*
X96075603Y-96928350D01*
X96163793Y-97147821D01*
X96287804Y-97349227D01*
X96444074Y-97526784D01*
X96628101Y-97675377D01*
X96642895Y-97683641D01*
X96688010Y-97726881D01*
X96706309Y-97786632D01*
X96693144Y-97847720D01*
X96651858Y-97894630D01*
X96532932Y-97975009D01*
X96362168Y-98138672D01*
X96221522Y-98328840D01*
X96115572Y-98538979D01*
X96115036Y-98540043D01*
X96045776Y-98766203D01*
X96015733Y-99000815D01*
X96025771Y-99237129D01*
X96050915Y-99353796D01*
X96075603Y-99468350D01*
X96163793Y-99687821D01*
X96287804Y-99889227D01*
X96444074Y-100066784D01*
X96628101Y-100215377D01*
X96642895Y-100223641D01*
X96688010Y-100266881D01*
X96706309Y-100326632D01*
X96693144Y-100387720D01*
X96651858Y-100434630D01*
X96532932Y-100515009D01*
X96362168Y-100678672D01*
X96221522Y-100868840D01*
X96174232Y-100962634D01*
X96115036Y-101080043D01*
X96045776Y-101306203D01*
X96015733Y-101540815D01*
X96025771Y-101777129D01*
X96048387Y-101882067D01*
X96075603Y-102008350D01*
X96163793Y-102227821D01*
X96287804Y-102429227D01*
X96444074Y-102606784D01*
X96628101Y-102755377D01*
X96642895Y-102763641D01*
X96688010Y-102806881D01*
X96706309Y-102866632D01*
X96693144Y-102927720D01*
X96651858Y-102974630D01*
X96532932Y-103055009D01*
X96362168Y-103218672D01*
X96221522Y-103408840D01*
X96169420Y-103512178D01*
X96115036Y-103620043D01*
X96045776Y-103846203D01*
X96015733Y-104080815D01*
X96025771Y-104317129D01*
X96048387Y-104422067D01*
X96075603Y-104548350D01*
X96163793Y-104767821D01*
X96287804Y-104969227D01*
X96444074Y-105146784D01*
X96628101Y-105295377D01*
X96642895Y-105303641D01*
X96688010Y-105346881D01*
X96706309Y-105406632D01*
X96693144Y-105467720D01*
X96651858Y-105514630D01*
X96532932Y-105595009D01*
X96362168Y-105758672D01*
X96221522Y-105948840D01*
X96174232Y-106042634D01*
X96115036Y-106160043D01*
X96045776Y-106386203D01*
X96015733Y-106620815D01*
X96025771Y-106857129D01*
X96032228Y-106887087D01*
X96075603Y-107088350D01*
X96163793Y-107307821D01*
X96287804Y-107509227D01*
X96444074Y-107686784D01*
X96628101Y-107835377D01*
X96642895Y-107843641D01*
X96688010Y-107886881D01*
X96706309Y-107946632D01*
X96693144Y-108007720D01*
X96651858Y-108054630D01*
X96532932Y-108135009D01*
X96362168Y-108298672D01*
X96221522Y-108488840D01*
X96115572Y-108698979D01*
X96115036Y-108700043D01*
X96045776Y-108926203D01*
X96015733Y-109160815D01*
X96025771Y-109397129D01*
X96048387Y-109502067D01*
X96075603Y-109628350D01*
X96163793Y-109847821D01*
X96287804Y-110049227D01*
X96444074Y-110226784D01*
X96628101Y-110375377D01*
X96642895Y-110383641D01*
X96688010Y-110426881D01*
X96706309Y-110486632D01*
X96693144Y-110547720D01*
X96651858Y-110594630D01*
X96532932Y-110675009D01*
X96362168Y-110838672D01*
X96221522Y-111028840D01*
X96115036Y-111240042D01*
X96079833Y-111354994D01*
X96046592Y-111408661D01*
X95991238Y-111439008D01*
X95928116Y-111438170D01*
X95873587Y-111406365D01*
X87087319Y-102620097D01*
X87060439Y-102579869D01*
X87051000Y-102532416D01*
X87051000Y-82574626D01*
X87051226Y-82567139D01*
X87051261Y-82566546D01*
X87054805Y-82507972D01*
X87044115Y-82449641D01*
X87042991Y-82442253D01*
X87042342Y-82436909D01*
X87035848Y-82383418D01*
X87032355Y-82374208D01*
X87026332Y-82352602D01*
X87024557Y-82342915D01*
X87000221Y-82288842D01*
X86997362Y-82281938D01*
X86976345Y-82226519D01*
X86970752Y-82218417D01*
X86959722Y-82198859D01*
X86955687Y-82189893D01*
X86919140Y-82143245D01*
X86914700Y-82137211D01*
X86898795Y-82114170D01*
X86881020Y-82088417D01*
X86836630Y-82049091D01*
X86831192Y-82043971D01*
X71386818Y-66599596D01*
X71359938Y-66559368D01*
X71350499Y-66511915D01*
X71350499Y-65096885D01*
X71364014Y-65040590D01*
X71401614Y-64996567D01*
X71455101Y-64974412D01*
X71512817Y-64978954D01*
X71562180Y-65009204D01*
X83241234Y-76688258D01*
X83253015Y-76701890D01*
X83267460Y-76721293D01*
X83305634Y-76753325D01*
X83313609Y-76760633D01*
X83317559Y-76764583D01*
X83335793Y-76779000D01*
X83342011Y-76783917D01*
X83344805Y-76786193D01*
X83402573Y-76834667D01*
X83402575Y-76834668D01*
X83403507Y-76835450D01*
X83420104Y-76846024D01*
X83441546Y-76856022D01*
X83489587Y-76878424D01*
X83492799Y-76879979D01*
X83560189Y-76913824D01*
X83560190Y-76913824D01*
X83561285Y-76914374D01*
X83579865Y-76920832D01*
X83581055Y-76921077D01*
X83581060Y-76921080D01*
X83655022Y-76936351D01*
X83658413Y-76937103D01*
X83731812Y-76954500D01*
X83731813Y-76954500D01*
X83732999Y-76954781D01*
X83752576Y-76956781D01*
X83753792Y-76956745D01*
X83753794Y-76956746D01*
X83824111Y-76954699D01*
X83829196Y-76954552D01*
X83832802Y-76954500D01*
X105372536Y-76954500D01*
X105428288Y-76967740D01*
X105472134Y-77004633D01*
X105494710Y-77057301D01*
X105491197Y-77114492D01*
X105468920Y-77187932D01*
X105444337Y-77268968D01*
X105424538Y-77470000D01*
X105444337Y-77671031D01*
X105503305Y-77865424D01*
X105506772Y-77922887D01*
X105492249Y-77956457D01*
X105435909Y-78107514D01*
X105429500Y-78167130D01*
X105429500Y-79312869D01*
X105435909Y-79372483D01*
X105486204Y-79507331D01*
X105572454Y-79622546D01*
X105687669Y-79708796D01*
X105822517Y-79759091D01*
X105882127Y-79765500D01*
X107477872Y-79765499D01*
X107537483Y-79759091D01*
X107672331Y-79708796D01*
X107787546Y-79622546D01*
X107873796Y-79507331D01*
X107873797Y-79507327D01*
X107880493Y-79498383D01*
X107898615Y-79469432D01*
X107939546Y-79441012D01*
X107988360Y-79431000D01*
X110152416Y-79431000D01*
X110199869Y-79440439D01*
X110240097Y-79467319D01*
X112808819Y-82036040D01*
X112840292Y-82089393D01*
X112842029Y-82151313D01*
X112789869Y-82379845D01*
X112779672Y-82606869D01*
X112810177Y-82832067D01*
X112826769Y-82883130D01*
X112880404Y-83048200D01*
X112988092Y-83248319D01*
X113129783Y-83425993D01*
X113300918Y-83575509D01*
X113300919Y-83575510D01*
X113300922Y-83575512D01*
X113496008Y-83692071D01*
X113496011Y-83692072D01*
X113529596Y-83704677D01*
X113577176Y-83736700D01*
X113605256Y-83786709D01*
X113607830Y-83844005D01*
X113584345Y-83896330D01*
X113539828Y-83932490D01*
X113395847Y-84001827D01*
X113211992Y-84135406D01*
X113054947Y-84299661D01*
X112929753Y-84489324D01*
X112840437Y-84698287D01*
X112789869Y-84919845D01*
X112779672Y-85146869D01*
X112810177Y-85372067D01*
X112840208Y-85464490D01*
X112880404Y-85588200D01*
X112988092Y-85788319D01*
X113129783Y-85965993D01*
X113300918Y-86115509D01*
X113300919Y-86115510D01*
X113300922Y-86115512D01*
X113496008Y-86232071D01*
X113496009Y-86232071D01*
X113496012Y-86232073D01*
X113708770Y-86311922D01*
X113932372Y-86352500D01*
X113932373Y-86352500D01*
X114610696Y-86352500D01*
X114610699Y-86352500D01*
X114780339Y-86337232D01*
X114999404Y-86276774D01*
X115098264Y-86229165D01*
X115204150Y-86178174D01*
X115265900Y-86133310D01*
X115388005Y-86044596D01*
X115545052Y-85880338D01*
X115670246Y-85690677D01*
X115742829Y-85520861D01*
X115759562Y-85481712D01*
X115784587Y-85372068D01*
X115810131Y-85260154D01*
X115820327Y-85033129D01*
X115789822Y-84807932D01*
X115719596Y-84591800D01*
X115611908Y-84391681D01*
X115470217Y-84214007D01*
X115380251Y-84135406D01*
X115299081Y-84064490D01*
X115103989Y-83947927D01*
X115070402Y-83935322D01*
X115022822Y-83903298D01*
X114994742Y-83853288D01*
X114992170Y-83795993D01*
X115015654Y-83743668D01*
X115060167Y-83707512D01*
X115204153Y-83638172D01*
X115388005Y-83504596D01*
X115545052Y-83340338D01*
X115670246Y-83150677D01*
X115749317Y-82965681D01*
X115759562Y-82941712D01*
X115783639Y-82836221D01*
X115810131Y-82720154D01*
X115820327Y-82493129D01*
X115789822Y-82267932D01*
X115719596Y-82051800D01*
X115611908Y-81851681D01*
X115470217Y-81674007D01*
X115447878Y-81654490D01*
X115299081Y-81524490D01*
X115103989Y-81407927D01*
X115070402Y-81395322D01*
X115022822Y-81363298D01*
X114994742Y-81313288D01*
X114992170Y-81255993D01*
X115015654Y-81203668D01*
X115060167Y-81167512D01*
X115204153Y-81098172D01*
X115388005Y-80964596D01*
X115545052Y-80800338D01*
X115670246Y-80610677D01*
X115759562Y-80401711D01*
X115810131Y-80180154D01*
X115820327Y-79953129D01*
X115789822Y-79727932D01*
X115719596Y-79511800D01*
X115611908Y-79311681D01*
X115470217Y-79134007D01*
X115380251Y-79055406D01*
X115299081Y-78984490D01*
X115103989Y-78867927D01*
X115070402Y-78855322D01*
X115022822Y-78823298D01*
X114994742Y-78773288D01*
X114992170Y-78715993D01*
X115015654Y-78663668D01*
X115060167Y-78627512D01*
X115204153Y-78558172D01*
X115388005Y-78424596D01*
X115545052Y-78260338D01*
X115670246Y-78070677D01*
X115759562Y-77861711D01*
X115810131Y-77640154D01*
X115820327Y-77413129D01*
X115789822Y-77187932D01*
X115719596Y-76971800D01*
X115611908Y-76771681D01*
X115470217Y-76594007D01*
X115380251Y-76515406D01*
X115299081Y-76444490D01*
X115226343Y-76401031D01*
X115103992Y-76327929D01*
X115103989Y-76327927D01*
X115070402Y-76315322D01*
X115022822Y-76283298D01*
X114994742Y-76233288D01*
X114992170Y-76175993D01*
X115015654Y-76123668D01*
X115060167Y-76087512D01*
X115204153Y-76018172D01*
X115388005Y-75884596D01*
X115545052Y-75720338D01*
X115670246Y-75530677D01*
X115729790Y-75391366D01*
X115759562Y-75321712D01*
X115784587Y-75212068D01*
X115810131Y-75100154D01*
X115820327Y-74873129D01*
X115789822Y-74647932D01*
X115719596Y-74431800D01*
X115611908Y-74231681D01*
X115470217Y-74054007D01*
X115380251Y-73975406D01*
X115299081Y-73904490D01*
X115103989Y-73787927D01*
X115070402Y-73775322D01*
X115022822Y-73743298D01*
X114994742Y-73693288D01*
X114992170Y-73635993D01*
X115015654Y-73583668D01*
X115060167Y-73547512D01*
X115204153Y-73478172D01*
X115388005Y-73344596D01*
X115545052Y-73180338D01*
X115670246Y-72990677D01*
X115759562Y-72781711D01*
X115810131Y-72560154D01*
X115820327Y-72333129D01*
X115789822Y-72107932D01*
X115719596Y-71891800D01*
X115611908Y-71691681D01*
X115470217Y-71514007D01*
X115428904Y-71477913D01*
X115299081Y-71364490D01*
X115194203Y-71301828D01*
X115103992Y-71247929D01*
X115103990Y-71247928D01*
X115103988Y-71247927D01*
X115069755Y-71235079D01*
X115022175Y-71203054D01*
X114994095Y-71153045D01*
X114991523Y-71095750D01*
X115015007Y-71043425D01*
X115059525Y-71007265D01*
X115089349Y-70992902D01*
X114300000Y-70203553D01*
X113507646Y-70995904D01*
X113507647Y-70995905D01*
X113530220Y-71004377D01*
X113577799Y-71036401D01*
X113605879Y-71086410D01*
X113608453Y-71143705D01*
X113584968Y-71196030D01*
X113540451Y-71232190D01*
X113395847Y-71301827D01*
X113211992Y-71435406D01*
X113054947Y-71599661D01*
X112929753Y-71789324D01*
X112840437Y-71998287D01*
X112789869Y-72219845D01*
X112779672Y-72446869D01*
X112810177Y-72672067D01*
X112845803Y-72781711D01*
X112880404Y-72888200D01*
X112988092Y-73088319D01*
X113129782Y-73265992D01*
X113129783Y-73265993D01*
X113300918Y-73415509D01*
X113300919Y-73415510D01*
X113300922Y-73415512D01*
X113496008Y-73532071D01*
X113496011Y-73532072D01*
X113529596Y-73544677D01*
X113577176Y-73576700D01*
X113605256Y-73626709D01*
X113607830Y-73684005D01*
X113584345Y-73736330D01*
X113539828Y-73772490D01*
X113395847Y-73841827D01*
X113211992Y-73975406D01*
X113054947Y-74139661D01*
X112929753Y-74329324D01*
X112840437Y-74538287D01*
X112789869Y-74759845D01*
X112779672Y-74986869D01*
X112810177Y-75212067D01*
X112845803Y-75321711D01*
X112880404Y-75428200D01*
X112988092Y-75628319D01*
X113129514Y-75805656D01*
X113129783Y-75805993D01*
X113300918Y-75955509D01*
X113300919Y-75955510D01*
X113300922Y-75955512D01*
X113496008Y-76072071D01*
X113496011Y-76072072D01*
X113529596Y-76084677D01*
X113577176Y-76116700D01*
X113605256Y-76166709D01*
X113607830Y-76224005D01*
X113584345Y-76276330D01*
X113539828Y-76312490D01*
X113395847Y-76381827D01*
X113211992Y-76515406D01*
X113054949Y-76679660D01*
X113054948Y-76679662D01*
X113026135Y-76723311D01*
X112981409Y-76764194D01*
X112922649Y-76779000D01*
X107965202Y-76779000D01*
X107904083Y-76762891D01*
X107858844Y-76718750D01*
X107841239Y-76658045D01*
X107853584Y-76606060D01*
X107853477Y-76606028D01*
X107854006Y-76604283D01*
X107855843Y-76596549D01*
X107857021Y-76594344D01*
X107857023Y-76594341D01*
X107915662Y-76401033D01*
X107935462Y-76200000D01*
X107915662Y-75998967D01*
X107857023Y-75805659D01*
X107761798Y-75627506D01*
X107682331Y-75530675D01*
X107633647Y-75471352D01*
X107538508Y-75393275D01*
X107477494Y-75343202D01*
X107299341Y-75247977D01*
X107180961Y-75212067D01*
X107106031Y-75189337D01*
X106971837Y-75176120D01*
X106955380Y-75174500D01*
X106404620Y-75174500D01*
X106389783Y-75175961D01*
X106253968Y-75189337D01*
X106060656Y-75247978D01*
X105882507Y-75343201D01*
X105792151Y-75417354D01*
X105755261Y-75438252D01*
X105713487Y-75445500D01*
X84183886Y-75445500D01*
X84136433Y-75436061D01*
X84096205Y-75409181D01*
X78593870Y-69906846D01*
X112780174Y-69906846D01*
X112810668Y-70131957D01*
X112880864Y-70348000D01*
X112988513Y-70548045D01*
X113103815Y-70692630D01*
X113103816Y-70692630D01*
X113946447Y-69850001D01*
X114653553Y-69850001D01*
X115495251Y-70691699D01*
X115495252Y-70691698D01*
X115544659Y-70640025D01*
X115669802Y-70450439D01*
X115759085Y-70241555D01*
X115809632Y-70020087D01*
X115819825Y-69793153D01*
X115789331Y-69568042D01*
X115719135Y-69351999D01*
X115611486Y-69151954D01*
X115496183Y-69007368D01*
X114653553Y-69850000D01*
X114653553Y-69850001D01*
X113946447Y-69850001D01*
X113946447Y-69850000D01*
X113104747Y-69008299D01*
X113104746Y-69008299D01*
X113055341Y-69059974D01*
X112930197Y-69249560D01*
X112840914Y-69458444D01*
X112790367Y-69679912D01*
X112780174Y-69906846D01*
X78593870Y-69906846D01*
X76053893Y-67366869D01*
X112779672Y-67366869D01*
X112810177Y-67592067D01*
X112845803Y-67701711D01*
X112880404Y-67808200D01*
X112988092Y-68008319D01*
X113078939Y-68122237D01*
X113129783Y-68185993D01*
X113300918Y-68335509D01*
X113300919Y-68335510D01*
X113300922Y-68335512D01*
X113496008Y-68452071D01*
X113530243Y-68464919D01*
X113577821Y-68496942D01*
X113605902Y-68546951D01*
X113608476Y-68604247D01*
X113584992Y-68656572D01*
X113540474Y-68692732D01*
X113510649Y-68707094D01*
X113510648Y-68707096D01*
X114300000Y-69496447D01*
X114300001Y-69496447D01*
X115092352Y-68704094D01*
X115092351Y-68704093D01*
X115069780Y-68695622D01*
X115022200Y-68663598D01*
X114994120Y-68613589D01*
X114991547Y-68556293D01*
X115015032Y-68503969D01*
X115059550Y-68467809D01*
X115204153Y-68398172D01*
X115388005Y-68264596D01*
X115545052Y-68100338D01*
X115670246Y-67910677D01*
X115759562Y-67701711D01*
X115810131Y-67480154D01*
X115820327Y-67253129D01*
X115789822Y-67027932D01*
X115719596Y-66811800D01*
X115611908Y-66611681D01*
X115470217Y-66434007D01*
X115380251Y-66355406D01*
X115299081Y-66284490D01*
X115103987Y-66167926D01*
X114891229Y-66088077D01*
X114667628Y-66047500D01*
X114667627Y-66047500D01*
X113989301Y-66047500D01*
X113916598Y-66054043D01*
X113819657Y-66062768D01*
X113600594Y-66123226D01*
X113395849Y-66221825D01*
X113211992Y-66355406D01*
X113054947Y-66519661D01*
X112929753Y-66709324D01*
X112840437Y-66918287D01*
X112789869Y-67139845D01*
X112779672Y-67366869D01*
X76053893Y-67366869D01*
X71474927Y-62787903D01*
X85225794Y-62787903D01*
X85235672Y-63095972D01*
X85284867Y-63400261D01*
X85372570Y-63695760D01*
X85497334Y-63977604D01*
X85497336Y-63977608D01*
X85497337Y-63977609D01*
X85657123Y-64241193D01*
X85849304Y-64482181D01*
X86070724Y-64696614D01*
X86317747Y-64880972D01*
X86586318Y-65032228D01*
X86872025Y-65147899D01*
X87170179Y-65226084D01*
X87475883Y-65265500D01*
X87706974Y-65265500D01*
X87706978Y-65265500D01*
X87756639Y-65262311D01*
X87937601Y-65250693D01*
X88240151Y-65191772D01*
X88532683Y-65094644D01*
X88810393Y-64960907D01*
X89068720Y-64792754D01*
X89095450Y-64769999D01*
X89116643Y-64751955D01*
X89303424Y-64592948D01*
X89501069Y-64375319D01*
X89510646Y-64364774D01*
X89510647Y-64364771D01*
X89510650Y-64364769D01*
X89686996Y-64111963D01*
X89829567Y-63838683D01*
X89884006Y-63690754D01*
X89936020Y-63549416D01*
X90004609Y-63248907D01*
X90034206Y-62942098D01*
X90024327Y-62634022D01*
X89975133Y-62329739D01*
X89887431Y-62034244D01*
X89878598Y-62014290D01*
X89762665Y-61752395D01*
X89756544Y-61742297D01*
X89602877Y-61488807D01*
X89410696Y-61247819D01*
X89270798Y-61112336D01*
X89189275Y-61033385D01*
X88942256Y-60849030D01*
X88942254Y-60849029D01*
X88942253Y-60849028D01*
X88673682Y-60697772D01*
X88387975Y-60582101D01*
X88153417Y-60520592D01*
X88089818Y-60503915D01*
X87837227Y-60471347D01*
X87784117Y-60464500D01*
X87553026Y-60464500D01*
X87553022Y-60464500D01*
X87322397Y-60479307D01*
X87019854Y-60538226D01*
X86887711Y-60582101D01*
X86727317Y-60635356D01*
X86727314Y-60635357D01*
X86727312Y-60635358D01*
X86449612Y-60769089D01*
X86191274Y-60937249D01*
X85956575Y-61137052D01*
X85749353Y-61365225D01*
X85573002Y-61618039D01*
X85430432Y-61891316D01*
X85323979Y-62180583D01*
X85255390Y-62481092D01*
X85225794Y-62787903D01*
X71474927Y-62787903D01*
X69346634Y-60659610D01*
X70558942Y-60659610D01*
X70605766Y-60696055D01*
X70824393Y-60814368D01*
X71059506Y-60895083D01*
X71304707Y-60936000D01*
X71553293Y-60936000D01*
X71798493Y-60895083D01*
X72033606Y-60814368D01*
X72252233Y-60696053D01*
X72299056Y-60659609D01*
X71429000Y-59789553D01*
X70558942Y-60659609D01*
X70558942Y-60659610D01*
X69346634Y-60659610D01*
X68451439Y-59764415D01*
X68422696Y-59719412D01*
X68415544Y-59666494D01*
X68434643Y-59435999D01*
X69923858Y-59435999D01*
X69944386Y-59683732D01*
X70005413Y-59924721D01*
X70105268Y-60152370D01*
X70205563Y-60305882D01*
X70205564Y-60305882D01*
X71075447Y-59436001D01*
X71782553Y-59436001D01*
X72652434Y-60305882D01*
X72752730Y-60152369D01*
X72852586Y-59924721D01*
X72913613Y-59683732D01*
X72934141Y-59436000D01*
X72913613Y-59188267D01*
X72852586Y-58947278D01*
X72752730Y-58719630D01*
X72652434Y-58566116D01*
X71782553Y-59436000D01*
X71782553Y-59436001D01*
X71075447Y-59436001D01*
X71075447Y-59436000D01*
X70205564Y-58566116D01*
X70105266Y-58719634D01*
X70005413Y-58947278D01*
X69944386Y-59188267D01*
X69923858Y-59435999D01*
X68434643Y-59435999D01*
X68414108Y-59188183D01*
X68414108Y-59188179D01*
X68353063Y-58947119D01*
X68253173Y-58719393D01*
X68117164Y-58511215D01*
X67948744Y-58328262D01*
X67926612Y-58311036D01*
X67799873Y-58212390D01*
X70558942Y-58212390D01*
X71429000Y-59082447D01*
X71429001Y-59082447D01*
X72196686Y-58314761D01*
X108113790Y-58314761D01*
X108113791Y-58314762D01*
X108152834Y-58345151D01*
X108364539Y-58459719D01*
X108592207Y-58537880D01*
X108829642Y-58577500D01*
X109070358Y-58577500D01*
X109307792Y-58537880D01*
X109535460Y-58459719D01*
X109747166Y-58345151D01*
X109786207Y-58314762D01*
X109786208Y-58314760D01*
X108950001Y-57478553D01*
X108950000Y-57478553D01*
X108113790Y-58314761D01*
X72196686Y-58314761D01*
X72299057Y-58212390D01*
X72299056Y-58212388D01*
X72252235Y-58175947D01*
X72033606Y-58057631D01*
X71798493Y-57976916D01*
X71553293Y-57936000D01*
X71304707Y-57936000D01*
X71059506Y-57976916D01*
X70824393Y-58057631D01*
X70605764Y-58175946D01*
X70558942Y-58212388D01*
X70558942Y-58212390D01*
X67799873Y-58212390D01*
X67752514Y-58175529D01*
X67752510Y-58175526D01*
X67752509Y-58175526D01*
X67533810Y-58057172D01*
X67533806Y-58057170D01*
X67533805Y-58057170D01*
X67298615Y-57976429D01*
X67053335Y-57935500D01*
X66804665Y-57935500D01*
X66559384Y-57976429D01*
X66324194Y-58057170D01*
X66105485Y-58175529D01*
X65909259Y-58328259D01*
X65909256Y-58328261D01*
X65909256Y-58328262D01*
X65740837Y-58511214D01*
X65604825Y-58719395D01*
X65504938Y-58947117D01*
X65443891Y-59188183D01*
X65423356Y-59436000D01*
X65443891Y-59683816D01*
X65443891Y-59683819D01*
X65443892Y-59683821D01*
X65504937Y-59924881D01*
X65549960Y-60027523D01*
X65604825Y-60152604D01*
X65604827Y-60152607D01*
X65740836Y-60360785D01*
X65909256Y-60543738D01*
X65909259Y-60543740D01*
X66105485Y-60696470D01*
X66105487Y-60696471D01*
X66105491Y-60696474D01*
X66324190Y-60814828D01*
X66559386Y-60895571D01*
X66804665Y-60936500D01*
X67053335Y-60936500D01*
X67298614Y-60895571D01*
X67300035Y-60895083D01*
X67337017Y-60882386D01*
X67405229Y-60878857D01*
X67464962Y-60911986D01*
X70928295Y-64375319D01*
X70958545Y-64424682D01*
X70963087Y-64482398D01*
X70940932Y-64535885D01*
X70896909Y-64573485D01*
X70840614Y-64587000D01*
X68802130Y-64587000D01*
X68742515Y-64593409D01*
X68607669Y-64643704D01*
X68492454Y-64729954D01*
X68406204Y-64845168D01*
X68355909Y-64980016D01*
X68349500Y-65039630D01*
X68349500Y-67040369D01*
X68355909Y-67099984D01*
X68370777Y-67139846D01*
X68406204Y-67234831D01*
X68492454Y-67350046D01*
X68607669Y-67436296D01*
X68638314Y-67447726D01*
X68686130Y-67479838D01*
X68714279Y-67530091D01*
X68716687Y-67587640D01*
X68692833Y-67640069D01*
X68581929Y-67782559D01*
X68467319Y-67994340D01*
X68389134Y-68222084D01*
X68349500Y-68459601D01*
X68349500Y-68700399D01*
X68389134Y-68937915D01*
X68462614Y-69151954D01*
X68467321Y-69165664D01*
X68581928Y-69377439D01*
X68729829Y-69567463D01*
X68906990Y-69730551D01*
X68931387Y-69746490D01*
X68972619Y-69791280D01*
X68987564Y-69850297D01*
X68972619Y-69909314D01*
X68931387Y-69954106D01*
X68907294Y-69969846D01*
X68730201Y-70132873D01*
X68582348Y-70322835D01*
X68467780Y-70534539D01*
X68389619Y-70762207D01*
X68371633Y-70869999D01*
X68371634Y-70870000D01*
X71328366Y-70870000D01*
X71328366Y-70869999D01*
X71310380Y-70762207D01*
X71232219Y-70534539D01*
X71117651Y-70322835D01*
X70969798Y-70132873D01*
X70792704Y-69969846D01*
X70768614Y-69954107D01*
X70727380Y-69909315D01*
X70712435Y-69850297D01*
X70727381Y-69791279D01*
X70768612Y-69746490D01*
X70793010Y-69730551D01*
X70970171Y-69567463D01*
X71118072Y-69377439D01*
X71232679Y-69165664D01*
X71310866Y-68937913D01*
X71336974Y-68781454D01*
X71365492Y-68720752D01*
X71421451Y-68683778D01*
X71488478Y-68681352D01*
X71546963Y-68714185D01*
X85632681Y-82799902D01*
X85659561Y-82840130D01*
X85669000Y-82887583D01*
X85669000Y-102845374D01*
X85668773Y-102852861D01*
X85665706Y-102903589D01*
X85665195Y-102912029D01*
X85675879Y-102970332D01*
X85677006Y-102977735D01*
X85684152Y-103036583D01*
X85687643Y-103045788D01*
X85693668Y-103067400D01*
X85695442Y-103077083D01*
X85719772Y-103131143D01*
X85722630Y-103138044D01*
X85740592Y-103185404D01*
X85743656Y-103193482D01*
X85749249Y-103201585D01*
X85760273Y-103221132D01*
X85764311Y-103230104D01*
X85800863Y-103276759D01*
X85805303Y-103282793D01*
X85838979Y-103331582D01*
X85883352Y-103370893D01*
X85888805Y-103376027D01*
X96111207Y-113598429D01*
X96139227Y-113641508D01*
X96147374Y-113692248D01*
X96134250Y-113741933D01*
X96115037Y-113780040D01*
X96115037Y-113780041D01*
X96115036Y-113780043D01*
X96045776Y-114006203D01*
X96015733Y-114240815D01*
X96025771Y-114477129D01*
X96044932Y-114566036D01*
X96075603Y-114708350D01*
X96163793Y-114927821D01*
X96287804Y-115129227D01*
X96444074Y-115306784D01*
X96628101Y-115455377D01*
X96642895Y-115463641D01*
X96688010Y-115506881D01*
X96706309Y-115566632D01*
X96693144Y-115627720D01*
X96651858Y-115674630D01*
X96532932Y-115755009D01*
X96362168Y-115918672D01*
X96221522Y-116108840D01*
X96169420Y-116212178D01*
X96115036Y-116320043D01*
X96045776Y-116546203D01*
X96015733Y-116780815D01*
X96025771Y-117017129D01*
X96050915Y-117133796D01*
X96075603Y-117248350D01*
X96163793Y-117467821D01*
X96287804Y-117669227D01*
X96444074Y-117846784D01*
X96628101Y-117995377D01*
X96642895Y-118003641D01*
X96688010Y-118046881D01*
X96706309Y-118106632D01*
X96693144Y-118167720D01*
X96651858Y-118214630D01*
X96532932Y-118295009D01*
X96362168Y-118458672D01*
X96221522Y-118648840D01*
X96209213Y-118673254D01*
X96115036Y-118860043D01*
X96045776Y-119086203D01*
X96015733Y-119320815D01*
X96025771Y-119557129D01*
X96075603Y-119788348D01*
X96113626Y-119882974D01*
X96139321Y-119946919D01*
X96148259Y-119994030D01*
X96138654Y-120041010D01*
X96111943Y-120080833D01*
X91190097Y-125002681D01*
X91149869Y-125029561D01*
X91102416Y-125039000D01*
X77807583Y-125039000D01*
X77760130Y-125029561D01*
X77719902Y-125002681D01*
X74578060Y-121860838D01*
X75696234Y-121860838D01*
X75706268Y-122097062D01*
X75756084Y-122328204D01*
X75844240Y-122547591D01*
X75968211Y-122748933D01*
X76124423Y-122926424D01*
X76308379Y-123074959D01*
X76514801Y-123190273D01*
X76737739Y-123269042D01*
X76970777Y-123309000D01*
X77910007Y-123309000D01*
X78086589Y-123293970D01*
X78315405Y-123234391D01*
X78394901Y-123198456D01*
X78394902Y-123198455D01*
X77116447Y-121920000D01*
X77823553Y-121920000D01*
X78819376Y-122915824D01*
X78897454Y-122840994D01*
X79038047Y-122650898D01*
X79144497Y-122439769D01*
X79213733Y-122213692D01*
X79243765Y-121979161D01*
X79233731Y-121742937D01*
X79183915Y-121511795D01*
X79095759Y-121292408D01*
X78971788Y-121091066D01*
X78822317Y-120921234D01*
X77823553Y-121920000D01*
X77116447Y-121920000D01*
X76120622Y-120924175D01*
X76042545Y-120999004D01*
X75901952Y-121189101D01*
X75795502Y-121400230D01*
X75726266Y-121626307D01*
X75696234Y-121860838D01*
X74578060Y-121860838D01*
X73117319Y-120400097D01*
X73090439Y-120359869D01*
X73081000Y-120312416D01*
X73081000Y-113054626D01*
X73081226Y-113047139D01*
X73082111Y-113032508D01*
X73084805Y-112987972D01*
X73074114Y-112929636D01*
X73072994Y-112922274D01*
X73065848Y-112863418D01*
X73062359Y-112854219D01*
X73056331Y-112832593D01*
X73054558Y-112822916D01*
X73037724Y-112785512D01*
X73030227Y-112768854D01*
X73027360Y-112761933D01*
X73006344Y-112706518D01*
X73000751Y-112698415D01*
X72989724Y-112678862D01*
X72985688Y-112669895D01*
X72949140Y-112623245D01*
X72944700Y-112617211D01*
X72925384Y-112589227D01*
X72911020Y-112568417D01*
X72866630Y-112529091D01*
X72861192Y-112523971D01*
X69086027Y-108748805D01*
X69080893Y-108743352D01*
X69041582Y-108698979D01*
X68992793Y-108665303D01*
X68986759Y-108660863D01*
X68940104Y-108624311D01*
X68931132Y-108620273D01*
X68911585Y-108609249D01*
X68903482Y-108603656D01*
X68873223Y-108592180D01*
X68848044Y-108582630D01*
X68841143Y-108579772D01*
X68787083Y-108555442D01*
X68779311Y-108554018D01*
X68777398Y-108553667D01*
X68755788Y-108547643D01*
X68746583Y-108544152D01*
X68687735Y-108537006D01*
X68680334Y-108535879D01*
X68670827Y-108534137D01*
X68629486Y-108518561D01*
X68596229Y-108489481D01*
X68567431Y-108453370D01*
X68480217Y-108344007D01*
X68480216Y-108344006D01*
X68309081Y-108194490D01*
X68113989Y-108077927D01*
X68080402Y-108065322D01*
X68032822Y-108033298D01*
X68004742Y-107983288D01*
X68002170Y-107925993D01*
X68025654Y-107873668D01*
X68070167Y-107837512D01*
X68214153Y-107768172D01*
X68398005Y-107634596D01*
X68555052Y-107470338D01*
X68680246Y-107280677D01*
X68744194Y-107131062D01*
X68769562Y-107071712D01*
X68781170Y-107020855D01*
X68820131Y-106850154D01*
X68830327Y-106623129D01*
X68799822Y-106397932D01*
X68729596Y-106181800D01*
X68621908Y-105981681D01*
X68480217Y-105804007D01*
X68390251Y-105725406D01*
X68309081Y-105654490D01*
X68204203Y-105591828D01*
X68113992Y-105537929D01*
X68113990Y-105537928D01*
X68113988Y-105537927D01*
X68079755Y-105525079D01*
X68032175Y-105493054D01*
X68004095Y-105443045D01*
X68001523Y-105385750D01*
X68025007Y-105333425D01*
X68069525Y-105297265D01*
X68099349Y-105282902D01*
X67310000Y-104493553D01*
X66517646Y-105285904D01*
X66517647Y-105285905D01*
X66540220Y-105294377D01*
X66587799Y-105326401D01*
X66615879Y-105376410D01*
X66618453Y-105433705D01*
X66594968Y-105486030D01*
X66550451Y-105522190D01*
X66405847Y-105591827D01*
X66221992Y-105725406D01*
X66064949Y-105889660D01*
X66031552Y-105940253D01*
X65996466Y-105975368D01*
X65950420Y-105993908D01*
X65939658Y-105995880D01*
X65932266Y-105997005D01*
X65873418Y-106004152D01*
X65873416Y-106004152D01*
X65873413Y-106004153D01*
X65864203Y-106007645D01*
X65842604Y-106013666D01*
X65832916Y-106015441D01*
X65778865Y-106039768D01*
X65771956Y-106042630D01*
X65732914Y-106057437D01*
X65716515Y-106063657D01*
X65708415Y-106069248D01*
X65688876Y-106080268D01*
X65679897Y-106084309D01*
X65633237Y-106120863D01*
X65627211Y-106125297D01*
X65578418Y-106158979D01*
X65539105Y-106203352D01*
X65533973Y-106208803D01*
X64298804Y-107443972D01*
X64293352Y-107449104D01*
X64248980Y-107488415D01*
X64215298Y-107537212D01*
X64210861Y-107543243D01*
X64174312Y-107589894D01*
X64174312Y-107589895D01*
X64170269Y-107598875D01*
X64159252Y-107618409D01*
X64153656Y-107626515D01*
X64132632Y-107681950D01*
X64129768Y-107688864D01*
X64105441Y-107742917D01*
X64103666Y-107752604D01*
X64097645Y-107774203D01*
X64094153Y-107783413D01*
X64087006Y-107842266D01*
X64085879Y-107849668D01*
X64075195Y-107907971D01*
X64078774Y-107967139D01*
X64079000Y-107974626D01*
X64079000Y-118085374D01*
X64078774Y-118092861D01*
X64075195Y-118152029D01*
X51491000Y-118152029D01*
X51491000Y-104477584D01*
X51500439Y-104430131D01*
X51527319Y-104389903D01*
X51984307Y-103932915D01*
X53358587Y-102558633D01*
X53411493Y-102527291D01*
X53472953Y-102525222D01*
X53527850Y-102552935D01*
X53610918Y-102625509D01*
X53610919Y-102625510D01*
X53610922Y-102625512D01*
X53806008Y-102742071D01*
X53806011Y-102742072D01*
X53839596Y-102754677D01*
X53887176Y-102786700D01*
X53915256Y-102836709D01*
X53917830Y-102894005D01*
X53894345Y-102946330D01*
X53849828Y-102982490D01*
X53705847Y-103051827D01*
X53521992Y-103185406D01*
X53364947Y-103349661D01*
X53239753Y-103539324D01*
X53150437Y-103748287D01*
X53099869Y-103969845D01*
X53089672Y-104196869D01*
X53120177Y-104422067D01*
X53138216Y-104477584D01*
X53190404Y-104638200D01*
X53298092Y-104838319D01*
X53413177Y-104982630D01*
X53439783Y-105015993D01*
X53610918Y-105165509D01*
X53610919Y-105165510D01*
X53610922Y-105165512D01*
X53806008Y-105282071D01*
X53806011Y-105282072D01*
X53839596Y-105294677D01*
X53887176Y-105326700D01*
X53915256Y-105376709D01*
X53917830Y-105434005D01*
X53894345Y-105486330D01*
X53849828Y-105522490D01*
X53705847Y-105591827D01*
X53521992Y-105725406D01*
X53364947Y-105889661D01*
X53239753Y-106079324D01*
X53150437Y-106288287D01*
X53099869Y-106509845D01*
X53089672Y-106736869D01*
X53120177Y-106962067D01*
X53145534Y-107040105D01*
X53190404Y-107178200D01*
X53298092Y-107378319D01*
X53385891Y-107488415D01*
X53439783Y-107555993D01*
X53610918Y-107705509D01*
X53610919Y-107705510D01*
X53610922Y-107705512D01*
X53806008Y-107822071D01*
X53806011Y-107822072D01*
X53839596Y-107834677D01*
X53887176Y-107866700D01*
X53915256Y-107916709D01*
X53917830Y-107974005D01*
X53894345Y-108026330D01*
X53849828Y-108062490D01*
X53705847Y-108131827D01*
X53521992Y-108265406D01*
X53364947Y-108429661D01*
X53239753Y-108619324D01*
X53150437Y-108828287D01*
X53099869Y-109049845D01*
X53089672Y-109276869D01*
X53120177Y-109502067D01*
X53155803Y-109611711D01*
X53190404Y-109718200D01*
X53298092Y-109918319D01*
X53371476Y-110010339D01*
X53439783Y-110095993D01*
X53610918Y-110245509D01*
X53610919Y-110245510D01*
X53610922Y-110245512D01*
X53806008Y-110362071D01*
X53806011Y-110362072D01*
X53839596Y-110374677D01*
X53887176Y-110406700D01*
X53915256Y-110456709D01*
X53917830Y-110514005D01*
X53894345Y-110566330D01*
X53849828Y-110602490D01*
X53705847Y-110671827D01*
X53521992Y-110805406D01*
X53364947Y-110969661D01*
X53239753Y-111159324D01*
X53150437Y-111368287D01*
X53099869Y-111589845D01*
X53089672Y-111816869D01*
X53120177Y-112042067D01*
X53143405Y-112113553D01*
X53190404Y-112258200D01*
X53298092Y-112458319D01*
X53413177Y-112602630D01*
X53439783Y-112635993D01*
X53610918Y-112785509D01*
X53610919Y-112785510D01*
X53610922Y-112785512D01*
X53806008Y-112902071D01*
X53806011Y-112902072D01*
X53839596Y-112914677D01*
X53887176Y-112946700D01*
X53915256Y-112996709D01*
X53917830Y-113054005D01*
X53894345Y-113106330D01*
X53849828Y-113142490D01*
X53705847Y-113211827D01*
X53521992Y-113345406D01*
X53364947Y-113509661D01*
X53239753Y-113699324D01*
X53150437Y-113908287D01*
X53099869Y-114129845D01*
X53089672Y-114356869D01*
X53120177Y-114582067D01*
X53155803Y-114691711D01*
X53190404Y-114798200D01*
X53298092Y-114998319D01*
X53402488Y-115129227D01*
X53439783Y-115175993D01*
X53610918Y-115325509D01*
X53610919Y-115325510D01*
X53610922Y-115325512D01*
X53806008Y-115442071D01*
X53806009Y-115442071D01*
X53806012Y-115442073D01*
X54018770Y-115521922D01*
X54242372Y-115562500D01*
X54242373Y-115562500D01*
X54920696Y-115562500D01*
X54920699Y-115562500D01*
X55090339Y-115547232D01*
X55309404Y-115486774D01*
X55408264Y-115439165D01*
X55514150Y-115388174D01*
X55514153Y-115388172D01*
X55698005Y-115254596D01*
X55855052Y-115090338D01*
X55980246Y-114900677D01*
X56039789Y-114761366D01*
X56069562Y-114691712D01*
X56094587Y-114582068D01*
X56120131Y-114470154D01*
X56130327Y-114243129D01*
X56099822Y-114017932D01*
X56029596Y-113801800D01*
X55921908Y-113601681D01*
X55780217Y-113424007D01*
X55728327Y-113378672D01*
X55609081Y-113274490D01*
X55413989Y-113157927D01*
X55380402Y-113145322D01*
X55332822Y-113113298D01*
X55304742Y-113063288D01*
X55302170Y-113005993D01*
X55325654Y-112953668D01*
X55370167Y-112917512D01*
X55514153Y-112848172D01*
X55698005Y-112714596D01*
X55855052Y-112550338D01*
X55980246Y-112360677D01*
X56039789Y-112221366D01*
X56069562Y-112151712D01*
X56094587Y-112042068D01*
X56120131Y-111930154D01*
X56130327Y-111703129D01*
X56099822Y-111477932D01*
X56029596Y-111261800D01*
X55921908Y-111061681D01*
X55780217Y-110884007D01*
X55690251Y-110805406D01*
X55609081Y-110734490D01*
X55413989Y-110617927D01*
X55380402Y-110605322D01*
X55332822Y-110573298D01*
X55304742Y-110523288D01*
X55302170Y-110465993D01*
X55325654Y-110413668D01*
X55370167Y-110377512D01*
X55514153Y-110308172D01*
X55698005Y-110174596D01*
X55855052Y-110010338D01*
X55980246Y-109820677D01*
X56039789Y-109681366D01*
X56069562Y-109611712D01*
X56094587Y-109502068D01*
X56120131Y-109390154D01*
X56130327Y-109163129D01*
X56099822Y-108937932D01*
X56029596Y-108721800D01*
X55921908Y-108521681D01*
X55780217Y-108344007D01*
X55780216Y-108344006D01*
X55609081Y-108194490D01*
X55413989Y-108077927D01*
X55380402Y-108065322D01*
X55332822Y-108033298D01*
X55304742Y-107983288D01*
X55302170Y-107925993D01*
X55325654Y-107873668D01*
X55370167Y-107837512D01*
X55514153Y-107768172D01*
X55698005Y-107634596D01*
X55855052Y-107470338D01*
X55980246Y-107280677D01*
X56044194Y-107131062D01*
X56069562Y-107071712D01*
X56081170Y-107020855D01*
X56120131Y-106850154D01*
X56130327Y-106623129D01*
X56099822Y-106397932D01*
X56029596Y-106181800D01*
X55921908Y-105981681D01*
X55780217Y-105804007D01*
X55690251Y-105725406D01*
X55609081Y-105654490D01*
X55413989Y-105537927D01*
X55380402Y-105525322D01*
X55332822Y-105493298D01*
X55304742Y-105443288D01*
X55302170Y-105385993D01*
X55325654Y-105333668D01*
X55370167Y-105297512D01*
X55514153Y-105228172D01*
X55698005Y-105094596D01*
X55855052Y-104930338D01*
X55980246Y-104740677D01*
X56039789Y-104601366D01*
X56069562Y-104531712D01*
X56094587Y-104422068D01*
X56120131Y-104310154D01*
X56125220Y-104196846D01*
X65790174Y-104196846D01*
X65820668Y-104421957D01*
X65890864Y-104638000D01*
X65998513Y-104838045D01*
X66113815Y-104982630D01*
X66113816Y-104982630D01*
X66956447Y-104140001D01*
X67663553Y-104140001D01*
X68505251Y-104981699D01*
X68505252Y-104981698D01*
X68554659Y-104930025D01*
X68679802Y-104740439D01*
X68769085Y-104531555D01*
X68819632Y-104310087D01*
X68829825Y-104083153D01*
X68799331Y-103858042D01*
X68729135Y-103641999D01*
X68621486Y-103441954D01*
X68506183Y-103297368D01*
X67663553Y-104140000D01*
X67663553Y-104140001D01*
X66956447Y-104140001D01*
X66956447Y-104140000D01*
X66114747Y-103298299D01*
X66114746Y-103298299D01*
X66065341Y-103349974D01*
X65940197Y-103539560D01*
X65850914Y-103748444D01*
X65800367Y-103969912D01*
X65790174Y-104196846D01*
X56125220Y-104196846D01*
X56130327Y-104083129D01*
X56099822Y-103857932D01*
X56029596Y-103641800D01*
X55921908Y-103441681D01*
X55780217Y-103264007D01*
X55741412Y-103230104D01*
X55609081Y-103114490D01*
X55413989Y-102997927D01*
X55380402Y-102985322D01*
X55332822Y-102953298D01*
X55304742Y-102903288D01*
X55302170Y-102845993D01*
X55325654Y-102793668D01*
X55370167Y-102757512D01*
X55514153Y-102688172D01*
X55698005Y-102554596D01*
X55855052Y-102390338D01*
X55980246Y-102200677D01*
X56039789Y-102061366D01*
X56069562Y-101991712D01*
X56091910Y-101893796D01*
X56120131Y-101770154D01*
X56125219Y-101656869D01*
X65789672Y-101656869D01*
X65820177Y-101882067D01*
X65838216Y-101937584D01*
X65890404Y-102098200D01*
X65998092Y-102298319D01*
X66071476Y-102390339D01*
X66139783Y-102475993D01*
X66310918Y-102625509D01*
X66310919Y-102625510D01*
X66310922Y-102625512D01*
X66506008Y-102742071D01*
X66540243Y-102754919D01*
X66587821Y-102786942D01*
X66615902Y-102836951D01*
X66618476Y-102894247D01*
X66594992Y-102946572D01*
X66550474Y-102982732D01*
X66520649Y-102997094D01*
X66520648Y-102997096D01*
X67310000Y-103786447D01*
X67310001Y-103786447D01*
X68102352Y-102994094D01*
X68102351Y-102994093D01*
X68079780Y-102985622D01*
X68032200Y-102953598D01*
X68004120Y-102903589D01*
X68001547Y-102846293D01*
X68025032Y-102793969D01*
X68069550Y-102757809D01*
X68074600Y-102755377D01*
X68214153Y-102688172D01*
X68398005Y-102554596D01*
X68555052Y-102390338D01*
X68680246Y-102200677D01*
X68739789Y-102061366D01*
X68769562Y-101991712D01*
X68791910Y-101893796D01*
X68820131Y-101770154D01*
X68830327Y-101543129D01*
X68799822Y-101317932D01*
X68729596Y-101101800D01*
X68621908Y-100901681D01*
X68480217Y-100724007D01*
X68390251Y-100645406D01*
X68309081Y-100574490D01*
X68113987Y-100457926D01*
X67901229Y-100378077D01*
X67677628Y-100337500D01*
X67677627Y-100337500D01*
X66999301Y-100337500D01*
X66926598Y-100344043D01*
X66829657Y-100352768D01*
X66610594Y-100413226D01*
X66405849Y-100511825D01*
X66221992Y-100645406D01*
X66064947Y-100809661D01*
X65939753Y-100999324D01*
X65850437Y-101208287D01*
X65799869Y-101429845D01*
X65789672Y-101656869D01*
X56125219Y-101656869D01*
X56130327Y-101543129D01*
X56099822Y-101317932D01*
X56029596Y-101101800D01*
X55921908Y-100901681D01*
X55780217Y-100724007D01*
X55690251Y-100645406D01*
X55609081Y-100574490D01*
X55413987Y-100457926D01*
X55201229Y-100378077D01*
X54977628Y-100337500D01*
X54977627Y-100337500D01*
X54299301Y-100337500D01*
X54226598Y-100344043D01*
X54129657Y-100352768D01*
X53910594Y-100413226D01*
X53705849Y-100511825D01*
X53521992Y-100645406D01*
X53364949Y-100809660D01*
X53331552Y-100860253D01*
X53296462Y-100895371D01*
X53250411Y-100913910D01*
X53239663Y-100915879D01*
X53232268Y-100917004D01*
X53173417Y-100924151D01*
X53164203Y-100927645D01*
X53142604Y-100933666D01*
X53132916Y-100935441D01*
X53078865Y-100959768D01*
X53071956Y-100962630D01*
X53032914Y-100977437D01*
X53016515Y-100983657D01*
X53008415Y-100989248D01*
X52988876Y-101000268D01*
X52979897Y-101004309D01*
X52933237Y-101040863D01*
X52927211Y-101045297D01*
X52878418Y-101078979D01*
X52839105Y-101123352D01*
X52833973Y-101128803D01*
X50328804Y-103633972D01*
X50323352Y-103639104D01*
X50278980Y-103678415D01*
X50245298Y-103727212D01*
X50240861Y-103733243D01*
X50204312Y-103779894D01*
X50204312Y-103779895D01*
X50200269Y-103788875D01*
X50189252Y-103808409D01*
X50183656Y-103816515D01*
X50162632Y-103871950D01*
X50159768Y-103878864D01*
X50135441Y-103932917D01*
X50133666Y-103942604D01*
X50127645Y-103964203D01*
X50124153Y-103973413D01*
X50117006Y-104032266D01*
X50115879Y-104039668D01*
X50105195Y-104097971D01*
X50108774Y-104157139D01*
X50109000Y-104164626D01*
X50109000Y-124435374D01*
X50108774Y-124442861D01*
X50105195Y-124502029D01*
X49530500Y-124502029D01*
X49530500Y-92709999D01*
X66104357Y-92709999D01*
X66124885Y-92931537D01*
X66185769Y-93145526D01*
X66284941Y-93344688D01*
X66419019Y-93522237D01*
X66583437Y-93672124D01*
X66772595Y-93789245D01*
X66772597Y-93789245D01*
X66772599Y-93789247D01*
X66980060Y-93869618D01*
X67198757Y-93910500D01*
X67421241Y-93910500D01*
X67421243Y-93910500D01*
X67639940Y-93869618D01*
X67847401Y-93789247D01*
X68036562Y-93672124D01*
X68200981Y-93522236D01*
X68335058Y-93344689D01*
X68434229Y-93145528D01*
X68495115Y-92931536D01*
X68515643Y-92710000D01*
X68505450Y-92600000D01*
X71184357Y-92600000D01*
X71204885Y-92821537D01*
X71265769Y-93035526D01*
X71364941Y-93234688D01*
X71499019Y-93412237D01*
X71663437Y-93562124D01*
X71852595Y-93679245D01*
X71852597Y-93679245D01*
X71852599Y-93679247D01*
X72060060Y-93759618D01*
X72278757Y-93800500D01*
X72278759Y-93800500D01*
X72451916Y-93800500D01*
X72499369Y-93809939D01*
X72539597Y-93836819D01*
X73153979Y-94451201D01*
X73159099Y-94456639D01*
X73198417Y-94501020D01*
X73229129Y-94522219D01*
X73247214Y-94534703D01*
X73253233Y-94539132D01*
X73275890Y-94556882D01*
X73299892Y-94575687D01*
X73299893Y-94575687D01*
X73299894Y-94575688D01*
X73308870Y-94579727D01*
X73328417Y-94590752D01*
X73336518Y-94596344D01*
X73391942Y-94617363D01*
X73398851Y-94620225D01*
X73452915Y-94644557D01*
X73462602Y-94646332D01*
X73484208Y-94652355D01*
X73493418Y-94655848D01*
X73552268Y-94662993D01*
X73559641Y-94664115D01*
X73617972Y-94674805D01*
X73677138Y-94671226D01*
X73684626Y-94671000D01*
X75813425Y-94671000D01*
X75873899Y-94686746D01*
X75919013Y-94729984D01*
X75967807Y-94809230D01*
X75967808Y-94809231D01*
X76124074Y-94986784D01*
X76308101Y-95135377D01*
X76322895Y-95143641D01*
X76368010Y-95186881D01*
X76386309Y-95246632D01*
X76373144Y-95307720D01*
X76331858Y-95354630D01*
X76212932Y-95435009D01*
X76042168Y-95598672D01*
X75901522Y-95788840D01*
X75849420Y-95892178D01*
X75795036Y-96000043D01*
X75725776Y-96226203D01*
X75695733Y-96460815D01*
X75705771Y-96697129D01*
X75730915Y-96813796D01*
X75755603Y-96928350D01*
X75843793Y-97147821D01*
X75967804Y-97349227D01*
X76124074Y-97526784D01*
X76308101Y-97675377D01*
X76322895Y-97683641D01*
X76368010Y-97726881D01*
X76386309Y-97786632D01*
X76373144Y-97847720D01*
X76331858Y-97894630D01*
X76212932Y-97975009D01*
X76042168Y-98138672D01*
X75901522Y-98328840D01*
X75795572Y-98538979D01*
X75795036Y-98540043D01*
X75725776Y-98766203D01*
X75695733Y-99000815D01*
X75705771Y-99237129D01*
X75730915Y-99353796D01*
X75755603Y-99468350D01*
X75843793Y-99687821D01*
X75967804Y-99889227D01*
X76124074Y-100066784D01*
X76308101Y-100215377D01*
X76322895Y-100223641D01*
X76368010Y-100266881D01*
X76386309Y-100326632D01*
X76373144Y-100387720D01*
X76331858Y-100434630D01*
X76212932Y-100515009D01*
X76042168Y-100678672D01*
X75901522Y-100868840D01*
X75854232Y-100962634D01*
X75795036Y-101080043D01*
X75725776Y-101306203D01*
X75695733Y-101540815D01*
X75705771Y-101777129D01*
X75728387Y-101882067D01*
X75755603Y-102008350D01*
X75843793Y-102227821D01*
X75967804Y-102429227D01*
X76124074Y-102606784D01*
X76308101Y-102755377D01*
X76322895Y-102763641D01*
X76368010Y-102806881D01*
X76386309Y-102866632D01*
X76373144Y-102927720D01*
X76331858Y-102974630D01*
X76212932Y-103055009D01*
X76042168Y-103218672D01*
X75901522Y-103408840D01*
X75849420Y-103512178D01*
X75795036Y-103620043D01*
X75725776Y-103846203D01*
X75695733Y-104080815D01*
X75705771Y-104317129D01*
X75728387Y-104422067D01*
X75755603Y-104548350D01*
X75843793Y-104767821D01*
X75967804Y-104969227D01*
X76124074Y-105146784D01*
X76308101Y-105295377D01*
X76322895Y-105303641D01*
X76368010Y-105346881D01*
X76386309Y-105406632D01*
X76373144Y-105467720D01*
X76331858Y-105514630D01*
X76212932Y-105595009D01*
X76042168Y-105758672D01*
X75901522Y-105948840D01*
X75854232Y-106042634D01*
X75795036Y-106160043D01*
X75725776Y-106386203D01*
X75695733Y-106620815D01*
X75705771Y-106857129D01*
X75712228Y-106887087D01*
X75755603Y-107088350D01*
X75843793Y-107307821D01*
X75967804Y-107509227D01*
X76124074Y-107686784D01*
X76308101Y-107835377D01*
X76322895Y-107843641D01*
X76368010Y-107886881D01*
X76386309Y-107946632D01*
X76373144Y-108007720D01*
X76331858Y-108054630D01*
X76212932Y-108135009D01*
X76042168Y-108298672D01*
X75901522Y-108488840D01*
X75795572Y-108698979D01*
X75795036Y-108700043D01*
X75725776Y-108926203D01*
X75695733Y-109160815D01*
X75705771Y-109397129D01*
X75728387Y-109502067D01*
X75755603Y-109628350D01*
X75843793Y-109847821D01*
X75967804Y-110049227D01*
X76124074Y-110226784D01*
X76308101Y-110375377D01*
X76322895Y-110383641D01*
X76368010Y-110426881D01*
X76386309Y-110486632D01*
X76373144Y-110547720D01*
X76331858Y-110594630D01*
X76212932Y-110675009D01*
X76042168Y-110838672D01*
X75901522Y-111028840D01*
X75849420Y-111132178D01*
X75795036Y-111240043D01*
X75725776Y-111466203D01*
X75695733Y-111700815D01*
X75705771Y-111937129D01*
X75728387Y-112042067D01*
X75755603Y-112168350D01*
X75843793Y-112387821D01*
X75967804Y-112589227D01*
X76071033Y-112706518D01*
X76124075Y-112766785D01*
X76147264Y-112785509D01*
X76308101Y-112915377D01*
X76322895Y-112923641D01*
X76368010Y-112966881D01*
X76386309Y-113026632D01*
X76373144Y-113087720D01*
X76331858Y-113134630D01*
X76212932Y-113215009D01*
X76042168Y-113378672D01*
X75901522Y-113568840D01*
X75884964Y-113601681D01*
X75795036Y-113780043D01*
X75725776Y-114006203D01*
X75695733Y-114240815D01*
X75705771Y-114477129D01*
X75724932Y-114566036D01*
X75755603Y-114708350D01*
X75843793Y-114927821D01*
X75967804Y-115129227D01*
X76124074Y-115306784D01*
X76308101Y-115455377D01*
X76322895Y-115463641D01*
X76368010Y-115506881D01*
X76386309Y-115566632D01*
X76373144Y-115627720D01*
X76331858Y-115674630D01*
X76212932Y-115755009D01*
X76042168Y-115918672D01*
X75901522Y-116108840D01*
X75849420Y-116212178D01*
X75795036Y-116320043D01*
X75725776Y-116546203D01*
X75695733Y-116780815D01*
X75705771Y-117017129D01*
X75730915Y-117133796D01*
X75755603Y-117248350D01*
X75843793Y-117467821D01*
X75967804Y-117669227D01*
X76124074Y-117846784D01*
X76308101Y-117995377D01*
X76322895Y-118003641D01*
X76368010Y-118046881D01*
X76386309Y-118106632D01*
X76373144Y-118167720D01*
X76331858Y-118214630D01*
X76212932Y-118295009D01*
X76042168Y-118458672D01*
X75901522Y-118648840D01*
X75889213Y-118673254D01*
X75795036Y-118860043D01*
X75725776Y-119086203D01*
X75695733Y-119320815D01*
X75705771Y-119557129D01*
X75730915Y-119673796D01*
X75755603Y-119788350D01*
X75843793Y-120007821D01*
X75967804Y-120209227D01*
X76124074Y-120386784D01*
X76308101Y-120535377D01*
X76409960Y-120592278D01*
X76514594Y-120650730D01*
X76522055Y-120653366D01*
X76549469Y-120663052D01*
X76595842Y-120692288D01*
X77469998Y-121566446D01*
X77469999Y-121566446D01*
X78347041Y-120689403D01*
X78383639Y-120664096D01*
X78531102Y-120597439D01*
X78727068Y-120464990D01*
X78897831Y-120301327D01*
X79038478Y-120111159D01*
X79144964Y-119899957D01*
X79214224Y-119673797D01*
X79244267Y-119439185D01*
X79234229Y-119202871D01*
X79184397Y-118971652D01*
X79096207Y-118752180D01*
X79096206Y-118752178D01*
X78972195Y-118550772D01*
X78815925Y-118373215D01*
X78631895Y-118224620D01*
X78617103Y-118216357D01*
X78571988Y-118173117D01*
X78553690Y-118113366D01*
X78566856Y-118052278D01*
X78608138Y-118005371D01*
X78727068Y-117924990D01*
X78897831Y-117761327D01*
X79038478Y-117571159D01*
X79144964Y-117359957D01*
X79214224Y-117133797D01*
X79244267Y-116899185D01*
X79234229Y-116662871D01*
X79184397Y-116431652D01*
X79096207Y-116212180D01*
X79096206Y-116212178D01*
X78972195Y-116010772D01*
X78815925Y-115833215D01*
X78631895Y-115684620D01*
X78617103Y-115676357D01*
X78571988Y-115633117D01*
X78553690Y-115573366D01*
X78566856Y-115512278D01*
X78608138Y-115465371D01*
X78727068Y-115384990D01*
X78897831Y-115221327D01*
X79038478Y-115031159D01*
X79144964Y-114819957D01*
X79214224Y-114593797D01*
X79244267Y-114359185D01*
X79234229Y-114122871D01*
X79184397Y-113891652D01*
X79096207Y-113672180D01*
X79089846Y-113661849D01*
X78972195Y-113470772D01*
X78815925Y-113293215D01*
X78631895Y-113144620D01*
X78617103Y-113136357D01*
X78571988Y-113093117D01*
X78553690Y-113033366D01*
X78566856Y-112972278D01*
X78608138Y-112925371D01*
X78727068Y-112844990D01*
X78897831Y-112681327D01*
X79038478Y-112491159D01*
X79144964Y-112279957D01*
X79214224Y-112053797D01*
X79244267Y-111819185D01*
X79234229Y-111582871D01*
X79184397Y-111351652D01*
X79096207Y-111132180D01*
X79052799Y-111061681D01*
X78972195Y-110930772D01*
X78815925Y-110753215D01*
X78631895Y-110604620D01*
X78617103Y-110596357D01*
X78571988Y-110553117D01*
X78553690Y-110493366D01*
X78566856Y-110432278D01*
X78608138Y-110385371D01*
X78727068Y-110304990D01*
X78897831Y-110141327D01*
X79038478Y-109951159D01*
X79144964Y-109739957D01*
X79214224Y-109513797D01*
X79244267Y-109279185D01*
X79234229Y-109042871D01*
X79184397Y-108811652D01*
X79096207Y-108592180D01*
X79088567Y-108579772D01*
X78972195Y-108390772D01*
X78815925Y-108213215D01*
X78631895Y-108064620D01*
X78617103Y-108056357D01*
X78571988Y-108013117D01*
X78553690Y-107953366D01*
X78566856Y-107892278D01*
X78608138Y-107845371D01*
X78727068Y-107764990D01*
X78897831Y-107601327D01*
X79038478Y-107411159D01*
X79144964Y-107199957D01*
X79214224Y-106973797D01*
X79244267Y-106739185D01*
X79234229Y-106502871D01*
X79184397Y-106271652D01*
X79096207Y-106052180D01*
X79096206Y-106052178D01*
X78972195Y-105850772D01*
X78815925Y-105673215D01*
X78631895Y-105524620D01*
X78617103Y-105516357D01*
X78571988Y-105473117D01*
X78553690Y-105413366D01*
X78566856Y-105352278D01*
X78608138Y-105305371D01*
X78727068Y-105224990D01*
X78897831Y-105061327D01*
X79038478Y-104871159D01*
X79144964Y-104659957D01*
X79214224Y-104433797D01*
X79244267Y-104199185D01*
X79234229Y-103962871D01*
X79184397Y-103731652D01*
X79096207Y-103512180D01*
X79052799Y-103441681D01*
X78972195Y-103310772D01*
X78815925Y-103133215D01*
X78631895Y-102984620D01*
X78617103Y-102976357D01*
X78571988Y-102933117D01*
X78553690Y-102873366D01*
X78566856Y-102812278D01*
X78608138Y-102765371D01*
X78727068Y-102684990D01*
X78897831Y-102521327D01*
X79038478Y-102331159D01*
X79144964Y-102119957D01*
X79214224Y-101893797D01*
X79244267Y-101659185D01*
X79234229Y-101422871D01*
X79184397Y-101191652D01*
X79096207Y-100972180D01*
X79096206Y-100972178D01*
X78972195Y-100770772D01*
X78815925Y-100593215D01*
X78631895Y-100444620D01*
X78617103Y-100436357D01*
X78571988Y-100393117D01*
X78553690Y-100333366D01*
X78566856Y-100272278D01*
X78608138Y-100225371D01*
X78727068Y-100144990D01*
X78897831Y-99981327D01*
X79038478Y-99791159D01*
X79144964Y-99579957D01*
X79214224Y-99353797D01*
X79244267Y-99119185D01*
X79234229Y-98882871D01*
X79184397Y-98651652D01*
X79096207Y-98432180D01*
X79090331Y-98422637D01*
X78972195Y-98230772D01*
X78815925Y-98053215D01*
X78631895Y-97904620D01*
X78617103Y-97896357D01*
X78571988Y-97853117D01*
X78553690Y-97793366D01*
X78566856Y-97732278D01*
X78608138Y-97685371D01*
X78727068Y-97604990D01*
X78897831Y-97441327D01*
X79038478Y-97251159D01*
X79144964Y-97039957D01*
X79214224Y-96813797D01*
X79244267Y-96579185D01*
X79234229Y-96342871D01*
X79184397Y-96111652D01*
X79096207Y-95892180D01*
X79096206Y-95892178D01*
X78972195Y-95690772D01*
X78815925Y-95513215D01*
X78631895Y-95364620D01*
X78617103Y-95356357D01*
X78571988Y-95313117D01*
X78553690Y-95253366D01*
X78566856Y-95192278D01*
X78608138Y-95145371D01*
X78727068Y-95064990D01*
X78897831Y-94901327D01*
X79038478Y-94711159D01*
X79144964Y-94499957D01*
X79214224Y-94273797D01*
X79244267Y-94039185D01*
X79234229Y-93802871D01*
X79184397Y-93571652D01*
X79180568Y-93562124D01*
X79139297Y-93459417D01*
X79096207Y-93352180D01*
X79091594Y-93344688D01*
X78972195Y-93150772D01*
X78815925Y-92973215D01*
X78631897Y-92824622D01*
X78425404Y-92709268D01*
X78390526Y-92696945D01*
X78344156Y-92667710D01*
X77470001Y-91793553D01*
X77470000Y-91793553D01*
X76592956Y-92670596D01*
X76556351Y-92695907D01*
X76408898Y-92762560D01*
X76212932Y-92895009D01*
X76042168Y-93058673D01*
X75908997Y-93238734D01*
X75865126Y-93275723D01*
X75809301Y-93289000D01*
X73997584Y-93289000D01*
X73950131Y-93279561D01*
X73909903Y-93252681D01*
X73605298Y-92948076D01*
X73572959Y-92891560D01*
X73573714Y-92826456D01*
X73575115Y-92821536D01*
X73595643Y-92600000D01*
X73575115Y-92378464D01*
X73543951Y-92268933D01*
X73514230Y-92164473D01*
X73415058Y-91965311D01*
X73280980Y-91787762D01*
X73116562Y-91637875D01*
X72927404Y-91520754D01*
X72894909Y-91508165D01*
X72732782Y-91445357D01*
X72684414Y-91411563D01*
X72668399Y-91380838D01*
X75696234Y-91380838D01*
X75706268Y-91617062D01*
X75756084Y-91848204D01*
X75844240Y-92067591D01*
X75968211Y-92268933D01*
X76117681Y-92438764D01*
X76117682Y-92438764D01*
X77116447Y-91440001D01*
X77116447Y-91440000D01*
X77823553Y-91440000D01*
X78819376Y-92435824D01*
X78897454Y-92360994D01*
X79038047Y-92170898D01*
X79144497Y-91959769D01*
X79213733Y-91733692D01*
X79243765Y-91499161D01*
X79233731Y-91262937D01*
X79183915Y-91031795D01*
X79095759Y-90812408D01*
X78971788Y-90611066D01*
X78822317Y-90441234D01*
X77823553Y-91440000D01*
X77116447Y-91440000D01*
X76120622Y-90444175D01*
X76042545Y-90519004D01*
X75901952Y-90709101D01*
X75795502Y-90920230D01*
X75726266Y-91146307D01*
X75696234Y-91380838D01*
X72668399Y-91380838D01*
X72657140Y-91359236D01*
X72657140Y-91300228D01*
X72684414Y-91247901D01*
X72732785Y-91214105D01*
X72927178Y-91138797D01*
X73116262Y-91021721D01*
X73280609Y-90871899D01*
X73414634Y-90694422D01*
X73513759Y-90495351D01*
X73566495Y-90310000D01*
X71213505Y-90310000D01*
X71266240Y-90495351D01*
X71365365Y-90694422D01*
X71499390Y-90871899D01*
X71663737Y-91021721D01*
X71852821Y-91138797D01*
X72047214Y-91214105D01*
X72095585Y-91247901D01*
X72122859Y-91300228D01*
X72122859Y-91359236D01*
X72095585Y-91411563D01*
X72047215Y-91445358D01*
X71984888Y-91469504D01*
X71852596Y-91520754D01*
X71663437Y-91637875D01*
X71499019Y-91787762D01*
X71364941Y-91965311D01*
X71265769Y-92164473D01*
X71204885Y-92378462D01*
X71184357Y-92600000D01*
X68505450Y-92600000D01*
X68495115Y-92488464D01*
X68458847Y-92360994D01*
X68434230Y-92274473D01*
X68335058Y-92075311D01*
X68200980Y-91897762D01*
X68036562Y-91747875D01*
X67847404Y-91630754D01*
X67812007Y-91617041D01*
X67653474Y-91555625D01*
X67605106Y-91521831D01*
X67577832Y-91469504D01*
X67577832Y-91410496D01*
X67605106Y-91358169D01*
X67653474Y-91324374D01*
X67847401Y-91249247D01*
X68036562Y-91132124D01*
X68086668Y-91086446D01*
X68200980Y-90982237D01*
X68200981Y-90982236D01*
X68335058Y-90804689D01*
X68434229Y-90605528D01*
X68495115Y-90391536D01*
X68515643Y-90170000D01*
X68495115Y-89948464D01*
X68472227Y-89868021D01*
X68455719Y-89810000D01*
X71213505Y-89810000D01*
X72140000Y-89810000D01*
X72140000Y-88885948D01*
X72640000Y-88885948D01*
X72640000Y-89810000D01*
X73566495Y-89810000D01*
X73513759Y-89624648D01*
X73414634Y-89425577D01*
X73280609Y-89248100D01*
X73116262Y-89098278D01*
X72927178Y-88981202D01*
X72719800Y-88900864D01*
X72640000Y-88885948D01*
X72140000Y-88885948D01*
X72060199Y-88900864D01*
X71852821Y-88981202D01*
X71663737Y-89098278D01*
X71499390Y-89248100D01*
X71365365Y-89425577D01*
X71266240Y-89624648D01*
X71213505Y-89810000D01*
X68455719Y-89810000D01*
X68434230Y-89734473D01*
X68335058Y-89535311D01*
X68200980Y-89357762D01*
X68036562Y-89207875D01*
X67847404Y-89090754D01*
X67786174Y-89067033D01*
X67639940Y-89010382D01*
X67421243Y-88969500D01*
X67198757Y-88969500D01*
X66980060Y-89010381D01*
X66980060Y-89010382D01*
X66772595Y-89090754D01*
X66583437Y-89207875D01*
X66419019Y-89357762D01*
X66284941Y-89535311D01*
X66185769Y-89734473D01*
X66124885Y-89948462D01*
X66109227Y-90117439D01*
X66104357Y-90170000D01*
X66108514Y-90214865D01*
X66124885Y-90391537D01*
X66185769Y-90605526D01*
X66284941Y-90804688D01*
X66419019Y-90982237D01*
X66583437Y-91132124D01*
X66606344Y-91146307D01*
X66772599Y-91249247D01*
X66966523Y-91324373D01*
X67014893Y-91358169D01*
X67042167Y-91410496D01*
X67042167Y-91469504D01*
X67014893Y-91521831D01*
X66966523Y-91555626D01*
X66835346Y-91606444D01*
X66772596Y-91630754D01*
X66583437Y-91747875D01*
X66419019Y-91897762D01*
X66284941Y-92075311D01*
X66185769Y-92274473D01*
X66124885Y-92488462D01*
X66104357Y-92709999D01*
X49530500Y-92709999D01*
X49530500Y-91359761D01*
X51233790Y-91359761D01*
X51233791Y-91359762D01*
X51272834Y-91390151D01*
X51484539Y-91504719D01*
X51712207Y-91582880D01*
X51949642Y-91622500D01*
X52190358Y-91622500D01*
X52427792Y-91582880D01*
X52655460Y-91504719D01*
X52867166Y-91390151D01*
X52906207Y-91359762D01*
X52906208Y-91359760D01*
X52070001Y-90523553D01*
X52070000Y-90523553D01*
X51233790Y-91359761D01*
X49530500Y-91359761D01*
X49530500Y-90170000D01*
X50612521Y-90170000D01*
X50632399Y-90409888D01*
X50691493Y-90643244D01*
X50788184Y-90863680D01*
X50880881Y-91005563D01*
X51716446Y-90170001D01*
X52423553Y-90170001D01*
X53259117Y-91005564D01*
X53351814Y-90863680D01*
X53448506Y-90643243D01*
X53507600Y-90409888D01*
X53527478Y-90170000D01*
X53507600Y-89930111D01*
X53448506Y-89696755D01*
X53351815Y-89476319D01*
X53259117Y-89334434D01*
X52423553Y-90170000D01*
X52423553Y-90170001D01*
X51716446Y-90170001D01*
X51716446Y-90170000D01*
X50880881Y-89334435D01*
X50788185Y-89476317D01*
X50691493Y-89696755D01*
X50632399Y-89930111D01*
X50612521Y-90170000D01*
X49530500Y-90170000D01*
X49530500Y-88980237D01*
X51233791Y-88980237D01*
X52070000Y-89816446D01*
X52070001Y-89816446D01*
X52906208Y-88980237D01*
X52867164Y-88949848D01*
X52665688Y-88840815D01*
X75695733Y-88840815D01*
X75705771Y-89077129D01*
X75730915Y-89193796D01*
X75755603Y-89308350D01*
X75843793Y-89527821D01*
X75967804Y-89729227D01*
X76124074Y-89906784D01*
X76308101Y-90055377D01*
X76411348Y-90113053D01*
X76514594Y-90170730D01*
X76549469Y-90183052D01*
X76595842Y-90212288D01*
X77470000Y-91086446D01*
X77470001Y-91086446D01*
X78347041Y-90209403D01*
X78383639Y-90184096D01*
X78531102Y-90117439D01*
X78727068Y-89984990D01*
X78897831Y-89821327D01*
X79038478Y-89631159D01*
X79144964Y-89419957D01*
X79214224Y-89193797D01*
X79244267Y-88959185D01*
X79234229Y-88722871D01*
X79184397Y-88491652D01*
X79096207Y-88272180D01*
X79096206Y-88272178D01*
X78972195Y-88070772D01*
X78815925Y-87893215D01*
X78631897Y-87744622D01*
X78568703Y-87709320D01*
X78521100Y-87661856D01*
X78505260Y-87596527D01*
X78525837Y-87532532D01*
X78565168Y-87498676D01*
X78563848Y-87496790D01*
X78655420Y-87432671D01*
X78759139Y-87360047D01*
X78920047Y-87199139D01*
X79050568Y-87012734D01*
X79146739Y-86806496D01*
X79205635Y-86586692D01*
X79225468Y-86360000D01*
X79205635Y-86133308D01*
X79146739Y-85913504D01*
X79050568Y-85707266D01*
X79038952Y-85690677D01*
X78920046Y-85520859D01*
X78805324Y-85406137D01*
X78774028Y-85353391D01*
X78771839Y-85292098D01*
X78799292Y-85237253D01*
X78849670Y-85202275D01*
X78982331Y-85152796D01*
X79097546Y-85066546D01*
X79183796Y-84951331D01*
X79234091Y-84816483D01*
X79240500Y-84756873D01*
X79240499Y-82883128D01*
X79234091Y-82823517D01*
X79183796Y-82688669D01*
X79097546Y-82573454D01*
X78982331Y-82487204D01*
X78847483Y-82436909D01*
X78787873Y-82430500D01*
X78787869Y-82430500D01*
X76152130Y-82430500D01*
X76092515Y-82436909D01*
X75957669Y-82487204D01*
X75842454Y-82573454D01*
X75756204Y-82688668D01*
X75705909Y-82823516D01*
X75699500Y-82883130D01*
X75699500Y-84756869D01*
X75704939Y-84807459D01*
X75705909Y-84816483D01*
X75756204Y-84951331D01*
X75842454Y-85066546D01*
X75957669Y-85152796D01*
X76090327Y-85202274D01*
X76140707Y-85237253D01*
X76168160Y-85292097D01*
X76165971Y-85353390D01*
X76134676Y-85406137D01*
X76019950Y-85520862D01*
X75889432Y-85707264D01*
X75793261Y-85913502D01*
X75734364Y-86133310D01*
X75714531Y-86360000D01*
X75734364Y-86586689D01*
X75793261Y-86806497D01*
X75889432Y-87012735D01*
X76019953Y-87199140D01*
X76180859Y-87360046D01*
X76376152Y-87496790D01*
X76374652Y-87498932D01*
X76411040Y-87529595D01*
X76432785Y-87590511D01*
X76420896Y-87654090D01*
X76378609Y-87703032D01*
X76212932Y-87815009D01*
X76042168Y-87978672D01*
X75901522Y-88168840D01*
X75849420Y-88272178D01*
X75795036Y-88380043D01*
X75725776Y-88606203D01*
X75695733Y-88840815D01*
X52665688Y-88840815D01*
X52655460Y-88835280D01*
X52427792Y-88757119D01*
X52190358Y-88717500D01*
X51949642Y-88717500D01*
X51712207Y-88757119D01*
X51484539Y-88835280D01*
X51272835Y-88949847D01*
X51233791Y-88980236D01*
X51233791Y-88980237D01*
X49530500Y-88980237D01*
X49530500Y-86360000D01*
X55612019Y-86360000D01*
X55631904Y-86599971D01*
X55631904Y-86599974D01*
X55631905Y-86599976D01*
X55691017Y-86833405D01*
X55787745Y-87053922D01*
X55919449Y-87255510D01*
X56082537Y-87432671D01*
X56272561Y-87580572D01*
X56484336Y-87695179D01*
X56712087Y-87773366D01*
X56949601Y-87813000D01*
X57190399Y-87813000D01*
X57427913Y-87773366D01*
X57655664Y-87695179D01*
X57867439Y-87580572D01*
X58057463Y-87432671D01*
X58220551Y-87255510D01*
X58352255Y-87053922D01*
X58448983Y-86833405D01*
X58508095Y-86599976D01*
X58527980Y-86360000D01*
X58508095Y-86120024D01*
X58448983Y-85886595D01*
X58352255Y-85666078D01*
X58220551Y-85464490D01*
X58057463Y-85287329D01*
X57867439Y-85139428D01*
X57655664Y-85024821D01*
X57655660Y-85024819D01*
X57655659Y-85024819D01*
X57427915Y-84946634D01*
X57190399Y-84907000D01*
X56949601Y-84907000D01*
X56712084Y-84946634D01*
X56484340Y-85024819D01*
X56484336Y-85024820D01*
X56484336Y-85024821D01*
X56407237Y-85066545D01*
X56272559Y-85139429D01*
X56082536Y-85287329D01*
X55919448Y-85464491D01*
X55787745Y-85666077D01*
X55691017Y-85886593D01*
X55631904Y-86120028D01*
X55612019Y-86360000D01*
X49530500Y-86360000D01*
X49530500Y-82550000D01*
X50612019Y-82550000D01*
X50631904Y-82789971D01*
X50631904Y-82789974D01*
X50631905Y-82789976D01*
X50640399Y-82823517D01*
X50691017Y-83023406D01*
X50701893Y-83048200D01*
X50787745Y-83243922D01*
X50919449Y-83445510D01*
X51082537Y-83622671D01*
X51272561Y-83770572D01*
X51484336Y-83885179D01*
X51712087Y-83963366D01*
X51949601Y-84003000D01*
X52190397Y-84003000D01*
X52190399Y-84003000D01*
X52278082Y-83988368D01*
X52336319Y-83992588D01*
X52386170Y-84022996D01*
X52687730Y-84324556D01*
X52687733Y-84324560D01*
X52696415Y-84333242D01*
X52826758Y-84463585D01*
X52860017Y-84484482D01*
X52871341Y-84492517D01*
X52902044Y-84517003D01*
X52923679Y-84527421D01*
X52937418Y-84534038D01*
X52949589Y-84540764D01*
X52982837Y-84561656D01*
X53019896Y-84574623D01*
X53032745Y-84579945D01*
X53068122Y-84596982D01*
X53106401Y-84605719D01*
X53119763Y-84609568D01*
X53156826Y-84622537D01*
X53162253Y-84623148D01*
X53195841Y-84626933D01*
X53209553Y-84629262D01*
X53247833Y-84638000D01*
X53294062Y-84638000D01*
X53432166Y-84638000D01*
X68537311Y-84638000D01*
X68591771Y-84650600D01*
X68635164Y-84685838D01*
X68690453Y-84756873D01*
X68729829Y-84807463D01*
X68906990Y-84970551D01*
X69108578Y-85102255D01*
X69329095Y-85198983D01*
X69562524Y-85258095D01*
X69634474Y-85264057D01*
X69742394Y-85273000D01*
X69742400Y-85273000D01*
X69957600Y-85273000D01*
X69957606Y-85273000D01*
X70055714Y-85264869D01*
X70137476Y-85258095D01*
X70370905Y-85198983D01*
X70591422Y-85102255D01*
X70793010Y-84970551D01*
X70970171Y-84807463D01*
X71118072Y-84617439D01*
X71232679Y-84405664D01*
X71310866Y-84177913D01*
X71350500Y-83940399D01*
X71350500Y-83699601D01*
X71310866Y-83462087D01*
X71232679Y-83234336D01*
X71118072Y-83022561D01*
X70970171Y-82832537D01*
X70969660Y-82832067D01*
X70848090Y-82720154D01*
X70793010Y-82669449D01*
X70793007Y-82669447D01*
X70793006Y-82669446D01*
X70768613Y-82653509D01*
X70727380Y-82608718D01*
X70712435Y-82549700D01*
X70727381Y-82490683D01*
X70768614Y-82445892D01*
X70792700Y-82430155D01*
X70969801Y-82267122D01*
X71117651Y-82077164D01*
X71232219Y-81865460D01*
X71310380Y-81637792D01*
X71328367Y-81530000D01*
X68371633Y-81530000D01*
X68389619Y-81637792D01*
X68467780Y-81865460D01*
X68582348Y-82077164D01*
X68730201Y-82267126D01*
X68907294Y-82430153D01*
X68931385Y-82445892D01*
X68972618Y-82490682D01*
X68987564Y-82549699D01*
X68972620Y-82608717D01*
X68931388Y-82653508D01*
X68906992Y-82669446D01*
X68765280Y-82799902D01*
X68730339Y-82832068D01*
X68729826Y-82832540D01*
X68635164Y-82954162D01*
X68591771Y-82989400D01*
X68537311Y-83002000D01*
X53730188Y-83002000D01*
X53682735Y-82992561D01*
X53642507Y-82965681D01*
X53545576Y-82868750D01*
X53516833Y-82823747D01*
X53509681Y-82770831D01*
X53527980Y-82550000D01*
X53508095Y-82310024D01*
X53448983Y-82076595D01*
X53352255Y-81856078D01*
X53220551Y-81654490D01*
X53057463Y-81477329D01*
X52867439Y-81329428D01*
X52655664Y-81214821D01*
X52655660Y-81214819D01*
X52655659Y-81214819D01*
X52427915Y-81136634D01*
X52190399Y-81097000D01*
X51949601Y-81097000D01*
X51712084Y-81136634D01*
X51484340Y-81214819D01*
X51484336Y-81214820D01*
X51484336Y-81214821D01*
X51377755Y-81272500D01*
X51272559Y-81329429D01*
X51082536Y-81477329D01*
X50919448Y-81654491D01*
X50787745Y-81856077D01*
X50691017Y-82076593D01*
X50631904Y-82310028D01*
X50612019Y-82550000D01*
X49530500Y-82550000D01*
X49530500Y-78739999D01*
X55612019Y-78739999D01*
X55631904Y-78979971D01*
X55691017Y-79213406D01*
X55734125Y-79311681D01*
X55787745Y-79433922D01*
X55919449Y-79635510D01*
X56082537Y-79812671D01*
X56272561Y-79960572D01*
X56484336Y-80075179D01*
X56712087Y-80153366D01*
X56949601Y-80193000D01*
X57190399Y-80193000D01*
X57427913Y-80153366D01*
X57655664Y-80075179D01*
X57867439Y-79960572D01*
X58057463Y-79812671D01*
X58220551Y-79635510D01*
X58352255Y-79433922D01*
X58448983Y-79213405D01*
X58508095Y-78979976D01*
X58527980Y-78740000D01*
X58508095Y-78500024D01*
X58448983Y-78266595D01*
X58352255Y-78046078D01*
X58220551Y-77844490D01*
X58057463Y-77667329D01*
X57867439Y-77519428D01*
X57655664Y-77404821D01*
X57655660Y-77404819D01*
X57655659Y-77404819D01*
X57427915Y-77326634D01*
X57190399Y-77287000D01*
X56949601Y-77287000D01*
X56712084Y-77326634D01*
X56484340Y-77404819D01*
X56484336Y-77404820D01*
X56484336Y-77404821D01*
X56368495Y-77467511D01*
X56272559Y-77519429D01*
X56082536Y-77667329D01*
X55919448Y-77844491D01*
X55787745Y-78046077D01*
X55691017Y-78266593D01*
X55631904Y-78500028D01*
X55612019Y-78739999D01*
X49530500Y-78739999D01*
X49530500Y-71240399D01*
X56919500Y-71240399D01*
X56959134Y-71477915D01*
X57037251Y-71705460D01*
X57037321Y-71705664D01*
X57151928Y-71917439D01*
X57299829Y-72107463D01*
X57476990Y-72270551D01*
X57678578Y-72402255D01*
X57899095Y-72498983D01*
X58132524Y-72558095D01*
X58204474Y-72564057D01*
X58312394Y-72573000D01*
X58312400Y-72573000D01*
X58527600Y-72573000D01*
X58527606Y-72573000D01*
X58625714Y-72564870D01*
X58707476Y-72558095D01*
X58940905Y-72498983D01*
X59161422Y-72402255D01*
X59363010Y-72270551D01*
X59540171Y-72107463D01*
X59688072Y-71917439D01*
X59802679Y-71705664D01*
X59880866Y-71477913D01*
X59881288Y-71475380D01*
X59882951Y-71471841D01*
X59884203Y-71468195D01*
X59884600Y-71468331D01*
X59909806Y-71414674D01*
X59965765Y-71377698D01*
X60032793Y-71375272D01*
X60091278Y-71408104D01*
X68034070Y-79350897D01*
X68142044Y-79437003D01*
X68279303Y-79503103D01*
X68330494Y-79548851D01*
X68349500Y-79614822D01*
X68349500Y-79740369D01*
X68351513Y-79759090D01*
X68355909Y-79799983D01*
X68406204Y-79934831D01*
X68492454Y-80050046D01*
X68607669Y-80136296D01*
X68638805Y-80147909D01*
X68686621Y-80180021D01*
X68714771Y-80230274D01*
X68717179Y-80287824D01*
X68693325Y-80340252D01*
X68582347Y-80482836D01*
X68467780Y-80694539D01*
X68389619Y-80922207D01*
X68371633Y-81029999D01*
X68371634Y-81030000D01*
X71328366Y-81030000D01*
X71328366Y-81029999D01*
X71310380Y-80922207D01*
X71232219Y-80694539D01*
X71117651Y-80482835D01*
X71006675Y-80340253D01*
X70982821Y-80287824D01*
X70985228Y-80230274D01*
X71013378Y-80180020D01*
X71061194Y-80147909D01*
X71092331Y-80136296D01*
X71207546Y-80050046D01*
X71293796Y-79934831D01*
X71344091Y-79799983D01*
X71350500Y-79740373D01*
X71350499Y-77739628D01*
X71344091Y-77680017D01*
X71293796Y-77545169D01*
X71207546Y-77429954D01*
X71092331Y-77343704D01*
X70957483Y-77293409D01*
X70897873Y-77287000D01*
X70897869Y-77287000D01*
X68802130Y-77287000D01*
X68742515Y-77293409D01*
X68607669Y-77343703D01*
X68607669Y-77343704D01*
X68540909Y-77393679D01*
X68487164Y-77416695D01*
X68428845Y-77412524D01*
X68378920Y-77382093D01*
X62366826Y-71370000D01*
X68371633Y-71370000D01*
X68389619Y-71477792D01*
X68467780Y-71705460D01*
X68582348Y-71917164D01*
X68730201Y-72107126D01*
X68907292Y-72270151D01*
X69108819Y-72401815D01*
X69329255Y-72498506D01*
X69562606Y-72557599D01*
X69600000Y-72560697D01*
X69600000Y-71370000D01*
X70100000Y-71370000D01*
X70100000Y-72560697D01*
X70137393Y-72557599D01*
X70370744Y-72498506D01*
X70591180Y-72401815D01*
X70792707Y-72270151D01*
X70969798Y-72107126D01*
X71117651Y-71917164D01*
X71232219Y-71705460D01*
X71310380Y-71477792D01*
X71328367Y-71370000D01*
X70100000Y-71370000D01*
X69600000Y-71370000D01*
X68371633Y-71370000D01*
X62366826Y-71370000D01*
X59933703Y-68936877D01*
X59903296Y-68887026D01*
X59899075Y-68828789D01*
X59920500Y-68700399D01*
X59920500Y-68459601D01*
X59880866Y-68222087D01*
X59802679Y-67994336D01*
X59688072Y-67782561D01*
X59577165Y-67640067D01*
X59553312Y-67587641D01*
X59555720Y-67530091D01*
X59583870Y-67479838D01*
X59631685Y-67447726D01*
X59662331Y-67436296D01*
X59777546Y-67350046D01*
X59807524Y-67310000D01*
X62294357Y-67310000D01*
X62314885Y-67531537D01*
X62375769Y-67745526D01*
X62474941Y-67944688D01*
X62609019Y-68122237D01*
X62773437Y-68272124D01*
X62962595Y-68389245D01*
X62962597Y-68389245D01*
X62962599Y-68389247D01*
X63170060Y-68469618D01*
X63388757Y-68510500D01*
X63611241Y-68510500D01*
X63611243Y-68510500D01*
X63829940Y-68469618D01*
X64037401Y-68389247D01*
X64226562Y-68272124D01*
X64390981Y-68122236D01*
X64525058Y-67944689D01*
X64624229Y-67745528D01*
X64685115Y-67531536D01*
X64705643Y-67310000D01*
X64685115Y-67088464D01*
X64636696Y-66918289D01*
X64624230Y-66874473D01*
X64525058Y-66675311D01*
X64390980Y-66497762D01*
X64226562Y-66347875D01*
X64037404Y-66230754D01*
X64002007Y-66217041D01*
X63843474Y-66155625D01*
X63795106Y-66121831D01*
X63767832Y-66069504D01*
X63767832Y-66010496D01*
X63795106Y-65958169D01*
X63843474Y-65924374D01*
X64037401Y-65849247D01*
X64226562Y-65732124D01*
X64390981Y-65582236D01*
X64525058Y-65404689D01*
X64624229Y-65205528D01*
X64685115Y-64991536D01*
X64705643Y-64770000D01*
X64685115Y-64548464D01*
X64632851Y-64364774D01*
X64624230Y-64334473D01*
X64525058Y-64135311D01*
X64390980Y-63957762D01*
X64226562Y-63807875D01*
X64037404Y-63690754D01*
X63976174Y-63667033D01*
X63829940Y-63610382D01*
X63611243Y-63569500D01*
X63388757Y-63569500D01*
X63170059Y-63610382D01*
X63170060Y-63610382D01*
X62962595Y-63690754D01*
X62773437Y-63807875D01*
X62609019Y-63957762D01*
X62474941Y-64135311D01*
X62375769Y-64334473D01*
X62314885Y-64548462D01*
X62294357Y-64770000D01*
X62314885Y-64991537D01*
X62375769Y-65205526D01*
X62474941Y-65404688D01*
X62609019Y-65582237D01*
X62773437Y-65732124D01*
X62927209Y-65827334D01*
X62962599Y-65849247D01*
X63156523Y-65924373D01*
X63204893Y-65958169D01*
X63232167Y-66010496D01*
X63232167Y-66069504D01*
X63204893Y-66121831D01*
X63156523Y-66155626D01*
X63025346Y-66206444D01*
X62962596Y-66230754D01*
X62773437Y-66347875D01*
X62609019Y-66497762D01*
X62474941Y-66675311D01*
X62375769Y-66874473D01*
X62314885Y-67088462D01*
X62294357Y-67310000D01*
X59807524Y-67310000D01*
X59863796Y-67234831D01*
X59914091Y-67099983D01*
X59920500Y-67040373D01*
X59920499Y-65039628D01*
X59914091Y-64980017D01*
X59863796Y-64845169D01*
X59777546Y-64729954D01*
X59662331Y-64643704D01*
X59527483Y-64593409D01*
X59467873Y-64587000D01*
X59467869Y-64587000D01*
X57372130Y-64587000D01*
X57312515Y-64593409D01*
X57177669Y-64643704D01*
X57062454Y-64729954D01*
X56976204Y-64845168D01*
X56925909Y-64980016D01*
X56919500Y-65039630D01*
X56919500Y-67040369D01*
X56925909Y-67099984D01*
X56940777Y-67139846D01*
X56976204Y-67234831D01*
X57062454Y-67350046D01*
X57177669Y-67436296D01*
X57208314Y-67447726D01*
X57256130Y-67479838D01*
X57284279Y-67530091D01*
X57286687Y-67587640D01*
X57262833Y-67640069D01*
X57151929Y-67782559D01*
X57037319Y-67994340D01*
X56959134Y-68222084D01*
X56919500Y-68459601D01*
X56919500Y-68700399D01*
X56959134Y-68937915D01*
X57032614Y-69151954D01*
X57037321Y-69165664D01*
X57151928Y-69377439D01*
X57299829Y-69567463D01*
X57476990Y-69730551D01*
X57495508Y-69742649D01*
X57500930Y-69746192D01*
X57542162Y-69790983D01*
X57557107Y-69850000D01*
X57542162Y-69909017D01*
X57500930Y-69953808D01*
X57476991Y-69969448D01*
X57299829Y-70132536D01*
X57151929Y-70322559D01*
X57037319Y-70534340D01*
X56959134Y-70762084D01*
X56919500Y-70999601D01*
X56919500Y-71240399D01*
X49530500Y-71240399D01*
X49530500Y-62234874D01*
X49530882Y-62225148D01*
X49531335Y-62219382D01*
X49534959Y-62173342D01*
X49535005Y-62172790D01*
X49547286Y-62032416D01*
X49550235Y-62014305D01*
X49569162Y-61935469D01*
X49569901Y-61932559D01*
X49598133Y-61827196D01*
X49603343Y-61811848D01*
X49636637Y-61731469D01*
X49638754Y-61726656D01*
X49682336Y-61633196D01*
X49688954Y-61620878D01*
X49735572Y-61544806D01*
X49739673Y-61538552D01*
X49797608Y-61455812D01*
X49804843Y-61446468D01*
X49863323Y-61377996D01*
X49869883Y-61370900D01*
X49940900Y-61299883D01*
X49947996Y-61293323D01*
X50016468Y-61234843D01*
X50025812Y-61227608D01*
X50108552Y-61169673D01*
X50114806Y-61165572D01*
X50190878Y-61118954D01*
X50203196Y-61112336D01*
X50296656Y-61068754D01*
X50301469Y-61066637D01*
X50381853Y-61033341D01*
X50397196Y-61028133D01*
X50502559Y-60999901D01*
X50505469Y-60999162D01*
X50584305Y-60980235D01*
X50602416Y-60977286D01*
X50742790Y-60965005D01*
X50743342Y-60964959D01*
X50789382Y-60961335D01*
X50795148Y-60960882D01*
X50804874Y-60960500D01*
X60935240Y-60960500D01*
X60935383Y-60960528D01*
X60935384Y-60960524D01*
X60959997Y-60960539D01*
X60960000Y-60960541D01*
X60960383Y-60960383D01*
X60960500Y-60960099D01*
X60960541Y-60960000D01*
X60960541Y-60935446D01*
X60960500Y-60935240D01*
X60960500Y-57124999D01*
X107492521Y-57124999D01*
X107512399Y-57364888D01*
X107571493Y-57598244D01*
X107668184Y-57818680D01*
X107760881Y-57960563D01*
X108596446Y-57125001D01*
X109303553Y-57125001D01*
X110139117Y-57960564D01*
X110231814Y-57818680D01*
X110328506Y-57598243D01*
X110387600Y-57364888D01*
X110407478Y-57124999D01*
X110387600Y-56885111D01*
X110328506Y-56651755D01*
X110231815Y-56431319D01*
X110139117Y-56289434D01*
X109303553Y-57125000D01*
X109303553Y-57125001D01*
X108596446Y-57125001D01*
X108596446Y-57125000D01*
X107760881Y-56289435D01*
X107668185Y-56431317D01*
X107571493Y-56651755D01*
X107512399Y-56885111D01*
X107492521Y-57124999D01*
X60960500Y-57124999D01*
X60960500Y-55935237D01*
X108113791Y-55935237D01*
X108950000Y-56771446D01*
X108950001Y-56771446D01*
X109786208Y-55935237D01*
X109747164Y-55904848D01*
X109535460Y-55790280D01*
X109307792Y-55712119D01*
X109070358Y-55672500D01*
X108829642Y-55672500D01*
X108592207Y-55712119D01*
X108364539Y-55790280D01*
X108152835Y-55904847D01*
X108113791Y-55935236D01*
X108113791Y-55935237D01*
X60960500Y-55935237D01*
X60960500Y-52936000D01*
X65423356Y-52936000D01*
X65443891Y-53183816D01*
X65443891Y-53183819D01*
X65443892Y-53183821D01*
X65504937Y-53424881D01*
X65520421Y-53460180D01*
X65604825Y-53652604D01*
X65604827Y-53652607D01*
X65740836Y-53860785D01*
X65909256Y-54043738D01*
X65909259Y-54043740D01*
X66105485Y-54196470D01*
X66105487Y-54196471D01*
X66105491Y-54196474D01*
X66324190Y-54314828D01*
X66559386Y-54395571D01*
X66804665Y-54436500D01*
X67053335Y-54436500D01*
X67298614Y-54395571D01*
X67533810Y-54314828D01*
X67752509Y-54196474D01*
X67799872Y-54159610D01*
X70558942Y-54159610D01*
X70605766Y-54196055D01*
X70824393Y-54314368D01*
X71059506Y-54395083D01*
X71304707Y-54436000D01*
X71553293Y-54436000D01*
X71798493Y-54395083D01*
X72033606Y-54314368D01*
X72252233Y-54196053D01*
X72299056Y-54159609D01*
X71429000Y-53289553D01*
X70558942Y-54159609D01*
X70558942Y-54159610D01*
X67799872Y-54159610D01*
X67948744Y-54043738D01*
X68117164Y-53860785D01*
X68253173Y-53652607D01*
X68353063Y-53424881D01*
X68414108Y-53183821D01*
X68434643Y-52936000D01*
X69923858Y-52936000D01*
X69944386Y-53183732D01*
X70005413Y-53424721D01*
X70105268Y-53652370D01*
X70205563Y-53805882D01*
X70205564Y-53805882D01*
X71075447Y-52936001D01*
X71782553Y-52936001D01*
X72652434Y-53805882D01*
X72752730Y-53652369D01*
X72852586Y-53424721D01*
X72913613Y-53183732D01*
X72934141Y-52936000D01*
X72913613Y-52688267D01*
X72852586Y-52447278D01*
X72752730Y-52219630D01*
X72690905Y-52125000D01*
X103682019Y-52125000D01*
X103701904Y-52364971D01*
X103761017Y-52598406D01*
X103800397Y-52688183D01*
X103857745Y-52818922D01*
X103989449Y-53020510D01*
X104152537Y-53197671D01*
X104342561Y-53345572D01*
X104554336Y-53460179D01*
X104782087Y-53538366D01*
X105019601Y-53578000D01*
X105260399Y-53578000D01*
X105497913Y-53538366D01*
X105725664Y-53460179D01*
X105937439Y-53345572D01*
X106127463Y-53197671D01*
X106290551Y-53020510D01*
X106422255Y-52818922D01*
X106518983Y-52598405D01*
X106578095Y-52364976D01*
X106597980Y-52125000D01*
X106578095Y-51885024D01*
X106518983Y-51651595D01*
X106422255Y-51431078D01*
X106290551Y-51229490D01*
X106127463Y-51052329D01*
X105937439Y-50904428D01*
X105725664Y-50789821D01*
X105725660Y-50789819D01*
X105725659Y-50789819D01*
X105497915Y-50711634D01*
X105260399Y-50672000D01*
X105019601Y-50672000D01*
X104782084Y-50711634D01*
X104554340Y-50789819D01*
X104342559Y-50904429D01*
X104152536Y-51052329D01*
X103989448Y-51229491D01*
X103857745Y-51431077D01*
X103761017Y-51651593D01*
X103701904Y-51885028D01*
X103682019Y-52125000D01*
X72690905Y-52125000D01*
X72652434Y-52066116D01*
X71782553Y-52936000D01*
X71782553Y-52936001D01*
X71075447Y-52936001D01*
X71075447Y-52936000D01*
X70205564Y-52066116D01*
X70105266Y-52219634D01*
X70005413Y-52447278D01*
X69944386Y-52688267D01*
X69923858Y-52936000D01*
X68434643Y-52936000D01*
X68414108Y-52688179D01*
X68353063Y-52447119D01*
X68253173Y-52219393D01*
X68117164Y-52011215D01*
X67948744Y-51828262D01*
X67926612Y-51811036D01*
X67799873Y-51712390D01*
X70558942Y-51712390D01*
X71429000Y-52582447D01*
X71429001Y-52582447D01*
X72299057Y-51712390D01*
X72299056Y-51712388D01*
X72252235Y-51675947D01*
X72033606Y-51557631D01*
X71798493Y-51476916D01*
X71553293Y-51436000D01*
X71304707Y-51436000D01*
X71059506Y-51476916D01*
X70824393Y-51557631D01*
X70605764Y-51675946D01*
X70558942Y-51712388D01*
X70558942Y-51712390D01*
X67799873Y-51712390D01*
X67752514Y-51675529D01*
X67752510Y-51675526D01*
X67752509Y-51675526D01*
X67533810Y-51557172D01*
X67533806Y-51557170D01*
X67533805Y-51557170D01*
X67298615Y-51476429D01*
X67053335Y-51435500D01*
X66804665Y-51435500D01*
X66559384Y-51476429D01*
X66324194Y-51557170D01*
X66105485Y-51675529D01*
X65909259Y-51828259D01*
X65740837Y-52011214D01*
X65604825Y-52219395D01*
X65504938Y-52447117D01*
X65443891Y-52688183D01*
X65423356Y-52936000D01*
X60960500Y-52936000D01*
X60960500Y-50804874D01*
X60960882Y-50795148D01*
X60961335Y-50789382D01*
X60964959Y-50743342D01*
X60965005Y-50742790D01*
X60977286Y-50602416D01*
X60980235Y-50584305D01*
X60999162Y-50505469D01*
X60999901Y-50502559D01*
X61028133Y-50397196D01*
X61033343Y-50381848D01*
X61066637Y-50301469D01*
X61068754Y-50296656D01*
X61112336Y-50203196D01*
X61118954Y-50190878D01*
X61165572Y-50114806D01*
X61169673Y-50108552D01*
X61227608Y-50025812D01*
X61234843Y-50016468D01*
X61293323Y-49947996D01*
X61299883Y-49940900D01*
X61370900Y-49869883D01*
X61377996Y-49863323D01*
X61446468Y-49804843D01*
X61455812Y-49797608D01*
X61538552Y-49739673D01*
X61544806Y-49735572D01*
X61620878Y-49688954D01*
X61633196Y-49682336D01*
X61726656Y-49638754D01*
X61731469Y-49636637D01*
X61811853Y-49603341D01*
X61827196Y-49598133D01*
X61932559Y-49569901D01*
X61935469Y-49569162D01*
X62014305Y-49550235D01*
X62032416Y-49547286D01*
X62172790Y-49535005D01*
X62173342Y-49534959D01*
X62219382Y-49531335D01*
X62225148Y-49530882D01*
X62234874Y-49530500D01*
X113025126Y-49530500D01*
X113034853Y-49530882D01*
G37*
%TD.AperFunction*%
%TD*%
D26*
X49530000Y-62230000D02*
X49530000Y-143510000D01*
X50800000Y-144780000D02*
X60960000Y-144780000D01*
X50800000Y-60960000D02*
G75*
G03*
X49530000Y-62230000I0J-1270000D01*
G01*
X114300000Y-144780000D02*
X114300000Y-154940000D01*
X49530000Y-143510000D02*
G75*
G03*
X50800000Y-144780000I1270000J0D01*
G01*
X114300000Y-60960000D02*
X114300000Y-50800000D01*
X62230000Y-156210000D02*
X113030000Y-156210000D01*
X113030000Y-49530000D02*
X62230000Y-49530000D01*
X60960000Y-60960000D02*
X50800000Y-60960000D01*
X124460000Y-60960000D02*
X114300000Y-60960000D01*
X114300000Y-50800000D02*
G75*
G03*
X113030000Y-49530000I-1270000J0D01*
G01*
X60960000Y-60960000D02*
X60960000Y-50800000D01*
X124460000Y-144780000D02*
X114300000Y-144780000D01*
X62230000Y-49530000D02*
G75*
G03*
X60960000Y-50800000I0J-1270000D01*
G01*
X60960000Y-144780000D02*
X60960000Y-154940000D01*
X113030000Y-156210000D02*
G75*
G03*
X114300000Y-154940000I0J1270000D01*
G01*
X125730000Y-62230000D02*
G75*
G03*
X124460000Y-60960000I-1270000J0D01*
G01*
X125730000Y-143510000D02*
X125730000Y-62230000D01*
X124460000Y-144780000D02*
G75*
G03*
X125730000Y-143510000I0J1270000D01*
G01*
X60960000Y-154940000D02*
G75*
G03*
X62230000Y-156210000I1270000J0D01*
G01*
M02*
